<svg xmlns="http://www.w3.org/2000/svg" style="display: none;"><symbol id="blog-symbol" viewBox="0 0 533.333 533.333"><title>blog-symbol</title><path d="M200,100c128.867,0,233.333,104.468,233.333,233.333h-50c0-48.97-19.069-95.009-53.697-129.636 C295.009,169.07,248.97,150,200,150V100z M200,0c184.094,0,333.333,149.24,333.333,333.333h-50 c0-38.271-7.484-75.372-22.246-110.27c-14.267-33.733-34.703-64.04-60.74-90.077c-26.038-26.038-56.344-46.474-90.077-60.742 C275.373,57.484,238.272,50,200,50V0z M299.162,234.171c22.79,22.79,34.164,52.66,34.151,82.526 C300,366.695,300,433.333,300,433.333c-133.333,0-233.333,100-233.333,100l-7.292-7.291l-12.047-12.048l147.699-147.697 c1.623,0.241,3.282,0.37,4.973,0.37c18.409,0,33.333-14.925,33.333-33.334S218.409,300,200,300s-33.333,14.924-33.333,33.333 c0,1.691,0.128,3.352,0.371,4.973l-147.699,147.7L0,466.667c0,0,100-100,100-233.333c0,0,66.666,0,116.666-33.333 C246.524,200,276.381,211.391,299.162,234.171z"/></symbol><symbol id="blog-comment-speech-bubble-symbol" viewBox="0 0 67.025 67.026"><title>blog-comment-speech-bubble-symbol</title><polygon points="41.441,29.477 44.576,31.269 50.848,27.685 41.441,22.086 "/><path d="M60.48,18.052l2.24-4.031c1.791-3.137-3.359-6.721-5.824-8.063c-2.465-1.345-8.063-4.257-9.855-0.896l-3.137,5.376 c-3.137-0.672-6.721-1.12-10.304-1.12C15.008,9.317,0,19.398,0,31.718c0,12.318,15.008,22.398,33.6,22.398c0,0,0,0,0.225,0 c0.224,2.688-2.912,7.168-7.393,9.407c17.698,0,25.761-13.216,25.761-13.216c8.959-4.032,14.783-10.752,14.783-18.592 C67.424,26.565,64.736,21.861,60.48,18.052z M15.455,37.99c-1.792,0-3.136-1.346-3.136-3.138c0-1.792,1.344-3.136,3.136-3.136 s3.136,1.344,3.136,3.136C18.591,36.644,17.025,37.99,15.455,37.99z M23.743,37.99c-1.792,0-3.136-1.346-3.136-3.138 c0-1.792,1.344-3.136,3.136-3.136s3.136,1.344,3.136,3.136C26.879,36.644,25.535,37.99,23.743,37.99z M32.032,37.99 c-1.792,0-3.137-1.346-3.137-3.138c0-1.792,1.345-3.136,3.137-3.136s3.136,1.344,3.136,3.136 C35.168,36.644,33.824,37.99,32.032,37.99z M51.969,28.357l-6.496,3.584l-5.377,2.911v-6.047v-7.392l8.961-15.456 c0.447-0.896,3.584,0,6.943,1.792s5.6,4.031,4.928,4.928L51.969,28.357z"/></symbol><symbol id="post-it-with-a-heart" viewBox="0 0 45.73 45.73"><title>post-it-with-a-heart</title><path d="M21.368,21.057c-2.149-2.135-5.626-2.128-7.77,0.015c-2.148,2.151-2.148,5.636,0,7.786 c0.106,0.105,5.207,5.184,7.086,7.053c0.379,0.377,0.991,0.377,1.37,0c1.879-1.869,6.98-6.946,7.086-7.053 c2.15-2.149,2.15-5.635,0-7.786C26.995,18.929,23.521,18.922,21.368,21.057z"/><path d="M39.74,17.128c-0.308,0.182-0.631,0.338-0.979,0.437c-0.367,0.104-0.747,0.155-1.128,0.155 c-0.294,0-0.582-0.041-0.865-0.101l3.414,15.229c0.209,0.928,0.043,1.883-0.467,2.686c-0.511,0.805-1.302,1.363-2.23,1.57 l-24.675,5.533c-0.918,0.206-1.893,0.035-2.686-0.468c-0.804-0.511-1.362-1.302-1.569-2.229L4.023,19.724 c-0.43-1.917,0.78-3.826,2.697-4.256l20.833-4.671c-0.054-0.178-0.101-0.358-0.128-0.544c-0.137-0.908,0.039-1.824,0.473-2.616 L6.062,12.533c-3.535,0.792-5.767,4.313-4.974,7.849L5.62,40.597c0.384,1.714,1.412,3.173,2.894,4.112 c1.054,0.669,2.271,1.021,3.52,1.021c0.481,0,0.965-0.054,1.436-0.158l24.675-5.533c1.713-0.385,3.173-1.412,4.113-2.895 c0.938-1.481,1.245-3.242,0.86-4.955L39.74,17.128z"/><path d="M41.04,1.58C39.42,0.536,37.711,0,36.327,0c-1.13,0-2.044,0.358-2.515,1.088c-0.583,0.907-0.364,2.196,0.456,3.487 l-3.616,4.321c-0.211,0.253-0.304,0.584-0.255,0.911c0.051,0.324,0.237,0.614,0.514,0.792l1.411,0.909l-2.19,4.901 c-0.199,0.447-0.1,0.989,0.288,1.331c0.219,0.194,0.489,0.289,0.761,0.289c0.317,0,0.636-0.132,0.863-0.389l3.557-4.022 l1.411,0.911c0.187,0.12,0.402,0.182,0.622,0.182c0.104,0,0.209-0.014,0.312-0.043c0.317-0.089,0.579-0.312,0.725-0.607 l2.438-5.078c0.294,0.041,0.578,0.062,0.852,0.062c1.13,0,2.043-0.357,2.514-1.088C45.521,6.332,43.983,3.477,41.04,1.58z"/></symbol><symbol id="post-it" viewBox="0 0 512.013 512.013"><title>post-it</title><g> <g> <path d="M92.565,444.487L64.149,141.66c-1.344-14.165,6.72-27.264,20.075-32.555c4.544-1.813,7.275-6.464,6.656-11.307 c-0.64-4.843-4.48-8.64-9.344-9.216l-26.944-3.179c-5.76-0.704-11.136,3.456-11.84,9.28L0.085,436.017 c-0.363,2.816,0.448,5.675,2.219,7.915c1.749,2.24,4.331,3.669,7.168,4.011l71.253,8.149c0.405,0.043,0.811,0.064,1.216,0.064 c2.773,0,5.461-1.088,7.467-3.051C91.712,450.865,92.864,447.708,92.565,444.487z"/> </g> </g><g> <g> <path d="M511.936,436.017L473.002,124.7c-0.533-4.309-3.627-7.851-7.808-8.981c-4.203-1.173-8.619,0.405-11.264,3.861 c-18.197,23.979-47.595,35.413-78.464,27.115c-3.648-0.939-7.595,0.043-10.304,2.752l-33.195,33.195 c-12.075,12.075-33.173,12.075-45.248,0c-6.059-6.059-9.387-14.08-9.387-22.635s3.328-16.576,9.365-22.635l14.421-14.421 c3.2-3.2,4.032-8.107,2.069-12.203c-2.005-4.075-6.464-6.485-10.859-5.909L94.741,128.092c-5.76,0.683-9.92,5.824-9.365,11.584 l32,341.333c0.277,2.859,1.685,5.483,3.904,7.275c1.899,1.557,4.288,2.389,6.72,2.389c0.405,0,0.811-0.021,1.216-0.064 l373.333-42.667c2.837-0.32,5.419-1.771,7.168-4.011C511.488,441.692,512.277,438.833,511.936,436.017z"/> </g> </g><g> <g> <path d="M394.666,21.34c-29.419,0-53.333,23.936-53.333,53.333c0,10.859,3.285,20.928,8.875,29.376l-48.427,48.405 c-4.16,4.16-4.16,10.923,0,15.083c2.091,2.091,4.821,3.136,7.552,3.136c2.731,0,5.461-1.045,7.552-3.115l48.427-48.427 c8.427,5.589,18.496,8.875,29.355,8.875c29.419,0,53.333-23.936,53.333-53.333S424.085,21.34,394.666,21.34z"/> </g> </g></symbol><symbol id="quill-drawing-a-line" viewBox="0 0 331.331 331.331"><title>quill-drawing-a-line</title><path style="fill:#010002;" d="M30.421,317.462l4.422-17.661l-12.194-4.814l-8.376,13.804c0,0,4.618,12.526-0.511,22.539 C13.766,331.331,20.184,320.399,30.421,317.462z M22.229,309.358c1.501-0.615,3.231,0.087,3.851,1.561 c0.625,1.474-0.087,3.171-1.588,3.786c-1.501,0.615-3.231-0.087-3.851-1.561C20.01,311.664,20.723,309.967,22.229,309.358z"/><path style="fill:#010002;" d="M158.353,112.621c-35.115,28.8-81.086,88.124-120.073,157.423l-0.022-0.027l-6.815,12.026 l7.267,2.796l3.84-10.117c20.799-37.491,77.224-135.4,180.397-200.451c0,0,38.411-22.877,76.256-54.516 c-9.214,7.702-27.391,17.356-37.247,23.584C236.088,59.683,204.166,75.043,158.353,112.621z"/><path style="fill:#010002;" d="M33.2,215.365c-7.985,28.223-7.528,49.718-4.438,55.625h4.83 c13.337-27.625,77.572-127.693,117.554-159.016c41.424-32.455,73.378-51.339,100.253-65.111 c9.437-4.835,19.118-11.384,27.848-17.949c10.601-8.36,21.348-17.302,30.758-26.053L282.728,20.75L294.89,2.148L271.67,25.759 L286.78,0c-35.746,3.225-68.918,21.109-68.918,21.109c-13.271,15.741-23.959,40.782-23.959,40.782 c-0.37-12.521,8.11-31.481,8.11-31.481c-6.266,2.861-30.073,16.459-30.073,16.459c-11.645,9.66-15.262,35.06-15.262,35.06 c-2.214-10.019,5.526-29.333,5.526-29.333c-33.543,19.32-57.502,52.231-57.502,52.231c-16.584,32.553-2.948,57.953-8.11,51.872 c-5.162-6.081-4.052-28.261-4.052-28.261c-35.017,33.63-38.699,49.724-38.699,49.724c-5.896,14.31-11.058,52.59-11.058,52.59 c-3.318-3.579,0-23.611,0-23.611c-8.479,17.889-4.422,34.701-4.422,34.701C34.309,240.407,33.2,215.365,33.2,215.365z"/><path style="fill:#010002;" d="M310.01,14.191c0,0-13.483,13.065-30.758,26.053c-27.081,21.359-53.156,38.819-53.156,38.819 C123.945,139.425,67.025,237.932,48.212,271.708h10.002c3.535-2.834,8.844-4.971,31.014-11.389 c28.011-8.11,44.72-25.041,44.72-25.041s-25.553,14.31-37.595,12.88s-28.223,3.1-28.223,3.1s-6.179-2.861,24.291-7.392 s80.596-38.634,80.596-38.634s-19.167,7.87-28.011,7.152c-8.844-0.718-30.714,0-30.714,0c14.495-3.34,28.011-1.43,50.126-9.779 c22.115-8.349,20.886-7.631,20.886-7.631c25.063-8.349,35.474-34.342,35.474-34.342c-4.335,1.67-37.443,5.722-51.176,1.67 c-13.734-4.052-37.132,0-37.132,0c22.115-7.392,27.032-4.052,32.433-4.291c5.406-0.239,22.855,1.191,57.502-10.731 s44.475-26.711,44.475-26.711l-23.366,3.122c15.257-2.567,32.455-12.662,32.455-12.662c-10.568,2.861-27.032,4.291-27.032,4.291 c19.412-4.291,30.225-10.253,30.225-10.253c18.183-13.832,22.36-34.342,22.36-34.342c-25.803,8.822-46.194,4.77-46.194,4.77 c35.387-2.382,45.215-11.449,50.126-13.592c4.917-2.148,6.94-11.03,6.94-11.03c-17.878,6.44-38.15,7.511-38.15,7.511 c21.93-3.399,40.722-14.49,40.722-14.49V32.792c-8.479,4.83-23.399,8.588-23.399,8.588l23.219-15.023 C316.091,18.841,310.01,14.191,310.01,14.191z"/><polygon style="fill:#010002;" points="23.551,290.571 37.361,296.103 39.933,289.989 26.124,284.458 "/><path style="fill:#010002;" d="M177.036,285.458c-45.628,21.936-89.462,36.888-147.758,38.846c-5.439,0.185-5.466,5.624,0,5.439 c52.15-1.751,95.543-12.961,137.391-32.575c46.618-21.854,89.435-40.167,147.828-46.39c5.385-0.577,3.095-5.814-2.252-5.243 C260.531,251.051,218.514,265.519,177.036,285.458z"/></symbol><symbol id="hand-writing-with-ballpen" viewBox="0 0 368.562 368.562"><title>hand-writing-with-ballpen</title><path d="M351.846,309.606c0,0-1.537-27.405-52.007-41.805c-50.471-14.394-58.415-26.337-58.415-26.337 c-3.339-16.369,9.848-20.2,19.443-20.891l-45.864-92.363c-1.934,0.493-3.963,1.033-6.077,1.625l14.436,28.283 c1.388,2.72-0.162,6.194-3.53,7.914l-1.015,0.517c-1.147,0.585-2.396,0.897-3.604,0.897c-2.197,0-4.017-1.003-4.87-2.687 l-15.729-30.829c-53.701,15.268-63.428,15.378-104.342,24.521c-43.553,9.734-77.372,5.639-77.372,5.639s-18.957,99.917,0,99.412 c18.957-0.517,41.764,8.455,41.764,8.455c54.83,26.901,147.573,20.236,132.201,24.596c-15.372,4.348-20.242,7.938-18.705,24.079 c1.537,16.141,39.458,6.918,39.458,6.918s-1.537,6.148,5.122,19.215s53.803-17.931,53.803-17.931s-6.659,20.753,13.577,22.026 c20.242,1.285,19.215-19.984,23.827-20.236c4.611-0.265,15.63,1.537,15.63,1.537C362.097,339.066,351.846,309.606,351.846,309.606z "/><path d="M362.354,297.31c4.102-19.984-0.511-30.229-10.761-65.068c-10.25-34.852-24.085-42.021-58.925-69.688 c-23.202-18.429-25.977-34.563-43.991-37.852l56.409,115.328c3.23,4.624,5.338,9.397,6.659,13.613l7.266,14.855 c13.896,6.558,18.753,12.166,18.753,12.166c42.532,42.526,5.513,53.16,5.513,53.16C372.599,337.024,362.354,297.31,362.354,297.31z "/><polygon points="267.773,220.508 284.448,254.099 309.152,262.47 292.291,228.002 241.454,124.08 232.723,106.222 215.508,115.256 221.2,126.722 "/><path d="M213.855,111.929l17.24-9.041l2.756-1.444l2.744-1.444l0.564-0.297c-2.035-3.843-4.263-7.887-6.593-12.027 c-1.243-2.207-2.522-4.443-3.825-6.707C208.607,49.584,184.751,13.853,170.976,0l-7.785,4.083 c3.285,17.66,16.928,52.842,31.159,83.851l-1.654,0.868l-1.643,0.861l-2.071,1.087l5.059,9.926l1.741-0.91l1.646-0.862l1.646-0.868 c2.882,6.044,5.753,11.851,8.515,17.174l0.751-0.394l2.756-1.444L213.855,111.929z"/><path d="M181.289,82.428c-0.327-0.637-1.126-1.009-2.141-1.009c-0.727,0-1.489,0.189-2.207,0.559l-1.009,0.516 c-1.102,0.558-1.931,1.45-2.233,2.387c-0.124,0.363-0.201,0.897,0.051,1.384l23.869,46.792l15.462,30.301 c0.541,1.084,2.618,1.324,4.342,0.444l1.015-0.517c1.76-0.904,2.763-2.633,2.18-3.777l-14.705-28.832L181.289,82.428z"/><path d="M344.797,359.855c3.206-5.452-2.066-22.698-2.066-22.698c-12.664,1.693-23.442,0.288-23.442,0.288 c10.118,19.186,16.495,24.085,20.062,24.872l0.048,0.096c0.679,1.501,4.563,6.773,6.064,6.089s0.061-7.073-0.63-8.575 L344.797,359.855z"/></symbol><symbol id="paper-sheet-hand-drawn-interface-file-symbol" viewBox="0 0 467.098 467.098"><title>paper-sheet-hand-drawn-interface-file-symbol</title><path d="M399.697,108.075c-0.985-29.884-1.533-59.857-1.239-89.756c0.011-1.331-0.203-2.506-0.503-3.613 c0.59-6.515-3.244-13.396-11.593-13.177C281.035,4.291,175.733,0.168,70.401,0C61.634-0.015,57.8,7.686,58.881,14.439 c-0.353,1.176-0.591,2.44-0.577,3.88c1.592,125.685,5.909,306.275,6.048,431.985c0,2.813,0.799,5.109,2.079,6.917 c0.774,5.331,4.604,10.044,11.527,9.871c45.526-1.127,91.071-1.863,136.564-4.093c40.542-1.985,91.074,0.676,129.824-12.558 c13.721-4.688,25.999-11.613,36.521-21.643c19.235-18.337,25.802-42.949,27.457-68.888c1.594-24.912-1.341-51.039-1.925-73.991 C404.897,226.625,401.647,167.357,399.697,108.075z M333.049,342.662c-7.408,0.041-14.574,5.83-11.263,14.716 c6.662,17.885,9.709,40.096-0.533,57.198c-12.391,20.683-34.495,20.119-55.508,22.77c-12.857,1.62-26.517,0.762-39.476,1.133 c-10.077,0.284-137.763,3.397-137.763,3.895c-0.302-120.998-4.301-296.891-5.918-417.871c97.248,0.421,194.466,3.76,291.709,1.681 c-0.33,88.933,8.364,232.535,8.958,321.436c-15.087-4.753-30.676-6.769-46.778-5.692 C335.217,342.002,334.1,342.291,333.049,342.662z M342.55,425.352c9.765-16.635,12.207-37.063,7.124-59.193 c11.761,0.457,23.359,2.727,34.343,7.383c0.046,0.143,0.076,0.29,0.127,0.422C380.584,400.19,363.989,416.283,342.55,425.352z"/></symbol><symbol id="fountain-pen-close-up" viewBox="0 0 334.876 334.876"><title>fountain-pen-close-up</title><path style="fill:#010002;" d="M35.243,94.888c12.885,19.483,24.198,42.637,25.982,46.618c0.511,1.148,1.316,3.856,2.219,7.169 c6.282-8.877,13.946-16.214,23.105-21.599c13.07-7.68,28.093-10.845,44.312-10.084c-3.916-6.217-7.479-12.619-9.192-17.601 c-4.4-12.776-20.348-65.53-29.676-88.053c-9.323-22.523-44.834-6.494-65.47,5.238S4.73,42.765,6.829,46.747 C8.923,50.728,22.358,75.405,35.243,94.888z"/><path style="fill:#010002;" d="M114.37,167.478c27.446-11.313,33.314,2.41,33.314,2.41c8.697-8.066,2.622-17.601,2.622-17.601 s2.197-4.085-1.36-8.278c-2.176-2.556-9.187-11.835-15.322-21.582c-16.219-0.761-31.242,2.404-44.312,10.084 c-9.159,5.385-16.823,12.717-23.105,21.599c2.235,8.186,5.102,20.179,5.847,22.268c1.05,2.932,3.769,6.913,6.288,7.435 c2.513,0.522,3.981,2.932,3.981,2.932c3.247,6.598,13.407,7.016,13.407,7.016S86.919,178.791,114.37,167.478z"/><path style="fill:#010002;" d="M319.156,225.659c-8.409-6.576-19.662-9.736-28.631-15.556 c-23.187-15.044,6.848-28.903,16.79-37.867c16.883-15.219,21.316-32.754,14.326-54.048c-2.186-6.663-6.924-13.69-4.737-7.033 c11.95,36.42-26.026,53.825-45.313,74.189c-7.103,7.5-6.124,15.632,1.256,23.116c14.278,14.479,57.23,26.7,30.606,49.207 c-18.661,15.773-47.624,17.187-68.309,30.508c-2.796,1.8-3.122,6.641-0.31,8.61c20.315,14.207,48.44,10.786,68.456,23.687 c-34.527,10.389-70.746,3.612-106.252,0.359c0.141-1.006,0.016-1.86,0.016-1.86c-4.514-27.658-4.971-33.657-2.877-47.488 c2.094-13.826,0-15.088,0-15.088c-21.37-29.333-47.331-84.73-47.331-84.73c-3.459-5.76-17.182-8.202-34.152-0.631 c-17.601,7.859-16.344,18.645-16.344,18.645l29.86,88.026c1.05,2.828,5.869,4.188,5.869,4.188 c27.973,8.066,50.774,36.333,53.814,40.733c3.04,4.4,5.238,2.725,5.238,2.725l-32.623-73.063c-2.491-0.571-5.031-2.736-6.527-5.945 c-2.165-4.65-1.305-9.633,1.92-11.134c3.225-1.501,7.593,1.05,9.758,5.7c1.632,3.503,1.539,7.19,0.022,9.442l31.101,70.273 c-0.228-0.022-0.457-0.044-0.685-0.065c-6.94-0.598,0.343,8.262,19.842,10.71c43.458,5.455,60.455,5.118,102.336-3.753 c4.297-0.908,4.373-6.396,1.55-9.274c-18.547-18.928-45.704-14.892-67.939-25.232C278.173,281.1,355.778,254.301,319.156,225.659z"/></symbol><symbol id="nib" viewBox="0 0 319.286 319.286"><title>nib</title><path d="M86.798,248.52l-16.031-16.031l-32.063-32.063c-4.422-4.422-11.61-4.422-16.031,0c-4.422,4.422-4.422,11.61,0,16.031 l16.031,16.031c-0.023,0.023-0.023,0.023-0.023,0.023l-32.04,32.04c-8.843,8.843-8.866,23.219,0,32.063l16.031,16.031 c8.866,8.866,23.219,8.843,32.063,0l32.04-32.04l0.045-0.023l16.031,16.031c4.422,4.422,11.61,4.422,16.031,0 c4.422-4.422,4.422-11.61,0-16.031L86.798,248.52z M78.793,96.211l-16.031,96.188l64.125,64.125l96.211-16.031L319.286,0 L78.793,96.211z M206.772,220.244l-72.107,12.018l-47.618-47.64l12.018-72.107l152.808-61.132L210.06,93.195l0,0l-20.521,20.498 c-12.63-5.986-28.14-3.9-38.593,6.553c-13.288,13.288-13.288,34.806,0,48.094c13.288,13.288,34.829,13.288,48.094,0 c10.453-10.453,12.562-25.986,6.53-38.616l1.474-1.474l0,0l60.837-60.837L206.772,220.244z M183.008,152.332 c-4.422,4.422-11.61,4.422-16.031,0c-4.422-4.422-4.422-11.61,0-16.031c4.422-4.422,11.61-4.422,16.031,0 S187.43,147.887,183.008,152.332z"/></symbol><symbol id="pinterest-logo" viewBox="0 0 100.001 100.001"><title>pinterest-logo</title><path style="fill:#030104;" d="M43.081,66.14c-2.626,13.767-5.833,26.966-15.333,33.861c-2.932-20.809,4.307-36.436,7.668-53.027 c-5.73-9.646,0.689-29.062,12.777-24.277c14.873,5.885-12.881,35.865,5.75,39.611c19.453,3.908,27.395-33.752,15.332-46 C51.847-1.376,18.542,15.905,22.638,41.224c0.996,6.191,7.391,8.068,2.555,16.611c-11.154-2.473-14.484-11.27-14.055-23 c0.69-19.197,17.25-32.639,33.86-34.498c21.006-2.352,40.721,7.711,43.443,27.471c3.066,22.303-9.48,46.459-31.943,44.721 C50.41,72.056,47.853,69.04,43.081,66.14z"/></symbol><symbol id="user-logo" viewBox="0 0 55 55"><title>user-logo</title><path d="M55,27.5C55,12.337,42.663,0,27.5,0S0,12.337,0,27.5c0,8.009,3.444,15.228,8.926,20.258l-0.026,0.023l0.892,0.752 c0.058,0.049,0.121,0.089,0.179,0.137c0.474,0.393,0.965,0.766,1.465,1.127c0.162,0.117,0.324,0.234,0.489,0.348 c0.534,0.368,1.082,0.717,1.642,1.048c0.122,0.072,0.245,0.142,0.368,0.212c0.613,0.349,1.239,0.678,1.88,0.98 c0.047,0.022,0.095,0.042,0.142,0.064c2.089,0.971,4.319,1.684,6.651,2.105c0.061,0.011,0.122,0.022,0.184,0.033 c0.724,0.125,1.456,0.225,2.197,0.292c0.09,0.008,0.18,0.013,0.271,0.021C25.998,54.961,26.744,55,27.5,55 c0.749,0,1.488-0.039,2.222-0.098c0.093-0.008,0.186-0.013,0.279-0.021c0.735-0.067,1.461-0.164,2.178-0.287 c0.062-0.011,0.125-0.022,0.187-0.034c2.297-0.412,4.495-1.109,6.557-2.055c0.076-0.035,0.153-0.068,0.229-0.104 c0.617-0.29,1.22-0.603,1.811-0.936c0.147-0.083,0.293-0.167,0.439-0.253c0.538-0.317,1.067-0.648,1.581-1 c0.185-0.126,0.366-0.259,0.549-0.391c0.439-0.316,0.87-0.642,1.289-0.983c0.093-0.075,0.193-0.14,0.284-0.217l0.915-0.764 l-0.027-0.023C51.523,42.802,55,35.55,55,27.5z M2,27.5C2,13.439,13.439,2,27.5,2S53,13.439,53,27.5 c0,7.577-3.325,14.389-8.589,19.063c-0.294-0.203-0.59-0.385-0.893-0.537l-8.467-4.233c-0.76-0.38-1.232-1.144-1.232-1.993v-2.957 c0.196-0.242,0.403-0.516,0.617-0.817c1.096-1.548,1.975-3.27,2.616-5.123c1.267-0.602,2.085-1.864,2.085-3.289v-3.545 c0-0.867-0.318-1.708-0.887-2.369v-4.667c0.052-0.52,0.236-3.448-1.883-5.864C34.524,9.065,31.541,8,27.5,8 s-7.024,1.065-8.867,3.168c-2.119,2.416-1.935,5.346-1.883,5.864v4.667c-0.568,0.661-0.887,1.502-0.887,2.369v3.545 c0,1.101,0.494,2.128,1.34,2.821c0.81,3.173,2.477,5.575,3.093,6.389v2.894c0,0.816-0.445,1.566-1.162,1.958l-7.907,4.313 c-0.252,0.137-0.502,0.297-0.752,0.476C5.276,41.792,2,35.022,2,27.5z"/></symbol><symbol id="user-male-black-shape" viewBox="0 0 485.211 485.21"><title>user-male-black-shape</title><path d="M394.235,333.585h-30.327c-33.495,0-60.653-27.158-60.653-60.654v-19.484c13.418-15.948,23.042-34.812,29.024-54.745 c0.621-3.36,3.855-5.02,6.012-7.33c11.611-11.609,13.894-31.2,5.185-45.149c-1.186-2.117-3.322-3.953-3.201-6.576 c0-17.784,0.089-35.596-0.023-53.366c-0.476-21.455-6.608-43.773-21.65-59.66c-12.144-12.836-28.819-20.479-46.022-23.75 c-21.739-4.147-44.482-3.937-66.013,1.54c-18.659,4.709-36.189,15.637-47.028,31.836c-9.598,14.083-13.803,31.183-14.513,48.036 c-0.266,18.094-0.061,36.233-0.116,54.371c0.413,3.631-2.667,6.088-4.058,9.094c-8.203,14.881-4.592,35.155,8.589,45.978 c3.344,2.308,3.97,6.515,5.181,10.142c5.748,17.917,15.282,34.487,27.335,48.925v20.138c0,33.496-27.157,60.654-60.651,60.654 H90.978c0,0-54.964,15.158-90.978,90.975v30.327c0,16.759,13.564,30.321,30.327,30.321h424.562 c16.759,0,30.322-13.562,30.322-30.321V424.56C449.199,348.749,394.235,333.585,394.235,333.585z"/></symbol><symbol id="graduation-hat-and-diploma" viewBox="0 0 30.504 30.504"><title>graduation-hat-and-diploma</title><path d="M18.502,22.654c-0.814-0.546-7.785-5.294-9.664-8.617l-0.103-0.183l-0.212-0.008c-1.618-0.066-2.876,0.87-3.415,1.354 c-0.22-0.223-0.444-0.452-0.673-0.688l-0.273-0.28l-0.271,0.282c-1.061,1.101-1.53,2.125-1.396,3.048 c0.109,0.749,0.621,1.401,1.481,1.888c0.155,0.088,1.95,1.309,3.901,2.867c-0.337,0.344-1.562,1.137-2.006,1.453 c-0.499,0.354-2.578,2.241-2.578,2.241l1.343,0.317l0.465,0.908c0,0,0.638-1.562,1.338-2.333s1.923-1.387,1.923-1.387 s-0.661,0.944-1.135,1.86c-0.473,0.916-0.594,2.504-0.594,2.504l0.821-0.26l0.566,1.234c0,0,0.151-1.744,0.499-2.88 c0.281-0.919,0.97-1.79,1.226-2.095c2.474,2.178,5.059,4.808,5.576,5.339c0.312,0.358,0.716,0.622,1.242,0.739 c0.188,0.041,0.379,0.061,0.565,0.061c1.07,0,2.086-0.667,2.74-1.835c0.764-1.359,0.979-3.449-0.347-4.822 C19.158,22.982,18.814,22.767,18.502,22.654z M8.012,21.457c-1.79-1.408-3.423-2.529-3.661-2.664 c-0.659-0.373-1.031-0.824-1.106-1.34c-0.088-0.606,0.224-1.32,0.928-2.126c1.751,1.792,3.248,3.214,4.519,4.345 C8.117,20.605,8.016,21.106,8.012,21.457z M9.124,19.041c-1.009-0.897-2.164-1.984-3.48-3.302c0.447-0.391,1.43-1.11,2.647-1.139 c0.636,1.043,1.69,2.188,2.878,3.296C10.551,17.959,9.779,18.229,9.124,19.041z M9.893,23.004 c0.064-0.484,0.214-1.151,0.552-1.838c2.226,1.813,3.49,2.476,4.043,2.709c-0.086,0.638-0.231,2.108,0.021,3.452 C13.314,26.145,11.557,24.447,9.893,23.004z M19.212,27.816c-0.471,0.839-1.37,1.65-2.483,1.404 c-1.911-0.422-1.692-4.135-1.446-5.53l0.062-0.353l-0.351-0.082c-0.015-0.004-1.204-0.338-4.142-2.737 c0.552-0.642,1.436-0.929,2.108-1.056c1.659,1.377,3.311,2.567,4.298,3.256c-0.03,0.015-0.058,0.029-0.083,0.045 c-1.138,0.646-1.613,2.515-1.366,3.41c0.29,1.053,0.993,1.729,1.733,1.715c0.316-0.012,1.086-0.19,1.367-1.596l0.044-0.219 l-0.169-0.143c-1.068-0.909-1.646-1.446-1.922-1.715c0.176-0.342,0.408-0.639,0.687-0.797c0.423-0.238,0.904-0.082,1.433,0.467 C20.037,24.983,19.841,26.693,19.212,27.816z M18.116,26.358c-0.132,0.479-0.353,0.767-0.604,0.774c-0.003,0-0.007,0-0.012,0 c-0.314,0-0.755-0.401-0.964-1.159c-0.067-0.242-0.048-0.603,0.042-0.979C16.891,25.287,17.38,25.729,18.116,26.358z"/><path d="M5.959,8.611l-1.196,3.831c0,0,4.888,0.475,8.958,1.744c4.072,1.272,8.361,3.663,8.361,3.663l1.216-3.899 c0,0-3.653-3.682-8.004-5.04C10.945,7.553,5.959,8.611,5.959,8.611z"/><path d="M30.504,14.008l-1.423-1.493l0.14-0.453c0,0,1.254-2.306-1.904-1.88c-0.164,0.032-0.262,0.085-0.317,0.151l-9.397-9.851 L0,4.367l4.841,4.324l0.26-0.833c0,0,5.561-1.179,10.41,0.334c4.85,1.515,8.924,5.62,8.924,5.62l-0.453,1.453l3.636-0.702 c-0.606,1.938-1.302,4.171-1.519,4.862l-1.035-0.324l-0.752,2.406l1.676-0.522l1.232,1.431l0.75-2.406l-1.119-0.351l1.644-5.266 L30.504,14.008z M28.42,13.469c-0.125,0.402-0.553,0.626-0.955,0.501c-0.402-0.126-0.627-0.553-0.502-0.955 c0.127-0.402,0.555-0.626,0.956-0.501S28.545,13.068,28.42,13.469z M27.71,11.077c0.397-0.118,1.071-0.24,0.892,0.334 c-0.018,0.056-0.067,0.218-0.143,0.453L27.71,11.077z"/></symbol><symbol id="graduate-certificate" viewBox="0 0 401.168 401.168"><title>graduate-certificate</title><path d="M401.004,250.538c-0.834-5.295-4.759-9.572-9.961-10.859c-0.872-0.215-71.379-17.925-123.181-49.804l-56.563-56.576 c-31.844-51.777-49.596-122.305-49.811-123.174c-1.286-5.203-5.565-9.128-10.859-9.962c-5.293-0.834-10.572,1.585-13.396,6.14 l-17.078,27.542c-9.682-8.729-24.245-12.872-36.144-9.729l-0.973,0.259C40.87,37.292,14.092,64.07,1.175,106.237l-0.258,0.974 c-2.961,13.143,1.392,27.9,11.09,37.599c0.729,0.729,1.494,1.433,2.272,2.092l0.294,0.241 c32.075,25.631,63.309,52.74,93.259,80.913c-26.838,14.876-50.168,22.272-67.996,21.479c-2.969-0.133-5.679,1.683-6.688,4.479 s-0.084,5.923,2.286,7.719l20.133,15.26l-22.844,21.916c-1.961,1.882-2.611,4.751-1.653,7.293 c0.348,0.924,0.882,1.737,1.552,2.407c1.177,1.178,2.772,1.906,4.501,1.982c20.176,0.897,42.373-3.433,66.34-12.889 c-9.457,23.967-13.786,46.163-12.889,66.339c0.077,1.729,0.806,3.325,1.983,4.502c0.67,0.67,1.485,1.204,2.408,1.552 c2.542,0.958,5.412,0.31,7.293-1.651l21.917-22.846l15.258,20.136c1.796,2.367,4.922,3.295,7.718,2.283 c2.795-1.009,4.61-3.72,4.478-6.688c-0.792-17.828,6.604-41.159,21.481-67.999c28.188,29.964,55.298,61.198,80.914,93.263 l0.243,0.3c0.657,0.774,1.359,1.536,2.086,2.266c9.698,9.698,24.457,14.053,37.601,11.094l0.978-0.259 c42.17-12.923,68.947-39.7,81.861-81.865c0,0,7.035-21.217-9.47-37.115l27.542-17.076 C399.419,261.109,401.838,255.832,401.004,250.538z M144.092,45.804c2.646,8.297,5.908,17.908,9.772,28.236 c-5.276-6.201-10.505-12.439-15.675-18.717L144.092,45.804z M131.16,213.438c-31.956-30.331-65.39-59.483-99.773-86.967 c-0.182-0.159-0.363-0.328-0.539-0.504c-3.135-3.135-5.27-8.371-4.02-12.497c10.398-33.443,30-53.046,63.446-63.445 c3.783-1.262,9.22-0.221,13,4.559c2.096,2.622,4.204,5.238,6.319,7.85l4.047,4.964c24.407,29.881,50.045,58.988,76.598,86.963 L131.16,213.438z M351.141,310.894c-10.395,33.441-29.996,53.046-63.441,63.446c-4.096,0.889-9.366-0.887-12.501-4.021 c-0.175-0.177-0.345-0.354-0.501-0.535c-27.465-34.371-56.617-67.807-86.965-99.775l59.076-59.075 c27.979,26.561,57.088,52.198,86.968,76.603l4.958,4.041c2.61,2.115,5.229,4.225,7.854,6.32c0.181,0.157,0.36,0.325,0.535,0.501 C350.255,301.531,352.291,306.884,351.141,310.894z M345.843,262.979c-6.276-5.17-12.517-10.397-18.72-15.677 c10.33,3.864,19.943,7.126,28.241,9.773L345.843,262.979z"/></symbol><symbol id="mortarboard" viewBox="0 0 512 512"><title>mortarboard</title><g> <g> <path d="M256,121c-66.301,0-121,13.5-121,30v135c0-16.5,54.699-30,121-30s121,13.5,121,30V151C377,134.5,322.301,121,256,121z"/> </g> </g><g> <g> <path d="M256,286c-66.167,0-121,13.462-121,30c0,16.538,54.833,30,121,30c23.903,0,121-6.097,121-30 C377,299.462,322.167,286,256,286z"/> </g> </g><g> <g> <path d="M482,333.763V160.272l21.709-10.854C508.792,146.869,512,141.684,512,136s-3.208-10.869-8.291-13.418l-241-121 c-4.219-2.109-9.199-2.109-13.418,0l-241,121C3.208,125.131,0,130.316,0,136s3.208,10.869,8.291,13.418L105,197.772V151 c0-52.207,94.984-60,151-60s151,7.793,151,60v46.772l45-22.5v158.491c-17.422,6.213-30,22.707-30,42.237c0,24.814,20.186,45,45,45 c24.814,0,45-20.186,45-45C512,356.47,499.422,339.976,482,333.763z"/> </g> </g><g> <g> <path d="M511.965,435.647C499.399,445.148,483.932,451,467,451s-32.399-5.852-44.965-15.353c-0.002,0.12-0.035,0.232-0.035,0.353 v61c0,8.291,6.709,15,15,15h60c8.291,0,15-6.709,15-15v-61C512,435.879,511.967,435.767,511.965,435.647z"/> </g> </g></symbol></svg>