<svg xmlns="http://www.w3.org/2000/svg" style="display: none;"><symbol id="tongue-out" viewBox="0 0 473.931 473.931"><title>tongue-out</title><circle style="fill:#FFC10E;" cx="236.966" cy="236.966" r="236.966"/><path style="fill:#CA2027;" d="M262.327,342.379c24.074,44.916,62.944,70.959,86.828,58.162 c23.884-12.808,23.73-59.603-0.341-104.522L262.327,342.379z"/><g> <circle style="fill:#333333;" cx="164.937" cy="155.227" r="37.216"/> <circle style="fill:#333333;" cx="305.664" cy="155.227" r="37.216"/> <path style="fill:#333333;" d="M343.25,285.055c-59.281,60.328-154.662,59.846-213.449-0.898 c-8.4-8.681-21.616,4.561-13.227,13.227c65.769,67.965,173.64,68.336,239.903,0.898 C364.938,289.676,351.718,276.441,343.25,285.055L343.25,285.055z"/> </g></symbol><symbol id="crying" viewBox="0 0 473.935 473.935"><title>crying</title><circle style="fill:#FFC10E;" cx="236.967" cy="236.967" r="236.967"/><path style="fill:#333333;" d="M357.644,355.144c-66.005-68.621-174.861-68.763-241.065-0.341 c-8.389,8.666,4.827,21.912,13.227,13.227c59.266-61.249,155.52-61.088,214.61,0.341 C352.794,377.086,366.007,363.84,357.644,355.144L357.644,355.144z"/><g> <path style="fill:#75CDDE;" d="M116.893,124.849c-19.588,20.954-35.974,44.827-48.913,70.387 c-13.818,27.296-7.42,60.647,20.135,76.793c25.182,14.75,62.986,7.139,76.793-20.138c5.051-9.976,10.529-19.652,16.587-29.055 c2.848-4.415,5.934-8.666,9.066-12.879c-9.658,12.995,3.173-3.027,5.702-5.732c20.879-22.331,22.17-57.208,0-79.375 C175.187,103.767,137.784,102.495,116.893,124.849L116.893,124.849z"/> <path style="fill:#75CDDE;" d="M414.987,216.279c-13.643-32.157-31.708-61.126-54.776-87.427c-20.183-23.016-58.81-20.565-79.375,0 c-22.683,22.683-20.153,56.396,0,79.375c1.998,2.226,3.944,4.501,5.841,6.818c-4.026-5.369-4.135-5.474-0.333-0.318 c3.817,5.212,7.252,10.69,10.638,16.183c8.239,13.351,14.96,27.603,21.074,42.028c11.959,28.187,52.961,34.091,76.793,20.135 C423.724,276.155,426.931,244.444,414.987,216.279L414.987,216.279z"/> </g><g> <circle style="fill:#333333;" cx="164.938" cy="155.232" r="37.216"/> <circle style="fill:#333333;" cx="305.667" cy="155.232" r="37.216"/> </g></symbol><symbol id="unhappy" viewBox="0 0 473.935 473.935"><title>unhappy</title><circle style="fill:#FFC10E;" cx="236.967" cy="236.967" r="236.967"/><g> <path style="fill:#333333;" d="M356.671,354.1c-66.23-67.618-174.251-67.337-240.096,0.703 c-8.389,8.666,4.827,21.908,13.227,13.227c58.87-60.834,154.379-61.204,213.641-0.703 C351.896,375.96,365.116,362.721,356.671,354.1L356.671,354.1z"/> <circle style="fill:#333333;" cx="164.938" cy="155.232" r="37.216"/> <circle style="fill:#333333;" cx="305.667" cy="155.232" r="37.216"/> </g><path style="fill:#A2D4DE;" d="M343.167,188.612c0,0-27.517,33.874-27.517,68.819c0,15.203,12.31,27.521,27.513,27.525 c15.218-0.007,27.532-12.325,27.532-27.528C370.695,240.507,343.167,188.612,343.167,188.612z"/></symbol><symbol id="thinking" viewBox="0 0 511.757 511.757"><title>thinking</title><g transform="matrix(1.25 0 0 -1.25 0 45)"> <g> <g> <path style="fill:#FFCC4D;" d="M22.658-146.044c0-100.545,81.51-182.044,182.044-182.044 c100.545,0,182.044,81.499,182.044,182.044C386.747-45.51,305.248,36,204.703,36C104.169,36,22.658-45.51,22.658-146.044"/> <g> <path style="fill:#664500;" d="M175.189-83.467c0-15.713-10.194-28.444-22.756-28.444s-22.756,12.732-22.756,28.444 c0,15.701,10.194,28.444,22.756,28.444S175.189-67.765,175.189-83.467"/> <path style="fill:#664500;" d="M295.725-94.844c0-15.713-10.183-28.444-22.756-28.444c-12.561,0-22.756,12.732-22.756,28.444 c0,15.701,10.194,28.444,22.756,28.444C285.542-66.4,295.725-79.143,295.725-94.844"/> <path style="fill:#664500;" d="M109.937-36.055c-1.866,0.99-3.447,2.537-4.449,4.528c-2.458,4.881-0.455,10.547,4.471,12.663 c48.538,20.821,87.598,0.489,89.236-0.387c4.927-2.628,6.918-8.511,4.449-13.13c-2.458-4.608-8.42-6.212-13.346-3.618 c-1.399,0.728-32.222,16.293-71.43-0.535C115.945-37.774,112.645-37.5,109.937-36.055"/> <path style="fill:#664500;" d="M167.645-186.686c-1.547,1.445-2.685,3.334-3.14,5.53c-1.126,5.336,2.253,10.308,7.566,11.082 c52.247,7.714,84.787-21.948,86.164-23.211c4.096-3.8,4.494-9.978,0.933-13.824c-3.55-3.823-9.728-3.846-13.813-0.068 c-1.183,1.047-26.988,23.984-69.2,17.761C173.004-189.883,169.887-188.779,167.645-186.686"/> <path style="fill:#664500;" d="M232.362-78.722c-1.775,1.115-3.254,2.765-4.119,4.824c-2.128,5.029,0.262,10.559,5.313,12.334 c49.846,17.476,87.438-5.461,89.02-6.451c4.722-2.958,6.303-8.954,3.538-13.403c-2.753-4.437-8.829-5.632-13.551-2.708 c-1.365,0.831-31.039,18.443-71.305,4.324C238.256-80.85,234.979-80.349,232.362-78.722"/> </g> <path style="fill:#F4900C;" d="M196.465-363.724c0,0,14.393,4.676,16.259,15.383c1.968,11.048-7.1,13.278-7.1,13.278 s11.844,2.367,13.335,15.656c1.399,12.516-9.808,15.508-9.808,15.508s11.036,4.551,11.56,17.51 c0.432,10.911-11.321,16.247-11.321,16.247s57.321,13.881,63.204,15.246c5.871,1.377,15.03,7.009,12.174,19.285 c-2.833,12.288-13.699,12.72-19.319,11.412c-5.621-1.32-76.732-17.829-101.262-23.541c-2.617-0.603-14.882-3.436-16.373-3.8 c-6.144-1.445-8.932,1.263-4.608,5.825c5.791,6.098,9.478,12.846,10.775,24.041c1.354,11.787-2.64,26.328-4.927,31.96 c-4.255,10.479-11.435,18.762-19.729,21.606c-12.948,4.437-22.141-3.652-17.545-17.761c6.872-21.106,2.378-38.4-9.478-48.845 c-27.864-24.542-40.835-42.041-32.199-79.337c9.409-40.676,49.801-66.856,90.476-57.435 C162.73-371.006,196.465-363.724,196.465-363.724"/> </g> </g> </g></symbol><symbol id="sad" viewBox="0 0 473.935 473.935"><title>sad</title><circle style="fill:#FFC10E;" cx="236.967" cy="236.967" r="236.967"/><g> <path style="fill:#333333;" d="M356.671,354.1c-66.226-67.618-174.255-67.337-240.096,0.703 c-8.389,8.666,4.827,21.912,13.227,13.227c58.87-60.83,154.386-61.204,213.641-0.703C351.896,375.96,365.116,362.721,356.671,354.1 L356.671,354.1z"/> <circle style="fill:#333333;" cx="164.938" cy="155.232" r="37.216"/> <circle style="fill:#333333;" cx="305.667" cy="155.232" r="37.216"/> </g></symbol><symbol id="happy" viewBox="0 0 473.931 473.931"><title>happy</title><circle style="fill:#FFC10E;" cx="236.966" cy="236.966" r="236.966"/><g> <path style="fill:#333333;" d="M383.164,237.123c-1.332,80.699-65.514,144.873-146.213,146.206 c-80.702,1.332-144.907-67.52-146.206-146.206c-0.198-12.052-18.907-12.071-18.709,0c1.5,90.921,73.993,163.414,164.914,164.914 c90.929,1.5,163.455-76.25,164.922-164.914C402.071,225.052,383.362,225.071,383.164,237.123L383.164,237.123z"/> <circle style="fill:#333333;" cx="164.937" cy="155.227" r="37.216"/> <circle style="fill:#333333;" cx="305.664" cy="155.227" r="37.216"/> </g></symbol><symbol id="idea" viewBox="0 0 285.714 285.714"><title>idea</title><path d="M185.714,57.143c0-23.633-19.224-42.857-42.857-42.857S100,33.51,100,57.143c0,14.281,7.233,27.676,19.048,35.595v7.505 c-5.429,1.105-9.524,5.914-9.524,11.662c0,4.238,2.238,7.933,5.576,10.048c-0.505,1.319-0.814,2.738-0.814,4.238 c0,6.567,5.338,11.905,11.905,11.905h33.333c6.567,0,11.905-5.338,11.905-11.905c0-1.5-0.31-2.919-0.814-4.238 c3.338-2.114,5.576-5.81,5.576-10.048c0-5.752-4.095-10.557-9.524-11.662v-7.505C178.481,84.819,185.714,71.424,185.714,57.143z M159.524,128.571H126.19c-1.31,0-2.381-1.071-2.381-2.381s1.071-2.381,2.381-2.381h33.333c1.31,0,2.381,1.071,2.381,2.381 S160.833,128.571,159.524,128.571z M164.286,114.286h-4.762H126.19h-4.762c-1.31,0-2.381-1.071-2.381-2.381 s1.072-2.381,2.382-2.381h42.857c1.31,0,2.381,1.071,2.381,2.381S165.596,114.286,164.286,114.286z M138.095,57.143 c0-2.629,2.133-4.762,4.762-4.762c2.629,0,4.762,2.133,4.762,4.762c0,2.629-2.133,4.762-4.762,4.762 C140.229,61.905,138.095,59.771,138.095,57.143z M159.519,85.981l-2.376,1.376V100h-9.524V70.552 c5.529-1.971,9.524-7.21,9.524-13.41c0-7.876-6.41-14.286-14.286-14.286s-14.286,6.41-14.286,14.286 c0,6.2,3.995,11.438,9.524,13.41V100h-9.524V87.357l-2.376-1.376c-10.281-5.957-16.671-17.01-16.671-28.838 c0-18.376,14.957-33.333,33.333-33.333s33.333,14.957,33.333,33.333C176.19,68.972,169.8,80.024,159.519,85.981z"/><path d="M183,223.333c-2.167-5.495-7.386-9.048-13.29-9.048h-3.043v-54.762c0-9.19-7.476-16.667-16.667-16.667 c-9.191,0-16.667,7.476-16.667,16.667v22.643c-1.69-0.719-3.481-1.214-5.381-1.214h-4.519c-7.667,0-13.91,6.243-13.91,13.91 v0.376h-5.138c-7.667,0-13.91,6.243-13.91,13.91v0.376H90.1c-7.667,0-13.91,6.243-13.91,13.91v0.376v0.971v9.557 c0,6.552,1.319,12.919,3.924,18.933l7.219,16.662c2.086,4.814,3.143,9.905,3.143,15.148v0.633H100v-0.638 c0-6.552-1.319-12.919-3.924-18.933l-7.219-16.662c-1.238-2.857-2.071-5.824-2.576-8.848l17.905,17.905 c2.786,2.786,6.443,4.176,10.1,4.176s7.314-1.39,10.1-4.176l0.819-0.819c2.257-2.257,3.552-5.09,3.981-8.024 c0.19,0.01,0.376,0.052,0.567,0.052c2.567,0,5.148-0.705,7.424-2.148l0.29-0.181c0.681-0.457,1.295-0.981,1.876-1.538 c2.148,1.933,4.771,3.386,7.729,4.124l6.386,1.6l3.938,11.805l9.029-3.014l-5.586-16.767l-11.457-2.867 c-3.843-0.957-6.524-4.386-6.524-8.343c0-4.748,3.862-8.61,8.61-8.61h5.676h9.524h3.043c1.938,0,3.719,1.214,4.429,3.014 l5.824,14.781c0.657,1.676,0.99,3.438,0.99,5.233v1.048c0,2.205-0.519,4.419-1.505,6.39l-5.505,11.01 c-1.643,3.281-2.514,6.967-2.514,10.638v9.79h9.524v-9.79c0-2.205,0.519-4.419,1.505-6.39l5.505-11.01 c1.643-3.281,2.514-6.967,2.514-10.638v-1.048c0-2.995-0.557-5.929-1.657-8.724L183,223.333z M118.471,250.986l-0.819,0.819 c-1.862,1.862-4.871,1.862-6.733,0L87,227.886c-0.829-0.829-1.286-1.933-1.286-3.105v-0.971v-0.376 c0-2.419,1.967-4.386,4.386-4.386h1.348c1.171,0,2.276,0.457,3.1,1.286l23.919,23.919 C120.329,246.11,120.329,249.129,118.471,250.986z M133.935,236.995c-0.202,0.767-0.659,1.729-1.678,2.443l-0.095,0.062 c-1.738,1.152-4.057,0.924-5.529-0.548l-1.433-1.433L101.281,213.6c-0.824-0.829-1.281-1.933-1.281-3.105v-1.348 c0-2.419,1.967-4.386,4.386-4.386h5.324c1.371,0,2.671,0.652,3.495,1.743l11.048,14.724l9,11.976 c0.038,0.048,0.071,0.129,0.11,0.129c0.005,0,0.005,0,0.01,0l0.048,0.086c0.067,1.205,0.257,2.386,0.552,3.524 C133.959,236.962,133.954,236.981,133.935,236.995z M142.853,215.676c0.005,1.319-4.176,3.371-6.138,8.133 c-0.005,0-0.01,0-0.014,0l-10.214-14.548l-5.648-7.99l-0.91-1.562c-0.581-0.776-0.881-1.8-0.881-2.762v-2.085 c0-2.419,1.967-4.386,4.386-4.386h4.519c1.59,0,2.224,0.867,2.995,2.257l11.905,22.938 C142.853,215.676,142.853,215.676,142.853,215.676z M157.143,214.286h-2.49l-11.795-21.229v-33.533 c-0.001-3.938,3.204-7.143,7.142-7.143s7.143,3.205,7.143,7.143V214.286z"/><rect x="138.095" width="9.524" height="9.524"/><rect x="111.904" y="7.018" transform="matrix(0.4999 0.8661 -0.8661 0.4999 68.5484 -95.1522)" width="9.524" height="9.524"/><rect x="92.728" y="26.19" transform="matrix(0.8661 0.4999 -0.4999 0.8661 28.5282 -44.5898)" width="9.524" height="9.524"/><rect x="85.714" y="52.381" width="9.524" height="9.524"/><rect x="92.728" y="78.577" transform="matrix(-0.4999 -0.8661 0.8661 -0.4999 74.0455 209.4339)" width="9.524" height="9.524"/><rect x="183.453" y="78.567" transform="matrix(-0.8661 -0.4999 0.4999 -0.8661 309.5707 249.5876)" width="9.524" height="9.524"/><rect x="190.476" y="52.381" width="9.524" height="9.524"/><rect x="183.459" y="26.197" transform="matrix(0.4999 0.8661 -0.8661 0.4999 120.9447 -147.5333)" width="9.524" height="9.524"/><rect x="164.279" y="7.013" transform="matrix(0.8661 0.4999 -0.4999 0.8661 28.5226 -82.9253)" width="9.524" height="9.524"/><polygon points="276.19,57.143 276.19,47.619 266.667,47.619 266.667,57.143 257.143,57.143 257.143,66.667 266.667,66.667 266.667,76.19 276.19,76.19 276.19,66.667 285.714,66.667 285.714,57.143 "/><polygon points="228.571,28.571 238.095,28.571 238.095,19.048 247.619,19.048 247.619,9.524 238.095,9.524 238.095,0 228.571,0 228.571,9.524 219.048,9.524 219.048,19.048 228.571,19.048 "/><polygon points="19.048,76.19 9.524,76.19 9.524,85.714 0,85.714 0,95.238 9.524,95.238 9.524,104.762 19.048,104.762 19.048,95.238 28.571,95.238 28.571,85.714 19.048,85.714 "/><polygon points="61.905,38.095 52.381,38.095 52.381,28.571 42.857,28.571 42.857,38.095 33.333,38.095 33.333,47.619 42.857,47.619 42.857,57.143 52.381,57.143 52.381,47.619 61.905,47.619 "/><polygon points="76.19,152.381 76.19,142.857 85.714,142.857 85.714,133.333 76.19,133.333 76.19,123.81 66.667,123.81 66.667,133.333 57.143,133.333 57.143,142.857 66.667,142.857 66.667,152.381 "/><polygon points="242.857,100 233.333,100 233.333,109.524 223.81,109.524 223.81,119.048 233.333,119.048 233.333,128.571 242.857,128.571 242.857,119.048 252.381,119.048 252.381,109.524 242.857,109.524 "/></symbol><symbol id="brainstorm" viewBox="0 0 296.429 296.429"><title>brainstorm</title><path d="M277.381,48.81V15.476l11.429,8.571l5.714-7.619L272.619,0l-21.905,16.429l5.714,7.619l11.429-8.571V48.81 c0,13.129-10.681,23.81-23.81,23.81H225c-15.067,0-27.814,9.524-31.929,23.81h-6.819l-0.176,9.524h5.59v14.843 c-2.338-0.333-4.71-0.557-7.143-0.557c-11.076,0-21.724,3.7-30.467,10.51c-6.252-6.652-15.01-10.51-24.295-10.51 c-3.262,0-6.462,0.519-9.524,1.438v-30.01c0-15.757-12.814-28.571-28.571-28.571h-4.762v-9.524H77.38v9.524H63.095 c-15.757,0-28.571,12.814-28.571,28.571v9.524c0,5.252-4.271,9.524-9.524,9.524h-9.524l8.571-11.429l-7.619-5.714L0,115.476 l16.429,21.905l7.619-5.714l-8.571-11.429H25c10.505,0,19.048-8.543,19.048-19.048v-9.524c0-10.505,8.543-19.048,19.048-19.048 h28.571c10.505,0,19.048,8.543,19.048,19.048v34.619c-2.071,1.448-4,3.11-5.714,5.014c-3.586-1.024-7.262-1.538-10.952-1.538 c-20.429,0-37.386,15.105-40.062,34.995C36.995,169.781,25,185.567,25,203.571c0,8.429,2.652,16.662,7.519,23.49 c-1.833,4.681-2.757,9.581-2.757,14.605c0,22.319,18.157,40.476,40.476,40.476c1.805,0,3.571-0.162,5.314-0.39 c0.329-0.043,0.657-0.1,0.986-0.152c1.762-0.276,3.495-0.643,5.181-1.143c6.548,4.229,14.048,6.448,21.852,6.448 c8.729,0,17.043-2.748,23.943-7.838c7.505,10.838,19.757,17.362,33.2,17.362c12.486,0,23.986-5.629,31.633-15.271 c6.262,3.776,13.343,5.748,20.748,5.748c22.319,0,40.476-18.157,40.476-40.476c0-4.819-0.852-9.524-2.533-14.029 c7.7-7.59,12.057-17.91,12.057-28.829c0-2.429-0.238-4.814-0.657-7.143h0.657v-9.524h-3.638 c-4.771-10.486-13.886-18.729-25.276-22.119c-2.095-19.519-15.233-35.438-32.99-41.676v-17.157 c0-13.129,10.681-23.81,23.81-23.81h19.048C262.424,82.143,277.381,67.186,277.381,48.81z M224.919,168.748l0.133,3.757 l3.686,0.738c8.567,1.719,15.667,6.981,20.067,14.024v9.162h3.814c0.562,2.314,0.952,4.686,0.952,7.143 c0,7.562-2.767,14.714-7.662,20.314c-6.848-9.429-17.69-15.195-30.124-16.019l-0.624,8.91 c15.819,1.043,28.257,12.452,28.829,30.729c-0.571,16.567-14.19,29.876-30.895,29.876c-6.933,0-13.51-2.271-19.014-6.567 l-1.9-1.486c-5.867-5.343-9.467-12.752-10.005-20.838l-9.505,0.633c0.671,10.081,5.033,19.343,12.105,26.243 c-5.848,7.29-14.586,11.538-24.062,11.538c-11.824,0-22.448-6.61-27.714-17.252l-2.933-5.919l-4.69,4.662 c-5.838,5.79-13.581,8.986-21.805,8.986c-3.767,0-7.414-0.752-10.876-2.067c10.857-7.267,18.019-19.633,18.019-33.648 c0-1.014-0.133-2-0.205-3c7.576-1.314,14.657-4.743,20.405-10.014l-6.438-7.024c-4.438,4.067-9.905,6.695-15.762,7.676 c-3.186-9.943-10.081-18.443-19.643-23.481l-4.438,8.429c10.214,5.386,16.557,15.886,16.557,27.414 c0,13.362-8.529,24.738-20.414,29.067c-1.676,0.605-3.376,1.062-5.086,1.376c-0.114,0.019-0.229,0.033-0.343,0.052 c-1.7,0.29-3.405,0.457-5.11,0.457c-17.067,0-30.952-13.886-30.952-30.952c0-4.581,1.014-9.033,3.014-13.248l1.305-2.743 l-1.943-2.343c-4.605-5.543-7.138-12.557-7.138-19.762c0-14.695,10.443-27.457,24.829-30.343l3.652-0.729l0.171-3.714 c0.486-10.41,6.038-19.39,14.205-24.624v9.41h9.524v-13.424c2.295-0.543,4.681-0.862,7.143-0.862 c3.681,0,7.352,0.681,10.895,2.019l3.405,1.286l2.133-2.943c0.071-0.1,0.157-0.186,0.233-0.286v23.733h9.524v-31.276 c2.976-1.314,6.205-2.057,9.524-2.057c6.59,0,12.786,2.748,17.243,7.452c-7.981,9.081-13.671,20.838-13.671,33.024 c0,27.571,25,50,48.81,50v-9.524c-19.048,0-39.286-18.157-39.286-40.476c0-9.938,4.286-19.529,10.838-26.905l2.729-2.319 c7.6-7.257,17.624-11.252,27.952-11.252c2.443,0,4.971,0.243,7.29,0.657v18.39c0,13.129-10.681,23.81-23.81,23.81h-4.762v9.524 h4.762c18.376,0,33.333-14.957,33.333-33.333v-15.448C214.767,139.481,224.338,152.843,224.919,168.748z"/><rect x="220.238" y="186.905" width="14.286" height="9.524"/><rect x="244.048" y="96.429" width="14.286" height="9.524"/><path d="M170.176,101.424l4.8-8.224c-3.438-2.01-6.352-4.867-8.429-8.271l-8.129,4.957 C161.314,94.633,165.376,98.624,170.176,101.424z"/><path d="M153.57,72.619L153.57,72.619c0.001,0.495,0.011,0.99,0.034,1.486l9.514-1.057l-0.024-14.714h-9.524V72.619z"/><rect x="153.571" y="29.762" width="9.524" height="14.286"/><path d="M274.49,183.981l4.586,8.343c4.867-2.676,9.033-6.562,12.052-11.233l-8.01-5.162 C280.962,179.271,277.976,182.057,274.49,183.981z"/><path d="M286.905,163.095c0,0.562-0.019,1.119-0.062,1.681l9.505,0.662c0.052-0.776,0.081-1.557,0.081-2.343V148.81h-9.524 V163.095z"/><rect x="215.476" y="96.429" width="14.286" height="9.524"/><path d="M295.276,121.095l-9.19,2.481c0.543,2.014,0.819,4.095,0.819,6.186v4.762h9.524v-4.762 C296.429,126.833,296.043,123.914,295.276,121.095z"/><path d="M287.162,106.743c-3.857-4.033-8.686-7.057-13.971-8.748l-2.9,9.067c3.771,1.21,7.229,3.376,9.99,6.262L287.162,106.743z "/><polygon points="153.571,15.476 163.095,15.476 174.524,24.048 180.238,16.429 158.333,0 136.429,16.429 142.143,24.048 "/><rect x="77.381" y="25" width="9.524" height="14.286"/><rect x="77.381" y="110.714" width="9.524" height="14.286"/><rect x="77.381" y="82.143" width="9.524" height="14.286"/><rect x="77.381" y="167.857" width="9.524" height="14.286"/><polygon points="82.143,11.905 98.333,24.048 104.048,16.429 82.143,0 60.238,16.429 65.952,24.048 "/></symbol><symbol id="drop-silhouette" viewBox="0 0 383.344 383.345"><title>drop-silhouette</title><path d="M273.217,106.899c-27.181-44.864-57.413-83.693-73.016-102.846c-2.088-2.565-5.221-4.054-8.528-4.053 c-3.308,0-6.44,1.489-8.529,4.054c-15.602,19.159-45.834,58.001-73.015,102.869c-35.028,57.823-52.789,105.63-52.789,142.09 c0,74.071,60.261,134.332,134.332,134.332s134.332-60.261,134.332-134.332C326.005,212.529,308.246,164.715,273.217,106.899z M210.106,333.868c-7.844,2.006-15.986,3.022-24.205,3.022c-50.186,0-91.015-37.929-91.015-84.55 c0-11.255,2.97-24.405,8.825-39.083c0.989-2.48,3.807-3.895,6.585-3.295c2.776,0.598,4.64,3.018,4.354,5.65 c-0.342,3.148-0.516,6.223-0.516,9.136c0,50.735,40.881,93.221,95.093,98.821c2.698,0.279,4.803,2.297,5.018,4.812 C214.461,330.896,212.723,333.198,210.106,333.868z"/></symbol><symbol id="signal-bars" viewBox="0 0 511.626 511.627"><title>signal-bars</title><path d="M63.953,401.992H9.135c-2.666,0-4.853,0.855-6.567,2.567C0.859,406.271,0,408.461,0,411.126v54.82 c0,2.665,0.855,4.855,2.568,6.563c1.714,1.718,3.905,2.57,6.567,2.57h54.818c2.663,0,4.853-0.853,6.567-2.57 c1.712-1.708,2.568-3.898,2.568-6.563v-54.82c0-2.665-0.856-4.849-2.568-6.566C68.806,402.848,66.616,401.992,63.953,401.992z"/><path d="M283.225,292.36h-54.818c-2.667,0-4.854,0.855-6.567,2.566c-1.711,1.711-2.57,3.901-2.57,6.563v164.456 c0,2.665,0.856,4.855,2.57,6.563c1.713,1.718,3.899,2.57,6.567,2.57h54.818c2.665,0,4.855-0.853,6.563-2.57 c1.711-1.708,2.573-3.898,2.573-6.563V301.49c0-2.662-0.862-4.853-2.573-6.563C288.081,293.216,285.89,292.36,283.225,292.36z"/><path d="M173.589,365.451h-54.818c-2.667,0-4.854,0.855-6.567,2.566c-1.711,1.711-2.568,3.901-2.568,6.563v91.358 c0,2.669,0.854,4.859,2.568,6.57c1.713,1.711,3.899,2.566,6.567,2.566h54.818c2.663,0,4.853-0.855,6.567-2.566 c1.709-1.711,2.568-3.901,2.568-6.57v-91.358c0-2.662-0.859-4.853-2.568-6.563C178.442,366.307,176.251,365.451,173.589,365.451z"/><path d="M392.857,182.725h-54.819c-2.666,0-4.856,0.855-6.57,2.568c-1.708,1.714-2.563,3.901-2.563,6.567v274.086 c0,2.665,0.855,4.855,2.563,6.563c1.714,1.718,3.904,2.57,6.57,2.57h54.819c2.666,0,4.856-0.853,6.563-2.57 c1.718-1.708,2.57-3.898,2.57-6.563V191.86c0-2.666-0.853-4.853-2.57-6.567C397.713,183.58,395.523,182.725,392.857,182.725z"/><path d="M509.06,39.115c-1.718-1.714-3.901-2.568-6.57-2.568h-54.816c-2.662,0-4.853,0.854-6.567,2.568 c-1.714,1.709-2.569,3.899-2.569,6.563v420.268c0,2.665,0.855,4.855,2.569,6.563c1.715,1.718,3.905,2.57,6.567,2.57h54.816 c2.669,0,4.853-0.853,6.57-2.57c1.711-1.708,2.566-3.898,2.566-6.563V45.679C511.626,43.015,510.771,40.825,509.06,39.115z"/></symbol><symbol id="meeting-monochrome" viewBox="0 0 512 512"><title>meeting-monochrome</title><g> <g> <circle cx="255.996" cy="60.812" r="45.043"/> </g> </g><g> <g> <path d="M329.101,77.346c-7.571,33.44-37.404,58.538-73.1,58.538s-65.529-25.098-73.1-58.538 c-26.851,5.983-47.015,29.906-47.015,58.538v60.058c0,16.554,13.475,30.029,30.029,30.029s30.029-13.475,30.029-30.029v-30.029 h120.115v30.029c0,16.554,13.475,30.029,30.029,30.029c16.554,0,30.029-13.475,30.029-30.029v-60.058 C376.116,107.252,355.951,83.329,329.101,77.346z"/> </g> </g><g> <g> <path d="M488.717,382.722c-21.545-12.439-49.092-5.059-61.531,16.486c-12.438,21.543-5.057,49.092,16.488,61.529 c21.543,12.439,50.093,5.057,62.53-16.486C518.643,422.707,510.26,395.16,488.717,382.722z"/> </g> </g><g> <g> <path d="M461.237,280.171l-52.01-30.029c-14.337-8.277-32.743-3.345-41.02,10.992c-8.277,14.337-3.345,32.743,10.992,41.02 l26.006,15.014l-60.058,104.023l-26.006-15.014c-14.337-8.277-32.743-3.345-41.02,10.992c-8.277,14.337-3.345,32.743,10.992,41.02 l52.01,30.029c24.798,14.316,55.598,8.814,74.203-11.448c-25.174-23.276-31.994-61.661-14.146-92.576 c17.848-30.915,54.5-44.2,87.246-34.038C496.671,323.913,486.035,294.487,461.237,280.171z"/> </g> </g><g> <g> <path d="M84.815,399.209c-12.439-21.545-39.986-28.926-61.531-16.486C1.741,395.161-6.643,422.708,5.797,444.253 c12.437,21.543,40.987,28.925,62.53,16.486C89.872,448.3,97.253,420.752,84.815,399.209z"/> </g> </g><g> <g> <path d="M233.88,417.169c-8.277-14.337-26.684-19.268-41.02-10.992l-26.006,15.014l-60.058-104.023l26.006-15.014 c14.337-8.277,19.268-26.684,10.992-41.02c-8.277-14.337-26.684-19.268-41.02-10.992l-52.01,30.029 c-24.798,14.316-35.434,43.742-27.188,69.986c32.745-10.163,69.398,3.123,87.246,34.038s11.028,69.299-14.146,92.576 c18.605,20.261,49.405,25.764,74.203,11.448l52.01-30.03C237.225,449.912,242.157,431.505,233.88,417.169z"/> </g> </g></symbol><symbol id="team-idea" viewBox="0 0 496 496"><title>team-idea</title><path style="fill:#F9BA48;" d="M248,104c-39.704,0-72,32.296-72,72c0,23.992,12.152,46.496,32,59.8V264h80v-28.2 c19.848-13.304,32-35.808,32-59.8C320,136.296,287.704,104,248,104z M248,192c-8.84,0-16-7.16-16-16s7.16-16,16-16s16,7.16,16,16 S256.84,192,248,192z"/><g> <path style="fill:#333333;" d="M112,144c0-23.904-15.088-44.296-36.208-52.32C92.4,84.12,104,67.408,104,48 c0-26.472-21.528-48-48-48S8,21.528,8,48c0,19.408,11.6,36.12,28.208,43.68C15.088,99.704,0,120.096,0,144v24h112V144z M24,48 c0-17.648,14.352-32,32-32s32,14.352,32,32S73.648,80,56,80S24,65.648,24,48z M96,152H16v-8c0-22.056,17.944-40,40-40 s40,17.944,40,40V152z"/> <path style="fill:#333333;" d="M267.792,419.68C284.4,412.12,296,395.408,296,376c0-26.472-21.528-48-48-48s-48,21.528-48,48 c0,19.408,11.6,36.12,28.208,43.68C207.088,427.704,192,448.096,192,472v24h112v-24C304,448.096,288.912,427.704,267.792,419.68z M216,376c0-17.648,14.352-32,32-32s32,14.352,32,32s-14.352,32-32,32S216,393.648,216,376z M288,480h-80v-8 c0-22.056,17.944-40,40-40s40,17.944,40,40V480z"/> <path style="fill:#333333;" d="M459.792,91.68C476.4,84.12,488,67.408,488,48c0-26.472-21.528-48-48-48s-48,21.528-48,48 c0,19.408,11.6,36.12,28.208,43.68C399.088,99.704,384,120.096,384,144v24h112v-24C496,120.096,480.912,99.704,459.792,91.68z M408,48c0-17.648,14.352-32,32-32s32,14.352,32,32s-14.352,32-32,32S408,65.648,408,48z M480,152h-80v-8c0-22.056,17.944-40,40-40 s40,17.944,40,40V152z"/> <rect x="273.512" y="272.002" transform="matrix(-0.5635 0.8261 -0.8261 -0.5635 825.4747 123.8478)" style="fill:#333333;" width="213.013" height="16"/> <rect x="107.981" y="173.494" transform="matrix(-0.8262 0.5633 -0.5633 -0.8262 369.5378 446.0058)" style="fill:#333333;" width="15.999" height="213.007"/> <rect x="134.392" y="16" style="fill:#333333;" width="227.216" height="16"/> <path style="fill:#333333;" d="M284,248h-28v-49.472c9.288-3.312,16-12.112,16-22.528c0-13.232-10.768-24-24-24s-24,10.768-24,24 c0,10.416,6.712,19.216,16,22.528V248h-28c-11.032,0-20,8.968-20,20c0,7.12,3.76,13.328,9.368,16.88 c-0.848,2.216-1.368,4.6-1.368,7.12c0,11.032,8.968,20,20,20h56c11.032,0,20-8.968,20-20c0-2.52-0.52-4.904-1.368-7.12 C300.24,281.328,304,275.12,304,268C304,256.968,295.032,248,284,248z M248,168c4.416,0,8,3.584,8,8s-3.584,8-8,8s-8-3.584-8-8 S243.584,168,248,168z M212,264h72c2.2,0,4,1.8,4,4s-1.8,4-4,4h-8h-56h-8c-2.2,0-4-1.8-4-4S209.8,264,212,264z M276,296h-56 c-2.2,0-4-1.8-4-4s1.8-4,4-4h56c2.2,0,4,1.8,4,4S278.2,296,276,296z"/> <rect x="240" y="56" style="fill:#333333;" width="16" height="32"/> <rect x="188.003" y="69.938" transform="matrix(-0.8661 0.4999 -0.4999 -0.8661 408.7187 62.388)" style="fill:#333333;" width="16" height="32"/> <rect x="149.932" y="108.029" transform="matrix(-0.4999 0.8661 -0.8661 -0.4999 344.3025 49.2477)" style="fill:#333333;" width="16" height="32"/> <rect x="128" y="168" style="fill:#333333;" width="32" height="16"/> <rect x="141.933" y="220.008" transform="matrix(-0.8661 0.4999 -0.4999 -0.8661 408.6975 346.5334)" style="fill:#333333;" width="32" height="16"/> <rect x="330.069" y="211.996" transform="matrix(-0.4999 0.8661 -0.8661 -0.4999 704.5321 49.1731)" style="fill:#333333;" width="16" height="32"/> <rect x="336" y="168" style="fill:#333333;" width="32" height="16"/> <rect x="322.086" y="116" transform="matrix(-0.8661 0.4999 -0.4999 -0.8661 692.8859 62.3874)" style="fill:#333333;" width="32" height="16"/> <rect x="283.989" y="77.92" transform="matrix(-0.5 0.866 -0.866 -0.5 524.3945 -130.9149)" style="fill:#333333;" width="31.999" height="16"/> </g></symbol><symbol id="living-room-books-group" viewBox="0 0 97.391 97.391"><title>living-room-books-group</title><path d="M0,7.573h17.5v8.75H0V7.573z M0,19.823h17.5v59.501H0V19.823z M3.208,68.312c0,3.021,2.447,5.47,5.469,5.47 c3.021,0,5.469-2.447,5.469-5.47s-2.448-5.47-5.469-5.47C5.655,62.843,3.208,65.293,3.208,68.312z M0,89.824h17.5v-7H0V89.824z M21,81.6v1.225v7h22.75v-8.268c-0.929-0.664-3.815-2.232-10.5-2.232C26.913,79.324,22.866,80.744,21,81.6z M21,31.257 c1.866,0.854,5.913,2.276,12.25,2.276c6.643-0.001,9.536-1.55,10.5-2.245v-6.215H21V31.257z M21,35.046V77.81 c2.534-0.948,6.592-1.985,12.25-1.985c5.105,0,8.417,0.854,10.5,1.767V35.268c-2.083,0.91-5.395,1.765-10.5,1.765 C27.592,37.031,23.534,35.994,21,35.046z M80.859,7.18l-12,2.462l1.76,8.571l12-2.462L80.859,7.18z M95.279,77.469l-11.998,2.463 L71.32,21.643l12-2.462L95.279,77.469z M91.116,67.08c-0.607-2.957-2.972-4.971-5.275-4.498c-2.307,0.475-3.688,3.258-3.077,6.215 c0.606,2.957,2.969,4.973,5.274,4.498C90.346,72.822,91.725,70.041,91.116,67.08z M95.984,80.893l-12.002,2.464l1.408,6.854 l12-2.463L95.984,80.893z M49,16.323h17.5v-8.75H49V16.323z M49,89.824h17.5v-7H49V89.824z M49,70.574h17.5V28.573H49V70.574z M49,79.324h17.5v-5.25H49V79.324z M49,25.073h17.5v-5.25H49V25.073z"/></symbol><symbol id="meeting" viewBox="0 0 512 512"><title>meeting</title><path d="M479.607,345.936c8.785-33.844-7.2-70.938-40.941-86.671l-54.38-25.358c-3.146-1.467-6.379-2.524-9.638-3.219 c9.984-8.261,16.357-20.741,16.357-34.681v-60.002c0-36.659-26.444-67.238-61.254-73.718C323.412,27.45,293.022,0,256,0 c-36.991,0-67.406,27.423-73.751,62.287c-34.81,6.479-61.254,37.058-61.254,73.718v60.002c0,13.94,6.372,26.42,16.357,34.681 c-3.26,0.695-6.492,1.751-9.639,3.218l-54.38,25.358c-33.747,15.737-49.725,52.833-40.941,86.671 C3.073,366.636-8.4,405.581,7.033,438.676c15.448,33.127,52.928,50.713,87.657,41.895c20.581,28.868,59.52,39.902,92.755,24.405 l54.38-25.358c5.524-2.576,10.288-6.223,14.176-10.591c3.887,4.368,8.651,8.015,14.175,10.591l54.38,25.358 c33.248,15.504,72.182,4.449,92.754-24.405c34.344,8.722,72.036-8.394,87.657-41.895 C520.4,405.582,508.927,366.636,479.607,345.936z M371.609,261.099l54.379,25.356c18.371,8.566,28.244,28.037,25.53,47.14 c-32.939-7.034-68.21,8.987-83.467,41.615l25.324-54.307c3.501-7.508,0.252-16.434-7.255-19.935l-27.19-12.679 c-7.496-3.495-10.751-12.438-7.255-19.935C355.177,260.842,364.095,257.593,371.609,261.099z M256,30.001 c24.394,0,45.002,21.066,45.002,46.002c0,24.814-20.188,45.002-45.002,45.002s-45.002-20.188-45.002-45.002 C210.999,51.067,231.607,30.001,256,30.001z M150.997,136.005c0-20.277,13.484-37.458,31.953-43.065 c7.701,33.222,37.519,58.066,73.051,58.066s65.349-24.844,73.051-58.066c18.47,5.607,31.953,22.789,31.953,43.065v60.002 c0,8.271-6.729,15.001-15,15.001s-15.001-6.729-15.001-15.001v-30.001c0-8.284-6.716-15.001-15-15.001H256h-60.002 c-8.284,0-15,6.716-15,15.001v30.001c0,8.271-6.729,15.001-15.001,15.001s-15.001-6.729-15.001-15.001V136.005z M86.012,286.455 l54.38-25.358c7.514-3.503,16.431-0.259,19.935,7.255c3.504,7.513,0.259,16.432-7.255,19.935l-27.19,12.679 c-7.508,3.501-10.756,12.426-7.255,19.935l25.337,54.335c-15.247-32.642-50.527-48.68-83.48-41.643 C57.768,314.492,67.642,295.021,86.012,286.455z M95.026,448.764c-22.53,10.506-50.272-0.18-60.804-22.767 c-10.387-22.278-0.174-49.106,22.768-59.803c22.581-10.53,49.314-0.729,59.803,21.767 C127.31,410.513,117.342,438.358,95.026,448.764z M229.147,452.428l-54.38,25.358c-18.383,8.572-39.66,3.607-52.546-10.772 c10.99-8.64,19.405-20.287,24.297-33.96c6.828-19.086,5.935-39.587-2.514-57.731l25.339,54.34 c3.498,7.501,12.425,10.757,19.935,7.255l27.19-12.679c7.514-3.503,16.431-0.259,19.935,7.255 C239.983,439.173,236.593,448.956,229.147,452.428z M256,407.427c-12.656-13.849-33.627-19.046-52.213-10.379l-13.595,6.339 l-38.037-81.57l13.595-6.339c22.489-10.486,32.253-37.314,21.767-59.804c-2.92-6.262-7.11-11.534-12.117-15.661 c20.315-4.336,35.599-22.417,35.599-44.006v-15.001h90.003v15.001c0,21.589,15.285,39.669,35.599,44.006 c-5.008,4.126-9.197,9.398-12.117,15.661c-10.486,22.49-0.722,49.317,21.767,59.804l13.596,6.339l-38.037,81.57l-13.595-6.339 C289.631,388.384,268.659,393.575,256,407.427z M337.235,477.787l-54.38-25.358c-7.446-3.472-10.836-13.254-7.255-20.935 c3.496-7.497,12.439-10.751,19.935-7.255l27.19,12.679c7.502,3.498,16.435,0.252,19.935-7.255l25.329-54.317 c-8.438,18.14-9.329,38.63-2.504,57.708c4.892,13.673,13.306,25.32,24.297,33.96C376.895,481.394,355.619,486.359,337.235,477.787 z M477.777,425.997c-10.525,22.571-38.261,33.28-60.804,22.767c-22.315-10.405-32.283-38.25-21.767-60.804 c10.512-22.546,37.26-32.278,59.803-21.767C477.953,376.891,488.167,403.719,477.777,425.997z"/></symbol><symbol id="hierarchical-structure" viewBox="0 0 489.5 489.5"><title>hierarchical-structure</title><path d="M315.6,145.98l38.7,24.5c3.3,2.1,7.4-0.5,7.4-4.7v-15.3h23.7c4.9,0,8.9,4,8.9,8.9v62.1c0,5.1,4.1,9.2,9.2,9.2 s9.2-4.1,9.2-9.2v-62.1c0-15-12.2-27.3-27.3-27.3h-23.7v-15.3c0-4.2-4.1-6.8-7.4-4.7l-38.7,24.5 C312.3,138.68,312.3,143.88,315.6,145.98z"/><path d="M78.7,229.08c2.1,3.3,7.3,3.3,9.4,0l24.5-38.7c2.1-3.3-0.5-7.4-4.7-7.4H92.6v-23.7c0-4.9,4-8.9,8.9-8.9h47.8 c5.1,0,9.2-4.1,9.2-9.2c0-5.1-4.1-9.2-9.2-9.2h-47.8c-15,0-27.3,12.2-27.3,27.3v23.7H58.9c-4.2,0-6.8,4.1-4.7,7.4L78.7,229.08z"/><path d="M294.7,392.08l-38.7-24.5c-3.3-2.1-7.4,0.5-7.4,4.7v15.3h-49.2c-5.1,0-9.2,4.1-9.2,9.2s4.1,9.2,9.2,9.2h49.2v15.3 c0,4.2,4.1,6.8,7.4,4.7l38.7-24.5C298,399.48,298,394.18,294.7,392.08z"/><path d="M234.8,229.68h4.4h84.4c-0.5-35.1,1-53.9-21.8-62.1c-20.7-7.9-33-16-33-16l-15.9,50.4l-2.2,6.8l-7.1-20.2 c16.4-22.9-1.2-24-4.3-24l0,0c0,0,0,0-0.1,0l0,0l0,0c0,0,0,0-0.1,0l0,0c-3.1,0-20.7,1.1-4.3,24l-7.1,20.2l-2.2-6.8l-15.9-50.4 c0,0-12.4,8.1-33,16c-22.8,8.3-21.4,27-21.8,62.1H234.8z"/><path d="M203.6,119.68c1.8,11.8,10.9,26.9,26,32.2c6.1,2.2,12.9,2.2,19,0c14.8-5.3,24.2-20.3,26-32.1c2-0.2,4.6-2.9,7.4-12.9 c3.9-13.6-0.2-15.6-3.7-15.3c0.7-1.9,1.2-3.7,1.5-5.6c5.9-35.2-11.5-36.5-11.5-36.5s-2.9-5.5-10.5-9.7c-5.1-3-12.1-5.3-21.5-4.5 c-3,0.1-5.9,0.7-8.6,1.6l0,0c-3.4,1.2-6.6,2.8-9.4,4.8c-3.5,2.2-6.8,4.9-9.7,8c-4.6,4.7-8.7,10.8-10.5,18.3 c-1.5,5.7-1.2,11.6,0.1,17.9l0,0c0.3,1.9,0.8,3.7,1.5,5.6c-3.5-0.3-7.6,1.7-3.7,15.3C199,116.68,201.6,119.48,203.6,119.68z"/><path d="M467.7,392.28c-20.7-7.9-33-16-33-16l-16,50.4l-2.2,6.8l-7.1-20.2c16.4-22.9-1.2-24-4.3-24l0,0c0,0,0,0-0.1,0l0,0l0,0 c0,0,0,0-0.1,0l0,0c-3.1,0-20.7,1.1-4.3,24l-7.1,20.2l-2.2-6.8l-15.9-50.4c0,0-12.4,8.1-33,16c-22.8,8.3-21.4,27-21.8,62.1h80.1 h4.4h84.4C489,419.28,490.4,400.58,467.7,392.28z"/><path d="M402.3,259.78c-3,0.1-5.9,0.7-8.6,1.6l0,0c-3.4,1.2-6.6,2.8-9.4,4.8c-3.5,2.2-6.8,4.9-9.7,8c-4.6,4.7-8.7,10.8-10.5,18.3 c-1.5,5.7-1.2,11.6,0.1,17.9l0,0c0.3,1.9,0.8,3.7,1.5,5.6c-3.5-0.3-7.6,1.7-3.7,15.3c2.8,9.9,5.4,12.7,7.4,12.9 c1.8,11.8,10.9,26.9,26,32.2c6.1,2.2,12.9,2.2,19,0c14.8-5.3,24.2-20.3,26-32.1c2-0.2,4.6-2.9,7.4-12.9 c3.9-13.6-0.2-15.6-3.7-15.3c0.7-1.9,1.2-3.7,1.5-5.6c5.9-35.2-11.5-36.5-11.5-36.5s-2.9-5.5-10.5-9.7 C418.7,261.38,411.6,258.98,402.3,259.78z"/><path d="M147.1,392.28c-20.7-7.9-33-16-33-16l-16,50.4l-2.2,6.8l-7.1-20.2c16.4-22.9-1.2-24-4.3-24l0,0c0,0,0,0-0.1,0l0,0l0,0 c0,0,0,0-0.1,0l0,0c-3.1,0-20.7,1.1-4.3,24l-7.1,20.2l-2.2-6.8l-15.9-50.4c0,0-12.4,8.1-33,16c-22.8,8.3-21.4,27-21.8,62.1h80.2 h4.4H169C168.5,419.28,169.9,400.58,147.1,392.28z"/><path d="M48.9,344.38c1.8,11.8,10.9,26.9,26,32.2c6.1,2.2,12.9,2.2,19,0c14.8-5.3,24.2-20.3,26-32.1c2-0.2,4.6-2.9,7.4-12.9 c3.9-13.6-0.2-15.6-3.7-15.3c0.7-1.9,1.2-3.7,1.5-5.6c5.9-35.2-11.5-36.5-11.5-36.5s-2.9-5.5-10.5-9.7c-5.1-3-12.1-5.3-21.5-4.5 c-3,0.1-5.9,0.7-8.6,1.6l0,0c-3.4,1.2-6.6,2.8-9.4,4.8c-3.5,2.2-6.8,4.9-9.7,8c-4.6,4.7-8.7,10.8-10.5,18.3 c-1.5,5.7-1.2,11.6,0.1,17.9l0,0c0.3,1.9,0.8,3.7,1.5,5.6c-3.5-0.3-7.6,1.7-3.7,15.3C44.3,341.38,46.9,344.18,48.9,344.38z"/></symbol><symbol id="user-female" viewBox="0 0 55 55"><title>user-female</title><path d="M27.5,0C12.336,0,0,12.337,0,27.5c0,7.976,3.417,15.167,8.86,20.195l-0.072,0.098l0.705,0.604 c3.904,3.342,8.655,5.483,13.681,6.26c0.356,0.056,0.715,0.102,1.075,0.144c0.391,0.045,0.782,0.085,1.176,0.112 c0.579,0.043,1.162,0.071,1.75,0.078c0.062,0,0.123,0.008,0.185,0.008c0.017,0,0.035-0.002,0.052-0.002 c0.03,0,0.059,0.002,0.089,0.002C42.664,55,55,42.663,55,27.5S42.664,0,27.5,0z M27.414,52.998c-0.09,0-0.178-0.006-0.267-0.007 c-0.478-0.004-0.954-0.029-1.429-0.06c-5.298-0.368-10.154-2.359-14.074-5.482c0.381-0.36,0.802-0.665,1.266-0.9l9.137-3.921 c0.739-0.368,1.191-1.186,1.628-2.063c0.274-0.552,0.243-1.195-0.083-1.721C23.265,38.315,22.699,38,22.079,38l-6.347,0.005 c-0.022-0.002-2.195-0.222-3.83-0.924c-0.308-0.132-0.437-0.235-0.474-0.241c0.015-0.042,0.051-0.124,0.141-0.251 c2.264-3.224,6.083-9.643,6.214-16.409c0.008-0.379,0.303-9.287,9.332-9.361c5.365,0.044,7.902,3.189,9.086,5.82 c0.591,1.313,0.939,2.879,1.065,4.785c0.39,5.9,3.1,11.466,5.305,15.095c0.114,0.188,0.148,0.418,0.096,0.631 c-0.049,0.197-0.168,0.361-0.335,0.461c-1.038,0.62-2.389,0.407-2.397,0.404L33.273,38c-0.713,0-1.33,0.45-1.571,1.146 c-0.243,0.702-0.028,1.472,0.536,1.917c0.71,0.561,0.992,0.734,1.104,0.794l7.619,4.609c0.654,0.357,1.229,0.845,1.692,1.434 C38.231,51.229,32.983,52.986,27.414,52.998z M44.25,46.702c-0.633-0.815-1.415-1.491-2.293-1.969l-7.619-4.609 c-0.016-0.009-0.07-0.04-0.19-0.124h5.54c0.436,0.061,2.175,0.222,3.669-0.673c0.627-0.374,1.072-0.977,1.25-1.695 c0.181-0.727,0.062-1.511-0.327-2.151c-2.088-3.438-4.655-8.691-5.018-14.189c-0.143-2.147-0.547-3.938-1.237-5.473 c-1.424-3.164-4.469-6.947-10.91-7c-10.964,0.09-11.33,11.206-11.332,11.32c-0.125,6.47-4.134,12.855-5.851,15.3 c-0.467,0.665-0.616,1.312-0.444,1.921c0.188,0.66,0.719,1.171,1.625,1.56c1.917,0.823,4.322,1.066,4.521,1.081h6.084 c-0.167,0.324-0.395,0.735-0.512,0.813l-9.113,3.908l-0.053,0.024c-0.713,0.356-1.349,0.83-1.914,1.395 C5.132,41.483,2,34.852,2,27.5C2,13.439,13.439,2,27.5,2S53,13.439,53,27.5C53,35.153,49.606,42.024,44.25,46.702z"/></symbol><symbol id="user-male" viewBox="0 0 55 55"><title>user-male</title><path d="M55,27.5C55,12.337,42.663,0,27.5,0S0,12.337,0,27.5c0,8.009,3.444,15.228,8.926,20.258l-0.026,0.023l0.892,0.752 c0.058,0.049,0.121,0.089,0.179,0.137c0.474,0.393,0.965,0.766,1.465,1.127c0.162,0.117,0.324,0.234,0.489,0.348 c0.534,0.368,1.082,0.717,1.642,1.048c0.122,0.072,0.245,0.142,0.368,0.212c0.613,0.349,1.239,0.678,1.88,0.98 c0.047,0.022,0.095,0.042,0.142,0.064c2.089,0.971,4.319,1.684,6.651,2.105c0.061,0.011,0.122,0.022,0.184,0.033 c0.724,0.125,1.456,0.225,2.197,0.292c0.09,0.008,0.18,0.013,0.271,0.021C25.998,54.961,26.744,55,27.5,55 c0.749,0,1.488-0.039,2.222-0.098c0.093-0.008,0.186-0.013,0.279-0.021c0.735-0.067,1.461-0.164,2.178-0.287 c0.062-0.011,0.125-0.022,0.187-0.034c2.297-0.412,4.495-1.109,6.557-2.055c0.076-0.035,0.153-0.068,0.229-0.104 c0.617-0.29,1.22-0.603,1.811-0.936c0.147-0.083,0.293-0.167,0.439-0.253c0.538-0.317,1.067-0.648,1.581-1 c0.185-0.126,0.366-0.259,0.549-0.391c0.439-0.316,0.87-0.642,1.289-0.983c0.093-0.075,0.193-0.14,0.284-0.217l0.915-0.764 l-0.027-0.023C51.523,42.802,55,35.55,55,27.5z M2,27.5C2,13.439,13.439,2,27.5,2S53,13.439,53,27.5 c0,7.577-3.325,14.389-8.589,19.063c-0.294-0.203-0.59-0.385-0.893-0.537l-8.467-4.233c-0.76-0.38-1.232-1.144-1.232-1.993v-2.957 c0.196-0.242,0.403-0.516,0.617-0.817c1.096-1.548,1.975-3.27,2.616-5.123c1.267-0.602,2.085-1.864,2.085-3.289v-3.545 c0-0.867-0.318-1.708-0.887-2.369v-4.667c0.052-0.519,0.236-3.448-1.883-5.864C34.524,9.065,31.541,8,27.5,8 s-7.024,1.065-8.867,3.168c-2.119,2.416-1.935,5.345-1.883,5.864v4.667c-0.568,0.661-0.887,1.502-0.887,2.369v3.545 c0,1.101,0.494,2.128,1.34,2.821c0.81,3.173,2.477,5.575,3.093,6.389v2.894c0,0.816-0.445,1.566-1.162,1.958l-7.907,4.313 c-0.252,0.137-0.502,0.297-0.752,0.476C5.276,41.792,2,35.022,2,27.5z M42.459,48.132c-0.35,0.254-0.706,0.5-1.067,0.735 c-0.166,0.108-0.331,0.216-0.5,0.321c-0.472,0.292-0.952,0.57-1.442,0.83c-0.108,0.057-0.217,0.111-0.326,0.167 c-1.126,0.577-2.291,1.073-3.488,1.476c-0.042,0.014-0.084,0.029-0.127,0.043c-0.627,0.208-1.262,0.393-1.904,0.552 c-0.002,0-0.004,0.001-0.006,0.001c-0.648,0.16-1.304,0.293-1.964,0.402c-0.018,0.003-0.036,0.007-0.054,0.01 c-0.621,0.101-1.247,0.174-1.875,0.229c-0.111,0.01-0.222,0.017-0.334,0.025C28.751,52.97,28.127,53,27.5,53 c-0.634,0-1.266-0.031-1.895-0.078c-0.109-0.008-0.218-0.015-0.326-0.025c-0.634-0.056-1.265-0.131-1.89-0.233 c-0.028-0.005-0.056-0.01-0.084-0.015c-1.322-0.221-2.623-0.546-3.89-0.971c-0.039-0.013-0.079-0.027-0.118-0.04 c-0.629-0.214-1.251-0.451-1.862-0.713c-0.004-0.002-0.009-0.004-0.013-0.006c-0.578-0.249-1.145-0.525-1.705-0.816 c-0.073-0.038-0.147-0.074-0.219-0.113c-0.511-0.273-1.011-0.568-1.504-0.876c-0.146-0.092-0.291-0.185-0.435-0.279 c-0.454-0.297-0.902-0.606-1.338-0.933c-0.045-0.034-0.088-0.07-0.133-0.104c0.032-0.018,0.064-0.036,0.096-0.054l7.907-4.313 c1.36-0.742,2.205-2.165,2.205-3.714l-0.001-3.602l-0.23-0.278c-0.022-0.025-2.184-2.655-3.001-6.216l-0.091-0.396l-0.341-0.221 c-0.481-0.311-0.769-0.831-0.769-1.392v-3.545c0-0.465,0.197-0.898,0.557-1.223l0.33-0.298v-5.57l-0.009-0.131 c-0.003-0.024-0.298-2.429,1.396-4.36C21.583,10.837,24.061,10,27.5,10c3.426,0,5.896,0.83,7.346,2.466 c1.692,1.911,1.415,4.361,1.413,4.381l-0.009,5.701l0.33,0.298c0.359,0.324,0.557,0.758,0.557,1.223v3.545 c0,0.713-0.485,1.36-1.181,1.575l-0.497,0.153l-0.16,0.495c-0.59,1.833-1.43,3.526-2.496,5.032c-0.262,0.37-0.517,0.698-0.736,0.949 l-0.248,0.283V39.8c0,1.612,0.896,3.062,2.338,3.782l8.467,4.233c0.054,0.027,0.107,0.055,0.16,0.083 C42.677,47.979,42.567,48.054,42.459,48.132z"/></symbol><symbol id="user-monochrome" viewBox="0 0 299.997 299.997"><title>user-monochrome</title><path d="M149.996,0C67.157,0,0.001,67.158,0.001,149.997c0,82.837,67.156,150,149.995,150s150-67.163,150-150 C299.996,67.156,232.835,0,149.996,0z M150.453,220.763v-0.002h-0.916H85.465c0-46.856,41.152-46.845,50.284-59.097l1.045-5.587 c-12.83-6.502-21.887-22.178-21.887-40.512c0-24.154,15.712-43.738,35.089-43.738c19.377,0,35.089,19.584,35.089,43.738 c0,18.178-8.896,33.756-21.555,40.361l1.19,6.349c10.019,11.658,49.802,12.418,49.802,58.488H150.453z"/></symbol><symbol id="users" viewBox="0 0 60 60"><title>users</title><path d="M55.517,46.55l-9.773-4.233c-0.23-0.115-0.485-0.396-0.704-0.771l6.525-0.005c0.114,0.011,2.804,0.257,4.961-0.67 c0.817-0.352,1.425-1.047,1.669-1.907c0.246-0.868,0.09-1.787-0.426-2.523c-1.865-2.654-6.218-9.589-6.354-16.623 c-0.003-0.121-0.397-12.083-12.21-12.18c-1.739,0.014-3.347,0.309-4.81,0.853c-0.319-0.813-0.789-1.661-1.488-2.459 C30.854,3.688,27.521,2.5,23,2.5s-7.854,1.188-9.908,3.53c-2.368,2.701-2.148,5.976-2.092,6.525v5.319c-0.64,0.729-1,1.662-1,2.625 v4c0,1.217,0.553,2.352,1.497,3.109c0.916,3.627,2.833,6.36,3.503,7.237v3.309c0,0.968-0.528,1.856-1.377,2.32l-8.921,4.866 C1.801,46.924,0,49.958,0,53.262V57.5h44h2h14v-3.697C60,50.711,58.282,47.933,55.517,46.55z M44,55.5H2v-2.238 c0-2.571,1.402-4.934,3.659-6.164l8.921-4.866C16.073,41.417,17,39.854,17,38.155v-4.019l-0.233-0.278 c-0.024-0.029-2.475-2.994-3.41-7.065l-0.091-0.396l-0.341-0.22C12.346,25.803,12,25.176,12,24.5v-4c0-0.561,0.238-1.084,0.67-1.475 L13,18.728V12.5l-0.009-0.131c-0.003-0.027-0.343-2.799,1.605-5.021C16.253,5.458,19.081,4.5,23,4.5 c3.905,0,6.727,0.951,8.386,2.828c0.825,0.932,1.24,1.973,1.447,2.867c0.016,0.07,0.031,0.139,0.045,0.208 c0.014,0.071,0.029,0.142,0.04,0.21c0.013,0.078,0.024,0.152,0.035,0.226c0.008,0.053,0.016,0.107,0.022,0.158 c0.015,0.124,0.027,0.244,0.035,0.355c0.001,0.009,0.001,0.017,0.001,0.026c0.007,0.108,0.012,0.21,0.015,0.303 c0,0.018,0,0.033,0.001,0.051c0.002,0.083,0.002,0.162,0.001,0.231c0,0.01,0,0.02,0,0.03c-0.004,0.235-0.02,0.375-0.02,0.378 L33,18.728l0.33,0.298C33.762,19.416,34,19.939,34,20.5v4c0,0.873-0.572,1.637-1.422,1.899l-0.498,0.153l-0.16,0.495 c-0.669,2.081-1.622,4.003-2.834,5.713c-0.297,0.421-0.586,0.794-0.837,1.079L28,34.123v4.125c0,0.253,0.025,0.501,0.064,0.745 c0.008,0.052,0.022,0.102,0.032,0.154c0.039,0.201,0.091,0.398,0.155,0.59c0.015,0.045,0.031,0.088,0.048,0.133 c0.078,0.209,0.169,0.411,0.275,0.605c0.012,0.022,0.023,0.045,0.035,0.067c0.145,0.256,0.312,0.499,0.504,0.723l0.228,0.281h0.039 c0.343,0.338,0.737,0.632,1.185,0.856l9.553,4.776C42.513,48.374,44,50.78,44,53.457V55.5z M58,55.5H46v-2.043 c0-3.439-1.911-6.53-4.986-8.068l-6.858-3.43c0.169-0.386,0.191-0.828,0.043-1.254c-0.245-0.705-0.885-1.16-1.63-1.16h-2.217 c-0.046-0.081-0.076-0.17-0.113-0.256c-0.05-0.115-0.109-0.228-0.142-0.349C30.036,38.718,30,38.486,30,38.248v-3.381 c0.229-0.28,0.47-0.599,0.719-0.951c1.239-1.75,2.232-3.698,2.954-5.799C35.084,27.47,36,26.075,36,24.5v-4 c0-0.963-0.36-1.896-1-2.625v-5.319c0.026-0.25,0.082-1.069-0.084-2.139c1.288-0.506,2.731-0.767,4.29-0.78 c9.841,0.081,10.2,9.811,10.21,10.221c0.147,7.583,4.746,14.927,6.717,17.732c0.169,0.24,0.22,0.542,0.139,0.827 c-0.046,0.164-0.178,0.462-0.535,0.615c-1.68,0.723-3.959,0.518-4.076,0.513h-6.883c-0.643,0-1.229,0.327-1.568,0.874 c-0.338,0.545-0.37,1.211-0.086,1.783c0.313,0.631,0.866,1.474,1.775,1.927l9.747,4.222C56.715,49.396,58,51.482,58,53.803V55.5z"/></symbol><symbol id="exit" viewBox="0 0 533.333 533.333"><title>exit</title><path d="M416.667,333.333v-66.666H250V200h166.667v-66.667l100,100L416.667,333.333z M383.333,300v133.333H216.667v100l-200-100V0 h366.667v166.667H350V33.333H83.333L216.667,100v300H350V300H383.333z"/></symbol><symbol id="forward-arrow" viewBox="0 0 459 459"><title>forward-arrow</title><path d="M459,216.75L280.5,38.25v102c-178.5,25.5-255,153-280.5,280.5C63.75,331.5,153,290.7,280.5,290.7v104.55L459,216.75z"/></symbol><symbol id="right-arrow-nib" viewBox="0 0 129 129"><title>right-arrow-nib</title><path d="m40.4,121.3c-0.8,0.8-1.8,1.2-2.9,1.2s-2.1-0.4-2.9-1.2c-1.6-1.6-1.6-4.2 0-5.8l51-51-51-51c-1.6-1.6-1.6-4.2 0-5.8 1.6-1.6 4.2-1.6 5.8,0l53.9,53.9c1.6,1.6 1.6,4.2 0,5.8l-53.9,53.9z"/></symbol><symbol id="right-arrow" viewBox="0 0 31.49 31.49"><title>right-arrow</title><path style="fill:#1E201D;" d="M21.205,5.007c-0.429-0.444-1.143-0.444-1.587,0c-0.429,0.429-0.429,1.143,0,1.571l8.047,8.047H1.111 C0.492,14.626,0,15.118,0,15.737c0,0.619,0.492,1.127,1.111,1.127h26.554l-8.047,8.032c-0.429,0.444-0.429,1.159,0,1.587 c0.444,0.444,1.159,0.444,1.587,0l9.952-9.952c0.444-0.429,0.444-1.143,0-1.571L21.205,5.007z"/></symbol><symbol id="restart" viewBox="0 0 52 52"><title>restart</title><path d="M26,0C11.663,0,0,11.663,0,26s11.663,26,26,26s26-11.663,26-26S40.337,0,26,0z M26,50C12.767,50,2,39.233,2,26 S12.767,2,26,2s24,10.767,24,24S39.233,50,26,50z"/><path d="M32,36.783V15.438L14.043,25.806L32,36.783z M30,33.217l-12.043-7.362L30,18.902V33.217z"/></symbol><symbol id="left-arrow" viewBox="0 0 31.494 31.494"><title>left-arrow</title><path style="fill:#1E201D;" d="M10.273,5.009c0.444-0.444,1.143-0.444,1.587,0c0.429,0.429,0.429,1.143,0,1.571l-8.047,8.047h26.554 c0.619,0,1.127,0.492,1.127,1.111c0,0.619-0.508,1.127-1.127,1.127H3.813l8.047,8.032c0.429,0.444,0.429,1.159,0,1.587 c-0.444,0.444-1.143,0.444-1.587,0l-9.952-9.952c-0.429-0.429-0.429-1.143,0-1.571L10.273,5.009z"/></symbol><symbol id="back-arrow" viewBox="0 0 459 459"><title>back-arrow</title><path d="M178.5,140.25v-102L0,216.75l178.5,178.5V290.7c127.5,0,216.75,40.8,280.5,130.05C433.5,293.25,357,165.75,178.5,140.25z"/></symbol><symbol id="long-arrow-pointing-to-left" viewBox="0 0 493.353 493.352"><title>long-arrow-pointing-to-left</title><path d="M490.786,212.678c-1.718-1.713-3.901-2.568-6.57-2.568H127.907v-63.953c0-3.809-1.812-6.567-5.424-8.28 c-3.621-1.521-6.952-0.949-9.995,1.713L2.853,240.658C0.95,242.564,0,244.848,0,247.511c0,2.474,0.95,4.665,2.853,6.567 l109.636,99.928c3.046,2.474,6.377,2.956,9.995,1.427c3.612-1.52,5.424-4.278,5.424-8.278v-63.953h356.315 c2.663,0,4.854-0.859,6.564-2.567c1.711-1.711,2.566-3.897,2.566-6.563v-54.821C493.356,216.586,492.497,214.393,490.786,212.678z"/></symbol><symbol id="left-arrow-nib" viewBox="0 0 129 129"><title>left-arrow-nib</title><path d="m88.6,121.3c0.8,0.8 1.8,1.2 2.9,1.2s2.1-0.4 2.9-1.2c1.6-1.6 1.6-4.2 0-5.8l-51-51 51-51c1.6-1.6 1.6-4.2 0-5.8s-4.2-1.6-5.8,0l-54,53.9c-1.6,1.6-1.6,4.2 0,5.8l54,53.9z"/></symbol><symbol id="layout" viewBox="0 0 129 129"><title>layout</title><path d="m10.5,58.9h44.3c2.3,0 4.1-1.8 4.1-4.1v-44.3c0-2.3-1.8-4.1-4.1-4.1h-44.3c-2.3,0-4.1,1.8-4.1,4.1v44.3c0,2.2 1.9,4.1 4.1,4.1zm4.1-44.3h36.1v36.1h-36.1v-36.1z"/><path d="m122.6,10.5c0-2.3-1.8-4.1-4.1-4.1h-44.3c-2.3,0-4.1,1.8-4.1,4.1v44.3c0,2.3 1.8,4.1 4.1,4.1h44.3c2.3,0 4.1-1.8 4.1-4.1v-44.3zm-8.2,40.2h-36.1v-36.1h36.1v36.1z"/><path d="m10.5,122.6h44.3c2.3,0 4.1-1.8 4.1-4.1v-44.3c0-2.3-1.8-4.1-4.1-4.1h-44.3c-2.3,0-4.1,1.8-4.1,4.1v44.3c0,2.2 1.9,4.1 4.1,4.1zm4.1-44.3h36.1v36.1h-36.1v-36.1z"/><path d="m118.5,70.1h-44.3c-2.3,0-4.1,1.8-4.1,4.1v44.3c0,2.3 1.8,4.1 4.1,4.1h44.3c2.3,0 4.1-1.8 4.1-4.1v-44.3c0-2.2-1.9-4.1-4.1-4.1zm-4.1,44.3h-36.1v-36.1h36.1v36.1z"/></symbol><symbol id="square-grid" viewBox="0 0 26.995 26.995"><title>square-grid</title><path d="M0,11.808h11.811V0.001H0V11.808z M15.184,0.001v11.807h11.811V0.001H15.184z M15.184,26.993h11.811V15.185H15.184V26.993z M0,26.993h11.811V15.185H0V26.993z"/></symbol><symbol id="instagram-logo" viewBox="0 0 169.063 169.063"><title>instagram-logo</title><path d="M122.406,0H46.654C20.929,0,0,20.93,0,46.655v75.752c0,25.726,20.929,46.655,46.654,46.655h75.752 c25.727,0,46.656-20.93,46.656-46.655V46.655C169.063,20.93,148.133,0,122.406,0z M154.063,122.407 c0,17.455-14.201,31.655-31.656,31.655H46.654C29.2,154.063,15,139.862,15,122.407V46.655C15,29.201,29.2,15,46.654,15h75.752 c17.455,0,31.656,14.201,31.656,31.655V122.407z"/><path d="M84.531,40.97c-24.021,0-43.563,19.542-43.563,43.563c0,24.02,19.542,43.561,43.563,43.561s43.563-19.541,43.563-43.561 C128.094,60.512,108.552,40.97,84.531,40.97z M84.531,113.093c-15.749,0-28.563-12.812-28.563-28.561 c0-15.75,12.813-28.563,28.563-28.563s28.563,12.813,28.563,28.563C113.094,100.281,100.28,113.093,84.531,113.093z"/><path d="M129.921,28.251c-2.89,0-5.729,1.17-7.77,3.22c-2.051,2.04-3.23,4.88-3.23,7.78c0,2.891,1.18,5.73,3.23,7.78 c2.04,2.04,4.88,3.22,7.77,3.22c2.9,0,5.73-1.18,7.78-3.22c2.05-2.05,3.22-4.89,3.22-7.78c0-2.9-1.17-5.74-3.22-7.78 C135.661,29.421,132.821,28.251,129.921,28.251z"/></symbol><symbol id="tag" viewBox="0 0 533.333 533.333"><title>tag</title><path d="M483.236,0H332.943c-27.556,0-66.04,15.94-85.523,35.424L14.612,268.231c-19.483,19.483-19.483,51.367,0,70.85 L194.253,518.72c19.483,19.484,51.365,19.484,70.849,0L497.91,285.913c19.483-19.484,35.424-57.969,35.424-85.522V50.098 C533.333,22.544,510.79,0,483.236,0z M416.667,166.667c-27.614,0-50-22.385-50-50c0-27.614,22.386-50,50-50s50,22.386,50,50 C466.667,144.281,444.281,166.667,416.667,166.667z"/></symbol><symbol id="bookmark-black-shape" viewBox="0 0 431.972 431.972"><title>bookmark-black-shape</title><path d="M393.146,14.279c-3.713-5.333-8.713-9.233-14.989-11.707c-3.997-1.711-8.186-2.568-12.565-2.568V0H66.378 c-4.377,0-8.562,0.857-12.56,2.568c-6.28,2.472-11.278,6.377-14.989,11.707c-3.71,5.33-5.568,11.228-5.568,17.701v368.019 c0,6.475,1.858,12.371,5.568,17.706c3.711,5.329,8.709,9.233,14.989,11.704c3.994,1.711,8.183,2.566,12.56,2.566 c8.949,0,16.844-3.142,23.698-9.418l125.91-121.062l125.91,121.065c6.663,6.081,14.562,9.127,23.695,9.127 c4.76,0,8.948-0.756,12.565-2.279c6.276-2.471,11.276-6.375,14.989-11.711c3.71-5.328,5.564-11.225,5.564-17.699V31.98 C398.71,25.507,396.852,19.609,393.146,14.279z"/></symbol><symbol id="bookmark-white" viewBox="0 0 431.972 431.972"><title>bookmark-white</title><path d="M393.146,14.279c-3.713-5.333-8.713-9.233-14.989-11.707c-3.997-1.711-8.186-2.568-12.565-2.568V0H66.378 c-4.377,0-8.562,0.857-12.56,2.568c-6.28,2.472-11.278,6.377-14.989,11.707c-3.71,5.33-5.568,11.228-5.568,17.701v368.019 c0,6.475,1.858,12.371,5.568,17.706c3.711,5.329,8.709,9.233,14.989,11.704c3.994,1.711,8.183,2.566,12.56,2.566 c8.949,0,16.844-3.142,23.698-9.418l125.91-121.062l125.91,121.065c6.663,6.081,14.562,9.127,23.695,9.127 c4.76,0,8.948-0.756,12.565-2.279c6.276-2.471,11.276-6.375,14.989-11.711c3.71-5.328,5.564-11.225,5.564-17.699V31.98 C398.71,25.507,396.852,19.609,393.146,14.279z M362.166,391.139L241.397,275.224l-25.411-24.264l-25.409,24.264L69.809,391.139 V36.549h292.357V391.139L362.166,391.139z"/></symbol><symbol id="bookmark" viewBox="0 0 56.868 56.868"><title>bookmark</title><path d="M52.934,6.136c0-3.324-2.684-6.053-6-6.126V0h-36.91c-3.358,0-6.09,2.731-6.09,6.09v50.778l19-12.666l19,12.666V25h11V6.136 z M39.934,53.132l-17-11.334l-17,11.334V6.09c0-2.255,1.835-4.09,4.09-4.09H42.04c-0.983,0.962-1.682,2.212-1.965,3.611 l-0.001,0.003c-0.045,0.222-0.08,0.448-0.103,0.677C39.947,6.524,39.934,6.761,39.934,7v18V53.132z M50.934,23h-9V7 c0-0.34,0.035-0.671,0.1-0.992c0.387-1.89,1.858-3.399,3.728-3.855c0.036-0.009,0.068-0.025,0.104-0.032 c0.243-0.054,0.498-0.073,0.753-0.089c0.083-0.005,0.162-0.024,0.246-0.025c2.246,0.037,4.069,1.881,4.069,4.129V23z"/></symbol><symbol id="favorite-heart-button" viewBox="0 0 510 510"><title>favorite-heart-button</title><path d="M255,489.6l-35.7-35.7C86.7,336.6,0,257.55,0,160.65C0,81.6,61.2,20.4,140.25,20.4c43.35,0,86.7,20.4,114.75,53.55 C283.05,40.8,326.4,20.4,369.75,20.4C448.8,20.4,510,81.6,510,160.65c0,96.9-86.7,175.95-219.3,293.25L255,489.6z"/></symbol><symbol id="server-disconnected" viewBox="0 0 60 60"><title>server-disconnected</title><path d="M10.5,16c2.481,0,4.5-2.019,4.5-4.5S12.981,7,10.5,7S6,9.019,6,11.5S8.019,16,10.5,16z M10.5,9c1.378,0,2.5,1.121,2.5,2.5 S11.878,14,10.5,14S8,12.879,8,11.5S9.122,9,10.5,9z"/><circle cx="50" cy="10" r="1"/><circle cx="46" cy="10" r="1"/><circle cx="52" cy="13" r="1"/><circle cx="48" cy="13" r="1"/><circle cx="42" cy="10" r="1"/><circle cx="44" cy="13" r="1"/><circle cx="38" cy="10" r="1"/><circle cx="40" cy="13" r="1"/><circle cx="34" cy="10" r="1"/><circle cx="36" cy="13" r="1"/><path d="M16.902,3h1.026c0.552,0,1-0.447,1-1s-0.448-1-1-1h-1.026c-0.552,0-1,0.447-1,1S16.35,3,16.902,3z"/><path d="M8.692,3h1.026c0.552,0,1-0.447,1-1s-0.448-1-1-1H8.692c-0.552,0-1,0.447-1,1S8.14,3,8.692,3z"/><path d="M13.823,20h-0.505h-0.521c-0.552,0-1,0.447-1,1s0.448,1,1,1h0.521h0.505h0.521c0.552,0,1-0.447,1-1s-0.448-1-1-1H13.823z"/><path d="M12.797,3h1.026c0.552,0,1-0.447,1-1s-0.448-1-1-1h-1.026c-0.552,0-1,0.447-1,1S12.245,3,12.797,3z"/><path d="M21.007,3h1.026c0.552,0,1-0.447,1-1s-0.448-1-1-1h-1.026c-0.552,0-1,0.447-1,1S20.455,3,21.007,3z"/><path d="M41.53,3h1.026c0.552,0,1-0.447,1-1s-0.448-1-1-1H41.53c-0.552,0-1,0.447-1,1S40.978,3,41.53,3z"/><path d="M37.426,3h1.026c0.552,0,1-0.447,1-1s-0.448-1-1-1h-1.026c-0.552,0-1,0.447-1,1S36.874,3,37.426,3z"/><path d="M49.74,3h1.026c0.552,0,1-0.447,1-1s-0.448-1-1-1H49.74c-0.552,0-1,0.447-1,1S49.188,3,49.74,3z"/><path d="M53.845,3h1.026c0.552,0,1-0.447,1-1s-0.448-1-1-1h-1.026c-0.552,0-1,0.447-1,1S53.292,3,53.845,3z"/><path d="M33.321,3h1.026c0.552,0,1-0.447,1-1s-0.448-1-1-1h-1.026c-0.552,0-1,0.447-1,1S32.769,3,33.321,3z"/><path d="M25.111,3h1.026c0.552,0,1-0.447,1-1s-0.448-1-1-1h-1.026c-0.552,0-1,0.447-1,1S24.559,3,25.111,3z"/><path d="M29.216,3h1.026c0.552,0,1-0.447,1-1s-0.448-1-1-1h-1.026c-0.552,0-1,0.447-1,1S28.664,3,29.216,3z"/><path d="M45.635,3h1.026c0.552,0,1-0.447,1-1s-0.448-1-1-1h-1.026c-0.552,0-1,0.447-1,1S45.083,3,45.635,3z"/><path d="M4.608,3h1.005c0.552,0,1-0.447,1-1s-0.448-1-1-1H4.587c-0.552,0-0.99,0.447-0.99,1S4.056,3,4.608,3z"/><path d="M57.489,20.497c0.188,0.16,0.418,0.238,0.647,0.238c0.283,0,0.565-0.12,0.763-0.353c0.284-0.334,0.519-0.705,0.697-1.102 c0.227-0.503,0.002-1.095-0.501-1.322c-0.504-0.226-1.096-0.003-1.322,0.502c-0.102,0.225-0.235,0.436-0.398,0.627 C57.017,19.509,57.068,20.14,57.489,20.497z"/><path d="M1,9.169c0.552,0,1-0.447,1-1V7.143c0-0.553-0.448-1-1-1s-1,0.447-1,1v1.026C0,8.722,0.448,9.169,1,9.169z"/><path d="M1,13.273c0.552,0,1-0.447,1-1v-1.026c0-0.553-0.448-1-1-1s-1,0.447-1,1v1.026C0,12.826,0.448,13.273,1,13.273z"/><path d="M22.553,20h-0.521h-0.505h-0.521c-0.552,0-1,0.447-1,1s0.448,1,1,1h0.521h0.505h0.521c0.552,0,1-0.447,1-1 S23.105,20,22.553,20z"/><path d="M54.871,20h-0.506h-0.521c-0.552,0-1,0.447-1,1s0.448,1,1,1h1.026c0.001,0,0.002,0,0.002,0l0.555,0l0.001-0.191 c0.002-0.001,0.003-0.002,0.005-0.003v0.194c0.552,0,0.979-0.447,0.979-1c0-0.552-0.468-0.999-1.021-0.999H54.871z"/><path d="M1,17.378c0.552,0,1-0.447,1-1v-1.025c0-0.553-0.448-1-1-1s-1,0.447-1,1v1.025C0,16.931,0.448,17.378,1,17.378z"/><path d="M59,9.706c-0.552,0-1,0.447-1,1v1.025c0,0.553,0.448,1,1,1s1-0.447,1-1v-1.025C60,10.153,59.552,9.706,59,9.706z"/><path d="M57.579,4.186c0.192,0.293,0.511,0.452,0.837,0.452c0.188,0,0.378-0.053,0.547-0.163c0.462-0.303,0.591-0.923,0.289-1.385 c-0.239-0.365-0.528-0.694-0.86-0.979c-0.418-0.36-1.05-0.312-1.41,0.107s-0.312,1.05,0.107,1.41 C57.277,3.79,57.442,3.978,57.579,4.186z"/><path d="M59,13.811c-0.552,0-1,0.447-1,1v1.026c0,0.553,0.448,1,1,1s1-0.447,1-1v-1.026C60,14.258,59.552,13.811,59,13.811z"/><path d="M0.909,5.021c0.134,0.061,0.275,0.09,0.415,0.09c0.379,0,0.742-0.217,0.91-0.585c0.103-0.225,0.237-0.434,0.399-0.621 c0.361-0.417,0.316-1.049-0.102-1.41C2.114,2.132,1.482,2.179,1.121,2.596c-0.287,0.331-0.524,0.701-0.706,1.1 C0.185,4.197,0.407,4.791,0.909,5.021z"/><path d="M1.033,18.504c-0.464,0.299-0.599,0.918-0.3,1.382c0.237,0.368,0.525,0.7,0.856,0.987c0.189,0.164,0.422,0.244,0.654,0.244 c0.28,0,0.559-0.117,0.756-0.346c0.362-0.417,0.316-1.049-0.101-1.41c-0.188-0.162-0.351-0.351-0.484-0.558 C2.117,18.34,1.496,18.205,1.033,18.504z"/><path d="M59,5.601c-0.552,0-1,0.447-1,1v1.026c0,0.553,0.448,1,1,1s1-0.447,1-1V6.601C60,6.048,59.552,5.601,59,5.601z"/><path d="M15,30.5c0-2.481-2.019-4.5-4.5-4.5S6,28.019,6,30.5S8.019,35,10.5,35S15,32.981,15,30.5z M10.5,33 C9.122,33,8,31.879,8,30.5S9.122,28,10.5,28s2.5,1.121,2.5,2.5S11.878,33,10.5,33z"/><circle cx="50" cy="29" r="1"/><circle cx="46" cy="29" r="1"/><circle cx="52" cy="32" r="1"/><circle cx="48" cy="32" r="1"/><circle cx="42" cy="29" r="1"/><circle cx="44" cy="32" r="1"/><circle cx="38" cy="29" r="1"/><circle cx="40" cy="32" r="1"/><circle cx="34" cy="29" r="1"/><circle cx="36" cy="32" r="1"/><path d="M46.156,41h1.026c0.552,0,1-0.447,1-1s-0.448-1-1-1h-1.026c-0.552,0-1,0.447-1,1S45.604,41,46.156,41z"/><path d="M42.051,41h1.026c0.552,0,1-0.447,1-1s-0.448-1-1-1h-1.026c-0.552,0-1,0.447-1,1S41.499,41,42.051,41z"/><path d="M46.156,22h0.506h0.521c0.552,0,1-0.447,1-1s-0.448-1-1-1h-0.521h-0.506h-0.521c-0.552,0-1,0.447-1,1s0.448,1,1,1H46.156z"/><path d="M57.579,23.186c0.192,0.293,0.511,0.452,0.837,0.452c0.188,0,0.378-0.053,0.547-0.163c0.462-0.303,0.591-0.923,0.289-1.385 c-0.239-0.365-0.528-0.694-0.86-0.979c-0.418-0.359-1.05-0.311-1.41,0.107c-0.36,0.419-0.312,1.05,0.107,1.41 C57.277,22.79,57.442,22.978,57.579,23.186z"/><path d="M49.74,22h0.521h0.505h0.521c0.552,0,1-0.447,1-1s-0.448-1-1-1h-0.521h-0.505H49.74c-0.552,0-1,0.447-1,1 S49.188,22,49.74,22z"/><path d="M36.426,21c0,0.553,0.448,1,1,1h0.521h0.506h0.521c0.552,0,1-0.447,1-1s-0.448-1-1-1h-0.521h-0.506h-0.521 C36.874,20,36.426,20.447,36.426,21z"/><path d="M50.261,41h1.026c0.552,0,1-0.447,1-1s-0.448-1-1-1h-1.026c-0.552,0-1,0.447-1,1S49.708,41,50.261,41z"/><path d="M56.412,39.999c0-0.552-0.468-0.999-1.021-0.999h-1.026c-0.552,0-1,0.447-1,1s0.448,1,1,1l1.062-0.001l0.006-1v1 C55.985,40.999,56.412,40.552,56.412,39.999z"/><path d="M57.489,39.497c0.188,0.16,0.418,0.238,0.647,0.238c0.283,0,0.565-0.12,0.763-0.353c0.284-0.334,0.519-0.705,0.697-1.102 c0.227-0.503,0.002-1.095-0.501-1.322c-0.504-0.226-1.096-0.003-1.322,0.502c-0.102,0.225-0.235,0.436-0.398,0.627 C57.017,38.509,57.068,39.14,57.489,39.497z"/><path d="M42.051,22h0.505h0.521c0.552,0,1-0.447,1-1s-0.448-1-1-1h-0.521h-0.505H41.53c-0.552,0-1,0.447-1,1s0.448,1,1,1H42.051z"/><path d="M37.946,41h1.026c0.552,0,1-0.447,1-1s-0.448-1-1-1h-1.026c-0.552,0-1,0.447-1,1S37.394,41,37.946,41z"/><path d="M1,28.169c0.552,0,1-0.447,1-1v-1.026c0-0.553-0.448-1-1-1s-1,0.447-1,1v1.026C0,27.722,0.448,28.169,1,28.169z"/><path d="M1,36.378c0.552,0,1-0.447,1-1v-1.025c0-0.553-0.448-1-1-1s-1,0.447-1,1v1.025C0,35.931,0.448,36.378,1,36.378z"/><path d="M59,32.811c-0.552,0-1,0.447-1,1v1.026c0,0.553,0.448,1,1,1s1-0.447,1-1v-1.026C60,33.258,59.552,32.811,59,32.811z"/><path d="M2.633,22.904c0.361-0.417,0.316-1.049-0.102-1.41c-0.417-0.362-1.049-0.315-1.411,0.102 c-0.287,0.331-0.524,0.701-0.706,1.1c-0.229,0.502-0.008,1.096,0.495,1.325c0.134,0.061,0.275,0.09,0.415,0.09 c0.379,0,0.742-0.217,0.91-0.585C2.336,23.301,2.471,23.092,2.633,22.904z"/><path d="M1.033,37.504c-0.464,0.299-0.599,0.918-0.3,1.382c0.237,0.368,0.525,0.7,0.856,0.987c0.189,0.164,0.422,0.244,0.654,0.244 c0.28,0,0.559-0.117,0.756-0.346c0.362-0.417,0.316-1.049-0.101-1.41c-0.188-0.162-0.351-0.351-0.484-0.558 C2.117,37.34,1.496,37.205,1.033,37.504z"/><path d="M33.321,22h0.521h0.505h0.521c0.552,0,1-0.447,1-1s-0.448-1-1-1h-0.521h-0.505h-0.521c-0.552,0-1,0.447-1,1 S32.769,22,33.321,22z"/><path d="M59,28.706c-0.552,0-1,0.447-1,1v1.025c0,0.553,0.448,1,1,1s1-0.447,1-1v-1.025C60,29.153,59.552,28.706,59,28.706z"/><path d="M59,24.601c-0.552,0-1,0.447-1,1v1.026c0,0.553,0.448,1,1,1s1-0.447,1-1v-1.026C60,25.048,59.552,24.601,59,24.601z"/><path d="M22.553,39h-1.026c-0.552,0-1,0.447-1,1s0.448,1,1,1h1.026c0.552,0,1-0.447,1-1S23.105,39,22.553,39z"/><path d="M4.608,22h0.5h0.506h0.521c0.552,0,1-0.447,1-1s-0.448-1-1-1H5.614H5.108H4.587c-0.552,0-0.99,0.447-0.99,1 S4.056,22,4.608,22z"/><path d="M1,32.273c0.552,0,1-0.447,1-1v-1.026c0-0.553-0.448-1-1-1s-1,0.447-1,1v1.026C0,31.826,0.448,32.273,1,32.273z"/><path d="M13.318,41h1.026c0.552,0,1-0.447,1-1s-0.448-1-1-1h-1.026c-0.552,0-1,0.447-1,1S12.766,41,13.318,41z"/><path d="M16.902,22h0.521h0.506h0.521c0.552,0,1-0.447,1-1s-0.448-1-1-1h-0.521h-0.506h-0.521c-0.552,0-1,0.447-1,1 S16.35,22,16.902,22z"/><path d="M25.111,22h0.521h0.506h0.521c0.552,0,1-0.447,1-1s-0.448-1-1-1h-0.521h-0.506h-0.521c-0.552,0-1,0.447-1,1 S24.559,22,25.111,22z"/><path d="M29.216,22h0.521h0.505h0.521c0.552,0,1-0.447,1-1s-0.448-1-1-1h-0.521h-0.505h-0.521c-0.552,0-1,0.447-1,1 S28.664,22,29.216,22z"/><path d="M32.842,40c0,0.553,0.448,1,1,1h1.026c0.552,0,1-0.447,1-1s-0.448-1-1-1h-1.026C33.29,39,32.842,39.447,32.842,40z"/><path d="M26.658,39h-1.026c-0.552,0-1,0.447-1,1s0.448,1,1,1h1.026c0.552,0,1-0.447,1-1S27.21,39,26.658,39z"/><path d="M9.213,22h0.506h0.521c0.552,0,1-0.447,1-1s-0.448-1-1-1H9.719H9.213H8.692c-0.552,0-1,0.447-1,1s0.448,1,1,1H9.213z"/><path d="M18.449,39h-1.026c-0.552,0-1,0.447-1,1s0.448,1,1,1h1.026c0.552,0,1-0.447,1-1S19.001,39,18.449,39z"/><path d="M5.108,39c-0.552,0-1,0.447-1,1s0.448,1,1,1h1.026c0.552,0,1-0.447,1-1s-0.448-1-1-1H5.108z"/><path d="M9.213,39c-0.552,0-1,0.447-1,1s0.448,1,1,1h1.026c0.552,0,1-0.447,1-1s-0.448-1-1-1H9.213z"/><path d="M22,53H1c-0.552,0-1,0.447-1,1s0.448,1,1,1h21c0.552,0,1-0.447,1-1S22.552,53,22,53z"/><path d="M59,53H38c-0.552,0-1,0.447-1,1s0.448,1,1,1h21c0.552,0,1-0.447,1-1S59.552,53,59,53z"/><path d="M30.414,41h0.349c0.552,0,1-0.447,1-1s-0.448-1-1-1h-1.026c-0.485,0-0.871,0.352-0.962,0.811l-4.982,4.982l1.414,1.414 L30.414,41z"/><path d="M34.793,43.793l-5.254,5.254C27.001,49.283,25,51.401,25,54c0,2.757,2.243,5,5,5s5-2.243,5-5 c0-2.048-1.24-3.807-3.006-4.58l4.213-4.213L34.793,43.793z M33,54c0,1.654-1.346,3-3,3s-3-1.346-3-3s1.346-3,3-3S33,52.346,33,54z "/></symbol><symbol id="server" viewBox="0 0 60 60"><title>server</title><path d="M10.5,7.069c-2.481,0-4.5,2.019-4.5,4.5s2.019,4.5,4.5,4.5s4.5-2.019,4.5-4.5S12.981,7.069,10.5,7.069z M10.5,14.069 c-1.378,0-2.5-1.121-2.5-2.5s1.122-2.5,2.5-2.5s2.5,1.121,2.5,2.5S11.878,14.069,10.5,14.069z"/><circle cx="50" cy="10.069" r="1"/><circle cx="46" cy="10.069" r="1"/><circle cx="52" cy="13.069" r="1"/><circle cx="48" cy="13.069" r="1"/><circle cx="42" cy="10.069" r="1"/><circle cx="44" cy="13.069" r="1"/><circle cx="38" cy="10.069" r="1"/><circle cx="40" cy="13.069" r="1"/><circle cx="34" cy="10.069" r="1"/><circle cx="36" cy="13.069" r="1"/><path d="M60,17.46V5.677c0-2.541-2.067-4.608-4.608-4.608H4.608C2.067,1.069,0,3.136,0,5.677V17.46 c0,1.469,0.703,2.764,1.777,3.608C0.703,21.913,0,23.208,0,24.677V36.46c0,2.541,2.067,4.608,4.608,4.608H30h25.392 c2.541,0,4.608-2.067,4.608-4.608V24.677c0-1.469-0.703-2.764-1.777-3.608C59.297,20.224,60,18.929,60,17.46z M58,24.677V36.46 c0,1.438-1.17,2.608-2.608,2.608H4.608C3.17,39.069,2,37.899,2,36.46V24.677c0-1.438,1.17-2.608,2.608-2.608h50.783 C56.83,22.069,58,23.239,58,24.677z M4.608,20.069C3.17,20.069,2,18.899,2,17.46V5.677c0-1.438,1.17-2.608,2.608-2.608h50.783 C56.83,3.069,58,4.239,58,5.677V17.46c0,1.438-1.17,2.608-2.608,2.608H4.608z"/><path d="M10.5,35.069c2.481,0,4.5-2.019,4.5-4.5s-2.019-4.5-4.5-4.5S6,28.087,6,30.569S8.019,35.069,10.5,35.069z M10.5,28.069 c1.378,0,2.5,1.121,2.5,2.5s-1.122,2.5-2.5,2.5S8,31.948,8,30.569S9.122,28.069,10.5,28.069z"/><path d="M31.473,51.455c0.229,0.129,0.439,0.288,0.626,0.471c0.195,0.191,0.448,0.286,0.7,0.286c0.259,0,0.518-0.101,0.714-0.3 c0.387-0.395,0.38-1.027-0.014-1.414c-0.311-0.305-0.66-0.567-1.039-0.783c-0.483-0.271-1.091-0.105-1.363,0.377 C30.825,50.572,30.993,51.182,31.473,51.455z"/><path d="M31.504,56.666c-0.225,0.132-0.467,0.232-0.719,0.3c-0.533,0.144-0.849,0.692-0.706,1.226 c0.121,0.446,0.524,0.74,0.965,0.74c0.086,0,0.173-0.011,0.261-0.034c0.422-0.114,0.828-0.283,1.205-0.503 c0.477-0.278,0.639-0.891,0.361-1.368C32.593,56.549,31.981,56.389,31.504,56.666z"/><path d="M34,53.045c-0.552,0-1,0.471-1,1.023c0,0.264-0.034,0.524-0.101,0.775c-0.143,0.533,0.175,1.081,0.708,1.224 c0.086,0.023,0.173,0.034,0.258,0.034c0.442,0,0.846-0.295,0.966-0.742C34.943,54.941,35,54.506,35,54.069v-0.047 C35,53.469,34.552,53.045,34,53.045z"/><path d="M28.51,56.672c-0.227-0.13-0.436-0.289-0.621-0.473c-0.392-0.39-1.024-0.386-1.414,0.004 c-0.39,0.392-0.388,1.025,0.004,1.414c0.31,0.308,0.659,0.574,1.038,0.791c0.157,0.09,0.327,0.132,0.496,0.132 c0.347,0,0.684-0.181,0.869-0.503C29.155,57.558,28.989,56.947,28.51,56.672z"/><path d="M28.667,49.25c-0.42,0.115-0.824,0.287-1.2,0.508c-0.476,0.28-0.635,0.893-0.355,1.369 c0.187,0.316,0.521,0.493,0.863,0.493c0.172,0,0.347-0.044,0.506-0.138c0.226-0.133,0.467-0.235,0.719-0.305 c0.532-0.146,0.845-0.697,0.698-1.229C29.75,49.416,29.2,49.105,28.667,49.25z"/><path d="M27,54.069c0-0.258,0.033-0.513,0.097-0.759c0.139-0.534-0.181-1.08-0.716-1.22c-0.535-0.138-1.081,0.181-1.22,0.716 C25.054,53.216,25,53.641,25,54.09l1,0.002h-1c0,0.553,0.447,0.988,1,0.988C26.553,55.081,27,54.622,27,54.069z"/><circle cx="50" cy="29.069" r="1"/><circle cx="46" cy="29.069" r="1"/><circle cx="52" cy="32.069" r="1"/><circle cx="48" cy="32.069" r="1"/><circle cx="42" cy="29.069" r="1"/><circle cx="44" cy="32.069" r="1"/><circle cx="38" cy="29.069" r="1"/><circle cx="40" cy="32.069" r="1"/><circle cx="34" cy="29.069" r="1"/><circle cx="36" cy="32.069" r="1"/><path d="M22,53.069h-1c-0.552,0-1,0.447-1,1s0.448,1,1,1h1c0.552,0,1-0.447,1-1S22.552,53.069,22,53.069z"/><path d="M14,53.069h-1c-0.552,0-1,0.447-1,1s0.448,1,1,1h1c0.552,0,1-0.447,1-1S14.552,53.069,14,53.069z"/><path d="M18,53.069h-1c-0.552,0-1,0.447-1,1s0.448,1,1,1h1c0.552,0,1-0.447,1-1S18.552,53.069,18,53.069z"/><path d="M2,53.069H1c-0.552,0-1,0.447-1,1s0.448,1,1,1h1c0.552,0,1-0.447,1-1S2.552,53.069,2,53.069z"/><path d="M6,53.069H5c-0.552,0-1,0.447-1,1s0.448,1,1,1h1c0.552,0,1-0.447,1-1S6.552,53.069,6,53.069z"/><path d="M10,53.069H9c-0.552,0-1,0.447-1,1s0.448,1,1,1h1c0.552,0,1-0.447,1-1S10.552,53.069,10,53.069z"/><path d="M39,53.069h-1c-0.552,0-1,0.447-1,1s0.448,1,1,1h1c0.552,0,1-0.447,1-1S39.552,53.069,39,53.069z"/><path d="M47,53.069h-1c-0.552,0-1,0.447-1,1s0.448,1,1,1h1c0.552,0,1-0.447,1-1S47.552,53.069,47,53.069z"/><path d="M43,53.069h-1c-0.552,0-1,0.447-1,1s0.448,1,1,1h1c0.552,0,1-0.447,1-1S43.552,53.069,43,53.069z"/><path d="M59,53.069h-1c-0.552,0-1,0.447-1,1s0.448,1,1,1h1c0.552,0,1-0.447,1-1S59.552,53.069,59,53.069z"/><path d="M51,53.069h-1c-0.552,0-1,0.447-1,1s0.448,1,1,1h1c0.552,0,1-0.447,1-1S51.552,53.069,51,53.069z"/><path d="M55,53.069h-1c-0.552,0-1,0.447-1,1s0.448,1,1,1h1c0.552,0,1-0.447,1-1S55.552,53.069,55,53.069z"/><path d="M31,47.069v-1c0-0.553-0.448-1-1-1s-1,0.447-1,1v1c0,0.553,0.448,1,1,1S31,47.622,31,47.069z"/><path d="M29,42.069v1c0,0.553,0.448,1,1,1s1-0.447,1-1v-1c0-0.553-0.448-1-1-1S29,41.516,29,42.069z"/></symbol><symbol id="black-graduation-cap-tool-of-university-student-for-head" viewBox="0 0 31.991 31.992"><title>black-graduation-cap-tool-of-university-student-for-head</title><path d="M6.952,17.189v5.014c0,0,4.808-2.003,9.071-2.003c4.263,0,9.072,2.003,9.072,2.003v-5.084c0,0-4.587-2.426-9.143-2.426 C11.398,14.691,6.952,17.189,6.952,17.189z"/><path d="M30.188,15.995l1.804-0.97l-1.804-0.999v-0.474c0,0,0.508-2.576-2.379-1.229c-0.147,0.08-0.226,0.161-0.258,0.24 L15.645,5.96L0,14.914l5.908,2.684v-0.871c0,0,4.957-2.783,10.038-2.783c5.08,0,10.193,2.705,10.193,2.705v1.521l3.262-1.752 c0,2.029,0,6.369,0,7.093h-1.086v2.521l1.444-0.998l1.603,0.998V23.51h-1.174V15.995L30.188,15.995z M29.4,13.114 c0,0.061,0,0.229,0,0.475l-0.952-0.528C28.795,12.831,29.4,12.512,29.4,13.114z M29.078,15.896c-0.421,0-0.764-0.341-0.764-0.762 s0.343-0.763,0.764-0.763c0.422,0,0.763,0.342,0.763,0.763S29.5,15.896,29.078,15.896z"/></symbol><symbol id="subscribe-rss-button" viewBox="0 0 97.668 97.667"><title>subscribe-rss-button</title><path d="M12.639,72.389C5.67,72.389,0,78.059,0,85.028s5.67,12.638,12.639,12.638c6.969,0,12.639-5.669,12.639-12.638 S19.607,72.389,12.639,72.389z"/><path d="M2.102,36.384c-0.545-0.013-1.066,0.184-1.457,0.562c-0.39,0.377-0.609,0.896-0.609,1.438v16.217 c0,1.068,0.841,1.948,1.909,1.998c21.334,0.973,38.156,17.795,39.129,39.129c0.049,1.067,0.929,1.908,1.998,1.908H59.29 c0.542,0,1.062-0.22,1.438-0.608s0.578-0.916,0.562-1.457c-0.517-15.548-6.888-30.197-17.938-41.248 C32.3,43.272,17.651,36.902,2.102,36.384z"/><path d="M69.053,28.62C51.119,10.688,27.334,0.524,2.076,0.004c-0.54-0.026-1.058,0.194-1.44,0.571 C0.252,0.952,0.035,1.466,0.035,2.003v16.208c0,1.085,0.865,1.972,1.95,2c40.601,1.02,74.458,34.878,75.476,75.475 c0.025,1.085,0.914,1.949,1.999,1.949h16.208c0.537,0,1.053-0.216,1.43-0.601c0.375-0.384,0.582-0.903,0.57-1.441 C97.146,70.334,86.982,46.548,69.053,28.62z"/></symbol><symbol id="share-1" viewBox="0 0 300 300"><title>share-1</title><path d="M149.996,0C67.157,0,0.001,67.161,0.001,149.997S67.157,300,149.996,300s150.003-67.163,150.003-150.003 S232.835,0,149.996,0z M133.314,149.997c0,3.133-0.571,6.111-1.569,8.901l41.868,20.142c4.819-5.275,11.731-8.595,19.436-8.595 c14.553,0,26.353,11.796,26.353,26.348c0,14.555-11.803,26.356-26.359,26.356c-14.553,0-26.359-11.801-26.359-26.356 c0-1.395,0.145-2.757,0.353-4.09l-44.568-21.436c-4.357,3.188-9.71,5.089-15.52,5.089c-14.555,0-26.356-11.796-26.356-26.361 c0-14.55,11.801-26.348,26.356-26.348c5.81,0,11.165,1.901,15.523,5.086l44.571-21.431c-0.21-1.336-0.353-2.692-0.353-4.09 c0-14.558,11.803-26.356,26.359-26.356c14.553,0,26.356,11.798,26.356,26.356c0,14.555-11.803,26.356-26.356,26.356 c-7.7,0-14.617-3.328-19.436-8.598l-41.868,20.134C132.744,143.89,133.314,146.875,133.314,149.997z"/></symbol><symbol id="share" viewBox="0 0 58 58"><title>share</title><path d="M54.319,37.839C54.762,35.918,55,33.96,55,32c0-9.095-4.631-17.377-12.389-22.153c-0.473-0.29-1.087-0.143-1.376,0.327 c-0.29,0.471-0.143,1.086,0.327,1.376C48.724,15.96,53,23.604,53,32c0,1.726-0.2,3.451-0.573,5.147C51.966,37.051,51.489,37,51,37 c-3.86,0-7,3.141-7,7s3.14,7,7,7s7-3.141,7-7C58,41.341,56.509,39.024,54.319,37.839z M51,49c-2.757,0-5-2.243-5-5s2.243-5,5-5 s5,2.243,5,5S53.757,49,51,49z"/><path d="M38.171,54.182C35.256,55.388,32.171,56,29,56c-6.385,0-12.527-2.575-17.017-7.092C13.229,47.643,14,45.911,14,44 c0-3.859-3.14-7-7-7s-7,3.141-7,7s3.14,7,7,7c1.226,0,2.378-0.319,3.381-0.875C15.26,55.136,21.994,58,29,58 c3.435,0,6.778-0.663,9.936-1.971c0.51-0.211,0.753-0.796,0.542-1.307C39.267,54.213,38.681,53.971,38.171,54.182z M2,44 c0-2.757,2.243-5,5-5s5,2.243,5,5s-2.243,5-5,5S2,46.757,2,44z"/><path d="M4,31.213c0.024,0.002,0.048,0.003,0.071,0.003c0.521,0,0.959-0.402,0.997-0.93c0.712-10.089,7.586-18.52,17.22-21.314 C23.142,11.874,25.825,14,29,14c3.86,0,7-3.141,7-7s-3.14-7-7-7c-3.851,0-6.985,3.127-6.999,6.975 C11.42,9.922,3.851,19.12,3.073,30.146C3.034,30.696,3.449,31.175,4,31.213z M29,2c2.757,0,5,2.243,5,5s-2.243,5-5,5s-5-2.243-5-5 S26.243,2,29,2z"/></symbol><symbol id="network" viewBox="0 0 55 55"><title>network</title><path d="M49,0c-3.309,0-6,2.691-6,6c0,1.035,0.263,2.009,0.726,2.86l-9.829,9.829C32.542,17.634,30.846,17,29,17 s-3.542,0.634-4.898,1.688l-7.669-7.669C16.785,10.424,17,9.74,17,9c0-2.206-1.794-4-4-4S9,6.794,9,9s1.794,4,4,4 c0.74,0,1.424-0.215,2.019-0.567l7.669,7.669C21.634,21.458,21,23.154,21,25s0.634,3.542,1.688,4.897L10.024,42.562 C8.958,41.595,7.549,41,6,41c-3.309,0-6,2.691-6,6s2.691,6,6,6s6-2.691,6-6c0-1.035-0.263-2.009-0.726-2.86l12.829-12.829 c1.106,0.86,2.44,1.436,3.898,1.619v10.16c-2.833,0.478-5,2.942-5,5.91c0,3.309,2.691,6,6,6s6-2.691,6-6c0-2.967-2.167-5.431-5-5.91 v-10.16c1.458-0.183,2.792-0.759,3.898-1.619l7.669,7.669C41.215,39.576,41,40.26,41,41c0,2.206,1.794,4,4,4s4-1.794,4-4 s-1.794-4-4-4c-0.74,0-1.424,0.215-2.019,0.567l-7.669-7.669C36.366,28.542,37,26.846,37,25s-0.634-3.542-1.688-4.897l9.665-9.665 C46.042,11.405,47.451,12,49,12c3.309,0,6-2.691,6-6S52.309,0,49,0z"/></symbol><symbol id="slideshare-logotype" viewBox="0 0 90.001 90"><title>slideshare-logotype</title><path id="SlideShare" d="M88.621,35.316c-3.438,6.591-10.616,8.598-17.634,12.282c0,5.189,0,12.215,0,14.227 c0,2.006-2.585,13.676-12.442,13.676c-9.86,0-13.114-5.646-13.114-7.984c0-1.141,0-7.225,0-13.183 c-0.968-0.233-1.921-0.565-2.839-1.045c0,5.362,0,11.888,0,14.228c0,2.344-3.674,5.689-8.518,5.689 c-4.844,0-14.198-6.857-14.198-11.381c0-4.52,0-15.404,0-15.404s-12.962-5.074-15.97-8.758c-3.01-3.686-4.513-5.191-3.676-7.362 c0.804-2.103,10.526,6.023,16.205,7.362c5.685,1.34,15.539,2.011,19.718,1.845c4.179-0.168,6.519,1.506,8.856,3.679 c0.125,0.116,0.271,0.239,0.421,0.361c0-1,0-1.64,0-1.64c0-2.006,5.347-2.845,8.521-2.845c3.177,0,12.526,0,14.195,0 s14.625-4.245,17.634-7.597C88.787,28.121,91.854,29.122,88.621,35.316z M58.688,34.417c5.489,0,9.939-4.457,9.939-9.959 c0-5.501-4.45-9.958-9.939-9.958c-5.486,0-9.938,4.457-9.938,9.958C48.751,29.96,53.202,34.417,58.688,34.417z M32.499,34.417 c5.489,0,9.939-4.457,9.939-9.959c0-5.501-4.45-9.958-9.939-9.958c-5.489,0-9.938,4.457-9.938,9.958 C22.561,29.96,27.008,34.417,32.499,34.417z"/></symbol><symbol id="sharethis-logo" viewBox="0 0 430.117 430.118"><title>sharethis-logo</title><path id="ShareThis" d="M151.804,215.059c0,1.475-0.336,2.856-0.423,4.326l154.111,77.03 c13.194-11.173,30.075-18.146,48.725-18.146c41.925,0.009,75.9,33.985,75.9,75.905c0,41.967-33.976,75.942-75.9,75.942 c-41.961,0-75.9-33.976-75.9-75.942c0-1.512,0.336-2.861,0.42-4.326l-154.111-77.035c-13.234,11.131-30.075,18.104-48.725,18.104 c-41.922,0-75.9-33.938-75.9-75.858c0-41.962,33.979-75.945,75.9-75.945c18.649,0,35.496,7.017,48.725,18.148l154.111-77.035 c-0.084-1.473-0.42-2.858-0.42-4.368c0-41.88,33.939-75.859,75.9-75.859c41.925,0,75.9,33.979,75.9,75.859 c0,41.959-33.976,75.945-75.9,75.945c-18.691,0-35.539-7.017-48.725-18.19l-154.111,77.077 C151.463,212.163,151.804,213.549,151.804,215.059z"/></symbol><symbol id="thumbs-up" viewBox="0 0 241.66 241.66"><title>thumbs-up</title><path style="fill-rule:evenodd;clip-rule:evenodd;" d="M208.632,133.579c10.345,0.472,19.121-7.677,19.574-18.203 c0.453-10.526-6.821-19.989-17.174-20.444l-68.73-8.63c0,0,14.323-23.958,14.323-59.455C156.625,3.184,139.72,0,129.778,0 c-7.821-0.003-9.927,15.151-9.927,15.151h-0.016c-1.771,9.717-4.077,18.203-12.09,33.827C98.775,66.49,86.559,64.847,72.297,80.445 c-2.517,2.747-5.899,7.281-9.195,12.86c-0.269,0.295-0.52,0.708-0.763,1.289c-0.294,0.692-0.646,1.172-0.956,1.812 c-0.546,1.003-1.083,2.006-1.611,3.059c-8.827,8.827-22.579,7.925-28.435,7.925c-11.746,0-17.898,6.825-17.898,17.898 l-0.004,81.828c0,12.423,5.083,16.613,17.903,16.613h17.898c9.011,0,16.067,5.166,26.848,8.949 c14.767,5.116,36.821,8.956,74.811,8.956c6.644,0,27.251,0.025,27.251,0.025c6.309,0,11.377-2.882,15.034-6.362 c1.392-1.323,2.844-3.245,3.465-6.995c0.101-0.581,0.209-3.017,0.193-3.346c0.477-10.728-6.008-14.612-9.682-15.835 c0.1-0.034,0.034-0.126,0.234-0.118l11.663,0.522c10.353,0.472,20.572-6.986,20.572-19.669c0-10.517-8.525-17.934-18.844-18.439 l6.184,0.287c10.352,0.455,19.103-7.694,19.582-18.22C226.998,142.959,218.977,134.052,208.632,133.579z"/></symbol><symbol id="appreciation" viewBox="0 0 512 512"><title>appreciation</title><g> <g> <path d="M425.211,347.042l-1.248-87.582c-0.004-15.918-12.905-28.819-28.822-28.819c-5.251,0-10.17,1.412-14.408,3.865 l-0.001-7.036c0-15.917-12.902-28.818-28.817-28.818c-5.251,0.001-10.169,1.411-14.41,3.864l0.001-12.605 c-0.001-15.917-12.904-28.818-28.818-28.819c-5.859,0-11.303,1.76-15.85,4.764v-58.987c0-15.519-12.579-28.098-28.098-28.098 s-28.098,12.579-28.098,28.098v166.54l-13.372-41.613c-4.723-14.782-20.535-22.935-35.317-18.212 c-14.782,4.724-22.935,20.535-18.212,35.318l41.02,127.647c3.72,11.645,14.323,19.17,25.882,19.533v16.017h-12.488V512h187.317 v-99.902h-12.488v-36.501C413.084,373.718,425.212,361.656,425.211,347.042z M374.009,474.537h-112.39v-24.976h112.39V474.537z"/> </g> </g><g> <g> <polygon points="244.354,57.239 186.896,53.488 165.572,0 144.248,53.488 86.789,57.239 131.068,94.049 116.882,149.854 165.572,119.115 214.262,149.854 200.075,94.049 "/> </g> </g></symbol><symbol id="github-big-logo" viewBox="0 0 478.613 478.613"><title>github-big-logo</title><path d="M427.501,200.695c1.776-11.238,2.884-23.56,3.163-37.377c-0.107-59.246-28.468-80.21-33.925-90.038 c8.037-44.89-1.331-65.309-5.688-72.299c-16.07-5.704-55.91,14.722-77.678,29.101c-35.491-10.389-110.494-9.375-138.621,2.689 C122.856-4.389,95.408,1.277,95.408,1.277s-17.745,31.82-4.691,78.371c-17.075,21.759-29.802,37.143-29.802,77.949 c0,9.773,0.607,19.008,1.637,27.893c14.705,77.318,75.97,110.674,136.15,116.426c-9.056,6.881-19.928,19.903-21.432,34.992 c-11.379,7.357-34.268,9.789-52.067,4.193c-24.939-7.88-34.486-57.266-71.833-50.221c-8.081,1.512-6.475,6.842,0.523,11.386 c11.378,7.38,22.094,16.554,30.354,36.185c6.344,15.072,19.687,41.982,61.873,41.982c16.747,0,28.477-1.979,28.477-1.979 s0.319,38.406,0.319,53.385c0,17.238-23.264,22.078-23.264,30.348c0,3.289,7.7,3.601,13.888,3.601 c12.229,0,37.673-10.186,37.673-28.103c0-14.237,0.227-62.081,0.227-70.46c0-18.307,9.811-24.136,9.811-24.136 s1.201,97.727-2.361,110.829c-4.177,15.408-11.744,13.219-11.744,20.076c0,10.233,30.589,2.502,40.735-19.897 c7.849-17.495,4.334-113.331,4.334-113.331l8.183-0.178c0,0,0.094,43.892-0.188,63.944c-0.295,20.769-2.438,47.025,9.898,59.417 c8.097,8.15,32.903,22.451,32.903,9.382c0-7.574-17.371-13.833-17.371-34.353V344.45c10.553,0,12.734,31.072,12.734,31.072 l3.804,57.727c0,0-2.526,21.065,22.756,29.856c8.925,3.126,28.018,3.976,28.913-1.271c0.897-5.26-22.99-13.038-23.217-29.342 c-0.123-9.93,0.445-15.742,0.445-58.934c0-43.168-5.799-59.137-26.007-71.863C355.669,295.681,416.536,269.51,427.501,200.695z"/></symbol><symbol id="twitter-logo-silhouette" viewBox="0 0 612 612"><title>twitter-logo-silhouette</title><path style="fill:#010002;" d="M612,116.258c-22.525,9.981-46.694,16.75-72.088,19.772c25.929-15.527,45.777-40.155,55.184-69.411 c-24.322,14.379-51.169,24.82-79.775,30.48c-22.907-24.437-55.49-39.658-91.63-39.658c-69.334,0-125.551,56.217-125.551,125.513 c0,9.828,1.109,19.427,3.251,28.606C197.065,206.32,104.556,156.337,42.641,80.386c-10.823,18.51-16.98,40.078-16.98,63.101 c0,43.559,22.181,81.993,55.835,104.479c-20.575-0.688-39.926-6.348-56.867-15.756v1.568c0,60.806,43.291,111.554,100.693,123.104 c-10.517,2.83-21.607,4.398-33.08,4.398c-8.107,0-15.947-0.803-23.634-2.333c15.985,49.907,62.336,86.199,117.253,87.194 c-42.947,33.654-97.099,53.655-155.916,53.655c-10.134,0-20.116-0.612-29.944-1.721c55.567,35.681,121.536,56.485,192.438,56.485 c230.948,0,357.188-191.291,357.188-357.188l-0.421-16.253C573.872,163.526,595.211,141.422,612,116.258z"/></symbol><symbol id="facebook-social-symbol" viewBox="0 0 486.392 486.392"><title>facebook-social-symbol</title><path style="fill:#090509;" d="M273.443,159.354l0.122-41.951c0-21.857,1.52-33.561,32.831-33.561h57.941V0h-83.021 c-80.559,0-99.102,41.617-99.102,109.985l0.091,49.369l-61.133,0.03v83.811h61.133v243.196h91.168l0.061-243.196l82.778-0.03 l8.907-83.811H273.443z"/></symbol></svg>