<svg xmlns="http://www.w3.org/2000/svg" style="display: none;"><symbol id="signing-the-contract" viewBox="0 0 47 47"><title>signing-the-contract</title><path d="M26.198,8.368H10.176c-1.18,0-2.137,0.957-2.137,2.136c0,1.179,0.957,2.136,2.137,2.136h16.022 c1.182,0,2.137-0.957,2.137-2.136C28.334,9.325,27.379,8.368,26.198,8.368z"/><path d="M28.334,18.515c0-1.18-0.955-2.136-2.137-2.136H10.176c-1.18,0-2.137,0.957-2.137,2.136c0,1.18,0.957,2.137,2.137,2.137 h16.022C27.379,20.652,28.334,19.695,28.334,18.515z"/><path d="M18.188,28.663c1.18,0,2.136-0.957,2.136-2.136c0-1.18-0.956-2.137-2.136-2.137h-8.012c-1.18,0-2.137,0.957-2.137,2.137 s0.957,2.136,2.137,2.136H18.188z"/><path d="M34.314,35.93l-2.241,1.479v5.318H4.301V4.273h27.772v8.442l4.273-7.401V2.136c0-1.18-0.957-2.136-2.137-2.136H2.164 c-1.18,0-2.136,0.957-2.136,2.136v42.729c0,1.18,0.956,2.136,2.136,2.136h32.045c1.181,0,2.138-0.957,2.138-2.136V33.09 l-1.021,1.766C35.077,35.287,34.727,35.658,34.314,35.93z"/><path d="M46.947,9.894c-0.044-0.192-0.495-1.918-3.213-3.488c-2.718-1.569-4.438-1.097-4.628-1.038 c-0.255,0.081-0.47,0.253-0.604,0.485L25.15,28.979c-0.083,0.145-0.132,0.306-0.142,0.472l-0.5,8.345 c-0.024,0.404,0.182,0.786,0.531,0.989c0.352,0.202,0.785,0.188,1.123-0.033l6.977-4.606c0.139-0.09,0.254-0.213,0.337-0.356 L46.829,10.66C46.963,10.428,47.004,10.156,46.947,9.894z M28.854,35.055c-0.355-0.287-0.758-0.558-1.191-0.809 c-0.435-0.251-0.871-0.462-1.297-0.628l0.149-2.502c0.557,0.073,1.383,0.299,2.432,0.903c1.048,0.605,1.655,1.209,1.999,1.654 L28.854,35.055z"/><path d="M14.922,38.534c0.07,0.429,0.565,0.562,0.896,0.7c0.32,0.135,0.702-0.121,0.968-0.25c1.63-0.793,3.838,0.139,5.584,0.139 c1.033,0,1.033-1.602,0-1.602c-2.036,0-3.73-0.515-5.748-0.182c0-0.117-0.043-0.275-0.169-0.49 c-0.377-0.645-0.857-0.828-1.338-0.75c-0.032-0.076-0.063-0.152-0.108-0.229c-0.126-0.206-0.302-0.309-0.5-0.352 c0.563-0.984,0.926-2.025,0.557-2.867c-0.113-0.256-0.434-0.387-0.692-0.397c-1.07-0.04-1.988,1.083-2.676,1.757 c-1.721,1.687-3.237,3.602-4.704,5.508c-0.63,0.819,0.763,1.615,1.383,0.81c1.3-1.688,2.677-3.327,4.159-4.86 c-0.357,0.586-0.736,1.161-1.135,1.715c-0.57,0.881,0.791,1.631,1.383,0.809c0.141-0.215,0.32-0.37,0.516-0.503 c-0.039,0.099-0.079,0.196-0.119,0.296c0.002,0,0.004,0.001,0.006,0.002c-0.031,0.064-0.062,0.128-0.087,0.189 c-0.358,0.897,0.979,1.308,1.465,0.616c0.123-0.174,0.237-0.36,0.34-0.555C14.896,38.172,14.893,38.352,14.922,38.534z"/></symbol><symbol id="human-resources" viewBox="0 0 512 512"><title>human-resources</title><path d="M508.919,444.004L406.43,341.516h67.234c5.809,0,10.52-4.711,10.52-10.52v-47.097c0-18.725-10.276-35.086-25.477-43.771 c3.717-5.376,5.902-11.889,5.902-18.905v-29.831c0-18.378-14.952-33.329-33.33-33.329h-11.506 c-7.815,0-15.049,2.509-20.963,6.749c-27.947-58.489-87.689-98.996-156.719-98.996c-68.639,0-128.097,40.049-156.243,98.005 c-5.336-3.629-11.769-5.758-18.694-5.758H55.649c-19.891,0-36.074,16.183-36.074,36.073v24.344 c0,7.877,2.545,15.168,6.846,21.107C10.699,248.124,0,264.785,0,283.899v47.097c0,5.809,4.71,10.52,10.52,10.52h91.305 c31.596,43.28,82.699,71.459,140.268,71.459c29.986,0,59.261-7.693,85.186-22.32L444.772,508.15 c2.055,2.053,4.747,3.081,7.439,3.081s5.384-1.028,7.439-3.081l49.268-49.268C513.027,454.773,513.027,448.112,508.919,444.004z M419.773,179.103h11.506c6.776,0,12.29,5.512,12.29,12.289v29.831c0,6.776-5.513,12.29-12.29,12.29h-11.506 c-1.472,0-2.891-0.222-4.236-0.617c-0.605-16.344-3.478-32.114-8.317-47.01C409.911,181.804,414.53,179.103,419.773,179.103z M414.992,254.554h18.805c16.182,0,29.346,13.165,29.346,29.346v36.576h-67.571C406.399,300.028,412.985,277.668,414.992,254.554 z M40.615,194.136c0-8.29,6.744-15.033,15.034-15.033h11.506c4.264,0,8.025,2.184,10.23,5.49 c-5.147,15.432-8.178,31.821-8.757,48.823c-0.484,0.058-0.973,0.097-1.473,0.097H55.649c-8.29,0-15.034-6.744-15.034-15.034 V194.136z M21.04,320.475v-36.576c0-16.182,13.165-29.346,29.346-29.346h18.796c2.055,23.638,8.865,45.932,19.471,65.922H21.04z M452.211,485.832L336.363,369.985c-2.031-2.03-4.725-3.081-7.442-3.081c-1.934,0-3.88,0.531-5.607,1.621 c-24.293,15.315-52.379,23.409-81.222,23.409c-84.11,0-152.539-68.429-152.539-152.539S157.982,86.856,242.092,86.856 s152.539,68.429,152.539,152.539c0,29.765-8.583,58.611-24.822,83.419c-2.728,4.168-2.159,9.677,1.363,13.2l115.429,115.429 L452.211,485.832z"/><path d="M242.092,113.156c-69.608,0-126.239,56.631-126.239,126.239s56.631,126.239,126.239,126.239 s126.239-56.631,126.239-126.239S311.7,113.156,242.092,113.156z M242.092,344.595c-31.805,0-60.356-14.188-79.663-36.566 c2.466-19.947,20.521-30.536,40.74-33.219l30.048,47.207c1.931,3.034,5.279,4.871,8.875,4.871c3.597,0,6.944-1.837,8.875-4.871 l30.048-47.207c20.219,2.683,38.275,13.272,40.741,33.219C302.448,330.406,273.897,344.595,242.092,344.595z M245.511,253.072 h-6.838c-16.896,0-24.459-14.399-24.459-28.667v-18.41c0-14.268,7.563-28.667,24.459-28.667h6.838 c16.896,0,24.459,14.399,24.459,28.667v18.41C269.97,238.673,262.407,253.072,245.511,253.072z M256.519,274.111l-14.427,22.664 l-14.426-22.664H256.519z M282.916,253.81c5.151-8.074,8.094-18.13,8.094-29.405v-18.41c0-28.802-19.135-49.707-45.499-49.707 h-6.838c-26.364,0-45.499,20.904-45.499,49.707v18.41c0,11.275,2.943,21.331,8.094,29.405 c-24.764,2.967-43.919,14.805-53.462,32.206c-6.98-14.06-10.913-29.888-10.913-46.62c0-58.008,47.192-105.199,105.199-105.199 c58.008,0,105.199,47.191,105.199,105.199c0,16.732-3.933,32.561-10.913,46.62C326.834,268.614,307.68,256.776,282.916,253.81z"/><path d="M242.092,41.797c5.809,0,10.52-4.711,10.52-10.52V11.289c0-5.809-4.711-10.52-10.52-10.52 c-5.81,0-10.52,4.711-10.52,10.52v19.988C231.572,37.086,236.282,41.797,242.092,41.797z"/><path d="M336.158,67.001c1.657,0.956,3.465,1.412,5.249,1.412c3.636,0,7.172-1.887,9.121-5.262l9.994-17.311 c2.906-5.032,1.181-11.466-3.85-14.37c-5.034-2.906-11.467-1.18-14.37,3.85l-9.994,17.311 C329.402,57.663,331.127,64.097,336.158,67.001z"/><path d="M133.656,63.15c1.948,3.375,5.484,5.262,9.12,5.262c1.784,0,3.594-0.456,5.25-1.412c5.032-2.905,6.756-9.339,3.85-14.37 l-9.994-17.311c-2.906-5.032-9.339-6.757-14.37-3.85c-5.032,2.905-6.756,9.339-3.85,14.37L133.656,63.15z"/></symbol><symbol id="meteor" viewBox="0 0 480.022 480.022"><title>meteor</title><path d="M475.5,4.886c-5.056-5.248-13.024-6.4-19.328-2.816L279.66,101.366l15.808-78.976c1.376-6.944-1.92-13.92-8.128-17.248 c-6.208-3.296-13.888-2.24-18.88,2.784L43.212,233.174c-0.416,0.32-0.8,0.672-1.152,1.056 C14.956,261.75,0.012,297.91,0.012,336.022c0,79.392,64.608,144,144,144c38.144,0,74.304-14.944,101.792-42.016 c0.416-0.416,0.768-0.832,1.152-1.28l191.232-191.2c4.8-4.8,6.048-12.128,3.104-18.24c-2.912-6.112-9.44-9.568-16.192-8.96 l-69.568,7.712L477.676,24.31C481.452,18.07,480.588,10.102,475.5,4.886z M144.012,432.022c-53.024,0-96-42.976-96-96 s42.976-96,96-96s96,42.976,96,96S197.036,432.022,144.012,432.022z"/></symbol><symbol id="password-reset" viewBox="0 0 512.1 512.1"><title>password-reset</title><path d="M299.467,434.86c11.361-2.748,22.431-6.585,33.056-11.456l-13.312-29.088c-8.77,4.012-17.906,7.173-27.28,9.44 L299.467,434.86z"/><path d="M92.491,171.66c-5.368,10.397-9.73,21.284-13.024,32.512l30.72,8.992c2.711-9.259,6.312-18.234,10.752-26.8 L92.491,171.66z"/><path d="M440.075,256.012h-32c0.005,9.664-0.906,19.307-2.72,28.8l31.44,6.016C438.979,279.352,440.078,267.695,440.075,256.012z "/><path d="M366.075,360.924l23.152,22.08c8.059-8.461,15.307-17.658,21.648-27.472l-26.912-17.344 C378.729,346.313,372.74,353.926,366.075,360.924z"/><path d="M229.899,438.172l4.512-31.696c-9.56-1.36-18.969-3.632-28.096-6.784l-10.448,30.256 C206.927,433.753,218.322,436.507,229.899,438.172z"/><path d="M263.339,104.252l1.504-32.032c-11.667-0.537-23.359-0.002-34.928,1.6l4.496,31.792 C243.99,104.258,253.675,103.803,263.339,104.252z"/><path d="M362.843,106.14c-9.518-6.787-19.659-12.653-30.288-17.52l-13.312,29.088c8.787,4.029,17.171,8.882,25.04,14.496 L362.843,106.14z"/><path d="M135.579,395.052l20.96-24.16c-7.3-6.327-13.98-13.335-19.952-20.928l-25.152,19.76 C118.657,378.917,126.742,387.399,135.579,395.052z"/><path d="M72.907,273.5c1.103,11.627,3.305,23.124,6.576,34.336l30.72-8.976c-2.708-9.29-4.534-18.815-5.456-28.448L72.907,273.5z "/><path d="M180.091,124.348l-16-27.712c-10.119,5.859-19.66,12.662-28.496,20.32l20.96,24.16 C163.845,134.786,171.727,129.171,180.091,124.348z"/><path d="M368.075,256.012c0-61.856-50.144-112-112-112s-112,50.144-112,112s50.144,112,112,112 C317.902,367.942,368.004,317.839,368.075,256.012z M334.475,272.012c-8.837,43.29-51.094,71.22-94.384,62.384 c-43.29-8.837-71.22-51.094-62.384-94.384c8.837-43.29,51.094-71.22,94.384-62.384c31.418,6.413,55.971,30.966,62.384,62.384 h-78.4v32H334.475z"/><path d="M512.075,64.012h-112v112h32v-58.08c31.164,39.269,48.085,87.948,48,138.08 c0.052,123.765-100.237,224.138-224.002,224.19S31.935,379.966,31.883,256.201S132.12,32.063,255.884,32.011 c36.968-0.016,73.366,9.115,105.95,26.578l15.168-28.176C252.387-36.374,97.224,10.506,30.437,135.122 s-19.906,279.779,104.71,346.566s279.779,19.906,346.566-104.71c19.938-37.202,30.368-78.757,30.362-120.966 c0.117-58.247-19.847-114.754-56.528-160h56.528V64.012z"/></symbol><symbol id="settings-account" viewBox="0 0 512 512"><title>settings-account</title><g> <g> <path d="M478.213,163.221l-46.805-80.939c-5.163-9.515-16.896-13.824-27.648-9.963l-52.885,21.248 c-10.069-7.232-20.629-13.376-31.531-18.304L311.301,19.2C309.957,8.256,300.443,0,289.221,0h-93.867 c-11.221,0-20.715,8.256-22.059,19.008l-8.064,56.277c-10.581,4.821-20.949,10.859-31.467,18.325L80.731,72.299 c-10.389-4.032-22.208,0.235-27.456,9.771L6.405,163.157c-5.632,9.557-3.307,21.952,5.44,28.864l44.8,35.029 c-0.683,6.763-1.024,12.672-1.024,18.283s0.341,11.52,1.045,18.261l-44.864,35.072c-8.555,6.763-10.901,18.752-5.461,28.779 l46.805,80.96c5.205,9.493,16.896,13.845,27.669,9.941l52.885-21.248c10.069,7.232,20.629,13.376,31.531,18.304l8.043,56.085 c1.365,10.923,10.88,19.179,22.08,19.179h73.515c3.989,0,7.637-2.219,9.429-5.675c1.835-3.52,1.557-7.765-0.704-11.029 c-16.341-23.381-24.96-50.795-24.96-79.232c0-13.269,1.941-26.56,5.781-39.509c0.981-3.328,0.299-6.933-1.856-9.643 c-2.155-2.709-5.461-4.16-8.939-4.053c-1.152,0.064-2.283,0.213-5.184,0.576c-53.056,0-96.213-43.157-96.213-96.213 c0-53.077,43.157-96.235,96.213-96.235s96.213,43.157,96.021,97.984c-0.149,1.131-0.299,2.261-0.363,3.413 c-0.171,3.456,1.344,6.784,4.053,8.939c2.731,2.155,6.336,2.795,9.643,1.856c20.757-6.187,41.216-7.68,64.384-3.456 c2.837,0.512,5.952-0.768,8.341-2.539c2.389-1.771,3.947-5.056,4.267-8c0.043-0.384,0.149-2.112,0.149-2.496 c0-6.635-0.469-12.907-1.024-18.283L472.752,192C481.307,185.259,483.675,173.269,478.213,163.221z M410.117,213.931 c-2.944,2.304-4.48,6.016-4.011,9.728c0.448,3.584,0.917,7.595,1.216,11.861c-16.299-1.728-31.915-0.832-47.531,2.325 c-4.117-61.12-55.147-109.589-117.291-109.589c-64.811,0-117.547,52.736-117.547,117.568c0,62.165,48.469,113.195,109.589,117.291 c-2.112,10.432-3.179,20.992-3.179,31.552c0,26.176,6.336,51.605,18.432,74.496l-55.36-0.512l-8.917-62.187 c-0.555-3.755-3.029-6.933-6.528-8.363c-12.992-5.312-25.493-12.587-37.205-21.589c-1.899-1.472-4.203-2.219-6.507-2.219 c-1.344,0-2.688,0.256-3.968,0.768l-59.541,22.869l-46.784-82.475l49.515-38.72c2.944-2.304,4.48-6.016,4.011-9.728 c-1.067-8.491-1.557-15.381-1.557-21.675s0.491-13.184,1.557-21.675c0.469-3.712-1.067-7.424-4.011-9.728l-49.664-40 l48.021-81.792l58.432,23.467c3.477,1.387,7.424,0.875,10.389-1.365c12.587-9.451,24.789-16.533,37.291-21.653 c3.499-1.451,5.995-4.608,6.528-8.363l9.856-62.891l94.784,0.704l8.917,62.187c0.555,3.755,3.029,6.933,6.528,8.363 c12.971,5.312,25.493,12.565,37.205,21.589c2.965,2.304,6.955,2.837,10.475,1.429l59.541-22.848l46.827,82.453L410.117,213.931z"/> </g> </g><g> <g> <path d="M497.669,360.085c-8-32-43.925-82.752-106.347-82.752c-64.704,0-117.333,52.629-117.333,117.333S326.619,512,391.323,512 c5.909,0,10.667-4.779,10.667-10.667c0-5.888-4.779-10.667-10.667-10.667c-52.928,0-96-43.072-96-96s43.072-96,96-96 c52.16,0,80.235,44.864,85.653,66.581c1.408,5.717,7.232,9.195,12.928,7.765C495.621,371.584,499.099,365.803,497.669,360.085z"/> </g> </g><g> <g> <path d="M497.989,298.667c-5.888,0-10.667,4.779-10.667,10.667v53.333h-53.333c-5.888,0-10.667,4.779-10.667,10.667 c0,5.888,4.779,10.667,10.667,10.667h64c5.909,0,10.667-4.779,10.667-10.667v-64C508.656,303.445,503.877,298.667,497.989,298.667 z"/> </g> </g></symbol><symbol id="settings-account-2" viewBox="0 0 512 512"><title>settings-account-2</title><g> <g> <path d="M478.213,163.264l-46.805-80.939c-5.099-9.344-16.107-14.229-27.648-9.963l-52.885,21.248 c-10.048-7.232-20.608-13.376-31.531-18.304L311.301,19.2C309.936,8.256,300.443,0,289.221,0h-93.867 c-11.221,0-20.715,8.256-22.059,19.008l-8.064,56.277c-10.581,4.8-20.971,10.859-31.467,18.325L80.731,72.299 c-10.197-3.925-22.357,0.491-27.435,9.771L6.405,163.157c-5.632,9.557-3.307,21.952,5.44,28.864l44.821,35.029 c-0.704,6.763-1.045,12.672-1.045,18.283s0.341,11.52,1.024,18.283l-44.843,35.051c-8.555,6.763-10.901,18.752-5.44,28.736 l46.805,80.96c5.099,9.323,16.128,14.208,27.669,9.941l52.885-21.248c10.048,7.232,20.608,13.376,31.531,18.304l8.043,56.085 c1.344,10.965,10.837,19.221,22.059,19.221h73.515c3.989,0,7.616-2.219,9.451-5.739c1.835-3.52,1.557-7.765-0.704-11.029 c-16.32-23.381-24.96-50.795-24.96-79.232c0-13.269,1.941-26.56,5.781-39.509c0.981-3.328,0.299-6.912-1.856-9.643 c-2.155-2.709-5.461-4.16-8.939-4.053c-1.152,0.064-2.283,0.213-5.184,0.576c-53.056,0-96.213-43.157-96.213-96.213 c0-53.056,43.157-96.235,96.213-96.235c53.056,0,96.213,43.157,96.021,97.984c-0.149,1.131-0.299,2.261-0.363,3.413 c-0.171,3.477,1.344,6.805,4.053,8.939c2.731,2.155,6.336,2.795,9.643,1.856c20.757-6.187,41.216-7.659,64.384-3.456 c2.837,0.512,5.952-0.768,8.341-2.539c2.368-1.771,3.947-5.056,4.267-8c0.043-0.384,0.149-2.112,0.149-2.496 c0-6.635-0.469-12.885-1.024-18.283L472.752,192C481.307,185.259,483.653,173.269,478.213,163.264z"/> </g> </g><g> <g> <path d="M497.989,298.667c-5.888,0-10.667,4.779-10.667,10.667v26.027c-16.085-28.309-48.213-58.027-96-58.027 c-64.704,0-117.333,52.629-117.333,117.333S326.619,512,391.323,512c5.888,0,10.667-4.779,10.667-10.667 c0-5.888-4.779-10.667-10.667-10.667c-52.928,0-96-43.072-96-96s43.072-96,96-96c50.304,0,77.973,41.557,84.779,64h-42.112 c-5.888,0-10.667,4.779-10.667,10.667c0,5.888,4.779,10.667,10.667,10.667h64c5.888,0,10.667-4.779,10.667-10.667v-64 C508.656,303.445,503.899,298.667,497.989,298.667z"/> </g> </g></symbol><symbol id="user-remove" viewBox="0 0 488.85 488.85"><title>user-remove</title><g> <path d="M280.1,368.975c0-20.1,5-39.4,14.4-56.6c-13.3-7.5-23.1-12.4-27.2-14.4c-1.3-0.6-2-1.9-2-3.3v-79 c9.9-6.6,16.5-17.9,16.5-30.7v-81.9c0-40.7-33-73.8-73.8-73.8h-8.8h-8.8c-40.7,0-73.8,33-73.8,73.8v81.9 c0,12.8,6.6,24.1,16.5,30.7v79c0,1.4-0.8,2.7-2,3.3c-11.3,5.5-66,33.1-116.7,74.8c-9.2,7.5-14.4,18.8-14.4,30.7v56.1h199.1h123.3 c-2.7-2.2-5.2-4.6-7.7-7.1C292.4,430.175,280.1,400.475,280.1,368.975z"/> </g><g> <path d="M462.3,304.875c-35.4-35.4-92.8-35.4-128.1,0c-35.4,35.4-35.4,92.8,0,128.1c35.4,35.4,92.8,35.4,128.1,0 C497.7,397.675,497.7,340.275,462.3,304.875z M445,397.075l-18.6,18.7l-28.2-28.2l-28.2,28.2l-18.6-18.7l28.2-28.2l-28.2-28.1 l18.7-18.7l28.2,28.2l28.2-28.2l18.7,18.7l-28.2,28.2L445,397.075z"/> </g></symbol><symbol id="turn-visibility-off-button" viewBox="0 0 558.45 558.45"><title>turn-visibility-off-button</title><path d="M280.5,138.975c71.4,0,127.5,56.1,127.5,127.5c0,15.3-2.55,33.15-10.2,45.9l73.95,73.949 c38.25-33.149,68.85-73.949,86.7-119.85c-43.351-112.2-153-191.25-280.5-191.25c-35.7,0-68.85,7.65-102,17.85l56.1,56.1 C247.35,141.525,265.2,138.975,280.5,138.975z M25.5,70.125l58.65,58.65l10.2,10.2c-43.35,33.15-76.5,76.5-94.35,127.5 c43.35,112.2,153,191.25,280.5,191.25c38.25,0,76.5-7.65,112.2-20.4l10.2,10.2l73.949,73.95l33.15-33.15L58.65,36.975L25.5,70.125 z M165.75,210.375l38.25,38.25c0,7.65,0,12.75,0,17.85c0,43.35,33.15,76.5,76.5,76.5c5.1,0,10.2,0,17.85-2.55l38.25,38.25 c-17.85,10.2-35.699,15.3-56.1,15.3c-71.4,0-127.5-56.1-127.5-127.5C153,246.075,158.1,228.225,165.75,210.375z M275.4,189.975 l79.05,79.05c0-2.55,0-2.55,0-5.1c0-43.35-33.15-76.5-76.5-76.5C277.95,189.975,277.95,189.975,275.4,189.975z"/></symbol><symbol id="shield-web" viewBox="0 0 438.543 438.543"><title>shield-web</title><path d="M396.58,5.424C392.959,1.807,388.675,0,383.727,0H54.824c-4.952,0-9.235,1.807-12.852,5.424 c-3.615,3.615-5.424,7.898-5.424,12.847v219.268c0,16.371,3.186,32.596,9.563,48.681c6.374,16.084,14.274,30.361,23.697,42.828 c9.423,12.47,20.651,24.605,33.689,36.405c13.04,11.806,25.078,21.6,36.116,29.409c11.038,7.803,22.554,15.181,34.545,22.121 c11.991,6.943,20.511,11.663,25.553,14.134c5.043,2.478,9.088,4.38,12.132,5.708c2.286,1.143,4.758,1.718,7.426,1.718 c2.671,0,5.14-0.575,7.428-1.718c3.042-1.328,7.087-3.23,12.128-5.708c5.041-2.471,13.565-7.19,25.557-14.134 c11.984-6.94,23.504-14.318,34.54-22.121c11.043-7.81,23.079-17.604,36.121-29.409c13.031-11.8,24.263-23.936,33.685-36.405 c9.421-12.467,17.319-26.744,23.705-42.828c6.379-16.085,9.562-32.31,9.562-48.681V18.271 C401.994,13.319,400.187,9.04,396.58,5.424z M347.178,237.539c0,33.5-22.367,67.759-67.095,102.781 c-17.892,14.082-38.164,27.124-60.813,39.115V54.813h127.908V237.539z"/></symbol><symbol id="security-web" viewBox="0 0 489.5 489.5"><title>security-web</title><g> <circle style="fill:#A7A9AC;" cx="33.2" cy="249.4" r="24.1"/> </g><g> <circle style="fill:#A7A9AC;" cx="33.2" cy="107.5" r="24.1"/> </g><g> <circle style="fill:#A7A9AC;" cx="33.2" cy="391.2" r="24.1"/> </g><g> <circle style="fill:#A7A9AC;" cx="456.2" cy="249.4" r="24.1"/> </g><g> <circle style="fill:#A7A9AC;" cx="456.2" cy="391.2" r="24.1"/> </g><g> <circle style="fill:#A7A9AC;" cx="456.2" cy="107.5" r="24.1"/> </g><g> <path d="M319.4,172.8h-2.7V137c0-39.7-32.3-72-72-72s-72,32.3-72,72c0,5,4.1,9.1,9.1,9.1s9.1-4.1,9.1-9.1 c0-29.7,24.2-53.9,53.9-53.9s53.9,24.2,53.9,53.9v35.8H170c-13,0-23.6,10.6-23.6,23.6v98.3c0,13,10.6,23.6,23.6,23.6h149.3 c13,0,23.6-10.6,23.6-23.6v-98.3C342.9,183.4,332.4,172.8,319.4,172.8z M324.8,294.6c0,3-2.4,5.4-5.4,5.4H170 c-3,0-5.4-2.4-5.4-5.4v-98.3c0-3,2.4-5.4,5.4-5.4h149.3c3,0,5.4,2.4,5.4,5.4v98.3H324.8z"/> <path d="M247.3,219.9c-6.6-1.3-13.5,2.4-16.3,8.7c-2.9,6.5-1,13.8,4.9,18.1c1.2,0.9,1.4,1.7,1.4,3c0,6.5,0,12.9,0,19.4l0,0 c0,5.3,5.6,9.4,11.3,6.5c2.4-1.2,3.8-3.8,3.6-6.5l0,0c0-6.5,0-12.9,0-19.4c0-1.4,0.3-2.3,1.6-3.2c4.1-3,6.1-7.1,6.1-12.1 C259.7,227.2,254.6,221.3,247.3,219.9z"/> <path d="M115.4,240.3H65.1c-4-13.9-16.7-24.1-31.9-24.1C14.9,216.2,0,231.1,0,249.4s14.9,33.2,33.2,33.2 c15.1,0,27.9-10.2,31.9-24.1h50.4c5,0,9.1-4.1,9.1-9.1C124.5,244.4,120.4,240.3,115.4,240.3z M33.2,264.4c-8.3,0-15-6.7-15-15 c0-8.3,6.7-15,15-15s15,6.7,15,15S41.5,264.4,33.2,264.4z"/> <path d="M115.4,187H60.3c-9.9,0-18-8.1-18-18v-29.6c13.9-4,24.1-16.7,24.1-31.9c0-18.3-14.9-33.2-33.2-33.2S0,89.2,0,107.5 c0,15.1,10.2,27.9,24.1,31.9V169c0,19.9,16.2,36.1,36.1,36.1h55.2c5,0,9.1-4.1,9.1-9.1C124.5,191,120.4,187,115.4,187z M18.1,107.5c0-8.3,6.7-15,15-15s15,6.7,15,15s-6.7,15-15,15S18.1,115.8,18.1,107.5z"/> <path d="M115.4,293.6H60.3c-19.9,0-36.1,16.2-36.1,36.1v29.6c-13.9,4-24.1,16.7-24.1,31.9c0,18.3,14.9,33.2,33.2,33.2 s33.2-14.9,33.2-33.2c0-15.1-10.2-27.9-24.1-31.9v-29.6c0-9.9,8.1-18,18-18h55.2c5,0,9.1-4.1,9.1-9.1 C124.5,297.7,120.4,293.6,115.4,293.6z M48.2,391.2c0,8.3-6.7,15-15,15s-15-6.7-15-15s6.7-15,15-15S48.2,382.9,48.2,391.2z"/> <path d="M456.2,216.2c-15.1,0-27.9,10.2-31.9,24.1h-50.4c-5,0-9.1,4.1-9.1,9.1s4.1,9.1,9.1,9.1h50.4c4,13.9,16.7,24.1,31.9,24.1 c18.3,0,33.2-14.9,33.2-33.2S474.5,216.2,456.2,216.2z M456.2,264.4c-8.3,0-15-6.7-15-15c0-8.3,6.7-15,15-15s15,6.7,15,15 C471.3,257.7,464.5,264.4,456.2,264.4z"/> <path d="M465.3,359.3v-29.6c0-19.9-16.2-36.1-36.1-36.1H374c-5,0-9.1,4.1-9.1,9.1s4.1,9.1,9.1,9.1h55.2c9.9,0,18,8.1,18,18v29.6 c-13.9,4-24.1,16.7-24.1,31.9c0,18.3,14.9,33.2,33.2,33.2c18.3,0,33.2-14.9,33.2-33.2C489.4,376.1,479.2,363.3,465.3,359.3z M456.2,406.3c-8.3,0-15-6.7-15-15s6.7-15,15-15s15,6.7,15,15C471.3,399.5,464.5,406.3,456.2,406.3z"/> <path d="M374,205.1h55.2c19.9,0,36.1-16.2,36.1-36.1v-29.6c13.9-4,24.1-16.7,24.1-31.9c0-18.3-14.9-33.2-33.2-33.2 c-18.3,0-33.2,14.9-33.2,33.2c0,15.1,10.2,27.9,24.1,31.9V169c0,9.9-8.1,18-18,18h-55.2c-5,0-9.1,4.1-9.1,9.1 C364.9,201,369,205.1,374,205.1z M441.2,107.5c0-8.3,6.7-15,15-15s15,6.7,15,15s-6.7,15-15,15S441.2,115.8,441.2,107.5z"/> </g></symbol><symbol id="mechanic" viewBox="0 0 295.239 295.239"><title>mechanic</title><path d="M280.567,252.381h0.386V223.81c0-0.614-0.057-15.229-5.148-30.448l-15.524-36.219h-12.662h-12.662l-15.667,36.59 c-4.948,14.848-5.005,29.462-5.005,30.076v9.524H200c-7.876,0-14.286-6.41-14.286-14.286v-19.833 c22.733-13.2,38.095-37.752,38.095-65.881v-0.676c8.19-2.129,14.286-9.519,14.286-18.371c0-8.557-3.224-13.962-5.029-16.324 c0.162-0.881,0.267-1.781,0.267-2.724v-9.524C233.333,38.453,194.881,0,147.619,0c-47.262,0-85.714,38.452-85.714,85.714v9.524 c0,0.943,0.105,1.843,0.267,2.724c-1.805,2.362-5.029,7.767-5.029,16.324c0,8.852,6.095,16.243,14.286,18.371v0.676 c0,28.129,15.362,52.681,38.095,65.881v19.833c0,7.876-6.41,14.286-14.286,14.286h-23.81v-6.71 c9.362-5.676,14.286-14.819,14.286-26.624c0-11.59-7.819-25.086-22.762-28.457l-5.81-1.31v25.005h-9.524v-25.014l-5.819,1.319 c-14.938,3.4-22.752,16.886-22.752,28.457c0,11.805,4.924,20.943,14.286,26.624V238.6C13.695,247.648,0,267.471,0,290.477v4.762 h9.524v-4.762c0-24.648,18.829-44.981,42.857-47.376v52.138h9.524v-52.381H76.19v52.381h9.524v-52.381h9.524 c1.943,0,3.8-0.3,5.61-0.738c4.138,22.067,23.519,38.833,46.771,38.833s42.633-16.767,46.771-38.833 c1.81,0.438,3.667,0.738,5.61,0.738h9.524v52.381h9.524v-52.381h14.286v52.381h9.524V243.1 c24.029,2.4,42.857,22.729,42.857,47.376v4.762h9.524v-4.762C295.238,275.833,289.657,262.505,280.567,252.381z M64.547,219.543 l-2.643,1.314v12.476h-4.762c-4.938,0-9.71,0.695-14.286,1.881v-14.357l-2.642-1.314c-7.833-3.89-11.643-10.281-11.643-19.543 c0-6.119,3.252-13.033,9.524-16.833v21.595h28.571v-21.605c6.271,3.79,9.524,10.714,9.524,16.843 C76.19,209.262,72.38,215.652,64.547,219.543z M223.81,110.201c1.324-0.867,2.543-1.781,3.624-2.757 c0.624,1.729,1.138,3.995,1.138,6.843c-0.001,3.509-1.929,6.547-4.762,8.2V110.201z M142.857,9.768v33.09h9.524V9.768 c38.957,2.429,70.014,34.19,71.3,73.443c-16.948-9.033-52.519-11.781-76.062-11.781c-23.543,0-59.114,2.748-76.062,11.776 C72.843,43.957,103.9,12.19,142.857,9.768z M71.429,122.482c-2.834-1.648-4.762-4.686-4.762-8.195 c0-2.852,0.514-5.119,1.138-6.848c1.081,0.981,2.3,1.895,3.624,2.757V122.482z M71.433,95.253 c0.933-4.857,28.633-14.3,76.186-14.3c47.581,0,75.29,9.452,76.19,14.286c0.001,9.361-28.499,19.047-76.19,19.047 C99.952,114.286,71.457,104.61,71.433,95.253z M80.952,133.333v-18.405c20.995,8,53.533,8.881,66.667,8.881 c13.134,0,45.671-0.881,66.667-8.881v18.405c0,36.762-29.905,66.667-66.667,66.667C110.857,200,80.952,170.095,80.952,133.333z M147.619,271.429c-19.51,0-35.624-14.752-37.819-33.686c5.586-4.357,9.248-11.076,9.248-18.695v-15.133 c8.833,3.59,18.467,5.61,28.571,5.61s19.738-2.019,28.571-5.61v15.133c0,7.619,3.662,14.338,9.248,18.695 C183.243,256.676,167.129,271.429,147.619,271.429z M237.048,233.334H223.81v-9.524c0-0.133,0.052-13.667,4.376-26.695 l13.048-30.448h1.624V210.4c-5.529,1.971-9.524,7.21-9.524,13.41C233.334,227.482,234.767,230.8,237.048,233.334z M247.619,228.572c-2.624,0-4.762-2.133-4.762-4.762c0-2.629,2.138-4.762,4.762-4.762c2.624,0,4.762,2.133,4.762,4.762 C252.381,226.439,250.243,228.572,247.619,228.572z M271.429,244.157c-4.924-3.552-10.4-6.386-16.319-8.238 c4.062-2.519,6.795-6.986,6.795-12.11c0-6.2-3.995-11.438-9.524-13.41v-43.733h1.624l12.905,30.077 c4.448,13.333,4.519,26.933,4.519,27.071V244.157z"/><polygon points="152.381,138.095 195.238,138.095 195.238,128.571 142.857,128.571 142.857,176.19 152.381,176.19 "/><rect x="85.714" y="61.905" width="9.524" height="9.524"/><rect x="104.762" y="57.143" width="9.524" height="9.524"/></symbol><symbol id="cloud-computing-icon" viewBox="0 0 511.999 511.999"><title>cloud-computing-icon</title><path d="M505.541,257.031c-4.083-0.699-7.967,2.046-8.667,6.133c-8.209,47.943-49.53,82.74-98.25,82.74h-66.357 c-4.147,0-7.508,3.362-7.508,7.508s3.36,7.508,7.508,7.508h66.357c56.467,0,103.76-40.96,113.051-95.222 C512.374,261.612,509.628,257.731,505.541,257.031z"/><path d="M297.23,345.904h-47.675c0.131-3.667,0.091,1.67,0.091-95.541c0-3.629-2.596-6.738-6.165-7.387 c-0.466-0.085-98.318-17.866-98.785-17.94c-0.085-0.014-0.457-0.063-0.61-0.075c-0.045-0.003-0.255-0.014-0.386-0.017 c-0.201-0.005-0.399-0.003-0.616,0.008c-0.18,0.01-0.147,0.001-0.534,0.051c-0.033,0.004-0.354,0.047-0.389,0.053l-98.635,17.92 c-3.57,0.649-6.165,3.758-6.165,7.387v58.709c-45.411-55.817-18.05-139.339,49.989-158.72c3.158-0.899,5.366-3.748,5.449-7.031 c0.969-38.484,38.175-63.786,73.679-52.652c3.126,0.98,6.528-0.18,8.402-2.866c39.714-56.891,123.857-56.893,163.571,0.001 c1.876,2.687,5.278,3.847,8.405,2.866c35.515-11.146,72.709,14.192,73.677,52.653c0.083,3.283,2.29,6.132,5.449,7.031 c37.174,10.589,65.081,42.073,71.096,80.209c0.647,4.095,4.485,6.895,8.586,6.247c4.095-0.646,6.892-4.49,6.245-8.586 c-6.644-42.126-36.495-77.199-76.706-90.725c-4.255-42.355-44.903-72.488-87.59-62.586 c-45.98-59.775-135.984-59.684-181.896-0.001c-42.453-9.842-83.31,19.997-87.59,62.588 C-4.299,165.308-27.366,271.731,37.358,330.878c0,3.501,0,6.3,0,9.974c0,41.085,17.944,78.449,51.891,108.054 c23.079,20.126,47.952,31.38,52.104,32.664c1.35,0.401,2.842,0.433,4.297,0c7.996-2.468,90.426-38.974,102.518-120.65h49.061 c4.147,0,7.508-3.361,7.508-7.508S301.377,345.904,297.23,345.904z M52.374,256.631l83.62-15.192v88.179h-83.62 C52.374,321.886,52.374,263.735,52.374,256.631z M135.994,462.572c-47.053-24.327-82.008-65.398-83.562-117.938h83.562V462.572z M151.01,462.572V344.634h83.556C232.944,397.12,197.648,438.458,151.01,462.572z M234.63,329.618h-83.62v-88.179l83.62,15.192 V329.618z"/></symbol><symbol id="keyhole-security" viewBox="0 0 511.999 511.999"><title>keyhole-security</title><path d="M455.822,62.599c-63.875-4-129.228-24.57-194.245-61.138c-3.465-1.948-7.691-1.948-11.156,0 C185.404,38.03,120.051,58.6,56.176,62.599c-5.995,0.375-10.666,5.348-10.666,11.356v216.178 c0,35.772,11.163,69.812,33.176,101.176c17.293,24.637,41.281,47.625,71.298,68.325c50.574,34.875,100.429,51.143,102.526,51.818 c1.134,0.365,2.311,0.547,3.487,0.547s2.353-0.183,3.487-0.547c2.098-0.676,51.952-16.944,102.526-51.818 c30.017-20.698,54.005-43.686,71.298-68.325c22.016-31.364,33.179-65.404,33.179-101.176V73.956 C466.488,67.947,461.817,62.975,455.822,62.599z M443.733,290.133c0,56.598-31.692,107.221-94.197,150.463 c-40.464,27.994-81.542,43.715-93.541,47.993c-11.948-4.25-52.667-19.812-93.092-47.689 c-62.797-43.304-94.637-94.028-94.637-150.767V84.499c62.053-5.558,125.125-25.749,187.733-60.107 c62.609,34.356,125.68,54.548,187.733,60.107V290.133z"/><path d="M298.509,298.322c-1.611-9.663-3.265-19.589-4.732-29.425c18.992-12.568,30.489-33.68,30.489-56.867 c0-37.642-30.624-68.267-68.267-68.267s-68.267,30.624-68.267,68.267c0,23.187,11.496,44.299,30.489,56.866 c-1.467,9.836-3.121,19.762-4.732,29.425c-3.295,19.777-6.705,40.226-8.639,60.54c-0.304,3.191,0.752,6.361,2.909,8.734 c2.156,2.371,5.212,3.723,8.417,3.723h79.644c3.205,0,6.262-1.352,8.417-3.723c2.157-2.371,3.212-5.542,2.909-8.734 C305.214,338.548,301.805,318.098,298.509,298.322z M270.149,264.486c1.747,12.577,3.865,25.287,5.913,37.577 c2.547,15.284,5.163,30.979,7.068,46.5h-54.262c1.905-15.52,4.52-31.216,7.068-46.5c2.048-12.29,4.167-25,5.913-37.577 c0.671-4.833-1.815-9.556-6.178-11.74c-15.533-7.774-25.182-23.377-25.182-40.716c0-25.095,20.416-45.511,45.511-45.511 s45.511,20.416,45.511,45.511c0,17.341-9.649,32.942-25.184,40.716C271.964,254.929,269.479,259.652,270.149,264.486z"/><path d="M250.824,52.884c-49.851,25.465-100.398,42.448-150.234,50.48c-5.515,0.889-9.568,5.648-9.568,11.233v175.536 c0,48.291,27.962,92.319,83.11,130.862c30.397,21.242,61.674,35.196,77.614,41.622c1.364,0.551,2.81,0.826,4.254,0.826 s2.89-0.275,4.254-0.826c8.373-3.376,21.474-9.024,36.333-16.755c5.574-2.9,7.743-9.77,4.842-15.345 c-2.9-5.575-9.77-7.741-15.344-4.841c-11.741,6.109-22.311,10.837-30.084,14.088c-15.924-6.662-42.774-19.21-68.832-37.422 c-48.699-34.034-73.391-71.787-73.391-112.209V124.185c47.329-8.646,95.105-24.911,142.222-48.423 c47.118,23.512,94.893,39.777,142.222,48.423v165.948c0,29.949-13.645,58.616-40.558,85.205c-4.47,4.417-4.514,11.62-0.097,16.09 c4.418,4.471,11.62,4.514,16.09,0.097c31.399-31.023,47.32-65.135,47.32-101.392V114.597c0-5.585-4.054-10.345-9.568-11.233 c-49.837-8.032-100.384-25.015-150.234-50.48C257.923,51.223,254.074,51.223,250.824,52.884z"/><path d="M322.868,403.762c-0.354,0.356-0.707,0.711-1.062,1.062c-4.467,4.42-4.503,11.625-0.083,16.09 c2.226,2.248,5.155,3.374,8.086,3.374c2.892,0,5.786-1.096,8.003-3.292c0.405-0.402,0.81-0.807,1.214-1.214 c4.425-4.462,4.392-11.667-0.071-16.09C334.495,399.269,327.293,399.299,322.868,403.762z"/></symbol><symbol id="shield-with-lock" viewBox="0 0 71.678 71.678"><title>shield-with-lock</title><path d="M19.488,48.686V32.334c0-2.509,1.99-4.564,4.476-4.667v-0.484L6.396,7.187C5.683,7.817,4.988,8.378,4.352,8.811 C5.75,10.806,13.266,22.5,8.043,37.877C3.376,51.635,3.862,55.736,9.748,60.67l9.822-11.175 C19.523,49.226,19.488,48.959,19.488,48.686z"/><path d="M35.839,14.33c4.144,0,7.784,2.14,9.91,5.363L60.731,2.642c-1.12-1.226-1.889-2.121-1.889-2.121s-4.69,2.939-11.077,2.939 S35.837,0,35.837,0s-5.534,3.459-11.922,3.459c-6.383,0-11.077-2.939-11.077-2.939s-0.761,0.895-1.889,2.121l14.979,17.051 C28.054,16.47,31.695,14.33,35.839,14.33z"/><path d="M67.326,8.811c-0.632-0.435-1.33-0.996-2.044-1.625l-17.566,20v0.479c2.483,0.103,4.475,2.158,4.475,4.669v16.351 c0,0.273-0.038,0.54-0.082,0.803l9.822,11.182c5.888-4.934,6.376-9.035,1.704-22.788C58.414,22.505,65.932,10.808,67.326,8.811z"/><path d="M24.721,53.356l-9.432,10.737c6.281,2.406,12.604,0.732,20.548,7.584c7.946-6.856,14.269-5.178,20.556-7.584 l-9.435-10.737H24.721z"/><path d="M35.839,16.666c-5.26,0-9.539,4.279-9.539,9.54v3.793h-2.14c-1.285,0-2.336,1.052-2.336,2.336v16.351 c0,1.281,1.051,2.335,2.336,2.335H47.52c1.281,0,2.336-1.054,2.336-2.335V32.334c0-1.284-1.055-2.336-2.336-2.336h-2.14v-3.791 C45.38,20.947,41.101,16.666,35.839,16.666z M41.292,29.999H30.387v-3.791c0-3.006,2.445-5.452,5.452-5.452 c3.009,0,5.453,2.445,5.453,5.452V29.999L41.292,29.999z"/></symbol><symbol id="shield-with-lock-2" viewBox="0 0 511.996 511.996"><title>shield-with-lock-2</title><path d="M256.004,159.996c-17.641,0-32,14.359-32,32v32h64v-32C288.004,174.355,273.645,159.996,256.004,159.996z"/><path d="M461.832,3.145c-11.111-5.328-24.266-3.797-33.893,3.922c-39.982,32.141-111.951,32.125-151.873,0.016 c-11.719-9.438-28.406-9.422-40.125-0.016C195.975,39.207,123.975,39.191,84.068,7.082c-9.611-7.734-22.81-9.266-33.877-3.938 C39.086,8.457,32.008,19.691,32.008,32.004l-0.016,256c0,100.297,80.406,183.555,215.074,222.727 c2.922,0.844,5.922,1.266,8.939,1.266c3.014,0,6.016-0.422,8.938-1.266c134.67-39.172,215.061-122.414,215.061-222.727v-256 C480.004,19.691,472.941,8.457,461.832,3.145z M352.004,319.996c0,17.68-14.326,32-32,32h-128c-17.674,0-32-14.32-32-32v-64 c0-17.672,14.326-32,32-32v-32c0-35.281,28.703-64,64-64c35.297,0,64,28.719,64,64v32c17.674,0,32,14.328,32,32V319.996z"/><path d="M256.004,271.996c-8.836,0-16,7.164-16,16c0,8.844,7.164,16,16,16c8.836,0,16-7.156,16-16 C272.004,279.16,264.84,271.996,256.004,271.996z"/></symbol></svg>