<svg xmlns="http://www.w3.org/2000/svg" style="display: none;"><symbol id="time-new" viewBox="0 0 333.398 333.398"><title>time-new</title><path style="fill:#010002;" d="M195.088,161.26L303.87,87.153V59.278h0.974c15.746,0,28.555-12.809,28.555-28.555 S320.589,2.167,304.843,2.167H44.747c-15.746,0-28.555,12.809-28.555,28.555s12.809,28.555,28.555,28.555l0,0v27.5H0v97.218h138.12 l-93.372,63.61v26.515l0,0c-15.746,0-28.555,12.809-28.555,28.555s12.809,28.555,28.555,28.555h260.096 c15.746,0,28.555-12.809,28.555-28.555s-12.809-28.555-28.555-28.555h-0.974v-26.515l-108.781-74.107h-15.975V161.26H195.088z M8.159,175.837V94.936h48.016h114.786v66.324v12.238v2.339h-20.859H8.159z M304.843,295.877c3.748,0,6.799,3.051,6.799,6.799 c0,3.748-3.051,6.799-6.799,6.799H44.747c-3.748,0-6.799-3.051-6.799-6.799c0-3.747,3.051-6.799,6.799-6.799H304.843z M188.828,196.445l76.016,51.279v21.642H83.772v-21.642l76.016-51.279H188.828z M44.747,37.521c-3.748,0-6.799-3.051-6.799-6.799 c0-3.748,3.051-6.799,6.799-6.799h260.096c3.748,0,6.799,3.051,6.799,6.799c0,3.748-3.051,6.799-6.799,6.799H44.747z"/><path style="fill:#010002;" d="M31.46,106.369c-7.163,0-12.189,2.524-15.072,7.566s-4.324,12.205-4.324,21.49 c0,9.285,1.441,16.437,4.324,21.452s7.908,7.528,15.072,7.528s12.189-2.507,15.072-7.528c2.883-5.015,4.324-12.167,4.324-21.452 c0-9.284-1.441-16.448-4.324-21.49C43.648,108.887,38.628,106.369,31.46,106.369z M37.921,150.262 c-1.023,3.427-3.176,5.14-6.462,5.14c-1.692,0-3.089-0.457-4.194-1.365c-1.915-1.583-3.166-6.636-3.541-10.269 c-0.25-2.42-0.375-5.2-0.375-8.338c0-6.777,0.528-11.792,1.588-15.05c1.061-3.258,3.231-4.89,6.516-4.89s5.439,1.632,6.462,4.89 c1.023,3.258,1.534,8.278,1.534,15.05C39.455,141.886,38.944,146.836,37.921,150.262z"/><ellipse style="fill:#010002;" cx="68.646" cy="157.208" rx="5.88" ry="5.798"/><ellipse style="fill:#010002;" cx="68.646" cy="128.147" rx="5.88" ry="5.798"/><path style="fill:#010002;" d="M102.102,106.369c-7.163,0-12.189,2.524-15.072,7.566c-0.267,0.468-0.457,1.044-0.702,1.55 c-2.371,4.933-3.622,11.52-3.622,19.94c0,9.285,1.441,16.437,4.324,21.452c2.883,5.015,7.908,7.528,15.072,7.528 c7.163,0,12.189-2.507,15.072-7.528c2.453-4.27,3.796-10.182,4.166-17.546c0.065-1.289,0.163-2.524,0.163-3.911 c0-9.284-1.441-16.448-4.324-21.49C114.291,108.887,109.271,106.369,102.102,106.369z M108.564,150.262 c-1.023,3.427-3.176,5.14-6.462,5.14c-1.692,0-3.089-0.457-4.194-1.365c-1.915-1.583-3.166-6.636-3.541-10.269 c-0.25-2.42-0.375-5.2-0.375-8.338c0-6.037,0.446-10.595,1.289-13.842c0.103-0.397,0.185-0.854,0.305-1.207 c1.061-3.258,3.231-4.89,6.516-4.89s5.439,1.632,6.462,4.89c0.816,2.605,1.295,6.391,1.458,11.248 c0.044,1.213,0.076,2.448,0.076,3.802C110.098,141.886,109.586,146.836,108.564,150.262z"/><path style="fill:#010002;" d="M161.361,156.876c2.883-5.015,4.324-12.167,4.324-21.452s-1.441-16.448-4.324-21.49 s-7.908-7.566-15.072-7.566c-7.163,0-12.189,2.524-15.072,7.566s-4.324,12.205-4.324,21.49c0,2.904,0.19,5.526,0.473,8.017 c0.62,5.461,1.871,9.992,3.851,13.44c2.883,5.015,7.908,7.528,15.072,7.528c4.542,0,8.121-1.126,10.943-3.144 C158.864,160.096,160.306,158.715,161.361,156.876z M152.751,150.262c-1.023,3.427-3.176,5.14-6.462,5.14 c-0.636,0-1.186-0.131-1.735-0.256c-0.919-0.212-1.768-0.538-2.458-1.11c-0.354-0.294-0.68-0.734-0.984-1.235 c-1.354-2.197-2.246-6.075-2.551-9.034c-0.25-2.42-0.375-5.2-0.375-8.338c0-6.777,0.528-11.792,1.588-15.05 c1.061-3.258,3.231-4.89,6.516-4.89c3.285,0,5.439,1.632,6.462,4.89c1.023,3.258,1.534,8.278,1.534,15.05 C154.279,141.886,153.773,146.836,152.751,150.262z"/></symbol><symbol id="multimedia-new" viewBox="0 0 483.6 483.6"><title>multimedia-new</title><circle id="XMLID_1942_" cx="241" cy="67.5" r="23.4"/><circle id="XMLID_1941_" cx="23.4" cy="286.7" r="23.4"/><circle id="XMLID_1940_" cx="460.2" cy="285.1" r="23.4"/><circle id="XMLID_1939_" cx="346.8" cy="97.7" r="23.4"/><circle id="XMLID_1938_" cx="430.6" cy="176.6" r="23.4"/><path id="XMLID_1936_" d="M77.9,181.8c0,12.9-10.5,23.4-23.4,23.4s-23.4-10.5-23.4-23.4s10.5-23.4,23.4-23.4 S77.9,168.9,77.9,181.8z"/><path id="XMLID_1935_" d="M156.8,98c0,12.9-10.5,23.4-23.4,23.4S110,110.9,110,98s10.5-23.4,23.4-23.4 C146.3,74.5,156.8,85,156.8,98z"/><circle id="XMLID_1934_" cx="460.2" cy="285.1" r="23.4"/><circle id="XMLID_1933_" cx="53" cy="395.2" r="23.4"/><path id="XMLID_1909_" d="M405.7,389.9c0-12.9,10.5-23.4,23.4-23.4s23.4,10.5,23.4,23.4s-10.5,23.4-23.4,23.4 C416.2,413.4,405.7,402.9,405.7,389.9z"/><path id="XMLID_1947_" d="M241.8,135.5c-83.9,0-152,68-152,152s68,152,152,152s152-68,152-152S325.7,135.5,241.8,135.5z M241.8,208.6c-43.5,0-78.9,35.4-78.9,78.9c0,8.1-6.5,14.6-14.6,14.6s-14.6-6.5-14.6-14.6c0-59.6,48.5-108.1,108.1-108.1 c8.1,0,14.6,6.5,14.6,14.6C256.4,202,249.9,208.6,241.8,208.6z"/></symbol><symbol id="flag-new" viewBox="0 0 512 512"><title>flag-new</title><path d="M466,90h-77.754c-34.673,0-68.599-9.609-98.13-27.773C260.107,43.762,218.98,30,176.254,30h-58.017 C112.024,12.578,95.53,0,76,0C51.186,0,31,20.186,31,45v452c0,8.291,6.709,15,15,15h60c8.291,0,15-6.709,15-15V330h55.254 c34.673,0,68.599,9.609,98.13,27.773C304.867,376.514,348.595,390,388.246,390H466c8.291,0,15-6.709,15-15V105 C481,96.709,474.291,90,466,90z M181,210.328c-1.591-0.035-3.153-0.328-4.746-0.328H121v-60h55.254 c1.595,0,3.155,0.287,4.746,0.328V210.328z M271,322.213c-19.03-9.245-39.168-15.753-60-19.133v-59.418 c21.074,3.99,41.362,11.391,60,22.339V322.213z M271,142.213c-19.03-9.245-39.168-15.753-60-19.133V63.662 c21.074,3.99,41.362,11.391,60,22.339V142.213z M361,267.913c-20.991-3.087-41.168-10.042-60-19.986v-56.215 c19.091,8.372,39.309,13.788,60,16.404V267.913z M451,360h-60v-60h60V360z M451,180h-60v-60h60V180z"/></symbol><symbol id="education-new" viewBox="0 0 29.936 29.935"><title>education-new</title><path d="M0,20.258h10.91l-3.76,7.584h2.9l1.288-2.613h6.719l1.289,2.613h2.93l-3.785-7.584h11.445v-1.257H0V20.258z M13.789,20.258h1.818l1.496,3.036h-4.812L13.789,20.258z"/><polygon points="0,2.093 0,3.418 1.29,3.418 1.29,3.383 28.646,3.383 28.646,3.418 29.936,3.418 29.936,2.093 "/><path d="M5.166,7.175C5.255,7.056,5.3,6.896,5.3,6.695c0-0.101-0.017-0.209-0.05-0.326C5.216,6.253,5.152,6.143,5.058,6.043 C4.962,5.942,4.832,5.86,4.667,5.794C4.501,5.729,4.288,5.697,4.028,5.697H1.847v3.982h2.259c0.175,0,0.346-0.027,0.513-0.078 c0.168-0.052,0.317-0.128,0.446-0.229c0.13-0.1,0.236-0.226,0.315-0.376C5.46,8.846,5.5,8.67,5.5,8.469 c0-0.145-0.02-0.273-0.059-0.385C5.403,7.972,5.352,7.877,5.289,7.797S5.152,7.651,5.068,7.598 c-0.083-0.051-0.17-0.093-0.259-0.122C4.958,7.394,5.076,7.294,5.166,7.175z M3.075,6.645h0.646c0.127,0,0.228,0.021,0.304,0.062 C4.101,6.749,4.14,6.819,4.14,6.918c0,0.13-0.037,0.218-0.112,0.263C3.954,7.226,3.851,7.247,3.721,7.247H3.075V6.645z M4.234,8.542C4.208,8.589,4.173,8.628,4.128,8.656S4.032,8.703,3.975,8.714C3.917,8.725,3.857,8.731,3.794,8.731H3.075V7.989 h0.769c0.286,0,0.43,0.121,0.43,0.362C4.274,8.43,4.261,8.493,4.234,8.542z"/><path d="M7.084,5.697L5.617,9.679H6.85L7.03,9.11h1.266l0.167,0.569h1.272l-1.45-3.982H7.084z M7.296,8.257L7.68,7.03h0.011 l0.357,1.227H7.296z"/><path d="M11.281,6.94c0.058-0.104,0.135-0.188,0.231-0.251c0.096-0.063,0.218-0.095,0.362-0.095c0.127,0,0.23,0.024,0.31,0.073 c0.08,0.048,0.144,0.104,0.192,0.167c0.049,0.063,0.082,0.127,0.101,0.193c0.018,0.064,0.031,0.116,0.039,0.154h1.193 c-0.052-0.503-0.228-0.891-0.526-1.164c-0.299-0.273-0.725-0.413-1.275-0.416c-0.309,0-0.586,0.05-0.834,0.151 c-0.247,0.1-0.459,0.241-0.636,0.423c-0.176,0.183-0.312,0.402-0.407,0.659C9.937,7.092,9.89,7.376,9.89,7.688 c0,0.293,0.044,0.569,0.134,0.823c0.089,0.256,0.22,0.475,0.393,0.661s0.384,0.333,0.633,0.44c0.25,0.108,0.536,0.162,0.859,0.162 c0.29,0,0.548-0.048,0.775-0.145c0.227-0.097,0.417-0.224,0.571-0.383c0.155-0.158,0.272-0.335,0.352-0.533 c0.08-0.196,0.121-0.395,0.121-0.596h-1.206c-0.018,0.092-0.043,0.18-0.075,0.262c-0.031,0.082-0.072,0.153-0.123,0.213 c-0.05,0.059-0.111,0.105-0.184,0.139c-0.073,0.034-0.161,0.05-0.266,0.05c-0.144,0-0.266-0.031-0.362-0.094 c-0.097-0.062-0.174-0.146-0.231-0.251c-0.057-0.104-0.1-0.221-0.125-0.352c-0.027-0.13-0.039-0.262-0.039-0.396 c0-0.134,0.012-0.266,0.039-0.396C11.181,7.162,11.224,7.046,11.281,6.94z"/><polygon points="14.273,5.697 14.273,9.679 15.501,9.679 15.501,8.503 15.84,8.129 16.822,9.679 18.352,9.679 16.671,7.253 18.116,5.697 16.605,5.697 15.512,7.069 15.501,7.069 15.501,5.697 "/><polygon points="20.258,6.718 21.374,6.718 21.374,9.679 22.602,9.679 22.602,6.718 23.716,6.718 23.716,5.697 20.258,5.697 "/><path d="M25.244,9.617c0.249,0.104,0.523,0.156,0.826,0.156c0.302,0,0.576-0.053,0.826-0.156c0.248-0.104,0.461-0.248,0.639-0.432 c0.176-0.184,0.312-0.403,0.41-0.658c0.095-0.254,0.143-0.534,0.143-0.839c0-0.305-0.048-0.585-0.145-0.839 c-0.098-0.255-0.233-0.475-0.41-0.659c-0.178-0.184-0.391-0.327-0.639-0.432c-0.25-0.104-0.524-0.156-0.826-0.156 c-0.303,0-0.577,0.052-0.826,0.156c-0.249,0.105-0.463,0.248-0.639,0.432c-0.177,0.184-0.312,0.404-0.41,0.659 c-0.096,0.254-0.144,0.534-0.144,0.839c0,0.305,0.048,0.585,0.146,0.839c0.097,0.255,0.232,0.475,0.41,0.658 C24.782,9.37,24.995,9.513,25.244,9.617z M25.357,7.141C25.412,7,25.479,6.889,25.557,6.809c0.078-0.081,0.164-0.136,0.256-0.167 c0.092-0.031,0.179-0.048,0.256-0.048c0.078,0,0.164,0.017,0.258,0.048c0.092,0.031,0.178,0.087,0.256,0.167 S26.727,7,26.779,7.141c0.054,0.142,0.082,0.324,0.082,0.546c0,0.223-0.027,0.406-0.082,0.547 c-0.053,0.141-0.119,0.252-0.197,0.332c-0.078,0.08-0.164,0.136-0.256,0.167c-0.094,0.033-0.18,0.047-0.258,0.047 c-0.077,0-0.164-0.014-0.256-0.047c-0.094-0.031-0.179-0.087-0.256-0.167c-0.078-0.08-0.145-0.19-0.199-0.332 c-0.053-0.141-0.08-0.323-0.08-0.546C25.277,7.466,25.305,7.283,25.357,7.141z"/><path d="M5.292,14.305c-0.105-0.087-0.226-0.159-0.359-0.215c-0.133-0.056-0.271-0.104-0.412-0.146 c-0.141-0.037-0.281-0.071-0.416-0.103c-0.136-0.03-0.257-0.064-0.365-0.099c-0.108-0.036-0.196-0.077-0.265-0.124 c-0.069-0.047-0.105-0.104-0.108-0.175c0-0.057,0.015-0.102,0.044-0.138c0.03-0.035,0.067-0.062,0.111-0.08 c0.045-0.019,0.093-0.032,0.145-0.039c0.052-0.007,0.099-0.011,0.14-0.011c0.063,0,0.126,0.008,0.19,0.022 c0.063,0.015,0.121,0.041,0.173,0.078c0.052,0.034,0.092,0.076,0.12,0.128c0.028,0.052,0.037,0.115,0.025,0.19h1.161 c-0.008-0.242-0.058-0.445-0.151-0.611c-0.093-0.166-0.215-0.299-0.368-0.401c-0.153-0.103-0.327-0.177-0.524-0.221 c-0.197-0.045-0.403-0.068-0.619-0.068c-0.205,0-0.404,0.026-0.596,0.076c-0.193,0.051-0.364,0.13-0.513,0.237 c-0.149,0.108-0.269,0.245-0.36,0.41c-0.091,0.165-0.137,0.363-0.137,0.594c0,0.2,0.041,0.365,0.123,0.493 c0.082,0.128,0.187,0.235,0.315,0.318c0.127,0.083,0.273,0.15,0.435,0.2c0.161,0.051,0.32,0.099,0.476,0.144 c0.171,0.047,0.312,0.089,0.425,0.124c0.111,0.036,0.198,0.069,0.262,0.101c0.063,0.032,0.107,0.065,0.134,0.101 c0.026,0.036,0.039,0.079,0.039,0.131c0,0.075-0.017,0.136-0.05,0.183c-0.033,0.045-0.076,0.082-0.129,0.111 c-0.052,0.028-0.107,0.046-0.167,0.055c-0.06,0.01-0.114,0.016-0.162,0.016c-0.115,0-0.23-0.02-0.346-0.057 s-0.195-0.115-0.24-0.233c-0.03-0.078-0.044-0.166-0.044-0.263h-1.23c0,0.211,0.033,0.395,0.1,0.547s0.153,0.283,0.257,0.391 c0.104,0.105,0.221,0.193,0.352,0.256c0.129,0.062,0.26,0.114,0.39,0.15c0.13,0.037,0.253,0.061,0.368,0.072 c0.115,0.012,0.21,0.018,0.285,0.018c0.223,0,0.444-0.023,0.663-0.068c0.22-0.048,0.417-0.123,0.592-0.229 c0.174-0.106,0.316-0.247,0.424-0.421c0.108-0.176,0.161-0.393,0.161-0.653c0-0.182-0.031-0.337-0.095-0.466 C5.483,14.501,5.398,14.392,5.292,14.305z"/><path d="M7.295,13.634c0.057-0.104,0.135-0.188,0.231-0.25c0.097-0.064,0.217-0.096,0.362-0.096c0.126,0,0.229,0.025,0.31,0.073 c0.08,0.048,0.145,0.104,0.192,0.167c0.049,0.063,0.082,0.127,0.101,0.193c0.019,0.065,0.031,0.116,0.039,0.153h1.193 c-0.052-0.502-0.227-0.889-0.527-1.163c-0.299-0.273-0.724-0.412-1.274-0.416c-0.309,0-0.587,0.051-0.834,0.151 c-0.248,0.1-0.459,0.242-0.635,0.424c-0.177,0.182-0.313,0.401-0.407,0.658c-0.094,0.256-0.142,0.542-0.142,0.853 c0,0.294,0.045,0.569,0.134,0.823c0.089,0.254,0.22,0.475,0.393,0.662c0.173,0.185,0.384,0.332,0.633,0.438 c0.249,0.108,0.535,0.162,0.859,0.162c0.29,0,0.548-0.048,0.775-0.146c0.227-0.097,0.417-0.224,0.572-0.383 c0.154-0.156,0.271-0.335,0.351-0.531c0.081-0.198,0.121-0.396,0.121-0.597H8.536c-0.019,0.092-0.044,0.179-0.075,0.261 c-0.032,0.082-0.073,0.153-0.123,0.212c-0.05,0.06-0.111,0.104-0.184,0.139c-0.073,0.034-0.161,0.05-0.265,0.05 c-0.145,0-0.265-0.032-0.362-0.095c-0.097-0.062-0.174-0.146-0.231-0.251c-0.058-0.104-0.1-0.221-0.126-0.352 c-0.026-0.129-0.039-0.262-0.039-0.396c0-0.133,0.013-0.266,0.039-0.396C7.195,13.855,7.237,13.738,7.295,13.634z"/><polygon points="13.856,16.371 13.856,12.389 12.629,12.389 12.629,13.773 11.48,13.773 11.48,12.389 10.253,12.389 10.253,16.371 11.48,16.371 11.48,14.794 12.629,14.794 12.629,16.371 "/><path d="M17.214,12.451c-0.249-0.104-0.524-0.157-0.825-0.157c-0.303,0-0.576,0.053-0.826,0.157s-0.461,0.247-0.639,0.432 c-0.177,0.183-0.313,0.403-0.41,0.657c-0.097,0.255-0.146,0.535-0.146,0.839c0,0.306,0.048,0.585,0.146,0.84 c0.096,0.254,0.233,0.474,0.41,0.659c0.176,0.184,0.389,0.328,0.639,0.432s0.524,0.156,0.826,0.156 c0.301,0,0.576-0.053,0.825-0.156s0.462-0.248,0.64-0.432c0.176-0.186,0.312-0.405,0.41-0.659c0.096-0.254,0.145-0.534,0.145-0.84 c0-0.304-0.049-0.584-0.145-0.839c-0.098-0.254-0.234-0.474-0.41-0.657C17.676,12.698,17.462,12.555,17.214,12.451z M17.1,14.927 c-0.055,0.141-0.121,0.252-0.199,0.332c-0.077,0.081-0.164,0.136-0.256,0.167c-0.093,0.031-0.178,0.047-0.256,0.047 s-0.164-0.016-0.257-0.047c-0.094-0.032-0.179-0.087-0.257-0.167s-0.145-0.19-0.198-0.332s-0.081-0.324-0.081-0.547 c0-0.222,0.026-0.405,0.081-0.546c0.054-0.141,0.12-0.251,0.198-0.332c0.078-0.08,0.163-0.136,0.257-0.167 c0.093-0.032,0.179-0.047,0.257-0.047s0.163,0.016,0.256,0.047c0.094,0.031,0.179,0.088,0.256,0.167 c0.078,0.08,0.145,0.191,0.199,0.332c0.053,0.142,0.08,0.324,0.08,0.546C17.18,14.604,17.152,14.786,17.1,14.927z"/><path d="M19.363,12.884c-0.176,0.183-0.312,0.403-0.409,0.657c-0.097,0.255-0.146,0.535-0.146,0.839 c0,0.306,0.047,0.585,0.146,0.84c0.096,0.254,0.231,0.475,0.409,0.659c0.177,0.184,0.39,0.328,0.64,0.432 c0.249,0.104,0.524,0.156,0.825,0.156s0.576-0.052,0.826-0.156c0.248-0.104,0.462-0.248,0.639-0.432 c0.178-0.185,0.312-0.405,0.41-0.659c0.097-0.254,0.145-0.534,0.145-0.84c0-0.304-0.048-0.584-0.145-0.839 c-0.098-0.254-0.232-0.474-0.41-0.657c-0.177-0.185-0.391-0.329-0.639-0.432c-0.25-0.104-0.524-0.157-0.826-0.157 c-0.301,0-0.577,0.053-0.825,0.157C19.753,12.555,19.54,12.698,19.363,12.884z M20.116,13.834c0.054-0.141,0.12-0.251,0.198-0.332 c0.078-0.08,0.164-0.136,0.256-0.167c0.094-0.032,0.179-0.047,0.257-0.047c0.077,0,0.164,0.016,0.257,0.047 c0.092,0.031,0.18,0.088,0.257,0.167c0.078,0.08,0.144,0.191,0.198,0.332c0.053,0.142,0.081,0.324,0.081,0.546 c0,0.224-0.028,0.406-0.081,0.547c-0.055,0.141-0.12,0.252-0.198,0.332c-0.077,0.081-0.165,0.136-0.257,0.167 c-0.093,0.031-0.18,0.047-0.257,0.047c-0.078,0-0.164-0.016-0.257-0.047c-0.092-0.032-0.178-0.087-0.256-0.167 s-0.145-0.19-0.198-0.332s-0.081-0.324-0.081-0.547C20.036,14.158,20.062,13.975,20.116,13.834z"/><polygon points="23.365,16.371 26.354,16.371 26.354,15.351 24.592,15.351 24.592,12.389 23.365,12.389 "/></symbol><symbol id="gps-new" viewBox="0 0 512.107 512.107"><title>gps-new</title><path d="M78.187,337.707C61.653,338.773,48.32,352,47.04,368.427c-1.493,19.52,13.867,35.84,33.067,35.947 c0.107,0,0.107,0,0.213,0c18.453,0,33.493-14.827,33.493-33.173C113.92,352,97.813,336.427,78.187,337.707z M80.64,383.893 c-0.107,0-0.107,0-0.213,0c-7.253,0-13.227-5.867-13.333-13.12c-0.107-7.36,5.76-13.44,13.12-13.547 c7.36-0.107,13.44,5.76,13.547,13.12C93.867,377.707,88,383.787,80.64,383.893z"/><path d="M465.173,80c0.107-19.2-16-34.773-35.627-33.493C413.013,47.573,399.68,60.8,398.4,77.227 c-1.493,19.52,13.867,35.84,33.067,35.947c0.107,0,0.107,0,0.213,0C450.133,113.173,465.067,98.347,465.173,80z M432,92.8 c-0.107,0-0.107,0-0.213,0c-7.36,0-13.227-5.867-13.333-13.12c-0.107-7.36,5.76-13.44,13.12-13.547s13.44,5.76,13.547,13.12 S439.36,92.693,432,92.8z"/><path d="M431.467,220.907c0,0,0.107,0,0.107,0c0.107,0,0.107,0,0.213,0c2.667,0,5.227-1.067,7.04-2.88 c2.987-2.987,73.067-73.173,73.067-138.453C511.893,35.733,475.947,0,431.787,0c-44.16,0-80.107,35.733-80.107,79.573 c0,48.107,38.08,98.88,59.307,123.413c-12.693,2.987-21.44,9.173-23.68,17.707c-1.6,5.973,0.107,14.187,9.6,19.2 c13.013,6.827,15.68,11.627,15.573,12.693c-0.64,9.493-44.587,25.173-68.16,33.6c-43.52,15.573-80.96,28.907-82.987,51.947 c-1.493,17.387,18.347,28.48,24.853,32.107c10.24,5.76,22.08,14.507,20.48,23.787C300.8,428.8,172.053,468.8,108.8,485.12 c21.653-26.667,51.84-71.573,51.84-114.453c0-43.84-35.947-79.573-80.213-79.573c-44.267,0-80.213,35.84-80.213,79.68 c0,60.587,60.48,125.44,71.467,136.747c1.6,2.56,4.16,4.267,7.147,4.587c0.107,0,0.32,0,0.427,0c0.213,0,0.64,0,0.96-0.107 c0.107,0,0.107,0,0.213,0c0.107,0,0.32-0.107,0.427-0.107c23.787-2.453,225.6-52.053,244.48-109.867 c4.16-12.8,2.453-31.68-29.227-49.493c-14.827-8.32-14.613-12.8-14.613-12.8c0.853-10.133,45.653-26.133,69.653-34.773 c44.587-15.893,79.787-28.48,81.387-50.987c1.067-14.613-13.44-24.747-22.4-29.867C413.973,222.4,420.8,220.48,431.467,220.907z M80.427,487.253c-17.28-18.88-60.053-70.827-60.053-116.48c0-32.747,26.987-59.52,60.053-59.52s60.053,26.667,60.053,59.413 C140.48,416.32,97.707,468.267,80.427,487.253z M371.733,79.573c0-32.747,26.88-59.413,60.053-59.413 c33.067,0,60.053,26.667,60.053,59.413c0,45.653-42.773,97.6-60.053,116.587C414.507,177.067,371.733,125.227,371.733,79.573z"/></symbol><symbol id="technology-new" viewBox="0 0 512 512"><title>technology-new</title><path d="M437.02,74.981C388.668,26.628,324.381,0,256.001,0S123.333,26.628,74.981,74.981C26.63,123.334,0,187.62,0,256 s26.628,132.667,74.981,181.019C123.334,485.371,187.62,512,256,512s132.667-26.628,181.019-74.981 C485.37,388.667,512,324.38,512,256S485.371,123.334,437.02,74.981z M240.987,114.141c0-8.292,6.722-15.014,15.014-15.014 s15.014,6.722,15.014,15.014v149.174c0,8.292-6.722,15.014-15.014,15.014s-15.014-6.722-15.014-15.014V114.141z M256.001,407.525 c-82.431,0-149.493-67.063-149.493-149.493c0-25.953,6.758-51.523,19.544-73.948c12.39-21.732,30.194-40.17,51.49-53.322 c7.052-4.358,16.306-2.171,20.663,4.883c4.358,7.055,2.171,16.306-4.883,20.664c-35.556,21.962-56.784,59.99-56.784,101.724 c0,65.874,53.592,119.466,119.466,119.466s119.466-53.592,119.466-119.466c0-21.536-4.951-42.249-14.319-59.9 c-9.299-17.522-23.034-32.141-39.719-42.279c-7.086-4.306-9.34-13.54-5.035-20.627c4.306-7.086,13.54-9.34,20.627-5.035 c42.876,26.052,68.473,73.843,68.473,127.842C405.493,340.462,338.432,407.525,256.001,407.525z"/></symbol><symbol id="destination-new" viewBox="0 0 494.914 494.914"><title>destination-new</title><path d="M285.813,266.034v36.483c91.16,9.032,145.408,40.674,145.408,64.427c0,27.993-75.088,67.024-197.362,67.024 S36.514,394.937,36.514,366.944c0-23.93,54.996-55.856,147.32-64.635v-36.466C87.701,274.843,0,309.59,0,366.944 c0,67.247,120.488,103.54,233.858,103.54c113.369,0,233.877-36.293,233.877-103.54 C467.735,309.972,381.194,275.321,285.813,266.034z"/><path d="M486.869,40.363c-2.789-1.752-5.959-2.63-9.145-2.63c-2.551,0-5.098,0.558-7.472,1.704l-30.271,14.689 c-14.084,6.836-29.346,10.245-44.593,10.245c-16.123,0-32.214-3.808-46.919-11.392c-14.673-7.568-30.699-11.327-46.695-11.327 c-16.728,0-33.441,4.095-48.592,12.252V42.8c0-10.149-8.236-18.37-18.369-18.37c-10.133,0-18.354,8.221-18.354,18.37v328.94 c0,10.133,8.221,18.354,18.354,18.354c10.133,0,18.369-8.221,18.369-18.354V203.853c15.15-8.157,31.88-12.268,48.607-12.268 c15.996,0,32.007,3.76,46.68,11.326c14.705,7.584,30.796,11.393,46.902,11.393c15.247,0,30.51-3.41,44.609-10.244l45.245-21.953 c5.927-2.868,9.686-8.859,9.686-15.438V54.908C494.914,48.981,491.855,43.485,486.869,40.363z"/></symbol><symbol id="play-button-new" viewBox="0 0 46.001 46.001"><title>play-button-new</title><polygon style="fill:#030104;" points="3.004,0 3,46.001 43,22.997 "/></symbol><symbol id="rocket-start-new" viewBox="0 0 409.268 409.268"><title>rocket-start-new</title><path d="M191.851,283.893c-2.209,0-4,1.791-4,4v23.519c0,2.209,1.791,4,4,4s4-1.791,4-4v-23.519 C195.851,285.684,194.06,283.893,191.851,283.893z"/><path d="M221.427,313.176v-24.693c0-2.209-1.791-4-4-4s-4,1.791-4,4v24.693c0,2.209,1.791,4,4,4S221.427,315.385,221.427,313.176z"/><path d="M220.888,339.219c-0.58,0.156-1.155,0.235-1.708,0.235c-2.209,0-4,1.791-4,4s1.791,4,4,4c1.255,0,2.529-0.172,3.788-0.511 c2.133-0.574,3.396-2.769,2.822-4.902C225.215,339.908,223.021,338.647,220.888,339.219z"/><path d="M409.268,356.096c0-7.738-3.633-14.807-9.704-19.28c1.741-3.592,2.648-7.531,2.648-11.588 c0-9.37-4.868-17.619-12.203-22.368c0.103-0.961,0.157-1.933,0.157-2.91c0-15.015-12.212-27.23-27.222-27.23 c-14.286,0-26.028,11.069-27.128,25.082c-12.559,2.138-22.154,13.092-22.154,26.251c0,2.251,0.277,4.461,0.828,6.608 c-3.481,1.901-6.06,5.164-7.093,9.016c-1.176-0.147-2.361-0.222-3.552-0.222c-12.41,0-23.178,8.059-26.956,19.458 c-3.151-1.125-6.515-1.527-10.035-1.02c-2.271-8.326-9.81-14.322-18.865-14.322c-0.375,0-0.749,0.011-1.12,0.031 c0.081-0.627,0.123-1.265,0.123-1.911c0-7.988-6.457-14.497-14.426-14.582c-2.255-5.224-7.466-8.82-13.387-8.82 c-2.209,0-4,1.791-4,4s1.791,4,4,4c3.286,0,6.087,2.456,6.516,5.714c0.15,1.143,0.785,2.164,1.743,2.805 c0.96,0.641,2.145,0.838,3.259,0.537c0.585-0.156,1.161-0.236,1.712-0.236c3.63,0,6.583,2.953,6.583,6.583 c0,2.729-1.648,5.135-4.2,6.128c-1.131,0.44-2.026,1.363-2.364,2.528c-0.585,2.018,0.87,4.053,0.87,4.053 c0.634,1.083,1.738,1.805,2.983,1.952c1.254,0.149,2.489-0.3,3.356-1.204c2.211-2.307,5.177-3.577,8.352-3.577 c6.334,0,11.413,4.965,11.563,11.304c0.03,1.293,0.685,2.491,1.756,3.217c1.071,0.727,2.429,0.887,3.639,0.438 c0.546-0.203,2.594-0.848,4.798-0.848c2.731,0,5.364,0.828,7.612,2.396c1.151,0.8,2.635,0.941,3.914,0.372 c1.279-0.57,2.168-1.768,2.342-3.157c1.273-10.169,9.972-17.837,20.233-17.837c2.02,0,4.02,0.297,5.944,0.883 c1.277,0.389,2.666,0.114,3.7-0.733c1.033-0.848,1.575-2.155,1.444-3.485c-0.021-0.219-0.034-0.439-0.034-0.664 c0-2.21,1.115-4.184,2.838-5.383c3.324,4.813,8.73,8.035,14.823,8.435c0.09,0.006,0.179,0.009,0.267,0.009 c2.09,0,3.849-1.623,3.987-3.737c0.145-2.205-1.524-4.109-3.729-4.254c-4.4-0.29-8.119-3.097-9.872-7.005 c-0.434-0.967-1.552-3.592-1.552-7.467c0-10.275,8.36-18.636,18.636-18.636c5.031,0,9.709,1.971,13.187,5.472 c-5.125,8.939-3.899,20.556,3.729,28.183c0.78,0.781,1.805,1.172,2.828,1.172s2.048-0.391,2.828-1.172 c1.563-1.562,1.563-4.095,0-5.656c-5.883-5.884-6.002-15.382-0.358-21.413c0.117-0.125,0.403-0.429,0.429-0.456 c3.428-3.167,7.924-4.954,12.635-4.954c10.276,0,18.637,8.36,18.637,18.636c0,3.836-1.159,7.521-3.352,10.657 c-0.668,0.955-0.886,2.153-0.597,3.283c0.288,1.129,1.055,2.076,2.1,2.593c5.492,2.722,8.904,8.214,8.904,14.335 c0,7.27-4.905,13.63-11.928,15.468c-1.044,0.273-1.933,0.957-2.466,1.895c-0.532,0.938-0.664,2.052-0.363,3.088 c0.429,1.48,0.646,3.007,0.646,4.538c0,0.116-0.001,0.231-0.004,0.348H22.115c-0.002-0.116,0.011-1.16,0.042-1.565 c0.084-1.121,0.285-2.233,0.6-3.321c0.3-1.036,0.169-2.149-0.364-3.088c-0.533-0.938-1.421-1.621-2.465-1.895 C12.905,369.726,8,363.366,8,356.096c0-4.764,2.074-9.14,5.579-12.133c0.264-0.225,1.375-1.05,1.559-1.17 c5.725-3.737,13.838-3.688,18.959,1.432c0.781,0.781,1.804,1.172,2.828,1.172s2.047-0.391,2.829-1.172 c1.562-1.562,1.562-4.095,0-5.656c-6.196-6.197-15.128-8.003-22.941-5.459c-1.15-2.452-1.757-5.126-1.757-7.882 c0-10.275,8.36-18.636,18.636-18.636c4.524,0,8.839,1.663,12.211,4.598c-1.564,3.173-2.396,6.684-2.396,10.323 c0,6.248,2.436,12.125,6.859,16.548c0.781,0.781,1.804,1.172,2.828,1.172s2.047-0.391,2.829-1.172c1.562-1.562,1.562-4.095,0-5.656 c-2.912-2.912-4.516-6.78-4.516-10.892c0-3.975,1.511-7.714,4.242-10.59c3.481-3.523,8.173-5.506,13.22-5.506 c10.276,0,18.636,8.36,18.636,18.636c0,2.572-0.517,5.067-1.537,7.414c-0.485,1.117-0.435,2.395,0.136,3.47 c0.571,1.076,1.601,1.832,2.798,2.056c2.56,0.479,4.519,2.415,5.138,4.848c-8.568,4.068-14.158,13.151-13.304,23.143 c0.188,2.201,2.125,3.833,4.326,3.645s3.833-2.125,3.645-4.326c-0.62-7.256,3.928-13.771,10.57-15.941 c2.372-0.746,5.243-0.906,6.044-0.906c10.261,0,18.959,7.668,20.233,17.837c0.174,1.39,1.063,2.588,2.342,3.157 c1.279,0.569,2.765,0.428,3.913-0.372c2.325-1.621,5.282-2.425,8.215-2.361c1.812,0,3.68,0.514,4.603,0.867 c0.004,0.001,0.008,0.002,0.012,0.004c3.393,1.458,5.776,4.832,5.776,8.752c0,2.209,1.791,4,4,4s4-1.791,4-4 c0-6.341-3.397-11.89-8.456-14.966c1.26-5.034,5.84-8.803,11.217-8.803c3.175,0,6.142,1.271,8.353,3.577 c0.868,0.904,2.11,1.349,3.355,1.204c1.246-0.147,2.35-0.869,2.984-1.952c0,0,1.634-2.233,0.87-4.053 c-0.47-1.118-1.233-2.088-2.364-2.528c-2.552-0.993-4.2-3.399-4.2-6.128c0-3.63,2.953-6.583,6.583-6.583 c0.55,0,1.126,0.079,1.711,0.236c1.113,0.3,2.3,0.103,3.258-0.537s1.594-1.662,1.744-2.804c0.429-3.258,3.23-5.715,6.516-5.715 c2.209,0,4-1.791,4-4s-1.791-4-4-4c-5.92,0-11.13,3.597-13.386,8.82c-7.969,0.085-14.426,6.594-14.426,14.582 c0,0.646,0.042,1.284,0.123,1.911c-0.372-0.021-0.745-0.031-1.121-0.031c-8.894,0-16.514,6.087-18.84,14.313 c-3.396-0.474-6.879-0.107-10.06,1.028c-3.778-11.4-14.546-19.458-26.956-19.458c-1.191,0-2.376,0.074-3.552,0.222 c-1.034-3.851-3.612-7.114-7.093-9.016c0.55-2.146,0.828-4.357,0.828-6.608c0-14.687-11.949-26.636-26.636-26.636 c-6.935,0-13.405,2.61-18.313,7.283c-4.741-3.921-10.723-6.107-16.964-6.107c-14.688,0-26.636,11.949-26.636,26.636 c0,4.057,0.907,7.996,2.648,11.588C3.633,341.29,0,348.358,0,356.096c0,9.615,5.723,18.172,14.302,21.953 c-0.127,1.006-0.191,2.02-0.191,3.035c0,1.737,0.19,3.487,0.564,5.201c0.401,1.837,2.027,3.146,3.908,3.146h372.102 c1.881,0,3.508-1.311,3.908-3.147c0.374-1.715,0.563-3.464,0.563-5.2c0-1.016-0.063-2.029-0.191-3.035 C403.544,374.268,409.268,365.712,409.268,356.096z M358.612,304.7c-4.053-3.859-9.173-6.306-14.738-7.043 c1.138-9.524,9.249-16.937,19.071-16.937c10.417,0,18.906,8.339,19.194,18.693c-2.1-0.534-4.299-0.82-6.564-0.82 C369.334,298.593,363.353,300.778,358.612,304.7z"/><path d="M186.813,373.23c-0.372,2.177,1.091,4.244,3.269,4.616c0.228,0.039,0.455,0.059,0.679,0.059 c1.913,0,3.604-1.377,3.938-3.326c1.076-6.294,6.044-11.173,12.361-12.142c5.9-0.903,11.735,1.795,14.866,6.876 c1.158,1.88,3.622,2.466,5.504,1.307c1.881-1.159,2.466-3.623,1.307-5.504c-4.821-7.824-13.805-11.97-22.89-10.587 c-0.365,0.056-0.721,0.137-1.08,0.21c-2.276-7.815-9.263-13.504-17.499-14.047c-2.205-0.155-4.109,1.524-4.254,3.729 c-0.146,2.204,1.524,4.109,3.729,4.254c5.12,0.337,9.419,4.039,10.525,9.025C191.836,361.069,187.94,366.643,186.813,373.23z"/><path d="M177.299,281.31h54.68c2.209,0,4-1.791,4-4v-59.089c0-0.744-0.207-1.473-0.599-2.105l-13.953-22.537V58.861 c0-0.468-0.082-0.933-0.242-1.372l-12.788-35.025c-0.576-1.578-2.078-2.628-3.758-2.628c-1.68,0-3.181,1.05-3.757,2.628 l-12.788,35.025c-0.161,0.439-0.243,0.904-0.243,1.372V193.58l-13.953,22.536c-0.392,0.633-0.599,1.361-0.599,2.105v59.089 C173.299,279.519,175.09,281.31,177.299,281.31z M213.427,62.861v5.229h-17.576v-5.229H213.427z M195.851,273.31V76.09h17.576 V273.31H195.851z M227.979,219.359v53.951h-6.552v-64.533L227.979,219.359z M204.639,35.499l7.069,19.362H197.57L204.639,35.499z M181.299,219.359l6.552-10.582v64.533h-6.552V219.359z"/></symbol><symbol id="route-new-1" viewBox="0 0 60 60"><title>route-new-1</title><path d="M35.493,24h2c0.553,0,1-0.447,1-1s-0.447-1-1-1h-2c-0.553,0-1,0.447-1,1S34.94,24,35.493,24z"/><path d="M31.995,31c-0.433-0.001-0.854-0.078-1.252-0.23c-0.512-0.195-1.093,0.062-1.291,0.578 c-0.196,0.516,0.063,1.094,0.578,1.291c0.626,0.238,1.285,0.36,1.963,0.361h0.357c0.553,0,1-0.447,1-1s-0.447-1-1-1H31.995z"/><path d="M29.621,24.676c0.181,0,0.363-0.049,0.528-0.151c0.443-0.276,0.933-0.445,1.454-0.503c0.549-0.061,0.945-0.555,0.885-1.104 s-0.551-0.941-1.104-0.885c-0.822,0.091-1.594,0.357-2.294,0.794c-0.469,0.292-0.611,0.909-0.319,1.378 C28.961,24.509,29.287,24.676,29.621,24.676z"/><path d="M35.993,40c-0.086,0-0.171,0.002-0.256,0.006c-0.552,0.022-0.98,0.488-0.958,1.04c0.021,0.538,0.465,0.959,0.998,0.959 c0.014,0,0.028,0,0.042-0.001L37.778,42c0.553,0,1-0.447,1-1s-0.447-1-1-1H35.993z"/><path d="M43.493,24c0.553,0,1-0.447,1-1s-0.447-1-1-1h-2c-0.553,0-1,0.447-1,1s0.447,1,1,1H43.493z"/><path d="M47.778,40c-0.553,0-1,0.447-1,1s0.447,1,1,1h2c0.553,0,1-0.447,1-1s-0.447-1-1-1H47.778z"/><path d="M51.351,32c0-0.553-0.447-1-1-1h-2c-0.553,0-1,0.447-1,1s0.447,1,1,1h2C50.903,33,51.351,32.553,51.351,32z"/><path d="M41.778,42h2c0.553,0,1-0.447,1-1s-0.447-1-1-1h-2c-0.553,0-1,0.447-1,1S41.226,42,41.778,42z"/><path d="M45.351,32c0-0.553-0.447-1-1-1h-2c-0.553,0-1,0.447-1,1s0.447,1,1,1h2C44.903,33,45.351,32.553,45.351,32z"/><path d="M36.351,31c-0.553,0-1,0.447-1,1s0.447,1,1,1h2c0.553,0,1-0.447,1-1s-0.447-1-1-1H36.351z"/><path d="M24.064,58h-2c-0.553,0-1,0.447-1,1s0.447,1,1,1h2c0.553,0,1-0.447,1-1S24.616,58,24.064,58z"/><path d="M18.064,58h-2c-0.553,0-1,0.447-1,1s0.447,1,1,1h2c0.553,0,1-0.447,1-1S18.616,58,18.064,58z"/><path d="M52.604,54.517c-0.539-0.121-1.074,0.217-1.195,0.756c-0.115,0.51-0.338,0.979-0.663,1.392 c-0.341,0.434-0.267,1.063,0.168,1.404c0.184,0.144,0.401,0.214,0.617,0.214c0.297,0,0.59-0.131,0.787-0.382 c0.504-0.64,0.864-1.396,1.042-2.188C53.481,55.173,53.143,54.638,52.604,54.517z"/><path d="M51.531,52.719c0.216,0,0.435-0.07,0.617-0.214c0.435-0.342,0.509-0.971,0.168-1.404c-0.503-0.639-1.152-1.167-1.879-1.528 c-0.497-0.247-1.095-0.044-1.341,0.45c-0.246,0.495-0.044,1.095,0.45,1.341c0.463,0.229,0.877,0.566,1.197,0.974 C50.941,52.588,51.234,52.719,51.531,52.719z"/><path d="M47.065,50c0-0.553-0.447-1-1-1h-2c-0.553,0-1,0.447-1,1s0.447,1,1,1h2C46.617,51,47.065,50.553,47.065,50z"/><path d="M47.993,58h-1.93c-0.553,0-1,0.447-1,1s0.447,1,1,1l1.971-0.001l0.029-1v1c0.553,0,0.965-0.447,0.965-1 C49.028,58.447,48.546,58,47.993,58z"/><path d="M59.426,35.632c-0.088-0.546-0.603-0.919-1.146-0.829c-0.546,0.087-0.917,0.601-0.829,1.146 c0.028,0.178,0.044,0.359,0.042,0.552c0,0.336-0.048,0.668-0.142,0.988c-0.155,0.53,0.148,1.086,0.679,1.241 c0.094,0.027,0.188,0.04,0.281,0.04c0.433,0,0.832-0.282,0.96-0.719c0.147-0.503,0.222-1.024,0.222-1.543 C59.495,36.22,59.473,35.925,59.426,35.632z"/><path d="M28.029,29.855c0.524-0.173,0.81-0.738,0.638-1.263c-0.115-0.351-0.174-0.718-0.174-1.088 c0.001-0.151,0.01-0.302,0.028-0.449c0.069-0.548-0.319-1.049-0.867-1.117c-0.565-0.063-1.049,0.321-1.117,0.867 c-0.028,0.226-0.043,0.456-0.044,0.694c0,0.588,0.092,1.166,0.273,1.718c0.139,0.421,0.53,0.688,0.95,0.688 C27.82,29.905,27.926,29.89,28.029,29.855z"/><path d="M56.746,31.738c-0.714-0.414-1.494-0.657-2.317-0.722c-0.549-0.04-1.032,0.367-1.075,0.919 c-0.043,0.551,0.368,1.032,0.919,1.075c0.522,0.041,1.017,0.195,1.47,0.458c0.158,0.092,0.331,0.135,0.501,0.135 c0.345,0,0.681-0.179,0.866-0.498C57.387,32.628,57.224,32.016,56.746,31.738z"/><path d="M55.345,39.729C54.916,39.909,54.462,40,53.993,40h-0.215c-0.553,0-1,0.447-1,1s0.447,1,1,1h0.215 c0.736,0,1.451-0.144,2.125-0.427c0.51-0.214,0.749-0.8,0.535-1.309C56.44,39.755,55.85,39.515,55.345,39.729z"/><path d="M32.555,44.839c0.099-0.514,0.307-0.989,0.619-1.413c0.327-0.444,0.232-1.07-0.213-1.398 c-0.445-0.326-1.07-0.232-1.398,0.213c-0.489,0.666-0.817,1.413-0.973,2.222c-0.104,0.542,0.251,1.066,0.794,1.171 c0.063,0.012,0.127,0.018,0.189,0.018C32.043,45.65,32.462,45.317,32.555,44.839z"/><path d="M34.122,50.594c0.38,0,0.742-0.217,0.91-0.584c0.229-0.503,0.009-1.096-0.493-1.325c-0.469-0.215-0.894-0.538-1.228-0.936 c-0.356-0.423-0.986-0.478-1.409-0.122c-0.423,0.355-0.478,0.986-0.122,1.409c0.524,0.623,1.19,1.131,1.927,1.467 C33.842,50.564,33.983,50.594,34.122,50.594z"/><path d="M30.064,58h-2c-0.553,0-1,0.447-1,1s0.447,1,1,1h2c0.553,0,1-0.447,1-1S30.616,58,30.064,58z"/><path d="M36.064,58h-2c-0.553,0-1,0.447-1,1s0.447,1,1,1h2c0.553,0,1-0.447,1-1S36.616,58,36.064,58z"/><path d="M41.065,50c0-0.553-0.447-1-1-1h-2c-0.553,0-1,0.447-1,1s0.447,1,1,1h2C40.617,51,41.065,50.553,41.065,50z"/><path d="M42.064,58h-2c-0.553,0-1,0.447-1,1s0.447,1,1,1h2c0.553,0,1-0.447,1-1S42.616,58,42.064,58z"/><path d="M21.021,28.977C18.75,26.412,15.722,25,12.493,25s-6.257,1.412-8.527,3.977c-4.612,5.211-4.612,13.688,0,18.899 l8.527,9.633l8.527-9.633C25.633,42.665,25.633,34.188,21.021,28.977z M12.493,43c-3.309,0-6-2.691-6-6s2.691-6,6-6s6,2.691,6,6 S15.802,43,12.493,43z"/><path d="M48.747,24.507l6.464-7.286c3.478-3.92,3.478-10.296,0-14.216C53.491,1.067,51.195,0,48.746,0 c-2.448,0-4.744,1.067-6.464,3.005c-3.477,3.92-3.477,10.296,0,14.216L48.747,24.507z M48.993,4c3.032,0,5.5,2.468,5.5,5.5 s-2.468,5.5-5.5,5.5s-5.5-2.468-5.5-5.5S45.961,4,48.993,4z"/></symbol><symbol id="route-new" viewBox="0 0 489.044 489.044"><title>route-new</title><polygon id="XMLID_1304_" style="fill:#A7A9AC;" points="430.218,103.044 199.018,8.944 230.318,103.044 198.918,197.044 "/><path d="M439.318,103.044c0-0.6-0.1-1.1-0.2-1.6c0-0.2-0.1-0.3-0.1-0.5c-0.1-0.4-0.2-0.7-0.3-1.1c-0.1-0.2-0.1-0.3-0.2-0.5 c-0.2-0.5-0.4-0.9-0.7-1.4c0,0,0,0-0.1-0.1c-0.3-0.4-0.6-0.8-0.9-1.1c-0.1-0.1-0.2-0.2-0.3-0.3c-0.3-0.3-0.6-0.5-0.9-0.7 c-0.1-0.1-0.3-0.2-0.4-0.3c-0.3-0.2-0.7-0.4-1.1-0.6c-0.1-0.1-0.2-0.1-0.3-0.2l0,0l-231.2-94c-3.3-1.3-7-0.6-9.6,1.8 s-3.5,6.1-2.4,9.5l30.3,91.2l-30.5,91.2c-1.1,3.4-0.2,7.1,2.4,9.5c1.7,1.6,3.9,2.5,6.2,2.5c1.1,0,2.3-0.2,3.4-0.7l231.4-94 c0,0,0,0,0.1,0s0.2-0.1,0.3-0.2c0.4-0.2,0.8-0.4,1.1-0.6c0.1-0.1,0.3-0.2,0.4-0.3c0.3-0.2,0.6-0.5,0.9-0.7 c0.1-0.1,0.2-0.2,0.3-0.3c0.4-0.4,0.7-0.8,1-1.2l0,0c0.3-0.4,0.5-0.9,0.7-1.4c0.1-0.2,0.1-0.3,0.2-0.5c0.1-0.4,0.2-0.7,0.3-1.1 c0-0.2,0.1-0.3,0.1-0.5C439.218,104.144,439.318,103.544,439.318,103.044L439.318,103.044L439.318,103.044L439.318,103.044z M213.818,24.744l170.1,69.2h-147.1L213.818,24.744z M236.818,112.044h147l-170.1,69.2L236.818,112.044z"/><path d="M153.018,488.944c2.4,0,4.7-1,6.4-2.7s2.7-4,2.7-6.4s-1-4.7-2.7-6.4c-1.7-1.7-4-2.7-6.4-2.7s-4.7,1-6.4,2.7 s-2.7,4-2.7,6.4s1,4.7,2.7,6.4C148.318,488.044,150.618,488.944,153.018,488.944z"/><path d="M401.318,462.744c2.3,0,4.5-0.8,6.3-2.5c3.6-3.5,3.7-9.2,0.2-12.8c-3.5-3.6-9.2-3.7-12.8-0.3c-3.6,3.5-3.7,9.2-0.3,12.8 C396.518,461.744,398.918,462.744,401.318,462.744z"/><path d="M416.118,436.244c1.3,0.7,2.7,1,4.1,1c3.3,0,6.5-1.8,8.1-5c2.3-4.5,0.5-9.9-4-12.2c-4.5-2.3-9.9-0.5-12.2,4 C409.818,428.544,411.618,433.944,416.118,436.244z"/><path d="M421.218,344.344c4.3-2.6,5.6-8.2,3-12.4c-2.6-4.3-8.2-5.6-12.5-3s-5.6,8.2-3,12.5c1.7,2.8,4.7,4.3,7.7,4.3 C418.118,345.644,419.718,345.244,421.218,344.344z"/><path d="M419.318,367.944c0.9,4.3,4.7,7.2,8.8,7.2c0.6,0,1.3-0.1,1.9-0.2c4.9-1,8-5.8,7-10.7c-1-4.9-5.8-8-10.7-7 C421.418,358.244,418.318,363.044,419.318,367.944z"/><path d="M402.618,318.444c3.2-3.9,2.6-9.6-1.3-12.8c-3.9-3.2-9.6-2.6-12.8,1.3c-3.2,3.9-2.6,9.6,1.3,12.8c1.7,1.4,3.7,2,5.7,2 C398.218,321.744,400.818,320.644,402.618,318.444z"/><path d="M49.818,212.444c0.7,4.5,4.6,7.8,9,7.8c0.4,0,0.9,0,1.3-0.1c5-0.7,8.4-5.3,7.7-10.3s-5.3-8.4-10.3-7.7 S49.118,207.444,49.818,212.444z"/><path d="M75.218,141.844c-4.3-2.5-9.9-1.1-12.4,3.2c-2.5,4.3-1.1,9.9,3.2,12.4c1.4,0.8,3,1.2,4.6,1.2c3.1,0,6.1-1.6,7.8-4.5 C81.018,149.944,79.618,144.344,75.218,141.844z"/><path d="M88.018,275.444c2.4,0,4.9-1,6.6-2.9c3.4-3.7,3.2-9.4-0.5-12.8s-9.4-3.2-12.8,0.5s-3.2,9.4,0.5,12.8 C83.618,274.644,85.818,275.444,88.018,275.444z"/><path d="M118.218,275.444c-4.6-2-9.9,0.1-11.9,4.7s0.1,9.9,4.7,11.9c1.2,0.5,2.4,0.7,3.6,0.7c3.5,0,6.8-2,8.3-5.5 C124.918,282.744,122.818,277.444,118.218,275.444z"/><path d="M98.018,119.544c-3.2-3.8-9-4.3-12.8-1c-3.8,3.2-4.3,9-1,12.8c1.8,2.1,4.4,3.2,6.9,3.2c2.1,0,4.1-0.7,5.9-2.2 C100.718,129.044,101.218,123.344,98.018,119.544z"/><path d="M57.718,188.244c0.6,0.1,1.2,0.2,1.7,0.2c4.2,0,8.1-3,8.9-7.4c0.9-4.9-2.3-9.7-7.2-10.6c-4.9-0.9-9.7,2.3-10.6,7.2l0,0 C49.618,182.544,52.818,187.344,57.718,188.244z"/><path d="M68.718,250.344c1.4,0,2.9-0.3,4.2-1c4.4-2.3,6.1-7.8,3.8-12.2c-2.3-4.4-7.8-6.1-12.2-3.8s-6.1,7.8-3.8,12.2 C62.318,248.544,65.418,250.344,68.718,250.344z"/><path d="M438.518,398.944c0.6-5-2.9-9.5-7.9-10.1s-9.5,2.9-10.1,7.8c-0.6,5,2.9,9.5,7.8,10.1c0.4,0.1,0.8,0.1,1.2,0.1 C434.018,406.844,437.918,403.544,438.518,398.944z"/><path d="M209.218,282.444c-5,0-9.1,4-9.1,9.1c0,5,4.1,9.1,9.1,9.1s9.1-4.1,9.1-9.1 C218.218,286.444,214.218,282.444,209.218,282.444z"/><path d="M303.418,479.944c0,5,4,9.1,9.1,9.1c5,0,9.1-4.1,9.1-9.1s-4.1-9.1-9.1-9.1S303.418,474.944,303.418,479.944z"/><path d="M207.718,479.944c0,5,4,9.1,9.1,9.1c5,0,9.1-4.1,9.1-9.1s-4.1-9.1-9.1-9.1S207.718,474.944,207.718,479.944z"/><path d="M304.818,282.444c-5,0-9.1,4-9.1,9.1c0,5,4.1,9.1,9.1,9.1s9.1-4.1,9.1-9.1 C313.918,286.444,309.918,282.444,304.818,282.444z"/><path d="M241.118,282.444c-5,0-9.1,4-9.1,9.1c0,5,4,9.1,9.1,9.1c5,0,9.1-4.1,9.1-9.1 C250.118,286.444,246.118,282.444,241.118,282.444z"/><path d="M175.918,479.944c0,5,4,9.1,9.1,9.1c5,0,9.1-4.1,9.1-9.1s-4.1-9.1-9.1-9.1 C179.918,470.844,175.918,474.944,175.918,479.944z"/><path d="M239.618,479.944c0,5,4.1,9.1,9.1,9.1s9.1-4.1,9.1-9.1s-4-9.1-9.1-9.1C243.718,470.844,239.618,474.944,239.618,479.944z"/><path d="M271.518,479.944c0,5,4,9.1,9.1,9.1c5,0,9-4.1,9-9.1s-4-9.1-9-9.1S271.518,474.944,271.518,479.944z"/><path d="M273.018,282.444c-5,0-9.1,4-9.1,9.1c0,5,4,9.1,9.1,9.1c5,0,9.1-4.1,9.1-9.1 C282.018,286.444,278.018,282.444,273.018,282.444z"/><path d="M168.218,291.444c0,5,4.1,9.1,9.1,9.1s9.1-4.1,9.1-9.1s-4-9.1-9.1-9.1C172.318,282.444,168.218,286.444,168.218,291.444z"/><path d="M158.518,102.844c-0.1-5-4.3-9-9.3-8.8c-5,0.1-8.9,4.3-8.8,9.3c0.1,5,4.3,8.9,9.3,8.8 C154.718,111.944,158.718,107.844,158.518,102.844z"/><path d="M136.418,290.644c-0.3,5,3.4,9.3,8.4,9.7c0.2,0,0.4,0,0.6,0c4.7,0,8.7-3.6,9-8.4c0.3-5-3.4-9.3-8.4-9.7 S136.718,285.644,136.418,290.644z"/><path d="M126.818,105.944c-1.8-4.7-7-7-11.7-5.2s-7,7-5.2,11.7c1.4,3.6,4.8,5.8,8.5,5.8c1.1,0,2.2-0.2,3.2-0.6 C126.318,115.844,128.618,110.644,126.818,105.944z"/><path d="M376.518,300.144c1.7-4.7-0.7-9.9-5.5-11.6l0,0c-4.7-1.7-9.9,0.7-11.6,5.4c-1.7,4.7,0.7,9.9,5.5,11.6 c1,0.4,2.1,0.5,3.1,0.5C371.718,306.144,375.218,303.844,376.518,300.144z"/><path d="M336.818,282.444c-5,0-9.1,4-9.1,9s4,9.1,9,9.1c0,0,0,0,0.1,0c5,0,9-4,9.1-9 C345.818,286.544,341.818,282.444,336.818,282.444z"/><path d="M375.018,480.544c1.3,0,2.5-0.3,3.8-0.8c4.6-2.1,6.6-7.5,4.5-12c-2.1-4.6-7.4-6.6-12-4.5s-6.6,7.5-4.5,12 C368.318,478.544,371.618,480.544,375.018,480.544z"/><path d="M335.318,480.344c0.4,4.7,4.4,8.3,9,8.3c0.3,0,0.5,0,0.8,0c5-0.4,8.7-4.8,8.2-9.8c-0.4-5-4.8-8.7-9.8-8.2l0,0 C338.618,470.944,334.918,475.344,335.318,480.344z"/><path d="M188.218,109.444c1.7-1.7,2.6-4,2.6-6.4s-1-4.7-2.6-6.4c-1.7-1.7-4-2.7-6.4-2.7s-4.7,1-6.4,2.7s-2.7,4-2.7,6.4 s1,4.7,2.7,6.4c1.7,1.7,4,2.7,6.4,2.7C184.218,112.044,186.518,111.144,188.218,109.444z"/></symbol><symbol id="earth-globe-with-continents-maps-new" viewBox="0 0 46.002 46.002"><title>earth-globe-with-continents-maps-new</title><path d="M40.503,16.351l0.4,0.287h0.373V15.92l1.176-0.114l1.117,0.832h1.836l0.129-0.118c-0.184-0.619-0.391-1.227-0.623-1.823 l-1.198,0.02l-0.601-0.66l-0.116-1.061l-0.616,0.336l-0.33,1.297l-0.889-0.946l-0.036-0.894l-0.858-0.739l-0.316-0.315h-0.995 l0.313,0.887l1.198,0.668l0.208,0.221l-0.26,0.13l0.012,0.703l-0.584,0.244l-0.498-0.109l-0.312-0.441l0.811,0.043l0.219-0.295 l-1.795-1.211l-0.138-0.516l-0.729,0.66l-0.739-0.152l-1.125,1.463l-0.222,0.573l-0.72,0.065l-1.065,0.007l-0.637-0.298 l-0.188-1.265l0.229-0.603l1.084-0.237l1.182,0.237l0.145-0.654l-0.502-0.119l0.171-1.019l1.19-0.186l0.832-1.175l0.859-0.144 l0.775,0.115h0.286l-0.158-1.104l-0.942,0.38l-0.332-0.825l-0.547-0.076l-0.103-0.565l0.446-0.486l1.061-0.416l0.273-0.488 C34.599,2.175,29.284,0,23.468,0c-5.047,0-9.716,1.638-13.513,4.405l1.16-0.009l0.517,0.286l0.974,0.21l0.076,0.383l1.549,0.057 l-0.21-0.497l-1.376-0.039l0.324-0.305l-0.113-0.364h-1.244l1.357-1.013h1.3l0.611,0.842l1.014,0.057l0.611-0.593l0.459,0.229 l-0.842,0.822c0,0-1.165,0.021-1.108,0.021c0.057,0,0.096,0.802,0.096,0.802l1.413-0.039l0.153-0.381l0.974-0.058l0.115-0.573 l-0.573-0.097l0.191-0.516l0.439-0.133l1.529,0.076l-0.843,0.765l0.136,0.592l0.879,0.134l-0.057-1.07l0.841-0.44l1.491-0.172 l2.159,0.956v0.822l0.688,0.172l-0.345,0.65h-0.975l-0.289,0.745l-2.225-0.525l1.751-0.933l-0.667-0.567l-1.51,0.191l-0.132,0.137 l-0.005-0.002L20.225,5.06L19.79,5.512l-0.719,0.059l0.057,0.358l0.251,0.104l-0.01,0.118l-0.585,0.083l-0.043,0.339l-0.559,0.029 l-0.101-0.674l-1.003,0.305l-2.05,1.2l0.23,0.845l0.573,0.374l1.146,0.158v1.303l0.53-0.085l0.488-1.018l1.219-0.386V7.061 l0.678-0.512l1.639,0.387l-0.115,1.033h0.44l1.205-0.592l0.058,1.356l0.877,0.535l-0.037,0.804l-0.84,0.286l0.057,0.266 l1.013,0.461l-0.021,0.554l-0.293,0.025c-0.001-0.009-0.003-0.015-0.003-0.015l-1.278-0.394l-0.054-0.41h-0.001l0.374-0.257v-0.374 l-0.402-0.101l-0.1,0.345l-0.705,0.109l-0.07-0.023v0.035l-0.244,0.037l-0.199-0.402l-0.23-0.101h-0.502l-0.228,0.188v0.416 l0.429,0.143l0.424,0.06l-0.095,0.042l-0.387,0.429l-0.17-0.214l-0.374-0.099l-1.019,0.958l0.133,0.109l-1.504,0.833l-1.415,1.472 l-0.097,0.655l-1.418,0.932l-0.703,0.707l0.078,1.414l-0.975-0.454l0.007-0.827l-2.713,0.001l-1.405,0.711l-0.61,1.125 l-0.242,0.892l0.395,0.865l1.107,0.135l1.759-1.176l0.154,0.583l-0.537,1.014l1.339,0.229l0.134,2.068l1.835,0.312l1.166-1.348 l1.415,0.288l0.497,0.691l1.357-0.08l0.038-0.401l0.746,0.362l0.841,1.318l1.452,0.02l0.536,0.938l0.076,1.146l1.606,0.611 l2.026,0.021l0.593,0.973l0.898,0.288l-0.172,0.805l-0.984,1.25l-0.287,2.769l-0.889,0.702l-1.318-0.039l-0.439,0.764l0.326,1.436 l-1.435,1.834l-0.458,0.842l-1.367,0.656l-0.899,0.137l-0.037,0.381l0.631,0.181l-0.076,0.411l-0.565,0.544l0.343,0.433l0.68,0.019 l-0.038,0.524l-0.181,0.517l-0.058,0.42l1.006,0.847l-0.134,0.44l-1.369-0.026l-1.362-1.188l-1.061-1.865l0.148-1.8l-0.803-1.071 l0.325-1.815l-0.477-0.133v-3.938c0,0-1.338-1.014-1.415-1.014c-0.077,0-0.708-0.172-0.708-0.172l-0.134-0.744l-1.739-2.18 l0.172-0.783l0.057-1.281l1.204-0.842l-0.172-1.434l-1.758-0.132l-1.376-1.568L9.816,22.08l-0.63-0.116l0.076-0.573l-0.803-0.114 v0.325l-2.008-0.501l-0.808-1.236l0.329-0.599l-1.271-1.855l-0.218-1.357H3.967l0.171,1.318l0.879,1.357l-0.096,0.536L4.176,19.15 l-0.917-1.563v-1.819l-0.956-0.459V14c-1.18,2.766-1.835,5.808-1.835,9.001c0,12.683,10.318,23.001,23.001,23.001 c7.19,0,13.618-3.318,17.839-8.502h-0.759v-1.529l-0.878-1.182V32.95l-0.67-0.668l-0.059-0.765l0.852-1.625l-1.613-2.849 l0.189-1.933l-1.452-0.15l-0.535-0.535h-0.976l-0.496,0.458H33.19l-0.058,0.153h-0.957l-2.196-2.503l0.018-1.95l0.363-0.133 l0.135-0.746h-0.516l-0.211-0.783l2.541-1.834v-1.3l1.244-0.691l0.504,0.05h1.023l0.801-0.43l2.581-0.201v1.319L40.503,16.351z M34.051,8.15l0.21-0.324l0.756-0.153l0.189,0.918l0.402,0.649l0.267,0.307l0.487,0.19l-0.459,0.546l-0.889,0.085h-0.668 l0.075-0.793l0.556-0.115l-0.047-0.373l-0.518-0.325L34.05,8.514L34.051,8.15L34.051,8.15z M32.81,9.584l0.459-0.736l0.619-0.144 l0.44,0.191l-0.04,0.497l-0.946,0.669h-0.534V9.584H32.81z M20.313,12.413l-0.479,0.04l0.026-0.333l0.214-0.267l0.288,0.226 L20.313,12.413z M21.992,11.825l-0.327,0.028l-0.066,0.316l-0.252,0.157l-0.404,0.034c-0.014-0.095-0.022-0.167-0.022-0.167h-0.157 v-0.34h0.659l0.136-0.351l0.262-0.005l0.299,0.062L21.992,11.825z"/></symbol><symbol id="flat-world-map-new" viewBox="0 0 40.839 40.839"><title>flat-world-map-new</title><path style="fill:#010002;" d="M13.591,23.227l1.68,0.816l-0.96,1.967l-0.961,0.146l-0.146,0.77l-1.968,1.682l-0.912,1.728 l0.671,0.722l-1.101-0.289l-0.387-0.961l1.104-4.465l-0.913-0.816l-0.429-1.727l0.516-0.845l-0.471,0.071l-0.67-0.862 l-0.577-0.288l-1.344-0.481l-1.106-1.728l-0.671-1.248v-1.682l-1.104-1.872L2.448,13l-0.864,0.48L0,14.25l1.007-0.816 l-0.625-0.145l-0.237-0.816l0.719-0.577l-0.719-0.095l0.142-0.528h0.529l-0.48-0.721l1.296-0.77l2.353,1.298l0.867-0.816 l1.871,1.104l3.601-0.387v1.826l-1.44,0.287l-0.289,0.771l1.393,1.487l0.336-0.048l0.238-1.872l0.916-0.047l0.381,1.054 l0.481-0.287l1.056,2.355l-1.488,0.669l-1.152,0.626l-0.912,1.249v0.625l-0.337,0.047l-0.238-0.672l-1.297,0.191l-0.288,0.815 l0.335,0.481l0.479-0.386l0.481,0.047l-0.24,0.685l0.575,0.041l0.193,0.719l0.388,0.129l0.286-0.467l1.921,0.192l1.294,0.961 L13.591,23.227z M36.335,22.799l-0.104,0.814l-0.689-0.252l0.127-0.439l-0.756-0.063l-0.979,0.912l-1.039,0.377l0.252,1.412 l-0.096,0.283l0.381,0.219l1.541-0.381l0.598,0.349l0.283-0.156l0.188,0.569l0.785,0.222l0.568-0.349l0.313-1.694l-0.853-0.851 L36.335,22.799z M32.518,22.01l0.817,0.156l0.378-1.162l-0.222-0.191l-1.101,0.693L32.518,22.01z M35.033,21.693l0.85,0.882 l0.487,0.032l0.205-0.188l0.692,0.438l-0.283-0.598l-1.291-0.627L35.033,21.693z M36.576,14.552h-0.221l-0.031,1.132l-0.566,1.197 l-0.724,0.534l-0.031,0.472l1.321-0.786l0.063-0.819l0.438-0.407l-0.345-0.281l0.188-0.663L36.576,14.552z M39.977,25.974 l0.094,0.879l-0.975,0.914l0.629,0.063l0.563-0.852l0.44-0.596l-0.283-0.031L39.977,25.974z M18.939,12.732v0.917l0.637-0.279 l0.18-0.28l-0.689-1.326l-0.407,0.283l0.025,0.354l-0.383,0.462l-0.026,0.482h0.46L18.939,12.732z M24.695,23.527l-0.025,1.021 l0.41,0.178l0.406-1.223l-0.104-0.512L24.695,23.527z M38.844,12.85l0.031,0.725l-0.818,1.008l-0.031-1.134l1.068-1.291 l-0.658,0.097l-0.852,0.691l-1.04-0.062l-0.785,0.756l0.565,0.408l-0.659,1.825L35.1,15.97l-0.348,0.503l0.156,0.661L34.5,17.352 l-0.127-0.597l-0.348-0.474l-0.472,0.501l0.377,1.069l-0.533,0.978l-1.166,0.062l-0.25,0.41l0.533,0.786l-0.565,0.473l-0.58-0.603 l-0.021,0.568l0.506,0.568l0.221,1.006l0.631,0.224l0.852,0.346l-1.574-0.282l-0.662-0.629l-0.596-0.852l0.814,0.41l-0.377-0.689 l-0.077-0.941l-0.36,0.091l-0.44-0.942l-1.229,0.851v0.539l-0.441,0.438l-0.563-1.416l-0.628-0.756l-1.512-0.283l-0.439-0.375 l-0.222,0.125l0.313,0.756l0.502-0.252l0.662,0.503l-1.949,1.164l-1.01-1.982l-0.211,0.037l1.029,2.354l1.007-0.473l-0.313,1.103 l-1.008,0.91l0.156,1.354l-0.566,0.439l-1.035,1.951l-1.04,0.189l-0.912-2.203l0.222-1.006l-0.567-1.765l-1.92,0.125l-1.072-1.038 l0.19-1.699l1.039-1.259l2.013-0.346l0.127,0.533l0.819,0.534l0.313-0.439l1.25,0.32l0.323-0.195l0.143-0.47l-0.863-0.145 l-0.279-0.482l-0.203-0.104l-0.178,0.611l-0.385-0.485l0.025-0.406l-0.514-0.407l-0.305-0.153l0.026,0.408l0.638,0.433 l-0.332,0.384l-0.457-0.612l-0.331-0.384l-0.765,0.384l-0.535,0.841l-0.815-0.127l-0.051-1.019l1.043,0.073l-0.329-0.532 l-0.205-0.436l0.79-0.256l0.433-0.584l0.357-0.027l-0.077-0.33l0.229-0.307l0.179,0.509l0.993,0.025l0.279-0.715l0.385,0.129 l-0.129-0.483l0.592-0.189l-0.184-0.218l-0.536,0.15l-0.188-0.457l-0.023-0.003l0.016-0.032l-0.078-0.192l0.215-0.153l0.188-0.479 l-0.199-0.03l-0.332,0.408l-0.279,0.609l0.309,0.33l-0.309,0.816l-0.459,0.179l-0.253-0.814l-0.536,0.306l-0.254-0.152l0.024-0.79 l0.46-0.354l0.383-0.943l0.969-0.533l2.418,0.444c2.789-0.293,7.85-0.83,7.85-0.83l8.35,1.179l0.314,0.881l-1.135,0.631 L38.844,12.85z M24.52,16.04l-1.324-0.688l-0.407,0.713l0.178,0.329l0.767-0.126l0.561,0.153L24.52,16.04z M25.918,16.904 l-0.124-0.789l-0.257-0.382l0.309-0.128v-0.381l-0.791,0.433l0.278,0.714l-0.125,0.483L25.918,16.904z M14.509,10.715L13.8,10.52 l-0.877,0.937l1.127,2.935l0.533,0.132l0.042-0.954l0.361-0.222l0.021-0.362l0.372-0.699l-0.26-0.527L14.509,10.715z"/></symbol><symbol id="target-new" viewBox="0 0 953 953"><title>target-new</title><path d="M430.589,953c236.6,0,428.401-191.801,428.401-428.4c0-72.799-18.102-141.299-50.102-201.299c-3.5,0.5-7.1,0.7-10.6,0.7 c-2,0-4.1-0.1-6.199-0.2l-54.5-4.2l-39.201,39.2c29.9,48.2,47.201,105,47.201,165.799c0,173.9-141,314.9-314.901,314.9 c-173.899,0-315-141-315-314.9c0-173.899,141-314.899,314.9-314.899c60.901,0,117.7,17.3,165.799,47.2l35.5-35.5l-4.799-62.5 c-0.4-5-0.301-10,0.199-14.9c-58.9-30.5-125.799-47.8-196.799-47.8c-236.5,0-428.3,191.8-428.3,428.399S193.989,953,430.589,953z"/><path d="M430.589,413.9c2.8,0,5.6,0.101,8.4,0.3l79.1-79.1l1.699-1.7c-27.1-12.7-57.299-19.8-89.2-19.8 c-116.5,0-210.9,94.4-210.9,210.9c0,116.5,94.4,211,210.9,211c116.5,0,210.901-94.4,210.901-210.9 c0-31.9-7.102-62.099-19.801-89.2l-1.699,1.7l-79.102,79.099c0.201,2.801,0.301,5.602,0.301,8.4 c0,61.1-49.5,110.701-110.7,110.701c-61.2,0-110.601-49.602-110.601-110.701C319.889,463.5,369.489,413.9,430.589,413.9z"/><path d="M872.089,142.6l25.4-25.4c11.6-11.6,11.6-30.3,0-41.9l-17.602-17.7c-5.799-5.8-13.398-8.7-20.898-8.7 s-15.201,2.9-20.9,8.7l-29.1,29.1l-6-77.5c-0.4-5.7-5.102-9.2-10-9.2c-2.5,0-5,0.9-7,2.9l-114.5,114.5 c-10.301,10.3-15.602,24.6-14.5,39.2l0.299,4.5l5.5,71.7l-41.4,41.4l-74.5,74.5l-1.699,1.7l-72.1,72.101l-32,32 c-4.2,4.199-6.8,9.8-7.2,15.699l-2,25.101c-1.2,14.6,10.4,27,24.9,27c0.399,0,0.8,0,1.3,0l26.5-1.301 c6.199-0.301,12.1-2.9,16.4-7.301L532.689,482l72.1-72.1l1.701-1.7l74.5-74.5l45-45l65.398,5l2.9,0.2c1.301,0.1,2.6,0.1,3.801,0.1 c13.199,0,25.9-5.2,35.4-14.6L947.888,165c6-6,2.201-16.4-6.299-17L872.089,142.6z"/></symbol><symbol id="checked-new" viewBox="0 0 426.667 426.667"><title>checked-new</title><path style="fill:#6AC259;" d="M213.333,0C95.518,0,0,95.514,0,213.333s95.518,213.333,213.333,213.333 c117.828,0,213.333-95.514,213.333-213.333S331.157,0,213.333,0z M174.199,322.918l-93.935-93.931l31.309-31.309l62.626,62.622 l140.894-140.898l31.309,31.309L174.199,322.918z"/></symbol><symbol id="business-improvement-new" viewBox="0 0 47 47"><title>business-improvement-new</title><path d="M9.702,33.114H3.292c-1.18,0-2.136,0.956-2.136,2.136v9.614c0,1.18,0.957,2.136,2.136,2.136h6.409 c1.18,0,2.137-0.957,2.137-2.136V35.25C11.838,34.07,10.881,33.114,9.702,33.114z"/><path d="M26.266,25.636h-6.409c-1.18,0-2.136,0.957-2.136,2.138v17.091c0,1.18,0.957,2.136,2.136,2.136h6.409 c1.18,0,2.137-0.957,2.137-2.136V27.773C28.403,26.593,27.446,25.636,26.266,25.636z"/><path d="M42.833,17.091h-6.409c-1.18,0-2.137,0.957-2.137,2.136v25.637c0,1.18,0.957,2.136,2.137,2.136h6.409 c1.18,0,2.137-0.957,2.137-2.136V19.227C44.969,18.047,44.014,17.091,42.833,17.091z"/><circle cx="39.628" cy="1.521" r="1.521"/><path d="M45.671,1.028c-0.282-0.379-0.819-0.456-1.198-0.172l-3.486,2.61h-0.551c-0.235,0-0.44,0.102-0.595,0.257l0.399,2.928 L39.628,7.17l-0.612-0.519l0.399-2.928c-0.155-0.155-0.358-0.257-0.595-0.257H38.27l-3.485-2.61 c-0.378-0.284-0.916-0.207-1.199,0.172c-0.284,0.379-0.207,0.916,0.172,1.199l3.716,2.781c0.143,0.107,0.313,0.166,0.491,0.17 v3.868l-1.582,5.536c-0.13,0.455,0.134,0.93,0.589,1.06c0.077,0.022,0.157,0.033,0.235,0.033c0.373,0,0.716-0.246,0.823-0.622 l1.598-5.594l1.598,5.594c0.107,0.376,0.451,0.622,0.824,0.622c0.078,0,0.158-0.011,0.236-0.033 c0.455-0.13,0.718-0.604,0.588-1.06l-1.582-5.536V5.179c0.178-0.004,0.35-0.063,0.492-0.17L45.5,2.227 C45.877,1.943,45.957,1.407,45.671,1.028z"/></symbol><symbol id="information-new" viewBox="0 0 512.001 512.001"><title>information-new</title><g> <g> <path d="M313.365,107.393c-9.915-11.15-25.377-17.545-42.422-17.545c-30.441,0-57.651,20.784-60.659,46.36 c-1.349,11.698,2.281,23.047,10.221,31.955c9.756,10.946,25.08,17.223,42.048,17.223c31.23,0,58.04-20.365,61.036-46.333 C324.939,127.569,321.309,116.326,313.365,107.393z M299.176,136.207c-1.537,13.335-18.31,24.6-36.625,24.6 c-9.818,0-18.678-3.363-23.699-8.998c-3.307-3.71-4.703-8.011-4.156-12.758c1.543-13.118,18.48-24.626,36.246-24.626 c9.886,0,18.879,3.477,24.058,9.299C297.274,126.281,299.846,130.518,299.176,136.207z"/> </g> </g><g> <g> <path d="M301.752,369.483c-3.072-2.061-10.262-6.883-4.458-40.363c0.149-0.73,0.732-3.429,1.637-7.623 c2.061-9.557,5.897-27.344,10.066-47.179c0.01-0.044,0.02-0.09,0.028-0.134c4.256-21.437,0.887-40.19-9.737-54.233 c-9.591-12.678-24.776-20.45-42.754-21.882c-26.586-2.127-54.398,13.739-62.918,29.357c-3.939,6.92-2.053,12.54-0.568,15.289 c1.84,3.4,4.524,5.306,6.485,6.697c3.021,2.144,10.093,7.163,3.377,40.573c-0.628,3.056-9.999,50.701-11.238,57.465 c-0.009,0.045-0.016,0.091-0.025,0.136c-3.692,21.54-0.041,40.365,11.152,53.959c18.024,21.89,45.458,20.839,46.532,20.839 c25.569-0.001,51.128-15.882,58.91-31.079c3.757-7.021,1.727-12.589,0.167-15.298 C306.483,372.657,303.748,370.822,301.752,369.483z M284.926,269.336c-4.149,19.742-7.969,37.457-10.023,46.979 c-1.397,6.474-1.679,7.789-1.779,8.328c-0.007,0.043-0.016,0.087-0.023,0.132c-6.24,35.864,0.075,51.56,9.013,60.341 c-2.442,2.179-5.787,4.532-9.928,6.668c-8.144,4.202-17.165,6.375-24.762,5.974c-11.067-0.591-19.858-4.584-25.418-11.549 c-6.475-8.108-8.6-20.003-6.146-34.399c1.336-7.279,10.72-54.936,11.114-56.832c0.007-0.042,0.016-0.082,0.025-0.124 c7.178-35.688,1.274-51.544-7.43-60.556c2.498-2.114,5.905-4.379,10.1-6.405c8.251-3.985,17.332-5.924,24.911-5.322 c11.048,0.88,19.729,5.102,25.106,12.21C285.947,243.056,287.76,255.005,284.926,269.336z"/> </g> </g><g> <g> <path d="M459.614,394.961c33.831-40.598,52.388-90.748,52.388-141.964c0-62.775-26.778-121.727-75.397-165.998 c-48.299-43.977-112.438-68.197-180.603-68.197S123.696,43.022,75.397,87C26.776,131.269,0,190.223,0,252.998 s26.776,121.729,75.396,165.998c48.299,43.978,112.438,68.197,180.603,68.197c42.625,0,84.634-9.73,121.869-28.187l89.22,33.412 c1.402,0.525,2.86,0.78,4.307,0.78c3.039,0,6.028-1.127,8.339-3.259c3.409-3.147,4.755-7.946,3.48-12.407L459.614,394.961z M381.425,434.094c-3.269-1.225-6.904-1-10.001,0.616c-34.94,18.256-74.853,27.906-115.424,27.906 c-127.606,0-231.422-94.033-231.422-209.617S128.393,43.379,255.999,43.379s231.423,94.034,231.423,209.617 c0,48.095-17.515,93.34-50.652,130.846c-2.776,3.141-3.759,7.483-2.606,11.513l18.72,65.498L381.425,434.094z"/> </g> </g></symbol><symbol id="google-plus-logo-new" viewBox="0 0 96.828 96.827"><title>google-plus-logo-new</title><path d="M62.617,0H39.525c-10.29,0-17.413,2.256-23.824,7.552c-5.042,4.35-8.051,10.672-8.051,16.912 c0,9.614,7.33,19.831,20.913,19.831c1.306,0,2.752-0.134,4.028-0.253l-0.188,0.457c-0.546,1.308-1.063,2.542-1.063,4.468 c0,3.75,1.809,6.063,3.558,8.298l0.22,0.283l-0.391,0.027c-5.609,0.384-16.049,1.1-23.675,5.787 c-9.007,5.355-9.707,13.145-9.707,15.404c0,8.988,8.376,18.06,27.09,18.06c21.76,0,33.146-12.005,33.146-23.863 c0.002-8.771-5.141-13.101-10.6-17.698l-4.605-3.582c-1.423-1.179-3.195-2.646-3.195-5.364c0-2.672,1.772-4.436,3.336-5.992 l0.163-0.165c4.973-3.917,10.609-8.358,10.609-17.964c0-9.658-6.035-14.649-8.937-17.048h7.663c0.094,0,0.188-0.026,0.266-0.077 l6.601-4.15c0.188-0.119,0.276-0.348,0.214-0.562C63.037,0.147,62.839,0,62.617,0z M34.614,91.535 c-13.264,0-22.176-6.195-22.176-15.416c0-6.021,3.645-10.396,10.824-12.997c5.749-1.935,13.17-2.031,13.244-2.031 c1.257,0,1.889,0,2.893,0.126c9.281,6.605,13.743,10.073,13.743,16.678C53.141,86.309,46.041,91.535,34.614,91.535z M34.489,40.756c-11.132,0-15.752-14.633-15.752-22.468c0-3.984,0.906-7.042,2.77-9.351c2.023-2.531,5.487-4.166,8.825-4.166 c10.221,0,15.873,13.738,15.873,23.233c0,1.498,0,6.055-3.148,9.22C40.94,39.337,37.497,40.756,34.489,40.756z"/><path d="M94.982,45.223H82.814V33.098c0-0.276-0.225-0.5-0.5-0.5H77.08c-0.276,0-0.5,0.224-0.5,0.5v12.125H64.473 c-0.276,0-0.5,0.224-0.5,0.5v5.304c0,0.275,0.224,0.5,0.5,0.5H76.58V63.73c0,0.275,0.224,0.5,0.5,0.5h5.234 c0.275,0,0.5-0.225,0.5-0.5V51.525h12.168c0.276,0,0.5-0.223,0.5-0.5v-5.302C95.482,45.446,95.259,45.223,94.982,45.223z"/></symbol><symbol id="google-plus-logo-button-new" viewBox="0 0 49.652 49.652"><title>google-plus-logo-button-new</title><path d="M21.5,28.94c-0.161-0.107-0.326-0.223-0.499-0.34c-0.503-0.154-1.037-0.234-1.584-0.241h-0.066 c-2.514,0-4.718,1.521-4.718,3.257c0,1.89,1.889,3.367,4.299,3.367c3.179,0,4.79-1.098,4.79-3.258 c0-0.204-0.024-0.416-0.075-0.629C23.432,30.258,22.663,29.735,21.5,28.94z"/><path d="M19.719,22.352c0.002,0,0.002,0,0.002,0c0.601,0,1.108-0.237,1.501-0.687c0.616-0.702,0.889-1.854,0.727-3.077 c-0.285-2.186-1.848-4.006-3.479-4.053l-0.065-0.002c-0.577,0-1.092,0.238-1.483,0.686c-0.607,0.693-0.864,1.791-0.705,3.012 c0.286,2.184,1.882,4.071,3.479,4.121H19.719L19.719,22.352z"/><path d="M24.826,0C11.137,0,0,11.137,0,24.826c0,13.688,11.137,24.826,24.826,24.826c13.688,0,24.826-11.138,24.826-24.826 C49.652,11.137,38.516,0,24.826,0z M21.964,36.915c-0.938,0.271-1.953,0.408-3.018,0.408c-1.186,0-2.326-0.136-3.389-0.405 c-2.057-0.519-3.577-1.503-4.287-2.771c-0.306-0.548-0.461-1.132-0.461-1.737c0-0.623,0.149-1.255,0.443-1.881 c1.127-2.402,4.098-4.018,7.389-4.018c0.033,0,0.064,0,0.094,0c-0.267-0.471-0.396-0.959-0.396-1.472 c0-0.255,0.034-0.515,0.102-0.78c-3.452-0.078-6.035-2.606-6.035-5.939c0-2.353,1.881-4.646,4.571-5.572 c0.805-0.278,1.626-0.42,2.433-0.42h7.382c0.251,0,0.474,0.163,0.552,0.402c0.078,0.238-0.008,0.5-0.211,0.647l-1.651,1.195 c-0.099,0.07-0.218,0.108-0.341,0.108H24.55c0.763,0.915,1.21,2.22,1.21,3.685c0,1.617-0.818,3.146-2.307,4.311 c-1.15,0.896-1.195,1.143-1.195,1.654c0.014,0.281,0.815,1.198,1.699,1.823c2.059,1.456,2.825,2.885,2.825,5.269 C26.781,33.913,24.89,36.065,21.964,36.915z M38.635,24.253c0,0.32-0.261,0.58-0.58,0.58H33.86v4.197 c0,0.32-0.261,0.58-0.578,0.58h-1.195c-0.322,0-0.582-0.26-0.582-0.58v-4.197h-4.192c-0.32,0-0.58-0.258-0.58-0.58V23.06 c0-0.32,0.26-0.582,0.58-0.582h4.192v-4.193c0-0.321,0.26-0.58,0.582-0.58h1.195c0.317,0,0.578,0.259,0.578,0.58v4.193h4.194 c0.319,0,0.58,0.26,0.58,0.58V24.253z"/></symbol><symbol id="mail-new" viewBox="0 0 299.997 299.997"><title>mail-new</title><path d="M149.996,0C67.157,0,0.001,67.158,0.001,149.997c0,82.837,67.156,150,149.995,150s150-67.163,150-150 C299.996,67.158,232.835,0,149.996,0z M145.294,100.159h111.864c0.763,0,1.502,0.091,2.225,0.223l-62.648,36.017l-52.964-36.087 C144.275,100.25,144.77,100.159,145.294,100.159z M60.572,185.31v-15.558h49.921l-0.609,5.047l-0.112,0.931v0.936 c0,3.019,0.501,5.921,1.398,8.644H60.572z M112.293,154.842h-68.58V139.28h70.465L112.293,154.842z M117.571,111.218l-0.965,7.965 H28.585v-15.562h90.384C118.17,106.028,117.677,108.573,117.571,111.218z M249.375,188.852H137.513 c-3.348,0-6.378-1.351-8.58-3.538c0,0,0,0,0-0.003c-0.539-0.537-1.027-1.128-1.46-1.758c-0.01-0.016-0.029-0.031-0.039-0.047 c-0.402-0.594-0.737-1.232-1.032-1.891c-0.029-0.065-0.073-0.122-0.104-0.189c-0.265-0.622-0.451-1.284-0.609-1.956 c-0.029-0.117-0.083-0.223-0.106-0.34c-0.163-0.799-0.249-1.621-0.249-2.464l4.145-34.259l0.379-3.13l3.258-26.94 c0-0.77,0.093-1.515,0.231-2.243c0.016-0.078,0.008-0.163,0.026-0.241c0.01,0.005,0.018,0.013,0.029,0.021 c0.35-1.662,1.012-3.206,1.958-4.547v5.88l57.741,39.132c0.078,0.054,0.163,0.083,0.244,0.13c0.083,0.052,0.169,0.093,0.257,0.14 c0.456,0.233,0.923,0.42,1.401,0.545c0.052,0.013,0.099,0.021,0.15,0.031c0.524,0.124,1.056,0.2,1.582,0.2h0.005 c0.005,0,0.008,0,0.01,0c0.527,0,1.058-0.075,1.582-0.2c0.052-0.01,0.099-0.018,0.15-0.031c0.477-0.124,0.944-0.311,1.401-0.545 c0.086-0.047,0.171-0.088,0.257-0.14c0.08-0.047,0.163-0.075,0.244-0.13l68.792-39.716c0.08,0.565,0.171,1.128,0.171,1.717 l-7.781,64.329C261.559,183.4,256.105,188.852,249.375,188.852z"/></symbol><symbol id="message-new" viewBox="0 0 512 512"><title>message-new</title><g> <g> <path d="M510.576,264.536l-58.431-157.94c-2.122-5.739-6.353-10.307-11.913-12.863c-5.559-2.556-11.78-2.796-17.519-0.672 L137.796,198.467c-5.739,2.123-10.307,6.354-12.864,11.912c-2.556,5.559-2.795,11.781-0.672,17.519l58.431,157.94 c2.122,5.739,6.353,10.307,11.913,12.864c3.05,1.403,6.299,2.107,9.559,2.107c2.682,0,5.37-0.476,7.961-1.435l284.918-105.406 h0.001C508.886,289.585,514.958,276.382,510.576,264.536z M407.052,123.279l-88.377,126.344l-149.327-38.405L407.052,123.279z M200.044,366.731l-50.683-137l117.382,30.192L200.044,366.731z M224.863,370.237l65.152-104.33l30.642,7.882 c0.951,0.241,1.913,0.367,2.852,0.367c3.688,0,7.216-1.787,9.392-4.891l18.133-25.944l117.369,36.818L224.863,370.237z M364.814,223.638l69.463-99.324l50.703,137.019L364.814,223.638z"/> </g> </g><g> <g> <path d="M133.44,388.976c-2.194-5.933-8.786-8.961-14.715-6.768l-43.162,15.968c-5.933,2.196-8.962,8.784-6.768,14.716 c1.71,4.623,6.086,7.482,10.743,7.482c1.319,0,2.663-0.23,3.973-0.715l43.16-15.968 C132.606,401.498,135.635,394.909,133.44,388.976z"/> </g> </g><g> <g> <path d="M75.023,282.646c-2.196-5.933-8.785-8.96-14.716-6.768l-26.643,9.857c-5.933,2.196-8.962,8.783-6.768,14.716 c1.71,4.622,6.087,7.482,10.743,7.482c1.319,0,2.663-0.23,3.973-0.715l26.643-9.857C74.188,295.168,77.218,288.579,75.023,282.646 z"/> </g> </g><g> <g> <path d="M41.995,369.408c-2.196-5.933-8.785-8.962-14.716-6.768l-19.797,7.324c-5.933,2.196-8.962,8.784-6.768,14.716 c1.71,4.622,6.086,7.482,10.743,7.482c1.319,0,2.663-0.23,3.973-0.715l19.797-7.324C41.161,381.929,44.19,375.341,41.995,369.408z "/> </g> </g></symbol><symbol id="email-filled-closed-envelope-new" viewBox="0 0 612 612"><title>email-filled-closed-envelope-new</title><path d="M306.768,346.814h0.131c4.615,0,9.176-1.339,12.866-3.777l1.001-0.643c0.218-0.142,0.446-0.271,0.675-0.424l11.658-9.645 l278.259-229.624c-0.576-0.795-1.557-1.339-2.602-1.339H3.233c-0.751,0-1.448,0.272-2.003,0.729l291.125,239.954 C296.024,345.083,301.259,346.814,306.768,346.814z M0,133.899v340.37l208.55-168.471L0,133.899z M403.668,306.941L612,474.356 V135.031L403.668,306.941z M337.431,361.585c-8.305,6.814-19.168,10.57-30.576,10.57c-11.451,0-22.304-3.734-30.587-10.516 l-47.765-39.394L0,506.806v0.587c0,1.753,1.502,3.244,3.276,3.244h605.491c1.741,0,3.232-1.491,3.232-3.255v-0.544L383.693,323.4 L337.431,361.585z"/></symbol><symbol id="error-new" viewBox="0 0 51.976 51.976"><title>error-new</title><path d="M44.373,7.603c-10.137-10.137-26.632-10.138-36.77,0c-10.138,10.138-10.137,26.632,0,36.77s26.632,10.138,36.77,0 C54.51,34.235,54.51,17.74,44.373,7.603z M36.241,36.241c-0.781,0.781-2.047,0.781-2.828,0l-7.425-7.425l-7.778,7.778 c-0.781,0.781-2.047,0.781-2.828,0c-0.781-0.781-0.781-2.047,0-2.828l7.778-7.778l-7.425-7.425c-0.781-0.781-0.781-2.048,0-2.828 c0.781-0.781,2.047-0.781,2.828,0l7.425,7.425l7.071-7.071c0.781-0.781,2.047-0.781,2.828,0c0.781,0.781,0.781,2.047,0,2.828 l-7.071,7.071l7.425,7.425C37.022,34.194,37.022,35.46,36.241,36.241z"/></symbol><symbol id="cross-out-new" viewBox="0 0 224.512 224.512"><title>cross-out-new</title><polygon style="fill:#010002;" points="224.507,6.997 217.521,0 112.256,105.258 6.998,0 0.005,6.997 105.263,112.254 0.005,217.512 6.998,224.512 112.256,119.24 217.521,224.512 224.507,217.512 119.249,112.254 "/></symbol></svg>