<svg xmlns="http://www.w3.org/2000/svg" style="display: none;"><symbol id="medal" viewBox="0 0 463.997 463.997"><title>medal</title><g> <g> <path d="M103.999,95.997v80l23.984,38.673c20.276-17.408,44.869-29.914,72.016-35.447V95.997H103.999z"/> </g> </g><g> <g> <path d="M263.999,95.997v83.226c27.146,5.532,51.74,18.038,72.016,35.446l23.984-38.672v-80H263.999z"/> </g> </g><g> <g> <rect x="103.998" width="256" height="64"/> </g> </g><g> <g> <path d="M231.999,207.997c-70.692,0-128,57.308-128,128s57.308,128,128,128s128-57.308,128-128S302.691,207.997,231.999,207.997z M288.834,414.917l-56.835-41.29l-56.835,41.29l21.705-66.813l-56.831-41.294l70.25-0.003l21.711-66.81l21.71,66.81l70.25,0.003 l-56.831,41.294L288.834,414.917z"/> </g> </g></symbol><symbol id="poison" viewBox="0 0 447.996 447.996"><title>poison</title><g> <g> <rect x="175.99" width="96" height="32"/> </g> </g><g> <g> <path d="M332.894,151.196l-44.896-23.152V79.996h32V48.412h-192v31.584h32v48.048l-44.896,23.152 c-20.752,10.576-35.104,31.904-35.104,56.8v208c0,17.68,14.32,32,32,32h224c17.68,0,32-14.32,32-32v-208 C367.998,183.1,353.646,161.772,332.894,151.196z M188.51,279.996c-4.224,3.6-7.936,7.712-10.912,12.416l-6.688-6.688 c-1.968,1.808-4.544,2.928-7.408,2.928c-6.048,0-11.008-4.944-11.008-11.008c0-6.064,4.944-11.008,11.008-11.008 c0.416,0,0.8,0.08,1.2,0.128c0.496-4.992,4.688-8.928,9.792-8.928c5.44,0,9.904,4.448,9.904,9.904c0,2.272-0.8,4.352-2.112,6.032 L188.51,279.996z M174.494,398.668c-6.064,0-11.008-4.944-11.008-11.008c0-0.416,0.08-0.8,0.128-1.2 c-4.976-0.496-8.928-4.688-8.928-9.808c0-5.44,4.464-9.904,9.904-9.904c2.272,0,4.352,0.8,6.016,2.112l7.696-7.696l7.168,4.864 v11.296l-2.896,2.928c1.808,1.968,2.928,4.544,2.928,7.408C185.502,393.708,180.558,398.668,174.494,398.668z M251.47,376.652 h-10.976v-11.008h-11.008v11.008h-10.992v-11.008h-11.008v11.008h-11.008v-16.496c-19.04-12.704-16.496-6.736-16.496-38.496 c0-24.304,19.696-44,44-44s44,19.696,44,44c0,31.104,2.992,25.504-16.512,38.496V376.652z M284.382,386.46 c0.048,0.4,0.128,0.784,0.128,1.2c0,6.048-4.944,11.008-11.008,11.008c-6.064,0-11.008-4.944-11.008-11.008 c0-2.848,1.136-5.44,2.928-7.408l-2.928-2.928v-11.296l7.168-4.864l7.696,7.696c1.68-1.296,3.744-2.112,6.032-2.112 c5.44,0,9.904,4.448,9.904,9.904C293.294,381.772,289.358,385.964,284.382,386.46z M284.494,288.652 c-2.848,0-5.44-1.136-7.408-2.928l-6.688,6.688c-2.976-4.704-6.688-8.816-10.912-12.416l6.208-6.208 c-1.296-1.68-2.112-3.744-2.112-6.032c0-5.44,4.448-9.904,9.904-9.904c5.104,0,9.296,3.936,9.808,8.928 c0.4-0.048,0.784-0.128,1.2-0.128c6.048,0,11.008,4.944,11.008,11.008C295.502,283.724,290.542,288.652,284.494,288.652z M335.998,224.524h-224v-16.528c0-11.904,6.768-22.752,17.76-28.368l62.24-32.064V80.412h64v67.152l62.352,32.128 c10.896,5.552,17.648,16.4,17.648,28.304V224.524z"/> </g> </g><g> <g> <circle cx="201.998" cy="332.672" r="11.008"/> </g> </g><g> <g> <path d="M223.998,343.66c-3.04,0-5.504,4.928-5.504,11.008h11.008C229.502,348.588,227.038,343.66,223.998,343.66z"/> </g> </g><g> <g> <circle cx="245.998" cy="332.672" r="11.008"/> </g> </g></symbol><symbol id="microscope" viewBox="0 0 480 480"><title>microscope</title><g> <g> <path d="M432,112L432,112V80h-96v32h-16v2.025c12.61,3.257,23.65,10.345,32,19.845V128h64v57.463 c5.795,6.047,11.178,12.392,16,19.124V128h16v104.178c8.081,17.419,13.317,36.177,15.138,55.822H464V128h16v-16H432z M416,112h-64 V96h64V112z"/> </g> </g><g> <g> <path d="M144,112V80H48v32H0v16h16v208H0v16h143.986v-16H32V128h16v128c0,26.51,21.49,48,48,48c26.51,0,48-21.49,48-48V128h16v-16 H144z M128,256c0,17.645-14.354,32-32,32c-17.645,0-32-14.355-32-32V128h64V256z M128,112H64V96h64V112z"/> </g> </g><g> <g> <path d="M367.319,293.405c-0.535-4.167-1.544-8.206-2.766-12.172c-7.226-5.584-11.982-14.117-12.412-23.832 c-4.542-5.883-9.902-11.258-16.142-15.866V256c0,20.814,13.325,38.36,31.847,45.014 C367.768,298.479,367.644,295.943,367.319,293.405z"/> </g> </g><g> <g> <path d="M351.999,175.999c0-26.51-21.49-47.999-47.999-47.999l-0.002-31.908c0-8.837-7.162-16.092-15.999-16.093H272V48h16 l-0.001-32H192v31.999L208,48v32h-16c-8.838-0.001-16,7.163-16,15.999c0,36.584,0,136.062,0,170.097 c0,3.779,1.502,7.406,4.176,10.078l23.649,23.649c2.673,2.674,6.299,4.175,10.078,4.176h52.191c3.782,0,7.407-1.503,10.079-4.176 l23.651-23.65c2.672-2.672,4.176-6.298,4.175-10.077c0-15.587,0-1.517-0.001-42.096C330.509,224,352,202.509,351.999,175.999z M224,256h-16V111.999L224,112V256z M315.312,187.312c-6.248,6.249-16.379,6.248-22.626,0c-6.249-6.249-6.25-16.378,0-22.628 c6.247-6.248,16.378-6.248,22.626,0C321.56,170.932,321.562,181.064,315.312,187.312z"/> </g> </g><g> <g> <path d="M444.545,336c2.865-13.857,4.102-28.298,3.064-43.229c-3.787-54.46-35.721-100.282-80.557-126.138 c0.458,3.082,0.947,6.159,0.947,9.367c0,20.661-10.003,38.868-25.239,50.576c21.406,14.894,36.935,37.572,40.428,64.793 c2.027,15.804-0.012,30.89-4.916,44.631h-57.788l15.999,16h34.419c-6.863,11.778-16.04,22.049-27.075,29.972l-38.702-38.703 c-4.74-4.74-10.914-7.131-17.125-7.264L160,336v32h85.075l-32,32H176c-17.673,0-32,14.326-32,32v32h272V447.66 c0-27.561,7.254-54.313,18.423-79.508c2.319-5.233,4.289-10.646,6.045-16.151H480v-16H444.545z M288,400c-8.837,0-16-7.164-16-16 c0-8.837,7.163-16,16-16s16,7.163,16,16C304,392.836,296.837,400,288,400z"/> </g> </g></symbol><symbol id="nuclear" viewBox="0 0 415.86 415.86"><title>nuclear</title><g> <g> <path d="M207.874,7.93c-0.005,0-0.01,0-0.01,0c-17.15,0-29.518,14.607-37.982,34.234c5.202,0.903,10.503,2.05,15.934,3.55 c6.153-13.144,13.761-21.843,22.044-21.843c6.947,0.002,15.326,8.05,22.357,22.389c4.797-1.252,11.092-2.822,15.739-3.88 C236.341,21.184,222.852,7.932,207.874,7.93z"/> </g> </g><g> <g> <path d="M258.869,91.726c-1.146-9.262-2.806-18.028-4.968-26.196c5.322-0.854,10.499-1.446,15.229-1.446 c11.811,0,19.406,2.786,22.578,8.297c3.475,6.019,0.294,17.504-8.205,30.209c3.899,3.791,7.672,7.715,11.205,11.814 c13.541-18.89,18.306-37.12,10.857-50.022c-6.806-11.819-20.341-16.297-36.434-16.297c-18.981,0-41.458,6.251-60.749,13.995 c-21.748-9.206-42.651-14.014-59.79-14.014c-18.169,0-32.125,5.314-38.437,16.239c-7.444,12.878-2.77,31.066,10.674,49.928 c3.384-4.042,7.131-8.053,11.159-12.017c-8.332-12.586-11.432-23.934-7.978-29.908c2.982-5.16,12.171-8.242,24.582-8.242 c4.243,0,8.822,0.45,13.54,1.127c-2.224,8.592-3.879,17.408-5.047,25.919c-38.692,29.289-59.2,64.82-46.97,86.017 c6.81,11.81,20.341,16.286,36.43,16.286c4.017,0,8.224-0.363,12.491-0.877c-1.866-4.946-3.55-10.166-5.014-15.658 c-2.528,0.225-5.117,0.534-7.477,0.534c-11.809,0-19.402-2.785-22.571-8.283c-3.973-6.884,0.322-20.706,12.734-36.55 c6.014,6.014,12.753,11.915,20.246,17.61c6.223,47.123,26.598,81.739,50.836,81.739c0.009,0,0.018,0,0.018,0 c18.841,0,31.898-17.624,40.349-40.181c6.675,1.112,13.031,1.682,18.935,1.682c18.168,0,32.121-5.313,38.428-16.236 C320.511,151.293,289.521,115.585,258.869,91.726z M147.404,120.553c2.397-2.411,4.942-4.832,7.687-7.262 c-0.087,2.289-0.134,4.508-0.136,6.622c-0.001,2.706,0.1,5.358,0.187,8.016C152.413,125.492,149.862,123.04,147.404,120.553z M260.498,113.896c2.543,2.266,5.03,4.611,7.47,7.028c-2.39,2.399-4.859,4.766-7.502,7.117c0.127-2.775,0.256-5.562,0.257-8.093 C260.724,117.889,260.55,115.929,260.498,113.896z M238.45,68.793c0.872,3.238,1.682,6.605,2.399,10.143 c-2.248-1.43-4.442-2.764-6.549-3.982c-1.96-1.132-3.922-2.129-5.884-3.19C231.755,70.68,235.11,69.687,238.45,68.793z M177.901,68.438c3.289,0.877,6.623,1.88,10.001,3.006c-2.248,1.173-4.503,2.349-6.491,3.496c-2.05,1.182-4.004,2.425-5.99,3.647 C176.157,75.099,177.007,71.762,177.901,68.438z M175.293,162.718c2.046,1.265,3.977,2.594,6.092,3.815 c1.914,1.106,3.832,2.08,5.749,3.12c-3.169,1.02-6.302,1.905-9.472,2.755C176.793,169.271,176.002,166.043,175.293,162.718z M207.79,215.988c-7.274,0-16.07-9.071-22.958-23.675c-0.699-1.482-1.332-3.089-1.983-4.662c8.38-2.318,16.674-5.12,24.45-8.238 c8.579,3.633,16.995,6.544,25.13,8.767C225.897,204.642,217.286,215.988,207.79,215.988z M291.665,169.196 c-2.978,5.158-12.163,8.236-24.571,8.236c-21.838,0-50.886-9.253-77.703-24.751c-6.097-3.523-11.853-7.377-17.419-11.35 c-0.694-6.999-1.078-14.17-1.074-21.412c0.002-6.565,0.505-13.32,1.218-20.077c5.338-3.762,11.088-7.465,17.29-11.043 c5.505-3.176,11.894-6.35,18.73-9.329c6.093,2.799,12.182,5.886,18.158,9.338c5.071,2.93,11.18,6.92,17.627,11.652 c0.544,6.199,0.862,12.682,0.86,19.482c-0.003,7.047-0.477,14.324-1.3,21.575c-5.505,3.912-11.194,7.706-17.214,11.178 c-2.806,1.619-5.858,3.235-9.058,4.83c6.846,2.874,13.61,5.262,20.175,7.131c0.871-0.519,1.651-1.089,2.51-1.616 c-0.16,0.729-0.28,1.488-0.447,2.211c5.398,1.455,10.594,2.508,15.57,3.2c1.36-6.026,2.378-12.046,3.242-17.983 c7.597-5.742,14.466-11.691,20.557-17.762C285.557,140.978,297.88,158.458,291.665,169.196z"/> </g> </g><g> <g> <circle cx="207.814" cy="119.93" r="16"/> </g> </g><g> <g> <path d="M176,407.93l-0.07-90.258c0-43.59-22.328-69.147-51.902-78.772c-8.254-2.498-15.649-9.061-22.527-15.942 c-12.496-13.014-25.855-30.813-43.16-30.592c-5.645,0.074-11.305,2.047-16.199,6.942c-11.477,11.477-6.84,29.012,3.058,38.91 l32.152,32.149c3,3,4.687,7.07,4.687,11.313c0,4.244-1.687,8.313-4.687,11.314l-43.465-43.463 c-7.554-7.553-12.687-17.764-14.086-28.012c-1.742-12.767,2.172-24.672,11.023-33.523c6.629-6.629,14.762-10.371,23.633-11.317 l-6.492-26.221C47.473,53.151,0.004,65.04,0.004,87.93L0,258.758c0,10.61,4.11,20.61,11.578,28.156 C91.062,367.135,80,341.291,80,407.93H176z"/> </g> </g><g> <g> <path d="M415.856,87.93c0-22.89-47.469-34.779-47.961,62.53l-6.492,26.221c8.871,0.946,17.004,4.687,23.633,11.317 c8.851,8.851,12.766,20.756,11.023,33.523c-1.398,10.248-6.531,20.459-14.086,28.012l-43.465,43.463 c-3-3.002-4.687-7.07-4.687-11.314c0-4.242,1.687-8.313,4.687-11.313l32.152-32.149c9.898-9.898,14.535-27.434,3.058-38.91 c-4.894-4.894-10.539-6.934-16.183-7.008c-17.305-0.221-30.68,17.645-43.176,30.658c-6.879,6.881-14.274,13.443-22.527,15.942 c-29.574,9.625-51.902,35.182-51.902,78.771l-0.07,90.258h96c0-66.638-11.062-40.795,68.422-121.016 c7.469-7.547,11.578-17.547,11.578-28.156L415.856,87.93z"/> </g> </g></symbol><symbol id="clock" viewBox="0 0 432 432"><title>clock</title><g> <g> <path d="M240,24C133.961,24,48,109.961,48,216H0l80,112l79.952-112H112c0-70.579,57.421-128,128-128s128,57.421,128,128 s-57.421,128-128,128v64c106.039,0,192-85.961,192-192S346.039,24,240,24z"/> </g> </g><g> <g> <polygon points="224,136 224,209.375 180.687,252.688 203.313,275.313 256,222.626 256,136 "/> </g> </g></symbol><symbol id="eye" viewBox="0 0 512 512"><title>eye</title><g> <g> <path d="M508.177,245.995C503.607,240.897,393.682,121,256,121S8.394,240.897,3.823,245.995c-5.098,5.698-5.098,14.312,0,20.01 C8.394,271.103,118.32,391,256,391s247.606-119.897,252.177-124.995C513.274,260.307,513.274,251.693,508.177,245.995z M256,361 c-57.891,0-105-47.109-105-105s47.109-105,105-105s105,47.109,105,105S313.891,361,256,361z"/> </g> </g><g> <g> <path d="M271,226c0-15.09,7.491-28.365,18.887-36.53C279.661,184.235,268.255,181,256,181c-41.353,0-75,33.647-75,75 c0,41.353,33.647,75,75,75c37.024,0,67.668-27.034,73.722-62.358C299.516,278.367,271,255.522,271,226z"/> </g> </g></symbol><symbol id="linkedin" viewBox="0 0 504.4 504.4"><title>linkedin</title><path d="M377.6,0.2H126.4C56.8,0.2,0,57,0,126.6v251.6c0,69.2,56.8,126,126.4,126H378c69.6,0,126.4-56.8,126.4-126.4V126.6 C504,57,447.2,0.2,377.6,0.2z M168,408.2H96v-208h72V408.2z M131.6,168.2c-20.4,0-36.8-16.4-36.8-36.8c0-20.4,16.4-36.8,36.8-36.8 c20.4,0,36.8,16.4,36.8,36.8C168,151.8,151.6,168.2,131.6,168.2z M408.4,408.2H408h-60V307.4c0-24.4-3.2-55.6-36.4-55.6 c-34,0-39.6,26.4-39.6,54v102.4h-60v-208h56v28h1.6c8.8-16,29.2-28.4,61.2-28.4c66,0,77.6,38,77.6,94.4V408.2z"/></symbol><symbol id="linkedin-logo" viewBox="0 0 430.117 430.117"><title>linkedin-logo</title><path id="LinkedIn" d="M430.117,261.543V420.56h-92.188V272.193c0-37.271-13.334-62.707-46.703-62.707 c-25.473,0-40.632,17.142-47.301,33.724c-2.432,5.928-3.058,14.179-3.058,22.477V420.56h-92.219c0,0,1.242-251.285,0-277.32h92.21 v39.309c-0.187,0.294-0.43,0.611-0.606,0.896h0.606v-0.896c12.251-18.869,34.13-45.824,83.102-45.824 C384.633,136.724,430.117,176.361,430.117,261.543z M52.183,9.558C20.635,9.558,0,30.251,0,57.463 c0,26.619,20.038,47.94,50.959,47.94h0.616c32.159,0,52.159-21.317,52.159-47.94C103.128,30.251,83.734,9.558,52.183,9.558z M5.477,420.56h92.184v-277.32H5.477V420.56z"/></symbol><symbol id="social-instagram-circle-n" viewBox="0 0 468.792 468.792"><title>social-instagram-circle-n</title><path style="fill:#090509;" d="M234.396,0C104.946,0,0,104.946,0,234.396s104.946,234.396,234.396,234.396 s234.396-104.946,234.396-234.396C468.792,104.914,363.846,0,234.396,0z M380.881,370.329c0,5.816-4.736,10.552-10.615,10.552 H98.462c-5.816,0-10.584-4.704-10.584-10.552V98.462c0-5.816,4.736-10.584,10.584-10.584h271.804 c5.848,0,10.615,4.736,10.615,10.584C380.881,98.462,380.881,370.329,380.881,370.329z M175.789,234.396 c0-32.355,26.252-58.607,58.607-58.607s58.607,26.252,58.607,58.607s-26.252,58.607-58.607,58.607 S175.789,266.75,175.789,234.396z M293.003,117.182h58.607v58.607h-58.607V117.182z M319.636,219.744h31.973v131.834H117.214 V219.744h32.005c-1.24,5.88-1.971,8.422-1.971,14.652c0,48.119,39.124,87.179,87.179,87.179 c48.119,0,87.179-39.061,87.179-87.179C321.575,228.166,320.876,225.624,319.636,219.744z"/></symbol><symbol id="twitter-logo-in-circular-black-button-n" viewBox="0 0 612 612"><title>twitter-logo-in-circular-black-button-n</title><path d="M612,306C612,137.004,474.995,0,306,0C137.004,0,0,137.004,0,306c0,168.995,137.004,306,306,306 C474.995,612,612,474.995,612,306z M141.233,414.741c5.286,0.668,10.682,1.029,16.135,1.029 c31.685,0.056,60.838-11.378,83.955-30.572c-29.599-0.695-54.551-21.614-63.147-50.323c4.117,0.862,8.374,1.363,12.713,1.392 c6.176,0.027,12.129-0.808,17.804-2.421c-30.934-6.843-54.245-36.191-54.245-71.159c0-0.306,0-0.612,0-0.918 c9.124,5.508,19.528,8.846,30.627,9.347c-18.109-13.103-30.043-35.357-30.043-60.394c0-13.241,3.338-25.593,9.152-36.164 c33.354,44.092,83.176,73.356,139.341,77c-1.168-5.257-1.753-10.738-1.753-16.329c0-39.53,30.267-71.075,67.599-70.463 c19.444,0.334,37.025,9.263,49.35,23.284c15.411-2.949,29.876-8.624,42.923-16.552c-5.035,16.496-15.772,30.238-29.737,38.834 c13.687-1.53,26.705-5.146,38.834-10.626c-9.068,14.104-20.53,26.427-33.743,36.275c0.139,3.06,0.194,6.12,0.194,9.18 c0,93.859-68.016,202.099-192.363,202.043C206.689,447.232,171.138,435.271,141.233,414.741z"/></symbol><symbol id="twitter-bird-logo-n" viewBox="0 0 548.963 548.963"><title>twitter-bird-logo-n</title><path style="fill:#010002;" d="M548.963,99.682c-3.672,7.752-10.506,17.544-20.502,29.376s-22.338,22.236-37.027,31.212 c0.408,3.264,0.715,6.324,0.918,9.18c0.205,2.856,0.307,5.916,0.307,9.18c0,17.136-1.938,35.904-5.813,56.304 s-9.896,41.106-18.053,62.118c-8.16,21.012-18.463,41.82-30.906,62.424c-12.445,20.604-27.234,39.678-44.371,57.222 c-17.135,17.544-36.617,33.051-58.445,46.515c-21.826,13.464-46.207,23.46-73.134,29.985 c-31.416,6.938-62.832,10.404-94.248,10.404c-13.464,0-27.438-0.714-41.922-2.142c-14.484-1.431-28.968-4.08-43.452-7.956 s-28.764-9.078-42.84-15.606C25.398,471.373,12.24,463.007,0,452.806c31.824,4.488,61.914,1.938,90.27-7.65 s54.162-23.151,77.418-40.695c-5.304,0-12.342-0.513-21.114-1.53c-8.772-1.021-18.156-4.08-28.152-9.18 c-9.996-5.103-20.094-12.954-30.294-23.563c-10.2-10.605-19.176-25.5-26.928-44.676c2.448,0.813,5.814,1.326,10.098,1.53 s8.874,0.102,13.77-0.309s9.69-0.918,14.382-1.527c4.692-0.612,8.874-1.326,12.546-2.145 c-21.216-6.527-37.842-15.198-49.878-26.01c-12.036-10.813-20.91-21.93-26.622-33.354c-5.712-11.424-9.282-22.235-10.71-32.435 s-2.142-18.156-2.142-23.868c5.304,3.264,13.056,6.732,23.256,10.404s19.38,5.304,27.54,4.896 c-16.728-13.872-28.866-27.642-36.414-41.31s-12.036-26.928-13.464-39.78c-1.428-12.852-0.714-25.398,2.142-37.638 s6.732-24.072,11.628-35.496c22.44,25.296,44.778,45.798,67.014,61.506s43.452,27.846,63.648,36.414s39.066,14.28,56.61,17.136 s32.844,4.284,45.9,4.284c-2.448-16.32-2.551-31.824-0.309-46.512c2.244-14.688,6.939-28.152,14.076-40.392 c7.143-12.24,16.627-22.746,28.459-31.518c11.832-8.772,25.908-15.402,42.229-19.89c19.99-5.712,39.168-5.508,57.525,0.612 c18.361,6.12,34.068,16.729,47.125,31.824c5.711-0.408,14.688-2.244,26.93-5.508c12.238-3.264,27.541-10.404,45.898-21.42 c-1.225,4.08-3.162,9.078-5.813,14.994c-2.652,5.916-6.02,11.934-10.1,18.054c-4.08,6.12-8.977,12.036-14.688,17.748 c-5.713,5.712-12.24,10.404-19.584,14.076c6.119-1.224,12.852-2.652,20.193-4.284c6.119-1.632,13.262-3.774,21.422-6.426 S540.395,103.354,548.963,99.682z"/></symbol><symbol id="twitter-n" viewBox="0 0 504.4 504.4"><title>twitter-n</title><path d="M377.6,0.2H126.4C56.8,0.2,0,57,0,126.6v251.6c0,69.2,56.8,126,126.4,126H378c69.6,0,126.4-56.8,126.4-126.4V126.6 C504,57,447.2,0.2,377.6,0.2z M377.2,189c0,2.8,0,5.6,0,8.4c0,84-64.8,180.8-183.6,180.8c-36.4,0-70.4-10.4-98.8-28.4 c5.2,0.4,10,0.8,15.2,0.8c30.4,0,58-10,80-27.2c-28.4-0.4-52-18.8-60.4-44c4,0.8,8,1.2,12,1.2c6,0,12-0.8,17.2-2.4 c-28.8-6-50.8-31.6-50.8-62.4V215c8,4.8,18.4,7.6,28.8,8c-17.2-11.2-28.8-30.8-28.8-52.8c0-11.6,3.2-22.4,8.8-32 c32,38.4,79.2,63.6,132.8,66.4c-1.2-4.8-1.6-9.6-1.6-14.4c0-35.2,28.8-63.6,64.4-63.6c18.4,0,35.2,7.6,47.2,20 c14.8-2.8,28.4-8,40.8-15.6c-4.8,14.8-15.2,27.2-28.4,35.2c13.2-1.6,25.6-4.8,37.2-10C400.4,169,389.6,180.2,377.2,189z"/></symbol><symbol id="twitter-nm" viewBox="0 0 512.002 512.002"><title>twitter-nm</title><path d="M512.002,97.211c-18.84,8.354-39.082,14.001-60.33,16.54c21.686-13,38.342-33.585,46.186-58.115 c-20.299,12.039-42.777,20.78-66.705,25.49c-19.16-20.415-46.461-33.17-76.674-33.17c-58.011,0-105.042,47.029-105.042,105.039 c0,8.233,0.929,16.25,2.72,23.939c-87.3-4.382-164.701-46.2-216.509-109.753c-9.042,15.514-14.223,33.558-14.223,52.809 c0,36.444,18.544,68.596,46.73,87.433c-17.219-0.546-33.416-5.271-47.577-13.139c-0.01,0.438-0.01,0.878-0.01,1.321 c0,50.894,36.209,93.348,84.261,103c-8.813,2.399-18.094,3.687-27.674,3.687c-6.769,0-13.349-0.66-19.764-1.888 c13.368,41.73,52.16,72.104,98.126,72.949c-35.95,28.176-81.243,44.967-130.458,44.967c-8.479,0-16.84-0.496-25.058-1.471 c46.486,29.807,101.701,47.197,161.021,47.197c193.211,0,298.868-160.062,298.868-298.872c0-4.554-0.104-9.084-0.305-13.59 C480.111,136.775,497.92,118.275,512.002,97.211z"/></symbol><symbol id="twitter-m" viewBox="0 0 310 310"><title>twitter-m</title><path id="XMLID_827_" d="M302.973,57.388c-4.87,2.16-9.877,3.983-14.993,5.463c6.057-6.85,10.675-14.91,13.494-23.73 c0.632-1.977-0.023-4.141-1.648-5.434c-1.623-1.294-3.878-1.449-5.665-0.39c-10.865,6.444-22.587,11.075-34.878,13.783 c-12.381-12.098-29.197-18.983-46.581-18.983c-36.695,0-66.549,29.853-66.549,66.547c0,2.89,0.183,5.764,0.545,8.598 C101.163,99.244,58.83,76.863,29.76,41.204c-1.036-1.271-2.632-1.956-4.266-1.825c-1.635,0.128-3.104,1.05-3.93,2.467 c-5.896,10.117-9.013,21.688-9.013,33.461c0,16.035,5.725,31.249,15.838,43.137c-3.075-1.065-6.059-2.396-8.907-3.977 c-1.529-0.851-3.395-0.838-4.914,0.033c-1.52,0.871-2.473,2.473-2.513,4.224c-0.007,0.295-0.007,0.59-0.007,0.889 c0,23.935,12.882,45.484,32.577,57.229c-1.692-0.169-3.383-0.414-5.063-0.735c-1.732-0.331-3.513,0.276-4.681,1.597 c-1.17,1.32-1.557,3.16-1.018,4.84c7.29,22.76,26.059,39.501,48.749,44.605c-18.819,11.787-40.34,17.961-62.932,17.961 c-4.714,0-9.455-0.277-14.095-0.826c-2.305-0.274-4.509,1.087-5.294,3.279c-0.785,2.193,0.047,4.638,2.008,5.895 c29.023,18.609,62.582,28.445,97.047,28.445c67.754,0,110.139-31.95,133.764-58.753c29.46-33.421,46.356-77.658,46.356-121.367 c0-1.826-0.028-3.67-0.084-5.508c11.623-8.757,21.63-19.355,29.773-31.536c1.237-1.85,1.103-4.295-0.33-5.998 C307.394,57.037,305.009,56.486,302.973,57.388z"/></symbol><symbol id="facebook-logo-n-1" viewBox="0 0 470.513 470.513"><title>facebook-logo-n-1</title><path d="M271.521,154.17v-40.541c0-6.086,0.28-10.8,0.849-14.13c0.567-3.335,1.857-6.615,3.859-9.853 c1.999-3.236,5.236-5.47,9.706-6.708c4.476-1.24,10.424-1.858,17.85-1.858h40.539V0h-64.809c-37.5,0-64.433,8.897-80.803,26.691 c-16.368,17.798-24.551,44.014-24.551,78.658v48.82h-48.542v81.086h48.539v235.256h97.362V235.256h64.805l8.566-81.086H271.521z"/></symbol><symbol id="facebook-nm" viewBox="0 0 512 512"><title>facebook-nm</title><path d="M296.296,512H200.36V256h-64v-88.225l64-0.029l-0.104-51.976C200.256,43.794,219.773,0,304.556,0h70.588v88.242h-44.115 c-33.016,0-34.604,12.328-34.604,35.342l-0.131,44.162h79.346l-9.354,88.225L296.36,256L296.296,512z"/></symbol><symbol id="facebook-nnm" viewBox="0 0 310 310"><title>facebook-nnm</title><path id="XMLID_835_" d="M81.703,165.106h33.981V305c0,2.762,2.238,5,5,5h57.616c2.762,0,5-2.238,5-5V165.765h39.064 c2.54,0,4.677-1.906,4.967-4.429l5.933-51.502c0.163-1.417-0.286-2.836-1.234-3.899c-0.949-1.064-2.307-1.673-3.732-1.673h-44.996 V71.978c0-9.732,5.24-14.667,15.576-14.667c1.473,0,29.42,0,29.42,0c2.762,0,5-2.239,5-5V5.037c0-2.762-2.238-5-5-5h-40.545 C187.467,0.023,186.832,0,185.896,0c-7.035,0-31.488,1.381-50.804,19.151c-21.402,19.692-18.427,43.27-17.716,47.358v37.752H81.703 c-2.762,0-5,2.238-5,5v50.844C76.703,162.867,78.941,165.106,81.703,165.106z"/></symbol><symbol id="linkedin-logotype-button" viewBox="0 0 508.52 508.52"><title>linkedin-logotype-button</title><path style="fill:#010002;" d="M413.172,0H95.347C42.684,0,0,42.684,0,95.347v317.825c0,52.664,42.684,95.347,95.347,95.347 h317.825c52.664,0,95.347-42.684,95.347-95.347V95.347C508.52,42.684,465.836,0,413.172,0z M190.695,377.417H127.13V154.94 h63.565V377.417z M160.883,141.305c-16.463,0-29.78-13.349-29.78-29.812s13.349-29.812,29.78-29.812 c16.463,0.032,29.812,13.38,29.812,29.812C190.695,127.956,177.346,141.305,160.883,141.305z M413.172,377.417h-63.565V239.862 c0-16.114-4.608-27.396-24.409-27.396c-32.831,0-39.156,27.396-39.156,27.396v137.555h-63.565V154.94h63.565v21.262 c9.09-6.96,31.782-21.231,63.565-21.231c20.595,0,63.565,12.332,63.565,86.83V377.417z"/></symbol><symbol id="facebook-logo-n" viewBox="0 0 97.75 97.75"><title>facebook-logo-n</title><path d="M48.875,0C21.882,0,0,21.882,0,48.875S21.882,97.75,48.875,97.75S97.75,75.868,97.75,48.875S75.868,0,48.875,0z M67.521,24.89l-6.76,0.003c-5.301,0-6.326,2.519-6.326,6.215v8.15h12.641L67.07,52.023H54.436v32.758H41.251V52.023H30.229V39.258 h11.022v-9.414c0-10.925,6.675-16.875,16.42-16.875l9.851,0.015V24.89L67.521,24.89z"/></symbol><symbol id="facebook-logo-button-nm" viewBox="0 0 486.392 486.392"><title>facebook-logo-button-nm</title><path style="fill:#010002;" d="M243.196,0C108.891,0,0,108.891,0,243.196s108.891,243.196,243.196,243.196 s243.196-108.891,243.196-243.196C486.392,108.861,377.501,0,243.196,0z M306.062,243.165l-39.854,0.03l-0.03,145.917h-54.689 V243.196H175.01v-50.281l36.479-0.03l-0.061-29.609c0-41.039,11.126-65.997,59.431-65.997h40.249v50.311h-25.171 c-18.817,0-19.729,7.022-19.729,20.124l-0.061,25.171h45.234L306.062,243.165z"/></symbol><symbol id="linkedin-logotype-nm" viewBox="0 0 21.903 21.903"><title>linkedin-logotype-nm</title><path style="fill:#030104;" d="M2.67,1.211c0.682,0,1.216,0.215,1.604,0.643S4.87,2.822,4.898,3.469 c0,0.639-0.218,1.178-0.657,1.616C3.802,5.522,3.202,5.741,2.443,5.741H2.416c-0.741,0-1.328-0.219-1.765-0.656 C0.219,4.647,0,4.108,0,3.469c0-0.657,0.238-1.197,0.718-1.622C1.198,1.423,1.85,1.211,2.67,1.211z M0.287,7.535H4.97v13.156H0.287 V7.535z M21.903,13.148v7.543h-4.682v-7.036c0-0.895-0.184-1.612-0.55-2.158c-0.364-0.541-0.973-0.812-1.833-0.812 c-0.655,0-1.181,0.166-1.573,0.5c-0.393,0.332-0.678,0.699-0.85,1.102c-0.056,0.146-0.091,0.307-0.11,0.486 c-0.018,0.176-0.026,0.367-0.026,0.568v7.351H7.568c0.02-2.226,0.031-4.268,0.031-6.12v-2.339v-2.125 c0-0.647-0.007-1.199-0.018-1.657C7.575,7.997,7.568,7.69,7.568,7.535h4.711v1.863l-0.026,0.054h0.026V9.398 c0.146-0.229,0.333-0.468,0.561-0.719c0.231-0.25,0.507-0.484,0.843-0.7c0.333-0.214,0.734-0.39,1.204-0.533 c0.473-0.141,1.011-0.211,1.624-0.211c0.762,0,1.474,0.116,2.138,0.349c0.662,0.233,1.231,0.598,1.715,1.096 c0.481,0.495,0.858,1.111,1.132,1.847C21.769,11.261,21.903,12.135,21.903,13.148z"/></symbol><symbol id="facebook-logo-button-nnn" viewBox="0 0 49.652 49.652"><title>facebook-logo-button-nnn</title><path d="M24.826,0C11.137,0,0,11.137,0,24.826c0,13.688,11.137,24.826,24.826,24.826c13.688,0,24.826-11.138,24.826-24.826 C49.652,11.137,38.516,0,24.826,0z M31,25.7h-4.039c0,6.453,0,14.396,0,14.396h-5.985c0,0,0-7.866,0-14.396h-2.845v-5.088h2.845 v-3.291c0-2.357,1.12-6.04,6.04-6.04l4.435,0.017v4.939c0,0-2.695,0-3.219,0c-0.524,0-1.269,0.262-1.269,1.386v2.99h4.56L31,25.7z "/></symbol><symbol id="quality-n" viewBox="0 0 512 512"><title>quality-n</title><g> <g> <path d="M226.932,399.948c-19.96,18.445-47.567,22.576-72.053,10.786c-8.852-4.263-16.322-10.149-22.17-17.199l-33.341,73.744 c-1.517,3.355,0.177,5.884,0.975,6.815c0.798,0.93,3.039,2.989,6.585,2.003l24.272-6.756c2.766-0.769,5.562-1.14,8.319-1.14 c11.631,0,22.578,6.583,27.849,17.492l10.962,22.685c1.601,3.315,4.604,3.646,5.854,3.621c1.226-0.016,4.242-0.414,5.758-3.769 l53.033-117.304C237.148,392.603,231.63,395.606,226.932,399.948z"/> </g> </g><g> <g> <path d="M412.631,467.279l-33.341-73.744c-5.848,7.051-13.318,12.937-22.17,17.199c-24.487,11.79-52.093,7.659-72.053-10.786 c-4.698-4.342-10.216-7.345-16.045-9.022l53.033,117.304c1.517,3.356,4.533,3.753,5.758,3.769c1.25,0.025,4.253-0.306,5.854-3.621 l10.962-22.685c5.27-10.909,16.218-17.492,27.849-17.492c2.757,0,5.554,0.371,8.319,1.14l24.272,6.756 c3.546,0.987,5.788-1.072,6.585-2.003C412.454,473.162,414.148,470.633,412.631,467.279z"/> </g> </g><g> <g> <path d="M438.821,207.791c-27.69-18.96-36.282-56.605-19.56-85.702c10.051-17.491,4.82-34.775-3.427-45.118 c-8.248-10.34-23.936-19.285-43.223-13.38c-32.084,9.827-66.877-6.925-79.201-38.141C286.002,6.686,269.227,0,256,0 c-13.227,0-30.002,6.686-37.41,25.451c-12.324,31.217-47.114,47.967-79.201,38.141c-19.289-5.904-34.974,3.039-43.223,13.38 c-8.247,10.343-13.478,27.625-3.427,45.118c16.722,29.096,8.13,66.742-19.56,85.702c-16.646,11.399-19.431,29.24-16.489,42.136 c2.942,12.896,13.194,27.761,33.137,30.808c33.174,5.068,57.248,35.256,54.809,68.727c-1.468,20.121,10.745,33.423,22.662,39.163 c11.918,5.739,29.932,6.995,44.748-6.698c12.322-11.387,28.141-17.083,43.953-17.083c15.818,0,31.628,5.693,43.952,17.083 c14.818,13.694,32.833,12.438,44.75,6.698c11.917-5.739,24.129-19.041,22.662-39.162c-2.439-33.471,21.635-63.659,54.809-68.728 c19.943-3.047,30.193-17.913,33.137-30.808C458.252,237.03,455.465,219.189,438.821,207.791z M256,335.923 c-72.575,0-131.619-59.044-131.619-131.619S183.424,72.684,256,72.684c72.576,0,131.619,59.044,131.619,131.619 C387.618,276.878,328.575,335.923,256,335.923z"/> </g> </g><g> <g> <path d="M255.999,97.225c-59.044,0-107.079,48.036-107.079,107.079c0,59.043,48.034,107.079,107.079,107.079 s107.079-48.036,107.079-107.079S315.043,97.225,255.999,97.225z M310.874,193.922l-66.642,48.675 c-2.115,1.545-4.653,2.362-7.237,2.362c-0.666,0-1.335-0.054-2.001-0.164c-3.249-0.537-6.147-2.358-8.041-5.054l-19.934-28.382 c-3.895-5.547-2.556-13.2,2.989-17.095c5.546-3.895,13.198-2.557,17.094,2.989l12.75,18.154l56.548-41.302 c5.473-3.995,13.15-2.803,17.146,2.671C317.543,182.248,316.346,189.924,310.874,193.922z"/> </g> </g></symbol></svg>