<svg xmlns="http://www.w3.org/2000/svg" style="display: none;"><symbol id="loupe-cat" viewBox="0 0 512 512"><title>loupe-cat</title><g> <g> <path d="M310,190c-5.52,0-10,4.48-10,10s4.48,10,10,10c5.52,0,10-4.48,10-10S315.52,190,310,190z"/> </g> </g><g> <g> <path d="M500.281,443.719l-133.48-133.48C388.546,277.485,400,239.555,400,200C400,89.72,310.28,0,200,0S0,89.72,0,200 s89.72,200,200,200c39.556,0,77.486-11.455,110.239-33.198l36.895,36.895c0.005,0.005,0.01,0.01,0.016,0.016l96.568,96.568 C451.276,507.838,461.319,512,472,512c10.681,0,20.724-4.162,28.278-11.716C507.837,492.731,512,482.687,512,472 S507.837,451.269,500.281,443.719z M305.536,345.727c0,0.001-0.001,0.001-0.002,0.002C274.667,368.149,238.175,380,200,380 c-99.252,0-180-80.748-180-180S100.748,20,200,20s180,80.748,180,180c0,38.175-11.851,74.667-34.272,105.535 C334.511,320.988,320.989,334.511,305.536,345.727z M326.516,354.793c10.35-8.467,19.811-17.928,28.277-28.277l28.371,28.371 c-8.628,10.183-18.094,19.65-28.277,28.277L326.516,354.793z M486.139,486.139c-3.78,3.78-8.801,5.861-14.139,5.861 s-10.359-2.081-14.139-5.861l-88.795-88.795c10.127-8.691,19.587-18.15,28.277-28.277l88.798,88.798 C489.919,461.639,492,466.658,492,472C492,477.342,489.919,482.361,486.139,486.139z"/> </g> </g><g> <g> <path d="M200,40c-88.225,0-160,71.775-160,160s71.775,160,160,160s160-71.775,160-160S288.225,40,200,40z M200,340 c-77.196,0-140-62.804-140-140S122.804,60,200,60s140,62.804,140,140S277.196,340,200,340z"/> </g> </g><g> <g> <path d="M312.065,157.073c-8.611-22.412-23.604-41.574-43.36-55.413C248.479,87.49,224.721,80,200,80c-5.522,0-10,4.478-10,10 c0,5.522,4.478,10,10,10c41.099,0,78.631,25.818,93.396,64.247c1.528,3.976,5.317,6.416,9.337,6.416 c1.192,0,2.405-0.215,3.584-0.668C311.472,168.014,314.046,162.229,312.065,157.073z"/> </g> </g></symbol><symbol id="graphic-tool-cat" viewBox="0 0 512.002 512.002"><title>graphic-tool-cat</title><path d="M492.42,333.027c3.082-11.953,4.321-23.549,4.836-35.826c0.314-7.49,0.896-18.251-3.55-24.8 c-4.254-6.267-11.932-8.088-19.008-8.573c-10.153-0.696-20.26-1.503-30.402-2.323c-20.004-1.618-39.957-1.451-59.954-2.052 c-2.471-4.838-7.935-8.306-11.296-12.393c-4.324-5.259-7.714-10.884-12.372-15.906c-6.4-6.899-12.764-13.732-19.278-20.524 c-3.423-3.568-6.695-9.419-11.176-12.345c0.583-3.067,0.391-6.313-1.006-9.788c-3.516-8.751-10.753-16.519-16.047-24.228 c-4.878-7.104-9.926-13.993-16.227-19.892c4.935-7.428,9.882-14.846,14.78-22.286c5.763-8.753,13.35-20.082,17.436-31.532 c4.436-5.724,7.161-12.343,10.984-18.538c4.826-7.819,9.2-16.601,12.343-25.267c5.66-15.606,6.781-35.345-9.884-43.535 c-16.319-8.02-33.389,0.176-46.071,11.089c-11.15,9.594-23.935,22.462-29.301,37.132c-7.057,6.43-12.678,14.277-17.894,22.387 c-4.4-8.639-10.769-15.8-17.334-23.067c-8.801-9.742-17.634-20.736-29.139-27.382c-17.996-10.395-50.551-18.443-63.22,3.694 c-13.482,23.557-4.93,53.756,7.534,75.594c12.234,21.433,27.636,41.068,43.792,59.667c-10.043,15.332-19.935,30.775-29.295,46.521 c-10.775,18.127-22.82,35.708-31.407,55.01c-21.589,0.497-43.168,1.117-64.68,2.656c-13.624,0.975-38.099-0.393-45.522,13.821 c-6.928,13.265-6.225,36.448-3.898,50.76c2.963,18.225,16.486,24.673,33.6,27.049c10.415,1.446,20.998,2.271,31.607,2.732 c-3.851,5.129-6.953,12.215-9.404,16.554c-18.284,32.368-27.915,69.955-33.43,106.537c-1.204,7.985-5.689,18.002-1.053,25.452 c1.38,2.218,3.625,2.86,6.07,2.47c6.663-1.061,11.817-5.815,16.829-10.064c8.642-7.326,17.078-14.902,25.815-22.117 c26.09-21.545,48.034-49.619,66.562-78.135c8.876-13.662,18.136-26.918,27.347-40.327c25.708,0.048,51.422,0.156,77.12,0.164 c28.032,0.009,56.034,0.006,84.036,0.014c2.235,3.128,4.083,6.658,6.628,9.585c4.273,4.918,9.167,9.224,13.787,13.785 c8.602,8.493,17.215,16.679,25.145,25.826c7.668,8.844,14.556,18.061,23.252,25.928c6.105,5.523,10.069,10.669,18.246,9.949 c0.232,0.479,0.571,0.896,1.023,1.155c22.859,13.111,39.074,32.235,57.273,50.687c3.428,3.475,8.81,0.689,9.117-3.776 c1.325-19.294-5.144-34.284-11.623-52.291c-2.309-6.42-4.879-18.256-10.797-23.761c3.034-3.749,4.957-8.075,4.096-13.221 c-1.757-10.506-12.911-22.613-18.815-31.068c-2.661-3.811-5.679-8.962-9.314-13.264c3.962-0.225,7.91-0.497,11.818-0.887 C479.098,358.277,487.912,350.511,492.42,333.027z M325.507,208.152c5.04,10.172,17.859,20.558,23.435,26.823 c5.944,6.678,11.652,16.556,18.614,23.895c-8.53-0.191-16.894-0.062-25.239,0.293c-0.662-0.013-1.323-0.027-1.985-0.041 c-13.018-0.269-26.039-0.331-39.06-0.303c-1.563-3.011-4.476-5.654-6.605-8.015c-1.814-2.011-3.71-3.999-5.632-5.907 c-0.62-0.615-1.245-1.197-1.915-1.747c7.54-5.851,14.964-12.14,21.848-18.727C314.043,219.566,320.891,214.259,325.507,208.152z M312.997,183.4c1.7,2.399,4.116,4.936,5.206,7.704c2.741,6.959-0.431,8.977-4.769,13.393c-4.336,4.414-8.861,8.869-13.387,13.096 c-4.63,4.324-9.617,8.303-14.566,12.259c-3.517,2.812-7.079,7.126-11.334,8.407c-0.578,0.174-0.923,0.298-1.137,0.399 c-4.04-3.268-7.168-9.511-10.91-13.112c-3.329-3.204-7.131-5.977-10.405-9.194c-0.203-0.199-0.412-0.37-0.626-0.515 c8.503-14.168,17.631-27.896,26.506-41.841c4.487-7.049,9.072-14.044,13.682-21.024C299.71,161.821,305.999,173.522,312.997,183.4 z M286.794,258.887c-20.949,0.215-41.897,0.761-62.835,1.664c2.575-3.817,4.859-7.905,7.19-11.618 c4.855-7.735,9.735-15.497,14.233-23.448c0.439-0.777,0.913-1.529,1.357-2.302c3.449,5.576,8.643,10.134,12.664,15.213 c3.305,4.175,6.816,11.163,12.669,11.842c2.127,0.247,4.41-0.44,6.612-1.496c1.57,2.724,3.896,5.236,5.718,7.231 C285.184,256.83,285.976,257.835,286.794,258.887z M310.617,102.473c-10.746,18.957-23.223,37.139-35.793,54.9 c-12.448,17.588-24.261,36.186-35.07,54.822c-4.741,8.175-9.529,16.2-14.519,24.224c-4.96,7.975-9.138,17.12-14.6,24.754 c-3.062,0.152-6.124,0.293-9.185,0.459c-6.572,0.356-13.149,0.629-19.729,0.87c22.646-28.366,41.356-59.306,61.756-89.257 c24.115-35.406,46.008-73.175,66.422-110.816c3.872,2.229,7.218,4.663,9.116,6.95C326.098,77.911,314.847,95.01,310.617,102.473z M295.041,29.6c10.603-10.299,27.967-25.961,43.686-16.792c15.757,9.191,2.613,34.171-3.11,46.173 c-1.688,3.539-3.17,6.976-4.546,10.402c-3.455-10.285-15.517-15.087-24.872-20.023c-7.883-4.159-15.64-6.595-23.156-5.703 C286.812,38.783,290.598,33.916,295.041,29.6z M170.384,118.21c-13.577-19.886-28.069-41.551-26.381-66.885 c0.93-13.949,5.837-27.59,21.7-28.05c13.842-0.401,27.702,5.303,38.298,13.888c15.93,12.908,25.644,30.522,38.841,45.416 c0.195,0.221,0.406,0.413,0.629,0.579c-1.668,2.695-3.332,5.378-5.029,7.997c-12.003,18.527-24.677,36.639-36.856,55.052 c-1.836,2.776-3.665,5.561-5.497,8.341C189.514,141.629,178.365,129.9,170.384,118.21z M208.102,155.304 c13.19-19.568,26.762-38.937,39.598-58.738c9.014-13.905,21.529-43.045,40.493-42.077c3.797,0.194,9.822,2.134,15.659,4.824 c-4.437,6.063-7.549,13.228-11.399,19.65c-5.637,9.403-11.097,18.894-16.653,28.34c-12.67,21.547-25.456,43.431-39.613,64.058 c-11.688,17.031-21.963,34.898-33.89,51.749c-5.888,8.319-11.938,16.498-17.8,24.831c-2.871,4.081-7.782,9.32-9.176,14.781 c-12.394,0.402-24.794,0.684-37.195,0.959C163.336,229.043,184.177,190.799,208.102,155.304z M80.485,383.699 c2.105-4.413,4.463-8.666,6.381-13.172c1.178-2.765,1.64-6.462,2.782-9.359c8.73,0.231,17.453,0.259,26.093,0.196 c2.645-0.019,5.292-0.021,7.937-0.036c-1.204,1.501-1.908,3.406-2.99,5.248c-3.156,5.375-6.751,10.495-9.955,15.844 c-5.938,9.911-10.807,20.422-16.497,30.455c-2.56-3.409-5.942-6.166-9.757-8.019c-5.11-2.482-9.413-2.876-13.887-2.48 C73.659,396.025,77.6,389.744,80.485,383.699z M63.926,484.753c-5.115,4.281-11.305,11.385-17.865,14.864 c0.153-7.141,3.654-19.447,4.326-23.289c0.24-1.373,0.508-2.742,0.768-4.112c1.418,0.591,2.821,1.286,3.984,1.93 c2.945,1.632,6.61,3.906,8.758,6.5c0.641,0.773,1.274,1.692,2.008,2.443C65.244,483.643,64.588,484.199,63.926,484.753z M85.262,466.952c-4.685,3.793-9.291,7.662-13.893,11.539c-1.895-4.619-8.314-7.889-11.971-10.089 c-1.923-1.157-4.597-2.244-7.04-2.31c1.152-5.629,2.379-11.245,3.544-16.866c2.42-11.678,4.573-23.438,7.947-34.825 c6.464-1.194,11.024-2.456,17.139,1.482c4.201,2.706,4.872,7.447,8.715,9.88c1.949,1.234,3.084,1.011,5.212,1.227 c4.631,0.47,6.084-1.243,10.302,2.18c4.302,3.491,5.221,7.251,5.379,12.624C101.467,449.383,94.529,459.449,85.262,466.952z M147.122,390.939c-5.006,8.068-10.68,15.36-16.215,23.047c-3.927,5.453-7.366,11.233-11.395,16.554 c-1.394-3.948-3.669-7.559-6.919-10.282c-2.783-2.332-8.148-4.894-12.925-5.227c5.178-6.824,8.755-15.989,12.743-22.756 c5.742-9.743,12.199-19.142,17.465-29.143c0.337-0.64,0.42-1.268,0.32-1.833c12.282-0.049,24.567-0.071,36.856-0.061 C159.739,370.6,153.32,380.952,147.122,390.939z M484.611,480.478c-7.382-8.265-14.706-16.653-23.61-23.256 c-4.817-3.572-13.66-11.022-21.743-13.923c8.302-3.693,16.506-9.698,22.948-14.774c1.005-0.792,2.059-1.614,3.122-2.464 C474.106,442.242,482.384,461.745,484.611,480.478z M454.116,387.776c5.732,8.941,13.949,16.354,7.254,26.525 c-4.501,6.838-23.489,19.266-31.981,20.528c-6.272,0.932-13.982-8.296-18.089-12.523c-12.696-13.071-23.372-27.483-36.523-40.202 c-5.589-5.405-11.586-10.467-17.387-15.754c-1.576-1.436-3.224-3.195-4.967-4.917c13.26,0.006,26.517,0.006,39.784,0.027 c14.043,0.022,28.456,0.346,42.754,0.057C441.889,369.996,448.134,378.445,454.116,387.776z M451.298,328.337 c-0.394-5.007-7.174-4.902-7.709,0c-0.56,5.129-0.558,10.209-0.686,15.355c-0.041,1.655-0.115,3.296-0.091,4.924 c-0.513-0.003-1.031-0.007-1.521-0.005c-8.567,0.043-17.128,0.163-25.688,0.279c0.698-3.643,0.81-7.181,0.916-11.292 c0.139-5.417,1.219-11.504-1.461-16.392c-0.952-1.737-3.659-1.737-4.611,0c-2.678,4.885-1.6,10.986-1.461,16.392 c0.096,3.737,0.199,7.573,0.486,11.354c-7.166,0.093-14.331,0.19-21.5,0.211c0.427-3.403,0.707-6.825,1.047-10.244 c0.531-5.345,1.428-10.6,0.452-15.924c-0.613-3.346-5.158-2.661-6.118,0c-2.666,7.399-3.094,17.576-2.234,26.187 c-7.463,0.002-14.923,0.005-22.384,0.008c0.748-3.609,1.307-7.263,1.929-10.892c0.811-4.733,1.665-9.292,0.654-14.049 c-0.674-3.175-5.628-3.103-6.35,0c-1.72,7.396-3.474,16.716-3.071,24.944c-7.542,0.003-15.086,0.005-22.627,0.008 c1.159-4.66,1.263-9.496,2.033-14.415c0.751-4.801,3.361-12.165,0.078-16.306c-0.76-0.959-2.209-0.662-3.01,0 c-4.575,3.778-3.729,11.305-4.056,16.707c-0.261,4.315-0.291,9.372,0.405,14.016c-7.852,0.003-15.704,0.005-23.557,0.008 c0.38-3.905,0.496-7.818,0.549-11.781c0.066-5.061,1.137-11.109-2.017-15.368c-1.062-1.433-2.821-1.433-3.884,0 c-3.154,4.259-2.084,10.306-2.017,15.368c0.053,3.964,0.169,7.878,0.549,11.784c-7.465,0.003-14.919,0.005-22.389,0.008 c-0.332,0-0.665-0.002-0.998-0.002c0.497-3.502,0.144-7.358,0.494-10.612c0.582-5.4,0.834-9.887-1.38-14.953 c-0.84-1.922-4.176-1.89-5.027,0c-1.987,4.413-0.811,10.138-1.061,14.953c-0.164,3.151-0.485,7.071,0.081,10.597 c-6.948-0.009-13.895-0.017-20.848-0.043c0.479-3.598,0.416-7.289,0.511-10.908c0.119-4.547,0.297-9.242-1.785-13.395 c-1.32-2.635-4.702-1.467-5.614,0.734c-1.642,3.962-0.274,9.299-0.174,13.53c0.078,3.329,0.056,6.708,0.492,10.013 c-5.685-0.023-11.371-0.046-17.058-0.069c0.343-3.789,0.366-7.619,0.439-11.414c0.113-5.896,0.894-12.155-0.961-17.826 c-0.934-2.856-4.873-2.86-5.808,0c-1.855,5.671-1.074,11.929-0.961,17.826c0.072,3.788,0.096,7.612,0.437,11.394 c-6.202-0.019-12.403-0.057-18.603-0.053c0.271-2.807,0.029-5.828,0.275-8.133c0.609-5.7,2.315-11.643-0.63-16.922 c-0.858-1.538-3.192-1.513-4.057,0c-2.57,4.497-2.454,9.341-2.888,14.352c-0.206,2.381-0.261,4.696-0.126,7.094 c0.053,0.934,0.364,2.29,0.597,3.64c-6.869,0.019-13.738,0.04-20.601,0.116c0.407-3.435-0.062-7.17,0.009-10.376 c0.113-5.044-0.367-9.38-1.101-14.227c-0.19-1.255-1.66-1.729-2.717-1.542c-5.366,0.946-4.027,7.73-3.978,11.62 c0.058,4.478-0.166,9.864,0.984,14.603c-2.906,0.042-5.816,0.043-8.72,0.1c-2.794,0.055-5.584,0.044-8.376,0.066 c0.105-2.865,0.099-5.755,0.184-8.553c0.166-5.494,1.295-12.204-1.563-17.085c-1.036-1.77-3.679-1.77-4.715,0 c-2.862,4.888-1.674,11.596-1.563,17.085c0.063,3.121,0.304,5.854,0.735,8.608c-6.406-0.003-12.811-0.057-19.215-0.17 c0.622-4.328,1.178-8.748,1.333-13.046c0.156-4.309,1.248-9.911-1.126-13.681c-0.796-1.264-2.956-1.872-4.036-0.52 c-3.106,3.888-2.894,8.497-2.871,13.274c0.023,4.794-0.225,9.228,0.181,13.856c-5.118-0.113-10.237-0.245-15.361-0.394 c-1.575-0.046-3.147-0.067-4.72-0.091c1.737-10.537-0.003-22.1,0.215-32.536c0.083-3.959-5.074-4.026-6.389-0.865 c-2.447,5.887-1.734,12.095-1.653,18.342c0.063,4.941-0.132,10.026,0.523,14.953c-4.909-0.067-9.814-0.18-14.729-0.577 c-1.304-0.105-2.671-0.192-4.076-0.276c0.034-0.217,0.059-0.393,0.072-0.505c0.389-3.316,0.2-6.796,0.229-10.13 c0.051-5.933,0.731-12.377-1.803-17.854c-0.845-1.825-3.975-1.825-4.82,0c-2.529,5.466-1.855,11.935-1.803,17.854 c0.025,2.882-0.349,6.595-0.268,10.06c-8.152-0.725-16.494-2.276-22.084-7.238c-7.398-6.568-6.039-17.973-5.983-27.228 c0.062-10.285-1.458-26.096,10.134-30.822c8.053-3.283,19.307-2.837,27.953-3.475c9.269-0.685,18.598-0.983,27.886-1.29 c39.149-1.294,78.244-2.278,117.377-4.445c71.274-3.947,142.47-2.088,213.729-0.515c12.057,0.824,24.094,1.722,36.188,2.929 c9.508,0.949,19.523-0.879,23.874,9.943c2.793,6.946,0.086,19.703-0.671,26.934c-0.909,8.692-2.338,20.346-7.142,27.891 c-5.171,8.12-16.953,8.893-27.241,8.863c0.241-1.295,0.417-2.629,0.617-3.999C450.958,339.478,451.709,333.562,451.298,328.337z"/></symbol><symbol id="computer-cat" viewBox="0 0 512 512"><title>computer-cat</title><g> <g> <path d="M256,300.866c-16.007,0-29.031,13.024-29.031,29.031s13.024,29.031,29.031,29.031s29.031-13.024,29.031-29.031 S272.007,300.866,256,300.866z M256,343.093c-7.277,0-13.196-5.919-13.196-13.196s5.919-13.196,13.196-13.196 s13.196,5.919,13.196,13.196S263.277,343.093,256,343.093z"/> </g> </g><g> <g> <path d="M493.526,0H18.474C8.288,0,0,8.288,0,18.474v358.928c0,10.186,8.288,18.474,18.474,18.474h150.433v58.062h-24.655 L129.737,512h252.528l-14.516-58.062h-24.656v-58.062h150.433c10.186,0,18.474-8.288,18.474-18.474V18.474 C512,8.288,503.712,0,493.526,0z M355.385,469.773l6.599,26.392H150.016l6.598-26.392H355.385z M184.742,453.938v-58.062h142.516 v58.062H184.742z M496.165,377.402c0,1.43-1.209,2.639-2.639,2.639H18.474c-1.43,0-2.639-1.209-2.639-2.639v-92.371h480.33 V377.402z M248.082,79.175v190.021h-15.835v-99.274L192.66,77.551l-39.588,92.371v99.274H52.784V52.784h406.433v216.412H358.928 V79.175H248.082z M263.918,226.969v-36.948h44.866v-15.835h-44.866v-36.948h29.031v-15.835h-29.031V95.01h79.175v174.186h-79.175 v-26.392h29.031v-15.835H263.918z M172.997,163.629l19.663-45.88l19.663,45.88H172.997z M184.742,179.464v89.732h-15.835v-89.732 H184.742z M200.577,179.464h15.835v89.732h-15.835V179.464z M496.165,269.196h-21.113V36.948H36.948v232.247H15.835V18.474 c0-1.43,1.209-2.639,2.639-2.639h475.052c1.43,0,2.639,1.209,2.639,2.639V269.196z"/> </g> </g><g> <g> <polygon points="73.897,79.175 73.897,176.825 89.732,176.825 89.732,95.01 129.32,95.01 129.32,79.175 "/> </g> </g><g> <g> <rect x="73.897" y="192.66" width="15.835" height="21.113"/> </g> </g><g> <g> <polygon points="422.268,203.216 422.268,232.247 382.68,232.247 382.68,248.082 438.103,248.082 438.103,203.216 "/> </g> </g></symbol><symbol id="social-media-cat" viewBox="0 0 480 480"><title>social-media-cat</title><g> <g> <path d="M304,256h-40v-24c0-13.232-10.768-24-24-24h-16c-4.416,0-8,3.576-8,8v44.688L196.688,280H144c-4.416,0-8,3.576-8,8v72 c0,4.424,3.584,8,8,8h56h104c22.056,0,40-17.944,40-40v-32C344,273.944,326.056,256,304,256z M192,352h-40v-56h40V352z M328,328 c0,13.232-10.768,24-24,24h-96v-60.688l21.656-21.656C231.16,268.16,232,266.128,232,264v-40h8c4.408,0,8,3.584,8,8v32 c0,4.424,3.584,8,8,8h48c13.232,0,24,10.768,24,24V328z"/> </g> </g><g> <g> <path d="M480,120V40c0-22.056-17.944-40-40-40H296c-22.056,0-40,17.944-40,40v80c0,2.736,0.28,5.416,0.808,8h-33.616 c0.528-2.584,0.808-5.264,0.808-8V40c0-22.056-17.944-40-40-40H40C17.944,0,0,17.944,0,40v80c0,22.056,17.944,40,40,40v256H8 c-4.416,0-8,3.576-8,8c0,30.872,25.12,56,56,56h368c30.88,0,56-25.128,56-56c0-4.424-3.584-8-8-8h-32V160 C462.056,160,480,142.056,480,120z M210.432,149.784c1.408-1.248,2.696-2.6,3.912-4.032c0.496-0.584,1.024-1.136,1.488-1.752 h48.328c0.464,0.616,0.992,1.168,1.488,1.752c1.216,1.432,2.504,2.784,3.912,4.032c0.736,0.656,1.496,1.28,2.272,1.872 c1.104,0.848,2.232,1.64,3.424,2.376c1.256,0.776,2.552,1.48,3.896,2.112c0.8,0.376,1.6,0.736,2.424,1.056 c1.872,0.736,3.8,1.352,5.776,1.8c0.52,0.112,1.048,0.192,1.576,0.288c2.32,0.424,4.68,0.712,7.072,0.712h32v16H152v-16h32 c2.392,0,4.752-0.288,7.064-0.712c0.528-0.096,1.056-0.168,1.576-0.288c1.976-0.448,3.896-1.056,5.776-1.8 c0.832-0.32,1.624-0.68,2.424-1.056c1.336-0.632,2.632-1.336,3.896-2.112c1.192-0.728,2.32-1.528,3.424-2.376 C208.936,151.056,209.696,150.44,210.432,149.784z M80,400h320c4.416,0,8-3.576,8-8V184c0-4.424-3.584-8-8-8h-12.688l16-16H424 v256H56V160h20.688l16,16H80c-4.416,0-8,3.576-8,8v208C72,396.424,75.584,400,80,400z M392,192v192H88V192h20.688l29.656,29.656 c0.696,0.696,1.512,1.184,2.368,1.576c0.248,0.112,0.488,0.184,0.744,0.264c0.664,0.224,1.344,0.36,2.048,0.4 c0.168,0.016,0.328,0.104,0.496,0.104c0.096,0,0.192-0.056,0.288-0.056c0.936-0.032,1.872-0.176,2.768-0.552 c2.992-1.232,4.944-4.16,4.944-7.392v-24h176v24c0,3.232,1.952,6.16,4.936,7.392c0.896,0.376,1.832,0.52,2.768,0.552 c0.104,0,0.2,0.056,0.296,0.056c0.168,0,0.328-0.088,0.504-0.096c0.696-0.048,1.368-0.176,2.024-0.4 c0.264-0.088,0.52-0.16,0.768-0.272c0.856-0.392,1.672-0.88,2.36-1.568L371.312,192H392z M16,120V40c0-13.232,10.768-24,24-24h144 c13.232,0,24,10.768,24,24v80c0,4.336-1.248,8.352-3.264,11.864c-0.024,0.04-0.064,0.072-0.088,0.112 c-2.104,3.616-5.008,6.488-8.376,8.536c-0.352,0.216-0.72,0.4-1.088,0.592c-1.288,0.696-2.64,1.24-4.032,1.688 c-0.496,0.16-0.976,0.336-1.488,0.464c-1.832,0.448-3.72,0.744-5.664,0.744h-40c-4.416,0-8,3.576-8,8v32v12.688l-18.344-18.344 l-32-32C84.16,144.84,82.12,144,80,144H48h-8C26.768,144,16,133.232,16,120z M463.192,432c-3.712,18.232-19.872,32-39.192,32H56 c-19.32,0-35.48-13.768-39.192-32H48h384H463.192z M432,144h-32c-2.12,0-4.16,0.84-5.656,2.344l-32,32L344,196.688V184v-32 c0-4.424-3.584-8-8-8h-40c-1.944,0-3.832-0.296-5.664-0.744c-0.512-0.128-0.992-0.304-1.488-0.464 c-1.392-0.44-2.752-0.992-4.032-1.688c-0.368-0.192-0.736-0.376-1.088-0.592c-3.368-2.056-6.272-4.92-8.376-8.536 c-0.024-0.04-0.064-0.072-0.088-0.112C273.248,128.352,272,124.336,272,120V40c0-13.232,10.768-24,24-24h144 c13.232,0,24,10.768,24,24v80c0,13.232-10.768,24-24,24H432z"/> </g> </g><g> <g> <rect x="328" y="72" width="16" height="16"/> </g> </g><g> <g> <rect x="360" y="72" width="16" height="16"/> </g> </g><g> <g> <rect x="392" y="72" width="16" height="16"/> </g> </g><g> <g> <path d="M153.656,54.344c-9.736-9.736-25.576-9.736-35.312,0L112,60.688l-6.344-6.344c-9.736-9.736-25.576-9.736-35.312,0 c-4.72,4.712-7.32,10.984-7.32,17.656s2.6,12.944,7.32,17.656l36,36c1.56,1.56,3.608,2.344,5.656,2.344 c2.048,0,4.096-0.784,5.656-2.344l36-36c4.72-4.712,7.32-10.984,7.32-17.656S158.376,59.056,153.656,54.344z M142.344,78.344 L112,108.688L81.656,78.344C79.96,76.648,79.024,74.4,79.024,72s0.936-4.648,2.632-6.344c1.752-1.752,4.048-2.616,6.344-2.616 s4.592,0.864,6.344,2.616l12,12c3.128,3.128,8.184,3.128,11.312,0l12-12c3.504-3.488,9.184-3.488,12.688,0 c1.696,1.696,2.632,3.944,2.632,6.344S144.04,76.648,142.344,78.344z"/> </g> </g></symbol><symbol id="network-cat" viewBox="0 0 480 480"><title>network-cat</title><path d="M434.72,273.056C442.928,264.44,448,252.816,448,240c0-22.856-16.072-42-37.496-46.808l35.568-113.808 C465.232,76.432,480,59.976,480,40c0-22.056-17.944-40-40-40c-16.664,0-30.96,10.264-36.96,24.792L284.816,46.96 C277.92,28.888,260.464,16,240,16c-20.6,0-38.152,13.064-44.952,31.32L79.28,32.848C75.888,14.208,59.608,0,40,0 C17.944,0,0,17.944,0,40c0,19.312,13.768,35.472,32,39.192v97.616C13.768,180.528,0,196.688,0,216 c0,20.432,15.464,37.152,35.272,39.52l31.488,50.376C46.72,311.664,32,330.128,32,352c0,12.816,5.072,24.44,13.28,33.056 C19.52,390.072,0,412.792,0,440v32c0,4.416,3.576,8,8,8h144c4.424,0,8-3.584,8-8v-24h200.808c3.72,18.232,19.872,32,39.192,32 c22.056,0,40-17.944,40-40c0-19.312-13.768-35.472-32-39.192V368h64c4.424,0,8-3.584,8-8v-32 C480,300.792,460.48,278.072,434.72,273.056z M432,240c0,17.648-14.352,32-32,32s-32-14.352-32-32s14.352-32,32-32 S432,222.352,432,240z M440,16c13.232,0,24,10.768,24,24s-10.768,24-24,24s-24-10.768-24-24S426.768,16,440,16z M288,64 c0-0.456-0.056-0.896-0.072-1.344L400.16,41.608c0.72,17.712,12.952,32.376,29.44,36.848l-35.616,113.96 c-14.76,1.856-27.424,10.424-34.872,22.56l-39.24-65.4c-1.128-26.12-20.168-47.656-45.16-52.528C282.928,88.44,288,76.816,288,64z M241.056,233.136L246.944,192H312c4.424,0,8-3.584,8-8v-3.12l32.304,53.84c-0.192,1.736-0.304,3.496-0.304,5.28 c0,12.816,5.072,24.44,13.28,33.056c-20.616,4.016-37.2,19.376-43.016,39.304l-50.672-44.336 C269.864,250.904,257.472,236.968,241.056,233.136z M256,272c0,13.232-10.768,24-24,24s-24-10.768-24-24s10.768-24,24-24 S256,258.768,256,272z M240,32c17.648,0,32,14.352,32,32s-14.352,32-32,32s-32-14.352-32-32S222.352,32,240,32z M216,112h48 c22.056,0,40,17.944,40,40v24H176v-24C176,129.944,193.944,112,216,112z M78.912,48.928l113.136,14.144 C192.04,63.384,192,63.688,192,64c0,12.816,5.072,24.44,13.28,33.056c-24.344,4.744-43.072,25.304-45.056,50.512l-82.672,55.12 c-4.648-13.056-15.744-23.064-29.552-25.88V79.192C63.328,76.064,75.424,64.12,78.912,48.928z M16,40c0-13.232,10.768-24,24-24 s24,10.768,24,24S53.232,64,40,64S16,53.232,16,40z M16,216c0-13.232,10.768-24,24-24s24,10.768,24,24s-10.768,24-24,24 S16,229.232,16,216z M52.968,253.656c14.264-4.936,24.776-17.616,26.568-33.064L160,166.944V184c0,4.416,3.576,8,8,8h62.776 l-5.816,40.712c-17.416,3.12-30.792,17.528-32.56,35.368l-69.488,62.536c-7.232-14.456-21.512-24.784-38.336-26.384 L52.968,253.656z M80,320c17.648,0,32,14.352,32,32s-14.352,32-32,32s-32-14.352-32-32S62.352,320,80,320z M144,464H16v-24 c0-22.056,17.944-40,40-40h48c22.056,0,40,17.944,40,40V464z M158.288,426.512c-5.216-20.968-22.216-37.296-43.576-41.456 C122.928,376.44,128,364.816,128,352c0-1.432-0.088-2.84-0.216-4.248l67.256-60.536C201.048,301.744,215.336,312,232,312 c16.736,0,31.064-10.36,37.016-24.984l45.68,39.968L158.288,426.512z M360.808,432H179.472L320,342.576V360c0,4.416,3.576,8,8,8 h64v32.808C376.352,404,364,416.352,360.808,432z M424,440c0,13.232-10.768,24-24,24s-24-10.768-24-24s10.768-24,24-24 S424,426.768,424,440z M464,352H336v-24c0-22.056,17.944-40,40-40h48c22.056,0,40,17.944,40,40V352z"/></symbol><symbol id="sitemap-cat" viewBox="0 0 480 480"><title>sitemap-cat</title><path d="M432,256c26.912,0,48-14.056,48-32c0-17.944-21.088-32-48-32s-48,14.056-48,32c0,10.264,6.92,19.24,17.864,25.056 l-27.32,21.856C363.952,266.56,350.736,264,336,264c-0.176,0-0.336,0.016-0.512,0.016l-6.968-104.528 C351.224,156.872,368,144,368,128c0-5.36-1.912-10.36-5.272-14.752l57.408-50.232C423.928,63.632,427.88,64,432,64 c26.912,0,48-14.056,48-32c0-17.944-21.088-32-48-32s-48,14.056-48,32c0,10.416,7.136,19.496,18.36,25.304l-52.176,45.656 C341.984,98.6,331.536,96,320,96c-26.912,0-48,14.056-48,32c0,16.232,17.272,29.24,40.488,31.584l7.04,105.568 c-19.944,2.776-35.608,10.52-42.936,21.016L159.84,242.384c0.056-0.784,0.16-1.576,0.16-2.384 c0-10.416-5.352-19.744-14.168-26.792l35.536-85.296c0.88,0.032,1.744,0.088,2.632,0.088c26.912,0,48-14.056,48-32 c0-17.944-21.088-32-48-32c-11.84,0-22.544,2.728-30.832,7.296L95.736,35.4C95.904,34.288,96,33.152,96,32 C96,14.056,74.912,0,48,0S0,14.056,0,32c0,16.664,18.192,29.952,42.336,31.768l50.472,137.008C66.952,204.384,48,220.312,48,240 c0,17.744,15.416,32.4,37.392,37.776L58.36,352.128C28.496,353.344,0,364.232,0,384c0,21.008,32.192,32,64,32s64-10.992,64-32 c0-18.52-25.032-29.248-52.752-31.528l26.384-72.552c0.792,0.016,1.568,0.08,2.368,0.08c22.56,0,41.552-9.096,50.488-22.52 l117.648,44.12c0.528,7.384,4.616,14.064,11.432,19.528l-59.208,59.208C217.248,377.584,208.96,376,200,376 c-26.912,0-48,14.056-48,32c0,17.944,21.088,32,48,32s48-14.056,48-32c0-7.288-3.52-13.912-9.456-19.232L298,329.312 c10.496,4.224,23.52,6.688,38,6.688c1.408,0,2.776-0.064,4.152-0.112l69.696,83.632C394.384,424.776,384,435.424,384,448 c0,17.944,21.088,32,48,32s48-14.056,48-32c0-17.944-21.088-32-48-32c-1.4,0-2.768,0.064-4.136,0.136l-68.696-82.432 C383.504,328.688,400,315.872,400,300c0-7.704-3.88-14.696-10.656-20.424l30.712-24.568C423.872,255.632,427.856,256,432,256z M400,32c0-7.552,13.688-16,32-16s32,8.448,32,16s-13.688,16-32,16S400,39.552,400,32z M112,384c0,5.64-18.224,16-48,16 s-48-10.36-48-16s18.224-16,48-16S112,378.36,112,384z M184,80c18.312,0,32,8.448,32,16s-13.688,16-32,16s-32-8.448-32-16 S165.688,80,184,80z M16,32c0-7.552,13.688-16,32-16s32,8.448,32,16S66.312,48,48,48S16,39.552,16,32z M59.152,63.136 c12.248-1.88,22.552-6.776,29.12-13.528l52.272,32.664C137.648,86.416,136,91.048,136,96c0,13.432,11.816,24.68,29.048,29.496 l-33.2,79.672c-6.632-2.664-14.128-4.416-22.2-4.968L59.152,63.136z M104,264c-21.68,0-40-10.992-40-24s18.32-24,40-24 s40,10.992,40,24S125.68,264,104,264z M200,424c-18.312,0-32-8.448-32-16s13.688-16,32-16s32,8.448,32,16S218.312,424,200,424z M432,432c18.312,0,32,8.448,32,16s-13.688,16-32,16s-32-8.448-32-16S413.688,432,432,432z M288,128c0-7.552,13.688-16,32-16 s32,8.448,32,16s-13.688,16-32,16S288,135.552,288,128z M336,320c-29.744,0-48-11.648-48-20s18.256-20,48-20 c29.744,0,48,11.648,48,20S365.744,320,336,320z M400,224c0-7.552,13.688-16,32-16s32,8.448,32,16s-13.688,16-32,16 S400,231.552,400,224z"/></symbol><symbol id="analytics-cat" viewBox="0 0 480 480"><title>analytics-cat</title><g> <g> <path d="M336,0c-79.4,0-144,64.6-144,144s64.6,144,144,144s144-64.6,144-144S415.4,0,336,0z M336,272 c-70.576,0-128-57.424-128-128S265.424,16,336,16s128,57.424,128,128S406.576,272,336,272z"/> </g> </g><g> <g> <path d="M104,272C46.656,272,0,318.656,0,376s46.656,104,104,104s104-46.656,104-104S161.344,272,104,272z M104,464 c-48.52,0-88-39.48-88-88c0-48.52,39.48-88,88-88s88,39.48,88,88C192,424.52,152.52,464,104,464z"/> </g> </g><g> <g> <path d="M352,320c-44.112,0-80,35.888-80,80s35.888,80,80,80s80-35.888,80-80S396.112,320,352,320z M352,464 c-35.288,0-64-28.712-64-64c0-35.288,28.712-64,64-64c35.288,0,64,28.712,64,64C416,435.288,387.288,464,352,464z"/> </g> </g><g> <g> <path d="M104,160c-26.472,0-48,21.528-48,48s21.528,48,48,48s48-21.528,48-48S130.472,160,104,160z M104,240 c-17.648,0-32-14.352-32-32s14.352-32,32-32s32,14.352,32,32S121.648,240,104,240z"/> </g> </g><g> <g> <path d="M96,0C78.352,0,64,14.352,64,32s14.352,32,32,32s32-14.352,32-32S113.648,0,96,0z M96,48c-8.824,0-16-7.176-16-16 s7.176-16,16-16s16,7.176,16,16S104.824,48,96,48z"/> </g> </g><g> <g> <path d="M456,264c-13.232,0-24,10.768-24,24s10.768,24,24,24s24-10.768,24-24S469.232,264,456,264z M456,296c-4.416,0-8-3.592-8-8 c0-4.408,3.584-8,8-8c4.416,0,8,3.592,8,8C464,292.408,460.416,296,456,296z"/> </g> </g></symbol><symbol id="infographic-cat" viewBox="0 0 480 480"><title>infographic-cat</title><path d="M472,144h-48v-24c0-4.424-3.584-8-8-8H305.888L248,83.056V64h40c17.648,0,32-14.352,32-32S305.648,0,288,0h-96 c-17.648,0-32,14.352-32,32s14.352,32,32,32h40v19.056L174.112,112H8c-4.416,0-8,3.576-8,8v168c0,4.424,3.584,8,8,8h168v16 c0,4.424,3.584,8,8,8h48v16h-40c-2.672,0-5.168,1.336-6.656,3.56l-32,48c-1.64,2.456-1.792,5.608-0.4,8.208 c1.392,2.608,4.104,4.232,7.056,4.232h72v16h-40c-17.648,0-32,14.352-32,32s14.352,32,32,32h96c17.648,0,32-14.352,32-32 s-14.352-32-32-32h-40v-16h40c2.672,0,5.168-1.336,6.656-3.56l32-48c1.64-2.456,1.792-5.608,0.4-8.208 C325.664,337.624,322.952,336,320,336h-72v-16h48c4.416,0,8-3.576,8-8v-48c0-4.424-3.584-8-8-8h-48v-16h168c4.416,0,8-3.576,8-8 v-24h48c4.416,0,8-3.576,8-8v-48C480,147.576,476.416,144,472,144z M192,48c-8.824,0-16-7.176-16-16s7.176-16,16-16h96 c8.824,0,16,7.176,16,16s-7.176,16-16,16H192z M176,264v16H16V128h158.112L232,156.944V256h-48C179.584,256,176,259.576,176,264z M288,432c8.824,0,16,7.176,16,16c0,8.824-7.176,16-16,16h-96c-8.824,0-16-7.176-16-16c0-8.824,7.176-16,16-16H288z M305.056,352 l-21.336,32H174.952l21.336-32H305.056z M288,272v32h-96v-32H288z M240,143.056L193.888,120L240,96.944L286.112,120L240,143.056z M408,224H248v-67.056L305.888,128H408v16h-48c-4.416,0-8,3.576-8,8v48c0,4.424,3.584,8,8,8h48V224z M464,192h-96v-32h96V192z"/></symbol><symbol id="visualization-of-data-cat" viewBox="0 0 140.587 140.586"><title>visualization-of-data-cat</title><path d="M41.389,63.376h9.791c2.119,0,3.86-1.742,3.86-3.854v-9.794c0-2.113-1.741-3.854-3.86-3.854h-9.791 c-2.125,0-3.852,1.732-3.852,3.854v9.794C37.537,61.634,39.263,63.376,41.389,63.376z"/><path d="M71.612,51.965h11.807c2.558,0,4.64-2.088,4.64-4.64V35.521c0-2.554-2.082-4.637-4.64-4.637H71.612 c-2.552,0-4.64,2.083-4.64,4.637v11.804C66.972,49.876,69.061,51.965,71.612,51.965z"/><path d="M80.387,91.605h-11.81c-2.551,0-4.64,2.083-4.64,4.641v11.807c0,2.539,2.089,4.634,4.64,4.634h11.81 c2.545,0,4.64-2.095,4.64-4.634V96.246C85.026,93.7,82.932,91.605,80.387,91.605z"/><path d="M100.821,81.308V67.011c0-3.093-2.521-5.623-5.614-5.623H80.91c-3.087,0-5.62,2.53-5.62,5.623v14.297 c0,3.088,2.533,5.621,5.62,5.621h14.297C98.295,86.929,100.821,84.396,100.821,81.308z"/><path d="M97.339,20.009h6.649c1.431,0,2.618-1.179,2.618-2.612V10.75c0-1.434-1.182-2.612-2.618-2.612h-6.649 c-1.425,0-2.612,1.178-2.612,2.612v6.646C94.727,18.831,95.914,20.009,97.339,20.009z"/><path d="M121.123,70.284h-6.649c-1.438,0-2.612,1.178-2.612,2.619v6.646c0,1.438,1.175,2.619,2.612,2.619h6.649 c1.431,0,2.606-1.17,2.606-2.619v-6.646C123.729,71.462,122.56,70.284,121.123,70.284z"/><path d="M66.75,77.527c1.202,0,2.207-0.998,2.207-2.204v-5.617c0-1.218-1.005-2.21-2.207-2.21h-5.626 c-0.11,0-0.167,0.106-0.292,0.128V21.355L17.677,0H5.66v140.586h12.017l43.154-53.39v-9.779c0.125,0.012,0.183,0.122,0.292,0.122 h5.626V77.527z M55.494,85.296l-32.479,40.177V8.585l32.479,16.076V85.296z"/><path d="M106.789,91.605h-5.626c-1.206,0-2.205,0.999-2.205,2.211v5.607c0,1.219,0.993,2.217,2.205,2.217h5.613 c1.212,0,2.211-0.998,2.211-2.217v-5.607C108.993,92.604,107.995,91.605,106.789,91.605z"/><path d="M127.383,27.143h-19.175c-4.146,0-7.532,3.392-7.532,7.539V53.85c0,4.137,3.386,7.539,7.532,7.539h19.175 c4.152,0,7.544-3.401,7.544-7.539V34.681C134.927,30.534,131.535,27.143,127.383,27.143z"/></symbol><symbol id="worker-cat" viewBox="0 0 512 512"><title>worker-cat</title><path d="M482.358,0H105.095c-4.465,0-8.084,3.619-8.084,8.084s3.62,8.084,8.084,8.084h377.263c7.43,0,13.474,6.044,13.474,13.474 v261.389h-45.81c-4.465,0-8.084,3.619-8.084,8.084c0,4.466,3.62,8.084,8.084,8.084h45.81v78.147 c0,4.796-2.584,9.271-6.742,11.676c-3.864,2.236-5.186,7.181-2.95,11.046c1.498,2.589,4.213,4.037,7.005,4.037 c1.373,0,2.766-0.35,4.041-1.088c9.137-5.286,14.815-15.123,14.815-25.671V29.642C512,13.298,498.703,0,482.358,0z"/><path d="M420.379,353.01c0,16.344,13.297,29.642,29.642,29.642s29.642-13.298,29.642-29.642 c0-16.344-13.297-29.642-29.642-29.642S420.379,336.666,420.379,353.01z M450.021,339.537c7.43,0,13.474,6.044,13.474,13.474 s-6.044,13.474-13.474,13.474s-13.474-6.044-13.474-13.474S442.591,339.537,450.021,339.537z"/><path d="M177.853,406.905c0-4.466-3.62-8.084-8.084-8.084H29.642c-7.43,0-13.474-6.044-13.474-13.474V307.2h196.716 c4.465,0,8.084-3.618,8.084-8.084c0-4.466-3.62-8.084-8.084-8.084H16.168V29.642c0-7.43,6.044-13.474,13.474-13.474h43.116 c4.465,0,8.084-3.619,8.084-8.084S77.223,0,72.758,0H29.642C13.297,0,0,13.298,0,29.642v355.705 c0,16.344,13.297,29.642,29.642,29.642h140.126C174.233,414.989,177.853,411.371,177.853,406.905z"/><path d="M453.953,400.724l-71.302-21.391v-25.285c5.782-2.746,11.217-6.263,16.143-10.489 c13.183-11.309,21.896-26.992,24.537-44.158l8.985-58.407c8.768-3.359,15.009-11.862,15.009-21.796 c0-6.231-2.426-12.089-6.832-16.495c0,0,0,0,0-0.001l-15.744-15.743l-11.127-33.382c-6.435-19.303-23.528-32.768-43.452-34.755 c-2.979-6.503-9.551-11.032-17.16-11.032h-43.116c-7.609,0-14.18,4.529-17.16,11.032c-19.924,1.987-37.017,15.452-43.452,34.755 l-11.127,33.382l-15.744,15.743c-4.406,4.406-6.833,10.265-6.833,16.496c0,9.934,6.241,18.438,15.009,21.796l8.985,58.407 c2.641,17.167,11.356,32.849,24.537,44.158c4.926,4.225,10.361,7.741,16.143,10.489v25.285l-71.302,21.391 c-21.824,6.547-36.488,26.255-36.488,49.041v43.372c0,10.401,8.463,18.863,18.863,18.863h194.021 c4.465,0,8.084-3.618,8.084-8.084c0-4.466-3.62-8.084-8.084-8.084H258.695v-24.253c0-4.466-3.62-8.084-8.084-8.084 s-8.084,3.618-8.084,8.084v24.253h-51.2c-1.485,0-2.695-1.208-2.695-2.695v-43.372c0-15.59,10.033-29.075,24.965-33.555 l75.926-22.778h83.859l75.927,22.778c14.932,4.48,24.965,17.965,24.965,33.555v43.372c0,1.486-1.209,2.695-2.695,2.695h-51.2 v-24.253c0-4.466-3.62-8.084-8.084-8.084s-8.084,3.618-8.084,8.084v32.337c0,4.466,3.62,8.084,8.084,8.084h59.284 c10.401,0,18.863-8.463,18.863-18.863v-43.372C490.442,426.979,475.778,407.271,453.953,400.724z M238.908,226.357 c-3.948,0-7.159-3.212-7.159-7.16c0-1.912,0.745-3.71,2.096-5.062l17.093-17.092c0.887-0.888,1.557-1.97,1.953-3.16 l11.731-35.192c4.041-12.123,14.224-20.88,26.411-23.287v34.365c0,4.466,3.62,8.084,8.084,8.084c4.465,0,8.084-3.619,8.084-8.084 v-43.116c0-1.486,1.209-2.695,2.695-2.695h43.116c1.485,0,2.695,1.208,2.695,2.695v43.116c0,4.466,3.62,8.084,8.084,8.084 s8.084-3.619,8.084-8.084v-34.364c12.187,2.407,22.368,11.164,26.409,23.287l11.731,35.192c0.397,1.191,1.066,2.273,1.953,3.16 l17.092,17.091c1.333,1.333,2.098,3.179,2.098,5.063c0,3.949-3.211,7.16-7.159,7.16v-0.001H238.908z M351.422,361.095 c5.093,0,10.142-0.536,15.064-1.578v17.746h-70.063v-17.746c4.922,1.042,9.969,1.578,15.064,1.578h9.189 c4.465,0,8.084-3.618,8.084-8.084c0-4.466-3.62-8.084-8.084-8.084h-9.189c-28.132,0-51.655-20.181-55.932-47.986l-8.372-54.414 h168.542l-8.371,54.414c-4.278,27.804-27.8,47.986-55.932,47.986c-4.465,0-8.084,3.618-8.084,8.084 C343.336,357.476,346.956,361.095,351.422,361.095z"/><path d="M61.979,323.368c-16.345,0-29.642,13.298-29.642,29.642c0,16.344,13.297,29.642,29.642,29.642h75.453 c16.345,0,29.642-13.298,29.642-29.642c0-16.344-13.297-29.642-29.642-29.642H61.979z M150.905,353.01 c0,7.43-6.044,13.474-13.474,13.474H61.979c-7.43,0-13.474-6.044-13.474-13.474s6.044-13.474,13.474-13.474h75.453 C144.861,339.537,150.905,345.581,150.905,353.01z"/><path d="M153.6,43.116H78.147c-7.43,0-13.474,6.044-13.474,13.474v32.337c0,7.43,6.044,13.474,13.474,13.474h29.642v19.257 l-35.665,17.833c-4.596,2.296-7.45,6.915-7.45,12.052v4.118c0,5.137,2.854,9.756,7.448,12.051l35.668,17.834V204.8H78.147 c-7.43,0-13.474,6.044-13.474,13.474v32.337c0,7.43,6.044,13.474,13.474,13.474H153.6c7.43,0,13.474-6.044,13.474-13.474v-8.084 h24.253c4.465,0,8.084-3.618,8.084-8.084c0-4.466-3.62-8.084-8.084-8.084h-24.253v-8.084c0-7.43-6.044-13.474-13.474-13.474 h-29.642v-19.257l35.665-17.833c4.596-2.296,7.45-6.915,7.45-12.052v-4.118c0-5.137-2.854-9.756-7.448-12.051l-35.668-17.834 V102.4H153.6c7.43,0,13.474-6.044,13.474-13.474v-8.084h264.084v78.147c0,4.466,3.62,8.084,8.084,8.084 c4.465,0,8.084-3.618,8.084-8.084V72.758c0-4.466-3.62-8.084-8.084-8.084H167.074v-8.084 C167.074,49.16,161.03,43.116,153.6,43.116z M150.905,220.968v26.947H80.842v-26.947H150.905z M150.905,153.208v0.786 l-35.032,17.516l-35.032-17.516v-0.786l35.032-17.516L150.905,153.208z M150.905,86.232h-35.032H80.842V59.284h70.063V86.232z"/><path d="M183.242,353.01c0,16.344,13.297,29.642,29.642,29.642s29.642-13.298,29.642-29.642 c0-16.344-13.297-29.642-29.642-29.642S183.242,336.666,183.242,353.01z M226.358,353.01c0,7.43-6.044,13.474-13.474,13.474 s-13.474-6.044-13.474-13.474s6.044-13.474,13.474-13.474S226.358,345.581,226.358,353.01z"/></symbol><symbol id="artificial-intelligence-cat-2" viewBox="0 0 496 496"><title>artificial-intelligence-cat-2</title><path style="fill:#FFCB57;" d="M338.512,327.432l-33.944-33.944L285.92,304.68c-2.808-1.344-5.688-2.544-8.648-3.584L272,280h-48 l-5.272,21.096c-2.96,1.048-5.84,2.248-8.648,3.584l-18.648-11.192l-33.944,33.944l11.192,18.648 c-1.344,2.808-2.544,5.688-3.584,8.648L144,360v48l21.096,5.272c1.048,2.96,2.248,5.84,3.584,8.648l-11.192,18.648l33.944,33.944 l18.648-11.192c2.808,1.344,5.688,2.544,8.648,3.584L224,488h48l5.272-21.096c2.96-1.048,5.84-2.248,8.648-3.584l18.648,11.192 l33.944-33.944L327.32,421.92c1.344-2.808,2.544-5.688,3.584-8.648L352,408v-48l-21.096-5.272c-1.048-2.96-2.248-5.84-3.584-8.648 L338.512,327.432z"/><g> <rect x="312" y="120" style="fill:#E56565;" width="16" height="40"/> <polygon style="fill:#E56565;" points="389.656,197.656 378.344,186.344 400,164.688 400,64 416,64 416,171.312 "/> <polygon style="fill:#E56565;" points="453.656,245.656 442.344,234.344 464,212.688 464,128 480,128 480,219.312 "/> <path style="fill:#E56565;" d="M320,104c-13.232,0-24-10.768-24-24s10.768-24,24-24s24,10.768,24,24S333.232,104,320,104z M320,72 c-4.416,0-8,3.584-8,8s3.584,8,8,8s8-3.584,8-8S324.416,72,320,72z"/> <rect x="240" y="64" style="fill:#E56565;" width="16" height="88"/> <path style="fill:#E56565;" d="M248,48c-13.232,0-24-10.768-24-24s10.768-24,24-24s24,10.768,24,24S261.232,48,248,48z M248,16 c-4.416,0-8,3.584-8,8s3.584,8,8,8c4.416,0,8-3.584,8-8S252.416,16,248,16z"/> <path style="fill:#E56565;" d="M408,48c-13.232,0-24-10.768-24-24s10.768-24,24-24s24,10.768,24,24S421.232,48,408,48z M408,16 c-4.416,0-8,3.584-8,8s3.584,8,8,8s8-3.584,8-8S412.416,16,408,16z"/> <path style="fill:#E56565;" d="M472,112c-13.232,0-24-10.768-24-24s10.768-24,24-24s24,10.768,24,24S485.232,112,472,112z M472,80 c-4.416,0-8,3.584-8,8s3.584,8,8,8s8-3.584,8-8S476.416,80,472,80z"/> <rect x="168" y="120" style="fill:#E56565;" width="16" height="48"/> <polygon style="fill:#E56565;" points="106.344,197.656 80,171.312 80,64 96,64 96,164.688 117.656,186.344 "/> <polygon style="fill:#E56565;" points="58.344,261.656 16,219.312 16,128 32,128 32,212.688 69.656,250.344 "/> <path style="fill:#E56565;" d="M176,104c-13.232,0-24-10.768-24-24s10.768-24,24-24s24,10.768,24,24S189.232,104,176,104z M176,72 c-4.416,0-8,3.584-8,8s3.584,8,8,8s8-3.584,8-8S180.416,72,176,72z"/> <path style="fill:#E56565;" d="M88,48c-13.232,0-24-10.768-24-24S74.768,0,88,0s24,10.768,24,24S101.232,48,88,48z M88,16 c-4.416,0-8,3.584-8,8s3.584,8,8,8s8-3.584,8-8S92.416,16,88,16z"/> <path style="fill:#E56565;" d="M24,112c-13.232,0-24-10.768-24-24s10.768-24,24-24s24,10.768,24,24S37.232,112,24,112z M24,80 c-4.416,0-8,3.584-8,8s3.584,8,8,8s8-3.584,8-8S28.416,80,24,80z"/> </g><g> <path style="fill:#3F3A34;" d="M216,384c0,17.648,14.352,32,32,32s32-14.352,32-32s-14.352-32-32-32S216,366.352,216,384z M264,384 c0,8.824-7.176,16-16,16s-16-7.176-16-16s7.176-16,16-16S264,375.176,264,384z"/> <path style="fill:#3F3A34;" d="M334.536,342.632l-14.44,6.888c1.216,2.56,2.312,5.176,3.264,7.864l1.432,4.056l19.2,4.808v35.504 l-19.2,4.808l-1.432,4.056c-0.952,2.688-2.04,5.296-3.256,7.848l-1.856,3.872l10.184,16.992L303.32,464.44l-16.976-10.184 l-3.872,1.848c-2.56,1.216-5.176,2.312-7.864,3.264l-4.056,1.432l-4.8,19.2h-35.504l-4.808-19.2l-4.056-1.432 c-2.688-0.952-5.304-2.048-7.864-3.264l-3.872-1.848l-16.976,10.184l-29.52-29.52l-11.312,11.312l38.352,38.352l20.424-12.248 c0.456,0.192,0.912,0.384,1.368,0.568L217.752,496h60.496l5.776-23.104c0.456-0.184,0.912-0.376,1.368-0.568l20.424,12.248 l42.768-42.768l-12.24-20.424c0.184-0.464,0.376-0.912,0.56-1.368L360,414.248v-60.496l-23.104-5.776 C336.168,346.168,335.376,344.384,334.536,342.632z"/> <path style="fill:#3F3A34;" d="M136,353.752v60.496l23.104,5.776c0.736,1.808,1.52,3.592,2.368,5.344l14.424-6.904 c-1.216-2.552-2.304-5.168-3.256-7.848l-1.44-4.064l-19.2-4.8v-35.504l19.2-4.808l1.432-4.056c0.952-2.688,2.048-5.304,3.264-7.864 l1.848-3.872l-10.184-16.976l25.112-25.112l16.976,10.184l3.872-1.848c2.56-1.216,5.176-2.312,7.864-3.264l4.056-1.432l4.808-19.2 h35.504l4.808,19.2l4.056,1.432c2.688,0.952,5.304,2.048,7.864,3.264l3.872,1.848l16.976-10.184l29.52,29.52l11.312-11.312 l-38.352-38.352l-20.424,12.248c-0.456-0.192-0.912-0.384-1.368-0.568L278.248,272h-60.496l-5.776,23.104 c-0.456,0.184-0.912,0.376-1.368,0.568l-20.424-12.248l-42.768,42.768l12.248,20.424c-0.192,0.456-0.384,0.912-0.568,1.368 L136,353.752z"/> <path style="fill:#3F3A34;" d="M463.952,304.632C463.96,304.424,464,304.208,464,304c0-34.768-27.88-63.088-62.448-63.92 c-6.416-11.096-17.128-19.368-29.856-22.576C362.392,192.912,338.584,176,312,176c-9.88,0-19.616,2.312-28.472,6.736 C271.016,173.192,255.768,168,240,168c-18.44,0-36.088,7.136-49.4,19.688c-7.12-2.36-14.704-3.688-22.6-3.688 c-35.552,0-65.728,26.08-71.096,60.976c-14.656,6.608-26,19.344-30.632,35.32C29.248,283.224,0,314.232,0,352 c0,39.704,32.296,72,72,72h48v-16H72c-30.872,0-56-25.128-56-56s25.128-56,56-56c17.096,0,33.032,7.664,43.736,21.016l12.488-10 c-11.416-14.256-27.496-23.36-45.192-26.072C89.024,266.12,103.376,256,120,256c14.224,0,27.504,7.664,34.648,19.992l13.84-8.016 C158.496,250.72,139.912,240,120,240c-1.936,0-3.84,0.12-5.728,0.312C121.112,216.824,142.816,200,168,200 c30.872,0,56,25.128,56,56h16c0-25.568-13.432-48.008-33.576-60.784C216.04,188.008,227.8,184,240,184 c13.744,0,26.992,5.096,37.312,14.336l4.456,3.984l5.088-3.144C294.464,194.488,303.16,192,312,192 c17.432,0,33.272,9.72,41.664,24.464C330.184,219.584,312,239.68,312,264h16c0-17.648,14.352-32,32-32s32,14.352,32,32 s-14.352,32-32,32v16c26.472,0,48-21.528,48-48c0-2.512-0.256-4.96-0.624-7.376c21.016,3.264,37.544,20.168,40.208,41.376 c-5-1.256-10.2-2-15.584-2c-22.648,0-43.16,11.592-54.848,31.016l13.704,8.248C399.624,320.696,415.008,312,432,312 c26.472,0,48,21.528,48,48s-21.528,48-48,48h-56v16h56c35.288,0,64-28.712,64-64C496,336.352,483.08,315.712,463.952,304.632z"/> <rect x="424" y="360" style="fill:#3F3A34;" width="16" height="16"/> <path style="fill:#3F3A34;" d="M240,320v0.552c-31.52,3.96-56,30.872-56,63.448c0,35.288,28.712,64,64,64 c32.576,0,59.488-24.48,63.448-56H312v-16h-0.552c-3.624-28.896-26.552-51.816-55.448-55.448V320H240z M296,384 c0,26.472-21.528,48-48,48s-48-21.528-48-48s21.528-48,48-48S296,357.528,296,384z"/> <rect x="64" y="368" style="fill:#3F3A34;" width="16" height="16"/> <rect x="184" y="232" style="fill:#3F3A34;" width="16" height="16"/> <rect x="280" y="224" style="fill:#3F3A34;" width="16" height="16"/> </g></symbol><symbol id="ai-cat" viewBox="0 0 512 512"><title>ai-cat</title><g> <g> <path d="M445.71,399.5c-1.87-1.87-4.44-2.931-7.08-2.931c-2.63,0-5.21,1.061-7.07,2.931c-1.86,1.859-2.93,4.43-2.93,7.069 c0,2.631,1.07,5.211,2.93,7.07c1.86,1.86,4.44,2.93,7.07,2.93s5.21-1.069,7.08-2.93c1.86-1.859,2.92-4.439,2.92-7.07 C448.63,403.929,447.57,401.359,445.71,399.5z"/> </g> </g><g> <g> <path d="M473.991,54c-20.958,0-38.009,17.051-38.009,38.009v162.966l-27.855,27.854c-1.357-3.787-3.384-7.385-6.108-10.596 c-6.244-7.361-15.356-11.809-25.001-12.204c-9.643-0.407-19.09,3.294-25.916,10.118l-69.26,69.261 c-1.875,1.876-2.929,4.419-2.929,7.071V458c0,5.522,4.477,10,10,10h9.586v34c0,5.522,4.477,10,10,10s10-4.478,10-10v-34h24.19v34 c0,5.522,4.477,10,10,10s10-4.478,10-10v-34h23.81v34c0,5.522,4.477,10,10,10s10-4.478,10-10v-34h6.026 c3.766,0,7.212-2.115,8.917-5.474l8.598-16.938c2.5-4.925,0.534-10.943-4.391-13.443c-4.924-2.501-10.943-0.535-13.443,4.391 L406.387,448h-36.93l41.738-77.275c4.869-9.016,14.26-14.616,24.507-14.616h17.33l-6.107,12.031 c-2.5,4.925-0.534,10.943,4.391,13.443c4.924,2.498,10.942,0.534,13.443-4.391l46.158-90.933c0.712-1.402,1.083-2.953,1.083-4.526 V92.009C512,71.051,494.949,54,473.991,54z M492,279.341l-28.816,56.768h-27.483c-17.605,0-33.738,9.622-42.104,25.112 L346.726,448h-47.812v-97.378l28.283-28.283l5.898,5.899c1.953,1.952,4.512,2.929,7.071,2.929s5.118-0.977,7.071-2.929 c3.905-3.905,3.906-10.236,0-14.142l-5.899-5.9l23.907-23.907c2.928-2.928,6.82-4.44,10.955-4.277 c4.137,0.169,7.89,2.001,10.568,5.159c4.895,5.769,4.538,14.479-0.813,19.829l-55.295,55.295 c-1.875,1.876-2.929,4.419-2.929,7.071v25.279c0,5.522,4.477,10,10,10s10-4.478,10-10V371.51l52.366-52.366l52.955-52.955 c1.875-1.876,2.929-4.419,2.929-7.071v-8.784H473c5.523,0,10-4.478,10-10c0-5.522-4.477-10-10-10h-17.018v-62H473 c5.523,0,10-4.478,10-10c0-5.522-4.477-10-10-10h-17.018V92.009c0-9.93,8.079-18.009,18.009-18.009S492,82.079,492,92.009V279.341 z"/> </g> </g><g> <g> <path d="M297.079,88.202c-5.523,0-10,4.478-10,10v63.596c0,5.522,4.477,10,10,10s10-4.478,10-10V98.202 C307.079,92.68,302.602,88.202,297.079,88.202z"/> </g> </g><g> <g> <path d="M272.51,158.252l-24.12-63.596c-1.474-3.885-5.195-6.454-9.35-6.454c-4.155,0-7.876,2.569-9.35,6.454l-24.12,63.596 c-1.958,5.164,0.64,10.938,5.804,12.896c5.165,1.96,10.939-0.639,12.897-5.804l2.655-7.001h24.229l2.655,7.001 c1.516,3.997,5.316,6.457,9.352,6.457c1.178,0,2.377-0.21,3.544-0.653C271.87,169.19,274.468,163.417,272.51,158.252z M234.513,138.343l4.529-11.941l4.529,11.941H234.513z"/> </g> </g><g> <g> <path d="M376,140c5.523,0,10-4.478,10-10c0-5.522-4.477-10-10-10h-30v-20h30c5.523,0,10-4.478,10-10c0-5.522-4.477-10-10-10h-30 V67c0-14.888-12.112-27-27-27h-13V10c0-5.522-4.477-10-10-10s-10,4.478-10,10v30h-20V10c0-5.522-4.477-10-10-10s-10,4.478-10,10 v30h-20V10c0-5.522-4.477-10-10-10s-10,4.478-10,10v30h-13c-14.888,0-27,12.112-27,27v13h-30c-5.523,0-10,4.478-10,10 c0,5.522,4.477,10,10,10h30v20h-30c-5.523,0-10,4.478-10,10c0,5.522,4.477,10,10,10h30v20h-30c-5.523,0-10,4.478-10,10 c0,5.522,4.477,10,10,10h30v13c0,14.888,12.112,27,27,27h13v30c0,5.522,4.477,10,10,10s10-4.478,10-10v-30h20v30 c0,5.522,4.477,10,10,10s10-4.478,10-10v-30h20v30c0,5.522,4.477,10,10,10s10-4.478,10-10v-30h13c14.888,0,27-12.112,27-27v-13h30 c5.523,0,10-4.478,10-10c0-5.522-4.477-10-10-10h-30v-20H376z M326,193c0,3.859-3.14,7-7,7H193c-3.86,0-7-3.141-7-7V67 c0-3.859,3.14-7,7-7h126c3.86,0,7,3.141,7,7V193z"/> </g> </g><g> <g> <path d="M230.158,339.408l-69.261-69.261c-6.826-6.825-16.262-10.515-25.916-10.118c-9.645,0.396-18.757,4.843-25.001,12.203 c-2.724,3.211-4.752,6.81-6.108,10.597l-27.854-27.854V92.009C76.018,71.051,58.967,54,38.009,54C17.051,54,0,71.051,0,92.009 v189.725c0,1.573,0.371,3.124,1.083,4.526l46.158,90.933c2.5,4.926,8.521,6.893,13.443,4.391c4.925-2.5,6.891-8.519,4.391-13.443 l-6.107-12.031h17.33c10.247,0,19.638,5.601,24.507,14.616L142.543,448h-36.93l-5.819-11.464c-2.5-4.925-8.519-6.89-13.443-4.391 c-4.925,2.5-6.891,8.519-4.391,13.443l8.598,16.938c1.705,3.358,5.151,5.474,8.917,5.474h6.026v34c0,5.522,4.477,10,10,10 c5.523,0,10-4.478,10-10v-34h23.81v34c0,5.522,4.477,10,10,10c5.523,0,10-4.478,10-10v-34h24.19v34c0,5.522,4.477,10,10,10 c5.523,0,10-4.478,10-10v-34h9.586c5.523,0,10-4.478,10-10V346.479C233.087,343.827,232.033,341.284,230.158,339.408z M213.085,448h-47.812l-46.87-86.779c-8.366-15.49-24.5-25.112-42.104-25.112H48.816L20,279.341V92.009 C20,82.079,28.079,74,38.009,74c9.93,0,18.009,8.079,18.009,18.009v56.324H40.725c-5.523,0-10,4.478-10,10c0,5.522,4.477,10,10,10 h15.293v62H40.725c-5.523,0-10,4.478-10,10c0,5.522,4.477,10,10,10h15.293v8.784c0,2.652,1.054,5.195,2.929,7.071l52.955,52.955 l52.366,52.366v21.137c0,5.522,4.477,10,10,10s10-4.478,10-10v-25.279c0-2.652-1.054-5.195-2.929-7.071l-55.295-55.295 c-5.35-5.35-5.707-14.061-0.813-19.83c2.679-3.157,6.432-4.989,10.568-5.158c4.132-0.178,8.027,1.35,10.955,4.277l24.769,24.769 l-5.036,5.037c-3.905,3.905-3.905,10.237,0,14.143c1.953,1.952,4.512,2.929,7.071,2.929c2.559,0,5.119-0.977,7.071-2.929 l5.036-5.037l27.42,27.42V448z"/> </g> </g><g> <g> <path d="M80.44,399.5c-1.86-1.87-4.44-2.931-7.07-2.931c-2.64,0-5.21,1.061-7.08,2.931c-1.86,1.859-2.92,4.43-2.92,7.069 c0,2.631,1.06,5.211,2.92,7.07c1.87,1.86,4.45,2.93,7.08,2.93s5.2-1.069,7.07-2.93c1.86-1.859,2.93-4.439,2.93-7.07 C83.37,403.93,82.3,401.359,80.44,399.5z"/> </g> </g></symbol><symbol id="artificial-intelligence-cat-1" viewBox="0 0 496.008 496.008"><title>artificial-intelligence-cat-1</title><path d="M496.004,152c0-13.232-10.768-24-24-24c-2.752,0-5.36,0.56-7.824,1.416l-35.848-44.808 c2.288-3.672,3.672-7.968,3.672-12.608c0-13.232-10.768-24-24-24c-6.728,0-12.792,2.8-17.152,7.264L327.788,26.16 c0.064-0.72,0.216-1.416,0.216-2.16c0-13.232-10.768-24-24-24c-10.416,0-19.216,6.712-22.528,16h-90.944 C187.22,6.712,178.42,0,168.004,0c-13.232,0-24,10.768-24,24c0,0.992,0.176,1.944,0.296,2.912l-39.68,19.84 C100.3,42.592,94.46,40,88.004,40c-13.232,0-24,10.768-24,24c0,4.64,1.384,8.936,3.672,12.608l-35.848,44.808 C29.364,120.56,26.756,120,24.004,120c-13.232,0-24,10.768-24,24c0,10.416,6.712,19.216,16,22.528v50.952 c-9.288,3.304-16,12.104-16,22.52c0,13.232,10.768,24,24,24c8.888,0,16.568-4.912,20.72-12.104l43.672,7.936 C90.244,271.24,100.084,280,112.004,280c0.32,0,0.624-0.08,0.944-0.096l15.264,38.168c-4.992,4.4-8.208,10.768-8.208,17.928 c0,13.232,10.768,24,24,24c8.048,0,15.144-4.016,19.496-10.104l68.656,19.616c0.616,9.744,7.016,17.864,15.848,21.016v58.952 c-9.288,3.312-16,12.112-16,22.528c0,13.232,10.768,24,24,24s24-10.768,24-24c0-10.416-6.712-19.216-16-22.528v-58.952 c9.288-3.312,16-12.112,16-22.528c0-7.664-3.68-14.424-9.288-18.824l9.552-28.664l71.784,23.928 c0.192,10.216,6.8,18.816,15.952,22.08v82.952c-9.288,3.312-16,12.112-16,22.528c0,13.232,10.768,24,24,24s24-10.768,24-24 c0-10.416-6.712-19.216-16-22.528v-82.944c9.288-3.312,16-12.112,16-22.528c0-2.92-0.6-5.688-1.56-8.28l61.384-51.152 c3.576,2.128,7.712,3.432,12.176,3.432c13.232,0,24-10.768,24-24c0-10.416-6.712-19.216-16-22.528V174.52 C489.292,171.216,496.004,162.416,496.004,152z M408.004,64c4.408,0,8,3.584,8,8s-3.592,8-8,8c-4.408,0-8-3.584-8-8 S403.596,64,408.004,64z M396.628,93c3.4,1.856,7.24,3,11.376,3c2.752,0,5.352-0.56,7.816-1.416l35.848,44.816 c-2.28,3.672-3.664,7.96-3.664,12.6c0,1.288,0.184,2.528,0.384,3.768l-56.672,30.912l-41.272-34.392 c0.96-2.6,1.56-5.368,1.56-8.288c0-3.248-0.664-6.352-1.84-9.176L396.628,93z M296.004,224c-3.696,0-7.152,0.904-10.28,2.408 l-33.896-33.896l59.84-31.032c4.296,4.016,10.008,6.52,16.336,6.52c4.464,0,8.592-1.304,12.176-3.432l36.424,30.352 l-64.664,35.272C307.692,226.384,302.148,224,296.004,224z M304.004,248c0,4.416-3.592,8-8,8c-4.408,0-8-3.584-8-8 c0-4.416,3.592-8,8-8C300.412,240,304.004,243.584,304.004,248z M183.052,159.896l13.432,43.28l-68.144,35.336 c-2.856-2.664-6.352-4.6-10.24-5.632l-11.088-85.024l54.816-2.744C165.308,153.544,173.468,159.512,183.052,159.896z M176.004,136c0-4.416,3.592-8,8-8s8,3.584,8,8s-3.592,8-8,8S176.004,140.416,176.004,136z M201.292,218.712l20.288,65.384 l-85.624-28.544c-0.016-0.96-0.16-1.888-0.288-2.816L201.292,218.712z M201.236,164.552l23.824,23.816l-14.152,7.336 L201.236,164.552z M205.604,146.28c1.496-3.128,2.4-6.584,2.4-10.28c0-3.408-0.736-6.64-2.016-9.576l37.984-35.456l61.232,45.92 c-0.712,2.272-1.2,4.624-1.2,7.112c0,1.12,0.184,2.184,0.328,3.264l-64.376,33.376L205.604,146.28z M320.004,144 c0-4.416,3.592-8,8-8c4.408,0,8,3.584,8,8s-3.592,8-8,8C323.596,152,320.004,148.416,320.004,144z M389.828,205.936l57.32,47.768 l-124.2-11.288L389.828,205.936z M304.004,16c4.408,0,8,3.584,8,8s-3.592,8-8,8c-4.408,0-8-3.584-8-8S299.596,16,304.004,16z M293.012,45.208c3.304,1.72,7.008,2.792,10.992,2.792c6.728,0,12.792-2.8,17.16-7.272l63.056,29.104 c-0.064,0.728-0.216,1.424-0.216,2.168c0,3.256,0.664,6.352,1.84,9.184L339.38,123c-3.4-1.856-7.24-3-11.376-3 c-4.912,0-9.48,1.496-13.288,4.04l-58.864-44.152L293.012,45.208z M281.476,32c0.192,0.52,0.328,1.064,0.544,1.568l-39.176,36.56 L192.004,32H281.476z M168.004,16c4.408,0,8,3.584,8,8s-3.592,8-8,8s-8-3.584-8-8S163.596,16,168.004,16z M112.004,64 c0-0.992-0.176-1.944-0.296-2.904l39.68-19.84c4.32,4.152,10.16,6.744,16.616,6.744c4.912,0,9.48-1.496,13.288-4.04 l49.672,37.256l-35.968,33.568c-3.304-1.72-7.008-2.784-10.992-2.784c-10.832,0-19.904,7.256-22.88,17.128l-56.192,2.808 l-6.08-46.648C106.62,81.312,112.004,73.312,112.004,64z M88.004,56c4.408,0,8,3.584,8,8s-3.592,8-8,8s-8-3.584-8-8 S83.596,56,88.004,56z M80.18,86.584c0.928,0.32,1.84,0.664,2.808,0.872l5.904,45.288L46.18,134.88 c-0.504-1.224-1.152-2.368-1.848-3.488L80.18,86.584z M24.004,136c4.408,0,8,3.584,8,8s-3.592,8-8,8s-8-3.584-8-8 S19.596,136,24.004,136z M24.004,248c-4.408,0-8-3.584-8-8s3.592-8,8-8s8,3.584,8,8S28.412,248,24.004,248z M91.284,244.104 l-43.664-7.936c-1.416-8.712-7.496-15.8-15.616-18.696V166.52c7.144-2.552,12.68-8.352,14.88-15.656l44.096-2.208l11.152,85.52 C97.54,236.264,93.788,239.76,91.284,244.104z M112.004,264c-4.408,0-8-3.584-8-8c0-4.416,3.592-8,8-8s8,3.584,8,8 C120.004,260.416,116.412,264,112.004,264z M144.004,344c-4.408,0-8-3.584-8-8c0-4.416,3.592-8,8-8s8,3.584,8,8 C152.004,340.416,148.412,344,144.004,344z M236.516,354.104l-68.656-19.616C167.052,321.968,156.724,312,144.004,312 c-0.32,0-0.624,0.08-0.944,0.096l-15.264-38.168c1.112-0.984,2.12-2.056,3.04-3.224l96.592,32.2l14.264,45.952 C239.716,350.344,237.956,352.096,236.516,354.104z M256.004,480c-4.408,0-8-3.584-8-8c0-4.416,3.592-8,8-8c4.408,0,8,3.584,8,8 C264.004,476.416,260.412,480,256.004,480z M256.004,376c-4.408,0-8-3.584-8-8c0-4.416,3.592-8,8-8c4.408,0,8,3.584,8,8 C264.004,372.416,260.412,376,256.004,376z M256.276,341.888l-10.168-32.752l18.976,6.328L256.276,341.888z M270.148,300.28 l-29.872-9.96l-24.544-79.088l21.2-10.992l37.48,37.48c-1.504,3.128-2.408,6.584-2.408,10.28c0,7.664,3.68,14.432,9.296,18.824 L270.148,300.28z M376.004,480c-4.408,0-8-3.584-8-8c0-4.416,3.592-8,8-8c4.408,0,8,3.584,8,8 C384.004,476.416,380.412,480,376.004,480z M376.004,352c-4.408,0-8-3.584-8-8c0-4.416,3.592-8,8-8c4.408,0,8,3.584,8,8 C384.004,348.416,380.412,352,376.004,352z M388.18,323.424c-3.584-2.12-7.712-3.424-12.176-3.424 c-7.664,0-14.432,3.68-18.824,9.296l-71.856-23.952l11.128-33.392c9.456-0.176,17.544-5.84,21.288-13.944l131.088,11.912 c0.208,0.8,0.448,1.584,0.736,2.352L388.18,323.424z M404.94,197.688l51.128-27.888c2.296,2.064,4.976,3.664,7.944,4.72v66.952 c-1.472,0.528-2.864,1.176-4.184,1.96L404.94,197.688z M472.004,272c-4.408,0-8-3.584-8-8c0-4.416,3.592-8,8-8 c4.408,0,8,3.584,8,8C480.004,268.416,476.412,272,472.004,272z M472.004,160c-4.408,0-8-3.584-8-8s3.592-8,8-8 c4.408,0,8,3.584,8,8S476.412,160,472.004,160z"/><rect x="16.004" width="16" height="16"/><rect x="16.004" y="32" width="16" height="16"/><rect x="32.004" y="16" width="16" height="16"/><rect x="0.004" y="16" width="16" height="16"/><rect x="416.004" y="368" width="16" height="16"/><rect x="416.004" y="400" width="16" height="16"/><rect x="432.004" y="384" width="16" height="16"/><rect x="400.004" y="384" width="16" height="16"/><rect x="464.004" y="32" width="16" height="16"/><rect x="464.004" y="64" width="16" height="16"/><rect x="480.004" y="48" width="16" height="16"/><rect x="448.004" y="48" width="16" height="16"/><rect x="96.004" y="384" width="16" height="16"/><rect x="96.004" y="416" width="16" height="16"/><rect x="112.004" y="400" width="16" height="16"/><rect x="80.004" y="400" width="16" height="16"/><rect x="48.004" y="296" width="16" height="16"/><rect x="48.004" y="328" width="16" height="16"/><rect x="64.004" y="312" width="16" height="16"/><rect x="32.004" y="312" width="16" height="16"/></symbol><symbol id="axis-cat" viewBox="0 0 470 470"><title>axis-cat</title><path d="m462.5,197.5c4.143,0 7.5-3.358 7.5-7.5s-3.357-7.5-7.5-7.5c-96.495,0-175-78.505-175-175 0-4.142-3.357-7.5-7.5-7.5s-7.5,3.358-7.5,7.5c0,104.767 85.233,190 190,190z"/><path d="m7.5,272.5c-4.143,0-7.5,3.358-7.5,7.5s3.357,7.5 7.5,7.5c96.495,0 175,78.505 175,175 0,4.142 3.357,7.5 7.5,7.5s7.5-3.358 7.5-7.5c0-104.767-85.233-190-190-190z"/><path d="M250,318.333c4.143,0,7.5-3.358,7.5-7.5s-3.357-7.5-7.5-7.5h-7.5V166.667h7.5c4.143,0,7.5-3.358,7.5-7.5 s-3.357-7.5-7.5-7.5h-7.5V90.833h7.5c4.143,0,7.5-3.358,7.5-7.5s-3.357-7.5-7.5-7.5h-7.5V15h7.5c4.143,0,7.5-3.358,7.5-7.5 S254.143,0,250,0h-30c-4.143,0-7.5,3.358-7.5,7.5s3.357,7.5,7.5,7.5h7.5v60.833H220c-4.143,0-7.5,3.358-7.5,7.5s3.357,7.5,7.5,7.5 h7.5v60.833H220c-4.143,0-7.5,3.358-7.5,7.5s3.357,7.5,7.5,7.5h7.5V227.5h-60.833V220c0-4.142-3.357-7.5-7.5-7.5 s-7.5,3.358-7.5,7.5v7.5H90.833V220c0-4.142-3.357-7.5-7.5-7.5s-7.5,3.358-7.5,7.5v7.5H15V220c0-4.142-3.357-7.5-7.5-7.5 S0,215.858,0,220v30c0,4.142,3.357,7.5,7.5,7.5s7.5-3.358,7.5-7.5v-7.5h60.833v7.5c0,4.142,3.357,7.5,7.5,7.5s7.5-3.358,7.5-7.5 v-7.5h60.834v7.5c0,4.142,3.357,7.5,7.5,7.5s7.5-3.358,7.5-7.5v-7.5H227.5v60.833H220c-4.143,0-7.5,3.358-7.5,7.5 s3.357,7.5,7.5,7.5h7.5v60.833H220c-4.143,0-7.5,3.358-7.5,7.5s3.357,7.5,7.5,7.5h7.5V455H220c-4.143,0-7.5,3.358-7.5,7.5 s3.357,7.5,7.5,7.5h30c4.143,0,7.5-3.358,7.5-7.5s-3.357-7.5-7.5-7.5h-7.5v-60.833h7.5c4.143,0,7.5-3.358,7.5-7.5 s-3.357-7.5-7.5-7.5h-7.5v-60.833H250z"/><path d="m462.5,212.5c-4.143,0-7.5,3.358-7.5,7.5v7.5h-60.833v-7.5c0-4.142-3.357-7.5-7.5-7.5s-7.5,3.358-7.5,7.5v7.5h-60.834v-7.5c0-4.142-3.357-7.5-7.5-7.5s-7.5,3.358-7.5,7.5v7.5h-38.333c-4.143,0-7.5,3.358-7.5,7.5s3.357,7.5 7.5,7.5h38.333v7.5c0,4.142 3.357,7.5 7.5,7.5s7.5-3.358 7.5-7.5v-7.5h60.834v7.5c0,4.142 3.357,7.5 7.5,7.5s7.5-3.358 7.5-7.5v-7.5h60.833v7.5c0,4.142 3.357,7.5 7.5,7.5s7.5-3.358 7.5-7.5v-30c0-4.142-3.357-7.5-7.5-7.5z"/></symbol><symbol id="engineer-cat" viewBox="0 0 496 496"><title>engineer-cat</title><path d="M312,416c13.232,0,24-10.768,24-24s-10.768-24-24-24c-10.416,0-19.216,6.712-22.528,16H256v-48h33.472 c3.312,9.288,12.112,16,22.528,16c13.232,0,24-10.768,24-24s-10.768-24-24-24c-10.416,0-19.216,6.712-22.528,16H256v-48h33.472 c3.312,9.288,12.112,16,22.528,16c13.232,0,24-10.768,24-24s-10.768-24-24-24c-10.416,0-19.216,6.712-22.528,16H256v-16h-16 v-33.472c9.288-3.312,16-12.112,16-22.528c0-13.232-10.768-24-24-24s-24,10.768-24,24c0,10.416,6.712,19.216,16,22.528V240h-48 v-33.472c9.288-3.312,16-12.112,16-22.528c0-13.232-10.768-24-24-24s-24,10.768-24,24c0,10.416,6.712,19.216,16,22.528V240h-48 v-33.472c9.288-3.312,16-12.112,16-22.528c0-13.232-10.768-24-24-24s-24,10.768-24,24c0,10.416,6.712,19.216,16,22.528V240H80v16 H46.528c-3.312-9.288-12.112-16-22.528-16c-13.232,0-24,10.768-24,24s10.768,24,24,24c10.416,0,19.216-6.712,22.528-16H80v48 H46.528c-3.312-9.288-12.112-16-22.528-16c-13.232,0-24,10.768-24,24s10.768,24,24,24c10.416,0,19.216-6.712,22.528-16H80v48 H46.528c-3.312-9.288-12.112-16-22.528-16c-13.232,0-24,10.768-24,24s10.768,24,24,24c10.416,0,19.216-6.712,22.528-16H80v16h16 v33.472c-9.288,3.312-16,12.112-16,22.528c0,13.232,10.768,24,24,24s24-10.768,24-24c0-10.416-6.712-19.216-16-22.528V416h48 v33.472c-9.288,3.312-16,12.112-16,22.528c0,13.232,10.768,24,24,24s24-10.768,24-24c0-10.416-6.712-19.216-16-22.528V416h48 v33.472c-9.288,3.312-16,12.112-16,22.528c0,13.232,10.768,24,24,24s24-10.768,24-24c0-10.416-6.712-19.216-16-22.528V416h16v-16 h33.472C292.784,409.288,301.584,416,312,416z M312,384c4.416,0,8,3.584,8,8c0,4.416-3.584,8-8,8c-4.416,0-8-3.584-8-8 C304,387.584,307.584,384,312,384z M312,320c4.416,0,8,3.584,8,8c0,4.416-3.584,8-8,8c-4.416,0-8-3.584-8-8 C304,323.584,307.584,320,312,320z M312,256c4.416,0,8,3.584,8,8c0,4.416-3.584,8-8,8c-4.416,0-8-3.584-8-8 C304,259.584,307.584,256,312,256z M24,272c-4.416,0-8-3.584-8-8c0-4.416,3.584-8,8-8s8,3.584,8,8C32,268.416,28.416,272,24,272z M24,336c-4.416,0-8-3.584-8-8c0-4.416,3.584-8,8-8s8,3.584,8,8C32,332.416,28.416,336,24,336z M24,400c-4.416,0-8-3.584-8-8 c0-4.416,3.584-8,8-8s8,3.584,8,8C32,396.416,28.416,400,24,400z M232,176c4.416,0,8,3.592,8,8s-3.584,8-8,8s-8-3.592-8-8 S227.584,176,232,176z M168,176c4.416,0,8,3.592,8,8s-3.584,8-8,8s-8-3.592-8-8S163.584,176,168,176z M104,176 c4.416,0,8,3.592,8,8s-3.584,8-8,8s-8-3.592-8-8S99.584,176,104,176z M104,480c-4.416,0-8-3.584-8-8c0-4.416,3.584-8,8-8 s8,3.584,8,8C112,476.416,108.416,480,104,480z M168,480c-4.416,0-8-3.584-8-8c0-4.416,3.584-8,8-8s8,3.584,8,8 C176,476.416,172.416,480,168,480z M232,480c-4.416,0-8-3.584-8-8c0-4.416,3.584-8,8-8s8,3.584,8,8 C240,476.416,236.416,480,232,480z M240,400H96V256h144V400z"/><path d="M459.96,127.992V128c-2.984-11.568-7.576-22.624-13.712-32.992l25.512-25.52L426.504,24.24l-25.52,25.52 C390.616,43.616,379.568,39.024,368,36.04V0h-64v36.04c-11.568,2.984-22.616,7.576-32.984,13.712l-25.52-25.52L200.24,69.48 L225.752,95c-6.136,10.368-10.728,21.424-13.712,32.992H184v16h40.944l1.304-6.408c2.84-14.008,8.336-27.232,16.336-39.32 l3.608-5.448L222.856,69.48l22.632-22.624l23.336,23.336l5.448-3.608c12.08-8,25.304-13.496,39.32-16.336L320,48.952V16h32 v32.952l6.408,1.304c14.016,2.84,27.24,8.336,39.32,16.336l5.448,3.608l23.336-23.336l22.632,22.624l-23.336,23.336l3.608,5.448 c8,12.088,13.496,25.312,16.336,39.32l1.304,6.408H480v32h-32.944l-1.304,6.408c-2.84,14.008-8.336,27.232-16.336,39.312 l-3.608,5.456l23.336,23.336l-22.632,22.632l-23.336-23.336l-5.448,3.608c-12.088,8-25.312,13.504-39.32,16.336L352,271.056V312 h16v-28.04c11.56-2.976,22.616-7.568,32.984-13.712l25.52,25.512l45.256-45.256l-25.512-25.52 c6.136-10.368,10.728-21.424,13.712-32.992H496v-64H459.96z"/><path d="M336,224v16c44.112,0,80-35.888,80-80s-35.888-80-80-80s-80,35.888-80,80h16c0-35.288,28.712-64,64-64 c35.288,0,64,28.712,64,64C400,195.288,371.288,224,336,224z"/><rect x="112" y="272" width="112" height="16"/><rect x="208" y="368" width="16" height="16"/><rect x="112" y="368" width="80" height="16"/><path d="M294.408,475.344l3.184,15.688c97.68-19.832,173.608-95.76,193.44-193.44l-15.688-3.184 C456.808,385.784,385.784,456.808,294.408,475.344z"/><path d="M201.592,20.648l-3.184-15.68C100.728,24.8,24.8,100.728,4.968,198.408l15.688,3.176 C39.192,110.224,110.216,39.192,201.592,20.648z"/></symbol><symbol id="engineering-cat" viewBox="0 0 448.992 448.992"><title>engineering-cat</title><path d="M144.953,228.698c-1.573-1.573-3.939-2.044-5.994-1.192c-2.055,0.851-3.395,2.857-3.395,5.081v97.609 c0,3.038,2.462,5.5,5.5,5.5h97.608c2.225,0,4.23-1.34,5.082-3.395c0.851-2.055,0.38-4.421-1.192-5.994L144.953,228.698z M146.564,324.696v-78.831l78.83,78.831H146.564z"/><path d="M422.521,33.882L393.924,5.285c-2.148-2.148-5.63-2.147-7.778,0L220.874,170.557c-0.529,0.529-0.944,1.16-1.221,1.854 l-18.116,45.488L128.639,145l13.082-13.081c2.148-2.148,2.148-5.63,0-7.778c-2.148-2.148-5.63-2.148-7.778,0l-13.082,13.081 l-21.944-21.944V5.5c0-3.038-2.462-5.5-5.5-5.5H30.361c-3.038,0-5.5,2.462-5.5,5.5v437.992c0,3.038,2.462,5.5,5.5,5.5h63.056 c3.038,0,5.5-2.462,5.5-5.5v-60.149h252.509l15.36,15.36c1.074,1.074,2.481,1.611,3.889,1.611s2.815-0.537,3.889-1.611 c2.148-2.148,2.148-5.63,0-7.778L209.907,226.268l45.488-18.116c0.694-0.277,1.325-0.692,1.854-1.22L422.521,41.66 c1.031-1.031,1.611-2.43,1.611-3.889S423.552,34.913,422.521,33.882z M87.916,437.992H35.861v-9.787h9.447 c3.038,0,5.5-2.462,5.5-5.5s-2.462-5.5-5.5-5.5h-9.447v-17.316h9.447c3.038,0,5.5-2.462,5.5-5.5s-2.462-5.5-5.5-5.5h-9.447v-17.315 h9.447c3.038,0,5.5-2.462,5.5-5.5s-2.462-5.5-5.5-5.5h-9.447v-17.316h9.447c3.038,0,5.5-2.462,5.5-5.5s-2.462-5.5-5.5-5.5h-9.447 v-17.315h9.447c3.038,0,5.5-2.462,5.5-5.5s-2.462-5.5-5.5-5.5h-9.447v-17.316h9.447c3.038,0,5.5-2.462,5.5-5.5s-2.462-5.5-5.5-5.5 h-9.447v-17.315h9.447c3.038,0,5.5-2.462,5.5-5.5s-2.462-5.5-5.5-5.5h-9.447v-17.316h9.447c3.038,0,5.5-2.462,5.5-5.5 s-2.462-5.5-5.5-5.5h-9.447v-17.315h9.447c3.038,0,5.5-2.462,5.5-5.5s-2.462-5.5-5.5-5.5h-9.447v-17.316h9.447 c3.038,0,5.5-2.462,5.5-5.5s-2.462-5.5-5.5-5.5h-9.447V145.05h9.447c3.038,0,5.5-2.462,5.5-5.5s-2.462-5.5-5.5-5.5h-9.447v-17.316 h9.447c3.038,0,5.5-2.462,5.5-5.5s-2.462-5.5-5.5-5.5h-9.447V88.418h9.447c3.038,0,5.5-2.462,5.5-5.5s-2.462-5.5-5.5-5.5h-9.447 V60.103h9.447c3.038,0,5.5-2.462,5.5-5.5s-2.462-5.5-5.5-5.5h-9.447V31.787h9.447c3.038,0,5.5-2.462,5.5-5.5s-2.462-5.5-5.5-5.5 h-9.447V11h52.056V437.992z M98.916,372.343v-241.51l26.766,26.766l-15.649,15.649c-2.148,2.148-2.148,5.63,0,7.778 c1.074,1.074,2.481,1.611,3.889,1.611s2.815-0.537,3.889-1.611l15.649-15.649l12.244,12.244l-15.649,15.649 c-2.148,2.148-2.148,5.63,0,7.778c1.074,1.074,2.481,1.611,3.889,1.611s2.815-0.537,3.889-1.611l15.649-15.649l12.244,12.244 l-15.649,15.649c-2.148,2.148-2.148,5.63,0,7.778c1.074,1.074,2.481,1.611,3.889,1.611s2.815-0.537,3.889-1.611l15.649-15.649 l12.244,12.244l-15.649,15.649c-2.148,2.148-2.148,5.63,0,7.778c1.074,1.074,2.481,1.611,3.889,1.611s2.815-0.537,3.889-1.611 l15.649-15.649l12.244,12.244l-15.649,15.649c-2.148,2.148-2.148,5.63,0,7.778c1.074,1.074,2.481,1.611,3.889,1.611 s2.815-0.537,3.889-1.611l15.649-15.649l12.244,12.244l-15.649,15.649c-2.148,2.148-2.148,5.63,0,7.778 c1.074,1.074,2.481,1.611,3.889,1.611s2.815-0.537,3.889-1.611l15.649-15.649l12.244,12.244l-15.649,15.649 c-2.148,2.148-2.148,5.63,0,7.778c1.074,1.074,2.481,1.611,3.889,1.611s2.815-0.537,3.889-1.611l15.649-15.649l12.244,12.244 l-15.649,15.649c-2.148,2.148-2.148,5.63,0,7.778c1.074,1.074,2.481,1.611,3.889,1.611c1.407,0,2.815-0.537,3.889-1.611 l15.649-15.649l12.244,12.244l-15.649,15.649c-2.148,2.148-2.148,5.63,0,7.778c1.074,1.074,2.481,1.611,3.889,1.611 s2.815-0.537,3.889-1.611l15.649-15.649l12.244,12.244l-15.649,15.649c-2.148,2.148-2.148,5.63,0,7.778 c1.074,1.074,2.481,1.611,3.889,1.611s2.815-0.537,3.889-1.611l15.649-15.649l26.766,26.766H98.916z M246.84,188.744 L383.599,51.985l6.52,6.52L253.36,195.264L246.84,188.744z M239.062,180.966l-6.52-6.52L369.301,37.687l6.52,6.52L239.062,180.966z M226.782,184.243l16.781,16.781l-27.888,11.107L226.782,184.243z M397.898,50.727l-20.818-20.818l12.956-12.956l20.818,20.818 L397.898,50.727z"/><path d="M387.999,404.36c-2.148-2.148-5.63-2.148-7.778,0s-2.148,5.63,0,7.778l16.97,16.97c1.074,1.074,2.481,1.611,3.889,1.611 c1.407,0,2.815-0.537,3.889-1.611c2.148-2.148,2.148-5.63,0-7.778L387.999,404.36z"/><path d="M418.403,434.764c-2.148-2.147-5.63-2.146-7.778,0.003c-2.147,2.149-2.146,5.631,0.003,7.778l0.346,0.345 c1.074,1.073,2.48,1.61,3.888,1.61c1.408,0,2.816-0.538,3.891-1.612c2.147-2.149,2.146-5.631-0.003-7.778L418.403,434.764z"/><path d="M242.483,28.878c1.408,0,2.816-0.537,3.89-1.612l0.877-0.877c2.147-2.148,2.147-5.631-0.001-7.778 c-2.148-2.148-5.631-2.147-7.778,0.001l-0.877,0.878c-2.147,2.148-2.147,5.63,0.001,7.778 C239.669,28.341,241.076,28.878,242.483,28.878z"/><path d="M212.077,59.283c1.407,0,2.815-0.537,3.889-1.611l16.971-16.97c2.148-2.148,2.148-5.63,0-7.778 c-2.148-2.147-5.63-2.148-7.778,0l-16.971,16.97c-2.148,2.148-2.148,5.63,0,7.778C209.262,58.746,210.67,59.283,212.077,59.283z"/><path d="M181.672,89.689c1.407,0,2.815-0.537,3.889-1.611l16.971-16.97c2.148-2.148,2.148-5.63,0-7.778 c-2.148-2.148-5.63-2.148-7.778,0L177.782,80.3c-2.148,2.148-2.148,5.63,0,7.778C178.857,89.152,180.264,89.689,181.672,89.689z"/><path d="M151.266,120.094c1.408,0,2.815-0.537,3.889-1.611l16.97-16.97c2.148-2.148,2.148-5.63,0-7.778 c-2.148-2.148-5.631-2.147-7.778,0l-16.97,16.971c-2.148,2.148-2.148,5.63,0,7.778 C148.451,119.558,149.859,120.094,151.266,120.094z"/></symbol><symbol id="artificial-intelligence-cat" viewBox="0 0 496 496"><title>artificial-intelligence-cat</title><path d="M40,449.472V364.28L58.424,352H88v-16H53.576L24,355.72v93.752C14.704,452.784,8,461.584,8,472c0,13.232,10.768,24,24,24 s24-10.768,24-24C56,461.584,49.288,452.784,40,449.472z M32,480c-4.416,0-8-3.584-8-8c0-4.416,3.584-8,8-8s8,3.584,8,8 C40,476.416,36.416,480,32,480z"/><path d="M46.528,320H88v-16H46.528c-3.312-9.288-12.112-16-22.528-16c-13.232,0-24,10.768-24,24s10.768,24,24,24 C34.416,336,43.216,329.288,46.528,320z M16,312c0-4.416,3.584-8,8-8s8,3.584,8,8c0,4.416-3.584,8-8,8S16,316.416,16,312z"/><path d="M24,272c10.416,0,19.216-6.712,22.528-16H88v-16H46.528c-3.312-9.296-12.112-16-22.528-16c-13.232,0-24,10.768-24,24 S10.768,272,24,272z M24,240c4.416,0,8,3.584,8,8s-3.584,8-8,8s-8-3.584-8-8C16,243.584,19.584,240,24,240z"/><rect x="56" y="272" width="32" height="16"/><rect x="56" y="208" width="32" height="16"/><rect y="176" width="88" height="16"/><path d="M60.688,160H88v-16H67.312L48,124.688v-14.16C57.288,107.216,64,98.416,64,88c0-13.232-10.768-24-24-24S16,74.768,16,88 c0,10.416,6.704,19.216,16,22.528v20.784L60.688,160z M40,80c4.416,0,8,3.584,8,8s-3.584,8-8,8s-8-3.584-8-8S35.584,80,40,80z"/><polygon points="144,67.312 144,88 160,88 160,60.688 131.312,32 0,32 0,48 124.688,48 "/><polygon points="176,35.312 176,88 192,88 192,28.688 163.312,0 0,0 0,16 156.688,16 "/><rect x="208" y="56" width="16" height="32"/><rect x="304" width="16" height="88"/><path d="M240,46.528V88h16V59.312l16,16V88h16V68.688L262.392,43.08C268.192,38.696,272,31.816,272,24c0-13.232-10.768-24-24-24 s-24,10.768-24,24C224,34.416,230.704,43.216,240,46.528z M248,16c4.416,0,8,3.584,8,8s-3.584,8-8,8s-8-3.584-8-8 S243.584,16,248,16z"/><path d="M352,51.312L371.312,32h78.16c2.416,6.776,7.752,12.112,14.528,14.528v110.16L444.688,176H408v16h43.312L480,163.312 V46.528c9.288-3.312,16-12.112,16-22.528c0-13.232-10.768-24-24-24c-10.416,0-19.216,6.712-22.528,16h-84.784L336,44.688V88h16 V51.312z M472,16c4.416,0,8,3.584,8,8s-3.584,8-8,8c-4.416,0-8-3.584-8-8S467.584,16,472,16z"/><path d="M414.08,97.392l17.92,17.92v9.376L412.688,144H408v16h11.312L448,131.312v-22.624L419.312,80h-4.784 c-3.312-9.288-12.112-16-22.528-16c-13.232,0-24,10.768-24,24s10.768,24,24,24C401.904,112,410.416,105.968,414.08,97.392z M392,96c-4.416,0-8-3.584-8-8s3.584-8,8-8c4.416,0,8,3.584,8,8S396.416,96,392,96z"/><rect x="408" y="208" width="88" height="16"/><path d="M480,449.472V268.688L451.312,240H408v16h36.688L464,275.312v41.376L451.312,304H408v16h36.688L464,339.312v110.16 c-9.296,3.312-16,12.112-16,22.528c0,13.232,10.768,24,24,24s24-10.768,24-24C496,461.584,489.288,452.784,480,449.472z M472,480 c-4.416,0-8-3.584-8-8c0-4.416,3.584-8,8-8c4.416,0,8,3.584,8,8C480,476.416,476.416,480,472,480z"/><rect x="408" y="272" width="32" height="16"/><path d="M448,364.688L419.312,336H408v16h4.688L432,371.312V416h-80v-8h-16v24h96v12.688L412.688,464h-14.16 c-3.312-9.288-12.112-16-22.528-16c-13.232,0-24,10.768-24,24s10.768,24,24,24c10.416,0,19.216-6.712,22.528-16h20.784 L448,451.312V364.688z M376,480c-4.416,0-8-3.584-8-8c0-4.416,3.584-8,8-8c4.416,0,8,3.584,8,8C384,476.416,380.416,480,376,480z "/><path d="M160,408h-16v8h-41.472c-3.312-9.288-12.112-16-22.528-16c-13.232,0-24,10.768-24,24s10.768,24,24,24 c10.416,0,19.216-6.712,22.528-16H160V408z M80,432c-4.416,0-8-3.584-8-8c0-4.416,3.584-8,8-8s8,3.584,8,8 C88,428.416,84.416,432,80,432z"/><rect x="304" y="408" width="16" height="88"/><rect x="272" y="408" width="16" height="88"/><path d="M240,420.688l-16,16V408h-16v41.472c-9.296,3.312-16,12.112-16,22.528c0,13.232,10.768,24,24,24s24-10.768,24-24 c0-7.816-3.808-14.696-9.608-19.08L256,427.312V408h-16V420.688z M216,480c-4.416,0-8-3.584-8-8c0-4.416,3.584-8,8-8s8,3.584,8,8 C224,476.416,220.416,480,216,480z"/><polygon points="192,408 176,408 176,428.688 152,452.688 152,496 168,496 168,459.312 192,435.312 "/><path d="M336,392h16v-16h24v-24h16v-16h-16v-16h16v-16h-16v-16h16v-16h-16v-16h16v-16h-16v-16h16v-16h-16v-16h16v-16h-16v-16h16 v-16h-16v-24h-24v-16h-16v16h-16v-16h-16v16h-16v-16h-16v16h-16v-16h-16v16h-16v-16h-16v16h-16v-16h-16v16h-16v-16h-16v16h-3.312 L120,140.688V144h-16v16h16v16h-16v16h16v16h-16v16h16v16h-16v16h16v16h-16v16h16v16h-16v16h16v16h-16v16h16v24h24v16h16v-16h16 v16h16v-16h16v16h16v-16h16v16h16v-16h16v16h16v-16h16v16h16v-16h16V392z M136,360V147.312L147.312,136H360v224H136z"/><path d="M318.888,211.048l13.96-13.96l-33.936-33.936l-13.96,13.96c-4.16-2.184-8.488-3.976-12.952-5.384V152h-48v19.728 c-4.472,1.408-8.8,3.2-12.952,5.384l-13.96-13.96l-33.936,33.936l13.96,13.96c-2.176,4.16-3.976,8.488-5.384,12.952H152v48 h19.728c1.408,4.472,3.2,8.8,5.384,12.952l-13.96,13.96l33.936,33.936l13.96-13.96c4.16,2.176,8.48,3.976,12.952,5.384V344h48 v-19.728c4.472-1.408,8.8-3.2,12.952-5.384l13.96,13.96l33.936-33.936l-13.96-13.96c2.176-4.152,3.976-8.48,5.384-12.952H344v-48 h-19.728C322.864,219.528,321.072,215.2,318.888,211.048z M328,256h-16.224l-1.416,6.224c-1.6,7.016-4.368,13.672-8.216,19.792 l-3.408,5.408l11.496,11.496l-11.312,11.312l-11.496-11.496l-5.408,3.408c-6.12,3.848-12.776,6.616-19.792,8.216L256,311.776V328 h-16v-16.224l-6.224-1.416c-7.016-1.6-13.672-4.368-19.792-8.216l-5.408-3.408l-11.496,11.496l-11.312-11.312l11.496-11.496 l-3.408-5.408c-3.848-6.12-6.616-12.776-8.216-19.792L184.224,256H168v-16h16.224l1.416-6.224 c1.6-7.016,4.368-13.672,8.216-19.792l3.408-5.408l-11.496-11.496l11.312-11.312l11.496,11.488l5.408-3.408 c6.12-3.848,12.776-6.616,19.792-8.216l6.224-1.408V168h16v16.224l6.224,1.416c7.016,1.6,13.672,4.368,19.792,8.216l5.408,3.408 l11.496-11.488l11.312,11.312l-11.496,11.496l3.408,5.408c3.848,6.12,6.616,12.776,8.216,19.792l1.416,6.216H328V256z"/><path d="M248,208c-22.056,0-40,17.944-40,40c0,22.056,17.944,40,40,40c22.056,0,40-17.944,40-40C288,225.944,270.056,208,248,208 z M248,272c-13.232,0-24-10.768-24-24s10.768-24,24-24s24,10.768,24,24S261.232,272,248,272z"/></symbol></svg>